<svg width="1056" height="384" xmlns="http://www.w3.org/2000/svg" xmlns:xlink="http://www.w3.org/1999/xlink" overflow="hidden"><defs><clipPath id="clip0"><rect x="0" y="0" width="1056" height="384"/></clipPath></defs><g clip-path="url(#clip0)"><rect x="0" y="0" width="1056" height="384" fill="#FFFFFF"/><text fill="#FFFFFF" font-family="Arial,Arial_MSFontService,sans-serif" font-weight="700" font-size="37" transform="translate(121.327 203)">Example of CRIPT Data Schema</text><path d="M147 159 207.657 159 207.657 162 147 162ZM148.5 165 139.5 160.5 148.5 156Z"/><path d="M207 147.5C207 143.91 209.91 141 213.5 141L344.5 141C348.09 141 351 143.91 351 147.5L351 173.5C351 177.09 348.09 180 344.5 180L213.5 180C209.91 180 207 177.09 207 173.5Z" stroke="#000000" stroke-width="2" stroke-miterlimit="8" fill="#FFC000" fill-rule="evenodd"/><text fill="#FFFFFF" font-family="Arial,Arial_MSFontService,sans-serif" font-weight="700" font-size="16" transform="translate(222.285 167)">Polymerization </text><path d="M43 89.3334C43 85.8356 45.8356 83 49.3334 83L132.667 83C136.164 83 139 85.8356 139 89.3334L139 114.667C139 118.164 136.164 121 132.667 121L49.3334 121C45.8356 121 43 118.164 43 114.667Z" stroke="#000000" stroke-width="2" stroke-miterlimit="8" fill="#0A24CC" fill-rule="evenodd"/><text fill="#FFFFFF" font-family="Arial,Arial_MSFontService,sans-serif" font-weight="700" font-size="16" transform="translate(68.6767 108)">sBuLi</text><path d="M43 147.5C43 143.91 45.9102 141 49.5002 141L132.5 141C136.09 141 139 143.91 139 147.5L139 173.5C139 177.09 136.09 180 132.5 180L49.5002 180C45.9102 180 43 177.09 43 173.5Z" stroke="#000000" stroke-width="2" stroke-miterlimit="8" fill="#0A24CC" fill-rule="evenodd"/><text fill="#FFFFFF" font-family="Arial,Arial_MSFontService,sans-serif" font-weight="700" font-size="16" transform="translate(61.6767 167)">Styrene</text><path d="M43 206.333C43 202.836 45.8356 200 49.3334 200L132.667 200C136.164 200 139 202.836 139 206.333L139 231.667C139 235.164 136.164 238 132.667 238L49.3334 238C45.8356 238 43 235.164 43 231.667Z" stroke="#000000" stroke-width="2" stroke-miterlimit="8" fill="#0A24CC" fill-rule="evenodd"/><text fill="#FFFFFF" font-family="Arial,Arial_MSFontService,sans-serif" font-weight="700" font-size="16" transform="translate(60.77 225)">Toluene</text><path d="M419 147.5C419 143.91 421.91 141 425.5 141L527.5 141C531.09 141 534 143.91 534 147.5L534 173.5C534 177.09 531.09 180 527.5 180L425.5 180C421.91 180 419 177.09 419 173.5Z" stroke="#000000" stroke-width="2" stroke-miterlimit="8" fill="#0A24CC" fill-rule="evenodd"/><text fill="#FFFFFF" font-family="Arial,Arial_MSFontService,sans-serif" font-weight="700" font-size="16" transform="translate(431.523 167)">Polystyrene</text><path d="M602 147.5C602 143.91 604.91 141 608.5 141L739.5 141C743.09 141 746 143.91 746 147.5L746 173.5C746 177.09 743.09 180 739.5 180L608.5 180C604.91 180 602 177.09 602 173.5Z" stroke="#000000" stroke-width="2" stroke-miterlimit="8" fill="#FFC000" fill-rule="evenodd"/><text fill="#FFFFFF" font-family="Arial,Arial_MSFontService,sans-serif" font-weight="700" font-size="16" transform="translate(617.428 167)">Polymerization </text><path d="M815 147.5C815 143.91 817.91 141 821.5 141L922.5 141C926.09 141 929 143.91 929 147.5L929 173.5C929 177.09 926.09 180 922.5 180L821.5 180C817.91 180 815 177.09 815 173.5Z" stroke="#000000" stroke-width="2" stroke-miterlimit="8" fill="#0A24CC" fill-rule="evenodd"/><text fill="#FFFFFF" font-family="Arial,Arial_MSFontService,sans-serif" font-weight="700" font-size="16" transform="translate(841.666 167)">PS<tspan font-size="16" x="21.3333" y="0">-</tspan><tspan font-size="16" x="26.6667" y="0">PEO</tspan></text><path d="M6.66528 3.75145 69.1349 57.4502 67.1793 59.7252 4.70969 6.02645ZM3.89163 9.27929 0 0 9.75841 2.45427Z" transform="matrix(1 0 0 -1 139.5 219.088)"/><path d="M146.175 106.234 208.632 159.646 206.682 161.926 144.225 108.514ZM143.415 111.769 139.5 102.5 149.265 104.929Z"/><path d="M351.5 159 412.157 159 412.157 162 351.5 162ZM410.657 156 419.657 160.5 410.657 165Z"/><path d="M2.31055e-06-1.5 60.6571-1.49991 60.6571 1.50009-2.31055e-06 1.5ZM59.1571-4.49991 68.1571 0.000104987 59.1571 4.50009Z" transform="matrix(-1 0 0 1 602.657 160.5)"/><path d="M746.5 159 807.157 159 807.157 162 746.5 162ZM805.657 156 814.657 160.5 805.657 165Z"/><path d="M622 68.5001C622 64.9102 624.91 62 628.5 62L718.5 62C722.09 62 725 64.9102 725 68.5001L725 94.4999C725 98.0898 722.09 101 718.5 101L628.5 101C624.91 101 622 98.0898 622 94.4999Z" stroke="#000000" stroke-width="2" stroke-miterlimit="8" fill="#0A24CC" fill-rule="evenodd"/><text fill="#FFFFFF" font-family="Arial,Arial_MSFontService,sans-serif" font-weight="700" font-size="16" transform="translate(635.07 88)">Butadiene</text><path d="M231 214.5C231 210.91 233.91 208 237.5 208L320.5 208C324.09 208 327 210.91 327 214.5L327 240.5C327 244.09 324.09 247 320.5 247L237.5 247C233.91 247 231 244.09 231 240.5Z" stroke="#000000" stroke-width="2" stroke-miterlimit="8" fill="#067F10" fill-rule="evenodd"/><text fill="#FFFFFF" font-family="Arial,Arial_MSFontService,sans-serif" font-weight="700" font-size="16" transform="translate(248.118 234)">Kinetics </text><path d="M371 215.333C371 211.836 373.836 209 377.333 209L460.667 209C464.164 209 467 211.836 467 215.333L467 240.667C467 244.164 464.164 247 460.667 247L377.333 247C373.836 247 371 244.164 371 240.667Z" stroke="#000000" stroke-width="2" stroke-miterlimit="8" fill="#067F10" fill-rule="evenodd"/><text fill="#FFFFFF" font-family="Arial,Arial_MSFontService,sans-serif" font-weight="700" font-size="16" transform="translate(403.06 234)">SEC </text><path d="M482 214.5C482 210.91 484.91 208 488.5 208L571.5 208C575.09 208 578 210.91 578 214.5L578 240.5C578 244.09 575.09 247 571.5 247L488.5 247C484.91 247 482 244.09 482 240.5Z" stroke="#000000" stroke-width="2" stroke-miterlimit="8" fill="#067F10" fill-rule="evenodd"/><text fill="#FFFFFF" font-family="Arial,Arial_MSFontService,sans-serif" font-weight="700" font-size="16" transform="translate(511.935 234)">NMR </text><path d="M814 221.5C814 217.91 816.91 215 820.5 215L922.5 215C926.09 215 929 217.91 929 221.5L929 247.5C929 251.09 926.09 254 922.5 254L820.5 254C816.91 254 814 251.09 814 247.5Z" stroke="#000000" stroke-width="2" stroke-miterlimit="8" fill="#9A3333" fill-rule="evenodd"/><text fill="#FFFFFF" font-family="Arial,Arial_MSFontService,sans-serif" font-weight="700" font-size="16" transform="translate(834.119 241)">Hot Press</text><path d="M771 63.3334C771 59.8356 773.836 57 777.333 57L860.667 57C864.164 57 867 59.8356 867 63.3334L867 88.6666C867 92.1644 864.164 95 860.667 95L777.333 95C773.836 95 771 92.1644 771 88.6666Z" stroke="#000000" stroke-width="2" stroke-miterlimit="8" fill="#067F10" fill-rule="evenodd"/><text fill="#FFFFFF" font-family="Arial,Arial_MSFontService,sans-serif" font-weight="700" font-size="16" transform="translate(802.171 82)">SEC </text><path d="M881 62.5002C881 58.9102 883.91 56 887.5 56L970.5 56C974.09 56 977 58.9102 977 62.5002L977 88.4998C977 92.0898 974.09 95 970.5 95L887.5 95C883.91 95 881 92.0898 881 88.4998Z" stroke="#000000" stroke-width="2" stroke-miterlimit="8" fill="#067F10" fill-rule="evenodd"/><text fill="#FFFFFF" font-family="Arial,Arial_MSFontService,sans-serif" font-weight="700" font-size="16" transform="translate(911.046 82)">NMR </text><path d="M478.212 179.18 524.938 204.366 523.515 207.007 476.788 181.82ZM525.041 201.013 530.828 209.245 520.771 208.936Z"/><path d="M0.678758-1.33764 51.2871 24.3425 49.9296 27.0178-0.678758 1.33764ZM51.307 20.9884 57.2966 29.0739 47.2345 29.0143Z" transform="matrix(-1 0 0 1 476.797 180.5)"/><path d="M1.5-5.47855e-06 1.50008 21.2449-1.49992 21.2449-1.5 5.47855e-06ZM4.50007 19.7449 0.000104987 28.7449-4.49993 19.7449Z" transform="matrix(-1 0 0 1 279.5 180.5)"/><path d="M673.608 142.031 673.113 109.022 676.112 108.977 676.608 141.986ZM670.136 110.567 674.5 101.5 679.135 110.432Z"/><path d="M871.846 142.889 824.183 101.547 826.149 99.2812 873.811 140.623ZM823.35 104.797 819.5 95.5 829.247 97.9978Z"/><path d="M0.946272-1.16386 52.4234 40.6894 50.5309 43.0171-0.946272 1.16386ZM53.1521 37.4155 57.2965 46.5847 47.4745 44.3986Z" transform="matrix(1 0 0 -1 872.5 142.085)"/><path d="M1.49982-0.0229644 1.93188 28.1949-1.06777 28.2408-1.49982 0.0229644ZM4.90856 26.6491 0.546877 35.717-4.09038 26.7869Z" transform="matrix(-1 0 0 1 872.047 180.5)"/><path d="M754 295.5C754 291.91 756.91 289 760.5 289L843.5 289C847.09 289 850 291.91 850 295.5L850 321.5C850 325.09 847.09 328 843.5 328L760.5 328C756.91 328 754 325.09 754 321.5Z" stroke="#000000" stroke-width="2" stroke-miterlimit="8" fill="#067F10" fill-rule="evenodd"/><text fill="#FFFFFF" font-family="Arial,Arial_MSFontService,sans-serif" font-weight="700" font-size="16" transform="translate(774.951 315)">Tensile </text><path d="M881 295.5C881 291.91 883.91 289 887.5 289L990.5 289C994.09 289 997 291.91 997 295.5L997 321.5C997 325.09 994.09 328 990.5 328L887.5 328C883.91 328 881 325.09 881 321.5Z" stroke="#000000" stroke-width="2" stroke-miterlimit="8" fill="#067F10" fill-rule="evenodd"/><text fill="#FFFFFF" font-family="Arial,Arial_MSFontService,sans-serif" font-weight="700" font-size="16" transform="translate(901.473 315)">O<tspan font-size="11" x="12.5" y="3">2</tspan><tspan font-size="16" x="23" y="0">Barrier </tspan></text><path d="M0.68619-1.33385 63.4449 30.9521 62.0726 33.6198-0.68619 1.33385ZM63.4834 27.5982 69.4279 35.7169 59.3663 35.6012Z" transform="matrix(-1 0 0 1 871.928 254.5)"/><path d="M872.2 253.173 933.254 285.39 931.854 288.043 870.8 255.827ZM933.327 282.037 939.187 290.217 929.127 289.997Z"/><path d="M299 27.5002C299 23.9102 301.91 21 305.5 21L388.5 21C392.09 21 395 23.9102 395 27.5002L395 53.4998C395 57.0898 392.09 60 388.5 60L305.5 60C301.91 60 299 57.0898 299 53.4998Z" stroke="#000000" stroke-width="2" stroke-miterlimit="8" fill="#9A3333" fill-rule="evenodd"/><text fill="#FFFFFF" font-family="Arial,Arial_MSFontService,sans-serif" font-weight="700" font-size="16" transform="translate(318.378 47)">Sample </text><path d="M432 27.5002C432 23.9102 434.91 21 438.5 21L521.5 21C525.09 21 528 23.9102 528 27.5002L528 53.4998C528 57.0898 525.09 60 521.5 60L438.5 60C434.91 60 432 57.0898 432 53.4998Z" stroke="#000000" stroke-width="2" stroke-miterlimit="8" fill="#067F10" fill-rule="evenodd"/><text fill="#FFFFFF" font-family="Arial,Arial_MSFontService,sans-serif" font-weight="700" font-size="16" transform="translate(462.75 47)">Data </text><path d="M32 27.5002C32 23.9102 34.9102 21 38.5002 21L121.5 21C125.09 21 128 23.9102 128 27.5002L128 53.4998C128 57.0898 125.09 60 121.5 60L38.5002 60C34.9102 60 32 57.0898 32 53.4998Z" stroke="#000000" stroke-width="2" stroke-miterlimit="8" fill="#FFC000" fill-rule="evenodd"/><text fill="#FFFFFF" font-family="Arial,Arial_MSFontService,sans-serif" font-weight="700" font-size="16" transform="translate(49.3831 47)">Process </text><path d="M166 27.5002C166 23.9102 168.91 21 172.5 21L255.5 21C259.09 21 262 23.9102 262 27.5002L262 53.4998C262 57.0898 259.09 60 255.5 60L172.5 60C168.91 60 166 57.0898 166 53.4998Z" stroke="#000000" stroke-width="2" stroke-miterlimit="8" fill="#0A24CC" fill-rule="evenodd"/><text fill="#FFFFFF" font-family="Arial,Arial_MSFontService,sans-serif" font-weight="700" font-size="16" transform="translate(183.422 47)">Material</text><path d="M100 359 885.469 359 885.469 365 100 365ZM868.979 348.909 891.422 362 868.979 375.091C867.548 375.926 865.711 375.443 864.876 374.012 864.042 372.581 864.525 370.744 865.956 369.909L883.956 359.409 883.956 364.591 865.956 354.091C864.525 353.257 864.042 351.42 864.876 349.988 865.711 348.557 867.548 348.074 868.979 348.909Z"/><text font-family="Arial,Arial_MSFontService,sans-serif" font-weight="700" font-size="21" transform="translate(392.854 354)">Real World Timeline</text></g></svg>