<svg width="960" height="480" xmlns="http://www.w3.org/2000/svg" xmlns:xlink="http://www.w3.org/1999/xlink" overflow="hidden"><defs><clipPath id="clip0"><rect x="0" y="0" width="960" height="480"/></clipPath></defs><g clip-path="url(#clip0)"><rect x="0" y="0" width="960" height="480" fill="#FFFFFF"/><path d="M7.53683 1.30219 157.398 59.1668 156.317 61.9654 6.45622 4.10081ZM6.77496 7.43975 0 0 10.0168-0.956113Z" transform="matrix(-1 0 0 1 263.358 84.5001)"/><path d="M34 150.5C34 146.91 36.9102 144 40.5002 144L171.5 144C175.09 144 178 146.91 178 150.5L178 176.5C178 180.09 175.09 183 171.5 183L40.5002 183C36.9102 183 34 180.09 34 176.5Z" stroke="#000000" stroke-width="2" stroke-miterlimit="8" fill="#FFC000" fill-rule="evenodd"/><text fill="#FFFFFF" font-family="Arial,Arial_MSFontService,sans-serif" font-weight="700" font-size="16" transform="translate(48.7949 170)">Polymerization </text><path d="M149 50.5002C149 46.9102 151.91 44 155.5 44L238.5 44C242.09 44 245 46.9102 245 50.5002L245 76.4998C245 80.0898 242.09 83 238.5 83L155.5 83C151.91 83 149 80.0898 149 76.4998Z" stroke="#000000" stroke-width="2" stroke-miterlimit="8" fill="#0A24CC" fill-rule="evenodd"/><text fill="#FFFFFF" font-family="Arial,Arial_MSFontService,sans-serif" font-weight="700" font-size="16" transform="translate(174.849 70)">sBuLi</text><path d="M263 70.5002C263 66.9102 265.91 64 269.5 64L352.5 64C356.09 64 359 66.9102 359 70.5002L359 96.4998C359 100.09 356.09 103 352.5 103L269.5 103C265.91 103 263 100.09 263 96.4998Z" stroke="#000000" stroke-width="2" stroke-miterlimit="8" fill="#0A24CC" fill-rule="evenodd"/><text fill="#FFFFFF" font-family="Arial,Arial_MSFontService,sans-serif" font-weight="700" font-size="16" transform="translate(281.319 90)">Styrene</text><path d="M366 95.3334C366 91.8356 368.836 89 372.333 89L455.667 89C459.164 89 462 91.8356 462 95.3334L462 120.667C462 124.164 459.164 127 455.667 127L372.333 127C368.836 127 366 124.164 366 120.667Z" stroke="#000000" stroke-width="2" stroke-miterlimit="8" fill="#0A24CC" fill-rule="evenodd"/><text fill="#FFFFFF" font-family="Arial,Arial_MSFontService,sans-serif" font-weight="700" font-size="16" transform="translate(383.795 114)">Toluene</text><path d="M238 151.333C238 147.836 240.836 145 244.333 145L346.667 145C350.164 145 353 147.836 353 151.333L353 176.667C353 180.164 350.164 183 346.667 183L244.333 183C240.836 183 238 180.164 238 176.667Z" stroke="#000000" stroke-width="2" stroke-miterlimit="8" fill="#0A24CC" fill-rule="evenodd"/><text fill="#FFFFFF" font-family="Arial,Arial_MSFontService,sans-serif" font-weight="700" font-size="16" transform="translate(250.488 171)">Polystyrene</text><path d="M152 302.333C152 298.836 154.836 296 158.333 296L289.667 296C293.164 296 296 298.836 296 302.333L296 327.667C296 331.164 293.164 334 289.667 334L158.333 334C154.836 334 152 331.164 152 327.667Z" stroke="#000000" stroke-width="2" stroke-miterlimit="8" fill="#FFC000" fill-rule="evenodd"/><text fill="#FFFFFF" font-family="Arial,Arial_MSFontService,sans-serif" font-weight="700" font-size="16" transform="translate(167.184 321)">Polymerization </text><path d="M387 302.333C387 298.836 389.836 296 393.333 296L495.667 296C499.164 296 502 298.836 502 302.333L502 327.667C502 331.164 499.164 334 495.667 334L393.333 334C389.836 334 387 331.164 387 327.667Z" stroke="#000000" stroke-width="2" stroke-miterlimit="8" fill="#0A24CC" fill-rule="evenodd"/><text fill="#FFFFFF" font-family="Arial,Arial_MSFontService,sans-serif" font-weight="700" font-size="16" transform="translate(413.983 321)">PS<tspan font-size="16" x="21.3333" y="0">-</tspan><tspan font-size="16" x="26.6667" y="0">PEO</tspan></text><path d="M7.63547-0.448321 260.448 34.855 260.033 37.8262 7.22057 2.52285ZM8.29116 5.70146 0 0 9.53586-3.21205Z" transform="matrix(-1 0 0 1 366.74 108.5)"/><path d="M7.06151 2.93865 92.2239 60.1752 90.5505 62.6651 5.38808 5.42856ZM4.95956 8.75515 0 0 9.97986 1.28544Z" transform="matrix(-1 0 0 1 197.887 83.5001)"/><path d="M178.521 162 231.633 162.749 231.591 165.748 178.479 165ZM230.176 159.728 239.112 164.354 230.049 168.727Z"/><path d="M1.26463-0.806663 68.8679 105.177 66.3386 106.791-1.26463 0.806663ZM70.5905 102.299 71.6365 112.307 63.0027 107.139Z" transform="matrix(1 0 0 -1 224.5 295.807)"/><path d="M296.5 314 379.718 314.018 379.717 317.018 296.5 317ZM378.218 311.017 387.217 315.519 378.216 320.017Z"/><path d="M294 242.333C294 238.836 296.836 236 300.333 236L390.667 236C394.164 236 397 238.836 397 242.333L397 267.667C397 271.164 394.164 274 390.667 274L300.333 274C296.836 274 294 271.164 294 267.667Z" stroke="#000000" stroke-width="2" stroke-miterlimit="8" fill="#0A24CC" fill-rule="evenodd"/><text fill="#FFFFFF" font-family="Arial,Arial_MSFontService,sans-serif" font-weight="700" font-size="16" transform="translate(306.922 262)">Butadiene</text><path d="M126 228.5C126 224.91 128.91 222 132.5 222L215.5 222C219.09 222 222 224.91 222 228.5L222 254.5C222 258.09 219.09 261 215.5 261L132.5 261C128.91 261 126 258.09 126 254.5Z" stroke="#000000" stroke-width="2" stroke-miterlimit="8" fill="#067F10" fill-rule="evenodd"/><text fill="#FFFFFF" font-family="Arial,Arial_MSFontService,sans-serif" font-weight="700" font-size="16" transform="translate(142.785 248)">Kinetics </text><path d="M421 190.5C421 186.91 423.91 184 427.5 184L510.5 184C514.09 184 517 186.91 517 190.5L517 216.5C517 220.09 514.09 223 510.5 223L427.5 223C423.91 223 421 220.09 421 216.5Z" stroke="#000000" stroke-width="2" stroke-miterlimit="8" fill="#067F10" fill-rule="evenodd"/><text fill="#FFFFFF" font-family="Arial,Arial_MSFontService,sans-serif" font-weight="700" font-size="16" transform="translate(452.918 210)">SEC </text><path d="M421 145.333C421 141.836 423.836 139 427.333 139L510.667 139C514.164 139 517 141.836 517 145.333L517 170.667C517 174.164 514.164 177 510.667 177L427.333 177C423.836 177 421 174.164 421 170.667Z" stroke="#000000" stroke-width="2" stroke-miterlimit="8" fill="#067F10" fill-rule="evenodd"/><text fill="#FFFFFF" font-family="Arial,Arial_MSFontService,sans-serif" font-weight="700" font-size="16" transform="translate(451.168 164)">NMR </text><path d="M568 328.333C568 324.836 570.836 322 574.333 322L677.667 322C681.164 322 684 324.836 684 328.333L684 353.667C684 357.164 681.164 360 677.667 360L574.333 360C570.836 360 568 357.164 568 353.667Z" stroke="#000000" stroke-width="2" stroke-miterlimit="8" fill="#9A3333" fill-rule="evenodd"/><text fill="#FFFFFF" font-family="Arial,Arial_MSFontService,sans-serif" font-weight="700" font-size="16" transform="translate(588.717 347)">Hot Press</text><path d="M517 245.333C517 241.836 519.836 239 523.333 239L606.667 239C610.164 239 613 241.836 613 245.333L613 270.667C613 274.164 610.164 277 606.667 277L523.333 277C519.836 277 517 274.164 517 270.667Z" stroke="#000000" stroke-width="2" stroke-miterlimit="8" fill="#067F10" fill-rule="evenodd"/><text fill="#FFFFFF" font-family="Arial,Arial_MSFontService,sans-serif" font-weight="700" font-size="16" transform="translate(548.918 264)">SEC </text><path d="M625 271.333C625 267.836 627.836 265 631.333 265L714.667 265C718.164 265 721 267.836 721 271.333L721 296.667C721 300.164 718.164 303 714.667 303L631.333 303C627.836 303 625 300.164 625 296.667Z" stroke="#000000" stroke-width="2" stroke-miterlimit="8" fill="#067F10" fill-rule="evenodd"/><text fill="#FFFFFF" font-family="Arial,Arial_MSFontService,sans-serif" font-weight="700" font-size="16" transform="translate(654.752 290)">NMR </text><path d="M0.139649-1.49349 60.9726 4.19473 60.6933 7.1817-0.139649 1.49349ZM59.7584 1.06811 68.3004 6.38646 58.9205 10.029Z" transform="matrix(1 0 0 -1 353.5 164.887)"/><path d="M354.247 163.199 416.042 198.661 414.549 201.263 352.753 165.801ZM416.234 195.312 421.8 203.695 411.755 203.118Z"/><path d="M107.257 182.205 168.939 218.265 167.425 220.855 105.743 184.795ZM169.158 214.918 174.657 223.345 164.616 222.688Z"/><path d="M0.753351-1.2971 64.1535 35.5256 62.6468 38.1197-0.753351 1.2971ZM64.3631 32.178 69.8857 40.5894 59.843 39.9606Z" transform="matrix(1 0 0 -1 224.5 296.089)"/><path d="M0.689552-1.33211 67.1306 33.0603 65.7515 35.7246-0.689552 1.33211ZM67.1776 29.7066 73.1016 37.8402 63.0403 37.6992Z" transform="matrix(1 0 0 -1 444.5 296.34)"/><path d="M0.0967497-1.49688 173.298 9.6979 173.105 12.6917-0.0967497 1.49688ZM171.995 6.6074 180.686 11.6785 171.415 15.5887Z" transform="matrix(1 0 0 -1 444.5 296.179)"/><path d="M503.049 314.104 562.662 337.523 561.566 340.316 501.952 316.896ZM562.363 334.183 569.095 341.662 559.073 342.559Z"/><path d="M777 347.5C777 343.91 779.91 341 783.5 341L866.5 341C870.09 341 873 343.91 873 347.5L873 373.5C873 377.09 870.09 380 866.5 380L783.5 380C779.91 380 777 377.09 777 373.5Z" stroke="#000000" stroke-width="2" stroke-miterlimit="8" fill="#067F10" fill-rule="evenodd"/><text fill="#FFFFFF" font-family="Arial,Arial_MSFontService,sans-serif" font-weight="700" font-size="16" transform="translate(798.469 367)">Tensile </text><path d="M781 302.333C781 298.836 783.836 296 787.333 296L889.667 296C893.164 296 896 298.836 896 302.333L896 327.667C896 331.164 893.164 334 889.667 334L787.333 334C783.836 334 781 331.164 781 327.667Z" stroke="#000000" stroke-width="2" stroke-miterlimit="8" fill="#067F10" fill-rule="evenodd"/><text fill="#FFFFFF" font-family="Arial,Arial_MSFontService,sans-serif" font-weight="700" font-size="16" transform="translate(800.777 321)">O<tspan font-size="11" x="12.5" y="3">2</tspan><tspan font-size="16" x="23" y="0">Barrier </tspan></text><path d="M684.805 340.031 771.11 357.948 770.5 360.885 684.195 342.969ZM770.251 354.705 778.148 360.941 768.422 363.518Z"/><path d="M0.391977-1.44788 89.8588 22.773 89.0748 25.6688-0.391977 1.44788ZM89.1948 19.4853 96.7061 26.1808 86.8429 28.1726Z" transform="matrix(1 0 0 -1 684.5 341.681)"/><path d="M78 422 820.727 422 820.727 428 78 428ZM804.238 411.909 826.681 425 804.238 438.091C802.807 438.926 800.97 438.443 800.135 437.012 799.3 435.581 799.784 433.744 801.215 432.909L819.215 422.409 819.215 427.591 801.215 417.091C799.784 416.257 799.3 414.42 800.135 412.988 800.97 411.557 802.807 411.074 804.238 411.909Z"/><text font-family="Arial,Arial_MSFontService,sans-serif" font-weight="700" font-size="17" transform="translate(263.528 408)">Directed Acyclic Graph Direction</text></g></svg>