<svg width="1056" height="480" xmlns="http://www.w3.org/2000/svg" xmlns:xlink="http://www.w3.org/1999/xlink" overflow="hidden"><defs><clipPath id="clip0"><rect x="0" y="0" width="1056" height="480"/></clipPath><clipPath id="clip1"><rect x="34" y="-36" width="226" height="152"/></clipPath><clipPath id="clip2"><rect x="34" y="2" width="226" height="153"/></clipPath><clipPath id="clip3"><rect x="34" y="41" width="226" height="153"/></clipPath><clipPath id="clip4"><rect x="456" y="-50" width="226" height="152"/></clipPath><clipPath id="clip5"><rect x="456" y="-11" width="226" height="152"/></clipPath><clipPath id="clip6"><rect x="456" y="28" width="226" height="152"/></clipPath><clipPath id="clip7"><rect x="456" y="66" width="226" height="153"/></clipPath><clipPath id="clip8"><rect x="456" y="205" width="226" height="152"/></clipPath><clipPath id="clip9"><rect x="456" y="244" width="226" height="152"/></clipPath><clipPath id="clip10"><rect x="456" y="218" width="226" height="303"/></clipPath><clipPath id="clip11"><rect x="456" y="218" width="226" height="303"/></clipPath><clipPath id="clip12"><rect x="456" y="336" width="226" height="152"/></clipPath><clipPath id="clip13"><rect x="34" y="230" width="226" height="153"/></clipPath><clipPath id="clip14"><rect x="34" y="269" width="226" height="153"/></clipPath><clipPath id="clip15"><rect x="34" y="308" width="226" height="153"/></clipPath><clipPath id="clip16"><rect x="762" y="291" width="282" height="152"/></clipPath><clipPath id="clip17"><rect x="762" y="200" width="282" height="455"/></clipPath><clipPath id="clip18"><rect x="762" y="200" width="282" height="455"/></clipPath><clipPath id="clip19"><rect x="762" y="200" width="282" height="455"/></clipPath></defs><g clip-path="url(#clip0)"><rect x="0" y="0" width="1056" height="480" fill="#FFFFFF"/><path d="M34.0527 24.0514 259.653 24.0514 259.653 62.9848 34.0527 62.9848Z" fill="#0A24CC" fill-rule="evenodd"/><path d="M33.7194 62.9848 259.986 62.9848" stroke="#000000" stroke-width="0.666667" stroke-miterlimit="8" fill="none" fill-rule="evenodd"/><path d="M33.7194 101.918 259.986 101.918" stroke="#000000" stroke-width="0.666667" stroke-miterlimit="8" fill="none" fill-rule="evenodd"/><path d="M34.0527 23.7181 34.0527 148.118" stroke="#000000" stroke-width="0.666667" stroke-miterlimit="8" fill="none" fill-rule="evenodd"/><path d="M259.653 23.7181 259.653 148.118" stroke="#000000" stroke-width="0.666667" stroke-miterlimit="8" fill="none" fill-rule="evenodd"/><path d="M33.7194 24.0514 259.986 24.0514" stroke="#000000" stroke-width="0.666667" stroke-miterlimit="8" fill="none" fill-rule="evenodd"/><path d="M33.7194 147.785 259.986 147.785" stroke="#000000" stroke-width="0.666667" stroke-miterlimit="8" fill="none" fill-rule="evenodd"/><g clip-path="url(#clip1)"><text fill="#FFFFFF" font-family="Arial,Arial_MSFontService,sans-serif" font-weight="700" font-size="18" transform="translate(43.6527 47)">Material</text></g><g clip-path="url(#clip2)"><text font-family="Arial,Arial_MSFontService,sans-serif" font-weight="400" font-size="18" transform="translate(43.6527 86)">Identity</text></g><g clip-path="url(#clip3)"><text font-family="Arial,Arial_MSFontService,sans-serif" font-weight="400" font-size="18" transform="translate(43.6527 125)">Properties</text></g><path d="M456.194 10.1352 681.523 10.1352 681.523 49.0686 456.194 49.0686Z" fill="#FFC000" fill-rule="evenodd"/><path d="M455.86 49.0686 681.857 49.0686" stroke="#000000" stroke-width="0.666667" stroke-miterlimit="8" fill="none" fill-rule="evenodd"/><path d="M455.86 88.0019 681.857 88.0019" stroke="#000000" stroke-width="0.666667" stroke-miterlimit="8" fill="none" fill-rule="evenodd"/><path d="M455.86 126.935 681.857 126.935" stroke="#000000" stroke-width="0.666667" stroke-miterlimit="8" fill="none" fill-rule="evenodd"/><path d="M456.194 9.80189 456.194 166.202" stroke="#000000" stroke-width="0.666667" stroke-miterlimit="8" fill="none" fill-rule="evenodd"/><path d="M681.523 9.80189 681.523 166.202" stroke="#000000" stroke-width="0.666667" stroke-miterlimit="8" fill="none" fill-rule="evenodd"/><path d="M455.86 10.1352 681.857 10.1352" stroke="#000000" stroke-width="0.666667" stroke-miterlimit="8" fill="none" fill-rule="evenodd"/><path d="M455.86 165.869 681.857 165.869" stroke="#000000" stroke-width="0.666667" stroke-miterlimit="8" fill="none" fill-rule="evenodd"/><g clip-path="url(#clip4)"><text fill="#FFFFFF" font-family="Arial,Arial_MSFontService,sans-serif" font-weight="700" font-size="18" transform="translate(465.794 33)">Process</text></g><g clip-path="url(#clip5)"><text font-family="Arial,Arial_MSFontService,sans-serif" font-weight="400" font-size="18" transform="translate(465.794 72)">Ingredients</text></g><g clip-path="url(#clip6)"><text font-family="Arial,Arial_MSFontService,sans-serif" font-weight="400" font-size="18" transform="translate(465.794 111)">Procedure</text></g><g clip-path="url(#clip7)"><text fill="#AC1819" font-family="Arial,Arial_MSFontService,sans-serif" font-weight="400" font-size="18" transform="translate(465.794 150)">Process History</text></g><path d="M456.194 265.357 681.523 265.357 681.523 304.29 456.194 304.29Z" fill="#067F10" fill-rule="evenodd"/><path d="M455.86 304.29 681.857 304.29" stroke="#000000" stroke-width="0.666667" stroke-miterlimit="8" fill="none" fill-rule="evenodd"/><path d="M455.86 343.223 681.857 343.223" stroke="#000000" stroke-width="0.666667" stroke-miterlimit="8" fill="none" fill-rule="evenodd"/><path d="M455.86 396.023 681.857 396.023" stroke="#000000" stroke-width="0.666667" stroke-miterlimit="8" fill="none" fill-rule="evenodd"/><path d="M456.194 265.023 456.194 435.29" stroke="#000000" stroke-width="0.666667" stroke-miterlimit="8" fill="none" fill-rule="evenodd"/><path d="M681.523 265.023 681.523 435.29" stroke="#000000" stroke-width="0.666667" stroke-miterlimit="8" fill="none" fill-rule="evenodd"/><path d="M455.86 265.357 681.857 265.357" stroke="#000000" stroke-width="0.666667" stroke-miterlimit="8" fill="none" fill-rule="evenodd"/><path d="M455.86 434.957 681.857 434.957" stroke="#000000" stroke-width="0.666667" stroke-miterlimit="8" fill="none" fill-rule="evenodd"/><g clip-path="url(#clip8)"><text fill="#FFFFFF" font-family="Arial,Arial_MSFontService,sans-serif" font-weight="700" font-size="18" transform="translate(465.794 288)">Data</text></g><g clip-path="url(#clip9)"><text font-family="Arial,Arial_MSFontService,sans-serif" font-weight="400" font-size="18" transform="translate(465.794 327)">Link to file or raw data</text></g><g clip-path="url(#clip10)"><text font-family="Arial,Arial_MSFontService,sans-serif" font-weight="400" font-size="18" transform="translate(465.794 366)">Sample </text></g><text font-family="Arial,Arial_MSFontService,sans-serif" font-weight="400" font-size="18" transform="translate(531.794 366)">prep. </text><g clip-path="url(#clip11)"><text font-family="Arial,Arial_MSFontService,sans-serif" font-weight="400" font-size="18" transform="translate(465.794 387)">Instrument </text></g><text font-family="Arial,Arial_MSFontService,sans-serif" font-weight="400" font-size="18" transform="translate(555.794 387)">details</text><g clip-path="url(#clip12)"><text fill="#AC1819" font-family="Arial,Arial_MSFontService,sans-serif" font-weight="400" font-size="18" transform="translate(465.794 419)">Data History</text></g><path d="M34.1878 290.957 259.518 290.957 259.518 329.89 34.1878 329.89Z" fill="#9A3333" fill-rule="evenodd"/><path d="M33.8545 329.89 259.851 329.89" stroke="#000000" stroke-width="0.666667" stroke-miterlimit="8" fill="none" fill-rule="evenodd"/><path d="M33.8545 368.823 259.851 368.823" stroke="#000000" stroke-width="0.666667" stroke-miterlimit="8" fill="none" fill-rule="evenodd"/><path d="M34.1878 290.623 34.1878 408.09" stroke="#000000" stroke-width="0.666667" stroke-miterlimit="8" fill="none" fill-rule="evenodd"/><path d="M259.518 290.623 259.518 408.09" stroke="#000000" stroke-width="0.666667" stroke-miterlimit="8" fill="none" fill-rule="evenodd"/><path d="M33.8545 290.957 259.851 290.957" stroke="#000000" stroke-width="0.666667" stroke-miterlimit="8" fill="none" fill-rule="evenodd"/><path d="M33.8545 407.757 259.851 407.757" stroke="#000000" stroke-width="0.666667" stroke-miterlimit="8" fill="none" fill-rule="evenodd"/><g clip-path="url(#clip13)"><text fill="#FFFFFF" font-family="Arial,Arial_MSFontService,sans-serif" font-weight="700" font-size="18" transform="translate(43.7878 314)">Sample</text></g><g clip-path="url(#clip14)"><text font-family="Arial,Arial_MSFontService,sans-serif" font-weight="400" font-size="18" transform="translate(43.7878 353)">Procedure</text></g><g clip-path="url(#clip15)"><text font-family="Arial,Arial_MSFontService,sans-serif" font-weight="400" font-size="18" transform="translate(43.7878 392)">Properties</text></g><path d="M0.031805-2.99983 190.633-0.979023 190.57 5.02064-0.031805 2.99983ZM174.253-11.2446 196.555 2.08393 173.975 14.9366C172.535 15.7562 170.703 15.2534 169.884 13.8134 169.064 12.3735 169.567 10.5418 171.007 9.72217L189.117-0.586411 189.062 4.59597 171.175-6.09427C169.752-6.94424 169.289-8.78621 170.138-10.2084 170.988-11.6307 172.83-12.0946 174.253-11.2446Z" transform="matrix(-1 0 0 1 456.541 86)"/><text font-family="Arial,Arial_MSFontService,sans-serif" font-weight="400" font-size="19" transform="translate(305.795 75)">(many to many)</text><path d="M150 148 150.018 285.231 144.018 285.232 144 148ZM160.107 268.742 147.019 291.186 133.924 268.745C133.089 267.314 133.572 265.477 135.004 264.642 136.435 263.807 138.272 264.29 139.107 265.721L149.609 283.72 144.426 283.72 154.924 265.719C155.759 264.288 157.595 263.804 159.027 264.639 160.458 265.474 160.942 267.31 160.107 268.742Z"/><text font-family="Arial,Arial_MSFontService,sans-serif" font-weight="400" font-size="19" transform="translate(41.0326 212)">(1 to many)</text><path d="M0.0122027-2.99998 190.748-2.22414 190.724 3.77581-0.0122027 2.99998ZM174.301-12.3825 196.69 0.800057 174.195 13.8C172.76 14.629 170.925 14.1381 170.096 12.7036 169.267 11.2691 169.758 9.43408 171.193 8.60507L189.235-1.82162 189.214 3.36101 171.257-7.21212C169.829-8.05278 169.353-9.89168 170.194-11.3194 171.035-12.7472 172.873-13.2231 174.301-12.3825Z" transform="matrix(1 0 0 -1 260 349.8)"/><path d="M572 166 572 259.548 566 259.548 566 166ZM582.091 243.06 569 265.502 555.909 243.06C555.074 241.628 555.557 239.792 556.988 238.957 558.42 238.122 560.257 238.605 561.091 240.036L571.591 258.036 566.409 258.036 576.909 240.036C577.744 238.605 579.581 238.122 581.012 238.957 582.443 239.791 582.926 241.628 582.091 243.06Z"/><text font-family="Arial,Arial_MSFontService,sans-serif" font-weight="400" font-size="19" transform="translate(366.848 212)">(many to 1)<tspan font-size="19" x="-48.1848" y="124">(many to 1)</tspan></text><path d="M762.514 351.09 1043.35 351.09 1043.35 390.023 762.514 390.023Z" fill-rule="evenodd"/><path d="M762.181 390.023 1043.68 390.023" stroke="#000000" stroke-width="0.666667" stroke-miterlimit="8" fill="none" fill-rule="evenodd"/><path d="M762.514 350.757 762.514 464.757" stroke="#000000" stroke-width="0.666667" stroke-miterlimit="8" fill="none" fill-rule="evenodd"/><path d="M1043.35 350.757 1043.35 464.757" stroke="#000000" stroke-width="0.666667" stroke-miterlimit="8" fill="none" fill-rule="evenodd"/><path d="M762.181 351.09 1043.68 351.09" stroke="#000000" stroke-width="0.666667" stroke-miterlimit="8" fill="none" fill-rule="evenodd"/><path d="M762.181 464.423 1043.68 464.423" stroke="#000000" stroke-width="0.666667" stroke-miterlimit="8" fill="none" fill-rule="evenodd"/><g clip-path="url(#clip16)"><text fill="#FFFFFF" font-family="Arial,Arial_MSFontService,sans-serif" font-weight="700" font-size="18" transform="translate(772.114 374)">Models</text></g><g clip-path="url(#clip17)"><text font-family="Arial,Arial_MSFontService,sans-serif" font-weight="400" font-size="18" transform="translate(772.114 413)">Functions that operate on data</text></g><g clip-path="url(#clip18)"><text font-family="Arial,Arial_MSFontService,sans-serif" font-weight="400" font-size="18" transform="translate(772.114 434)">Raw data </text></g><text font-family="Wingdings,Wingdings_MSFontService,sans-serif" font-weight="400" font-size="18" transform="translate(853.114 434)"><tspan font-family="Arial,Arial_MSFontService,sans-serif" font-size="18" x="22.6666" y="0">Processed data or </tspan></text><g clip-path="url(#clip19)"><text font-family="Arial,Arial_MSFontService,sans-serif" font-weight="400" font-size="18" transform="translate(772.114 456)">Properties</text></g><path d="M675.028 412 756.226 412.763 756.17 418.763 674.972 418ZM739.833 402.517 762.151 415.819 739.587 428.699C738.148 429.52 736.316 429.019 735.494 427.58 734.673 426.141 735.174 424.309 736.613 423.488L754.71 413.157 754.662 418.34 736.761 407.671C735.338 406.823 734.872 404.981 735.72 403.558 736.568 402.135 738.41 401.669 739.833 402.517Z"/><path d="M262.615 142.472 452.025 263.443 448.796 268.5 259.385 147.528ZM443.561 246.063 455.428 269.176 429.468 268.129C427.812 268.063 426.524 266.666 426.591 265.011 426.658 263.355 428.054 262.068 429.709 262.134L450.531 262.974 447.741 267.342 438.223 248.804C437.466 247.33 438.048 245.521 439.522 244.765 440.996 244.008 442.804 244.589 443.561 246.063Z"/><text font-family="Arial,Arial_MSFontService,sans-serif" font-weight="400" font-size="19" transform="translate(576.818 212)">(many to 1)</text></g></svg>