<svg width="1190" height="538" xmlns="http://www.w3.org/2000/svg" xmlns:xlink="http://www.w3.org/1999/xlink" overflow="hidden"><defs><clipPath id="clip0"><rect x="0" y="0" width="1190" height="538"/></clipPath><clipPath id="clip1"><rect x="51" y="-39" width="249" height="169"/></clipPath><clipPath id="clip2"><rect x="51" y="4" width="249" height="169"/></clipPath><clipPath id="clip3"><rect x="51" y="47" width="249" height="169"/></clipPath><clipPath id="clip4"><rect x="515" y="-54" width="249" height="169"/></clipPath><clipPath id="clip5"><rect x="515" y="-12" width="249" height="170"/></clipPath><clipPath id="clip6"><rect x="515" y="31" width="249" height="170"/></clipPath><clipPath id="clip7"><rect x="515" y="74" width="249" height="170"/></clipPath><clipPath id="clip8"><rect x="515" y="247" width="249" height="170"/></clipPath><clipPath id="clip9"><rect x="515" y="290" width="249" height="169"/></clipPath><clipPath id="clip10"><rect x="515" y="261" width="249" height="338"/></clipPath><clipPath id="clip11"><rect x="515" y="261" width="249" height="338"/></clipPath><clipPath id="clip12"><rect x="515" y="392" width="249" height="169"/></clipPath><clipPath id="clip13"><rect x="51" y="255" width="249" height="169"/></clipPath><clipPath id="clip14"><rect x="51" y="298" width="249" height="169"/></clipPath><clipPath id="clip15"><rect x="51" y="341" width="249" height="169"/></clipPath><clipPath id="clip16"><rect x="51" y="384" width="249" height="169"/></clipPath><clipPath id="clip17"><rect x="866" y="341" width="310" height="169"/></clipPath><clipPath id="clip18"><rect x="866" y="239" width="310" height="506"/></clipPath><clipPath id="clip19"><rect x="866" y="239" width="310" height="506"/></clipPath><clipPath id="clip20"><rect x="866" y="239" width="310" height="506"/></clipPath></defs><g clip-path="url(#clip0)"><rect x="0" y="0" width="1190" height="538.484" fill="#FFFFFF"/><path d="M51.6566 28.2153 299.747 28.2153 299.747 71.0685 51.6566 71.0685Z" fill="#0A24CC" fill-rule="evenodd"/><path d="M51.3234 71.0685 300.08 71.0685" stroke="#000000" stroke-width="0.66648" stroke-miterlimit="8" fill="none" fill-rule="evenodd"/><path d="M51.3234 113.922 300.08 113.922" stroke="#000000" stroke-width="0.66648" stroke-miterlimit="8" fill="none" fill-rule="evenodd"/><path d="M51.6566 27.8817 51.6566 164.74" stroke="#000000" stroke-width="0.66648" stroke-miterlimit="8" fill="none" fill-rule="evenodd"/><path d="M299.747 27.8817 299.747 164.74" stroke="#000000" stroke-width="0.66648" stroke-miterlimit="8" fill="none" fill-rule="evenodd"/><path d="M51.3234 28.2153 300.08 28.2153" stroke="#000000" stroke-width="0.66648" stroke-miterlimit="8" fill="none" fill-rule="evenodd"/><path d="M51.3234 164.406 300.08 164.406" stroke="#000000" stroke-width="0.66648" stroke-miterlimit="8" fill="none" fill-rule="evenodd"/><g clip-path="url(#clip1)"><text fill="#FFFFFF" font-family="Arial,Arial_MSFontService,sans-serif" font-weight="700" font-size="20" transform="matrix(1 0 0 1.0009 62.2136 53)">Material</text></g><g clip-path="url(#clip2)"><text font-family="Arial,Arial_MSFontService,sans-serif" font-weight="400" font-size="20" transform="matrix(1 0 0 1.0009 62.2136 95)">Identity</text></g><g clip-path="url(#clip3)"><text font-family="Arial,Arial_MSFontService,sans-serif" font-weight="400" font-size="20" transform="matrix(1 0 0 1.0009 62.2136 138)">Properties</text></g><path d="M515.882 12.898 763.675 12.898 763.675 55.7512 515.882 55.7512Z" fill="#FFC000" fill-rule="evenodd"/><path d="M515.549 55.7512 764.008 55.7512" stroke="#000000" stroke-width="0.66648" stroke-miterlimit="8" fill="none" fill-rule="evenodd"/><path d="M515.549 98.6044 764.008 98.6044" stroke="#000000" stroke-width="0.66648" stroke-miterlimit="8" fill="none" fill-rule="evenodd"/><path d="M515.549 141.458 764.008 141.458" stroke="#000000" stroke-width="0.66648" stroke-miterlimit="8" fill="none" fill-rule="evenodd"/><path d="M515.882 12.5644 515.882 184.644" stroke="#000000" stroke-width="0.66648" stroke-miterlimit="8" fill="none" fill-rule="evenodd"/><path d="M763.675 12.5644 763.675 184.644" stroke="#000000" stroke-width="0.66648" stroke-miterlimit="8" fill="none" fill-rule="evenodd"/><path d="M515.549 12.898 764.008 12.898" stroke="#000000" stroke-width="0.66648" stroke-miterlimit="8" fill="none" fill-rule="evenodd"/><path d="M515.549 184.311 764.008 184.311" stroke="#000000" stroke-width="0.66648" stroke-miterlimit="8" fill="none" fill-rule="evenodd"/><g clip-path="url(#clip4)"><text fill="#FFFFFF" font-family="Arial,Arial_MSFontService,sans-serif" font-weight="700" font-size="20" transform="matrix(1 0 0 1.0009 526.439 37)">Process</text></g><g clip-path="url(#clip5)"><text font-family="Arial,Arial_MSFontService,sans-serif" font-weight="400" font-size="20" transform="matrix(1 0 0 1.0009 526.439 80)">Ingredients</text></g><g clip-path="url(#clip6)"><text font-family="Arial,Arial_MSFontService,sans-serif" font-weight="400" font-size="20" transform="matrix(1 0 0 1.0009 526.439 123)">Procedure</text></g><g clip-path="url(#clip7)"><text fill="#AC1819" font-family="Arial,Arial_MSFontService,sans-serif" font-weight="400" font-size="20" transform="matrix(1 0 0 1.0009 526.439 166)">Process History</text></g><path d="M515.882 314.361 763.675 314.361 763.675 357.215 515.882 357.215Z" fill="#067F10" fill-rule="evenodd"/><path d="M515.549 357.215 764.009 357.215" stroke="#000000" stroke-width="0.66648" stroke-miterlimit="8" fill="none" fill-rule="evenodd"/><path d="M515.549 400.068 764.009 400.068" stroke="#000000" stroke-width="0.66648" stroke-miterlimit="8" fill="none" fill-rule="evenodd"/><path d="M515.549 458.664 764.009 458.664" stroke="#000000" stroke-width="0.66648" stroke-miterlimit="8" fill="none" fill-rule="evenodd"/><path d="M515.882 314.028 515.882 501.851" stroke="#000000" stroke-width="0.66648" stroke-miterlimit="8" fill="none" fill-rule="evenodd"/><path d="M763.675 314.028 763.675 501.851" stroke="#000000" stroke-width="0.66648" stroke-miterlimit="8" fill="none" fill-rule="evenodd"/><path d="M515.549 314.361 764.009 314.361" stroke="#000000" stroke-width="0.66648" stroke-miterlimit="8" fill="none" fill-rule="evenodd"/><path d="M515.549 501.517 764.009 501.517" stroke="#000000" stroke-width="0.66648" stroke-miterlimit="8" fill="none" fill-rule="evenodd"/><g clip-path="url(#clip8)"><text fill="#FFFFFF" font-family="Arial,Arial_MSFontService,sans-serif" font-weight="700" font-size="20" transform="matrix(1 0 0 1.0009 526.439 339)">Data</text></g><g clip-path="url(#clip9)"><text font-family="Arial,Arial_MSFontService,sans-serif" font-weight="400" font-size="20" transform="matrix(1 0 0 1.0009 526.439 382)">Link to file or raw data</text></g><g clip-path="url(#clip10)"><text font-family="Arial,Arial_MSFontService,sans-serif" font-weight="400" font-size="20" transform="matrix(1 0 0 1.0009 526.439 425)">Simple sample prep. </text></g><g clip-path="url(#clip11)"><text font-family="Arial,Arial_MSFontService,sans-serif" font-weight="400" font-size="20" transform="matrix(1 0 0 1.0009 526.439 449)">Instrument details</text></g><g clip-path="url(#clip12)"><text fill="#AC1819" font-family="Arial,Arial_MSFontService,sans-serif" font-weight="400" font-size="20" transform="matrix(1 0 0 1.0009 526.439 483)">Data History</text></g><path d="M51.8054 321.993 299.599 321.993 299.599 364.846 51.8054 364.846Z" fill="#9A3333" fill-rule="evenodd"/><path d="M51.4722 364.846 299.932 364.846" stroke="#000000" stroke-width="0.66648" stroke-miterlimit="8" fill="none" fill-rule="evenodd"/><path d="M51.4722 407.699 299.932 407.699" stroke="#000000" stroke-width="0.66648" stroke-miterlimit="8" fill="none" fill-rule="evenodd"/><path d="M51.4722 450.553 299.932 450.553" stroke="#000000" stroke-width="0.66648" stroke-miterlimit="8" fill="none" fill-rule="evenodd"/><path d="M51.8054 321.659 51.8054 493.739" stroke="#000000" stroke-width="0.66648" stroke-miterlimit="8" fill="none" fill-rule="evenodd"/><path d="M299.599 321.659 299.599 493.739" stroke="#000000" stroke-width="0.66648" stroke-miterlimit="8" fill="none" fill-rule="evenodd"/><path d="M51.4722 321.993 299.932 321.993" stroke="#000000" stroke-width="0.66648" stroke-miterlimit="8" fill="none" fill-rule="evenodd"/><path d="M51.4722 493.406 299.932 493.406" stroke="#000000" stroke-width="0.66648" stroke-miterlimit="8" fill="none" fill-rule="evenodd"/><g clip-path="url(#clip13)"><text fill="#FFFFFF" font-family="Arial,Arial_MSFontService,sans-serif" font-weight="700" font-size="20" transform="matrix(1 0 0 1.0009 62.3625 347)">Sample</text></g><g clip-path="url(#clip14)"><text font-family="Arial,Arial_MSFontService,sans-serif" font-weight="400" font-size="20" transform="matrix(1 0 0 1.0009 62.3625 389)">Ingredients</text></g><g clip-path="url(#clip15)"><text font-family="Arial,Arial_MSFontService,sans-serif" font-weight="400" font-size="20" transform="matrix(1 0 0 1.0009 62.3625 432)">Procedure</text></g><g clip-path="url(#clip16)"><text font-family="Arial,Arial_MSFontService,sans-serif" font-weight="400" font-size="20" transform="matrix(1 0 0 1.0009 62.3625 475)">Properties</text></g><path d="M300.032 93.0847 510.228 95.3153 510.165 101.319 299.968 99.0881ZM493.852 85.0434 516.148 98.3802 493.575 111.241C492.135 112.061 490.304 111.558 489.485 110.117 488.665 108.676 489.168 106.843 490.608 106.023L508.713 95.7082 508.658 100.894 490.775 90.1969C489.353 89.3464 488.89 87.5033 489.739 86.0802 490.589 84.6571 492.431 84.1929 493.852 85.0434Z"/><text font-family="Arial,Arial_MSFontService,sans-serif" font-weight="400" font-size="20" transform="matrix(1 0 0 1.0009 311.532 72)">(many to many)</text><path d="M178.999 164.147 179.019 315.79 173.021 315.791 173.001 164.148ZM189.105 299.29 176.021 321.748 162.93 299.294C162.095 297.862 162.578 296.024 164.009 295.188 165.439 294.352 167.276 294.836 168.111 296.268L178.61 314.278 173.429 314.278 183.924 296.266C184.758 294.834 186.594 294.35 188.025 295.185 189.456 296.02 189.94 297.858 189.105 299.29Z"/><text font-family="Arial,Arial_MSFontService,sans-serif" font-weight="400" font-size="20" transform="matrix(1 0 0 1.0009 23.4268 222)">(1 to many)</text><path d="M516.28 410.608 305.935 410.375 305.942 404.371 516.286 404.605ZM322.408 420.491 299.986 407.366 322.437 394.292C323.868 393.458 325.704 393.944 326.537 395.377 327.37 396.81 326.885 398.647 325.453 399.481L307.447 409.968 307.452 404.782 325.436 415.308C326.865 416.145 327.347 417.984 326.511 419.415 325.674 420.846 323.837 421.328 322.408 420.491Z"/><path d="M2.99916-2.42265e-06 2.99926 123.995-2.99906 123.995-2.99916 2.42265e-06ZM13.0878 107.512 0.000104679 129.948-13.0876 107.512C-13.9222 106.081-13.4389 104.244-12.0082 103.41-10.5774 102.575-8.74097 103.058-7.90636 104.489L2.59071 122.484-2.59051 122.484 7.90653 104.489C8.74114 103.058 10.5776 102.575 12.0083 103.41 13.4391 104.244 13.9224 106.081 13.0878 107.512Z" transform="matrix(1 0 0 -1.0009 640 314.216)"/><text font-family="Arial,Arial_MSFontService,sans-serif" font-weight="400" font-size="20" transform="matrix(1 0 0 1.0009 363.681 201)">(many to 1)<tspan font-size="20" x="-8.61459" y="231.791">(many to 1)</tspan></text><path d="M866.946 407.699 1175.77 407.699 1175.77 450.552 866.946 450.552Z" fill-rule="evenodd"/><path d="M866.612 450.552 1176.11 450.552" stroke="#000000" stroke-width="0.66648" stroke-miterlimit="8" fill="none" fill-rule="evenodd"/><path d="M866.946 407.366 866.946 533.497" stroke="#000000" stroke-width="0.66648" stroke-miterlimit="8" fill="none" fill-rule="evenodd"/><path d="M1175.77 407.366 1175.77 533.497" stroke="#000000" stroke-width="0.66648" stroke-miterlimit="8" fill="none" fill-rule="evenodd"/><path d="M866.612 407.699 1176.11 407.699" stroke="#000000" stroke-width="0.66648" stroke-miterlimit="8" fill="none" fill-rule="evenodd"/><path d="M866.612 533.164 1176.11 533.164" stroke="#000000" stroke-width="0.66648" stroke-miterlimit="8" fill="none" fill-rule="evenodd"/><g clip-path="url(#clip17)"><text fill="#FFFFFF" font-family="Arial,Arial_MSFontService,sans-serif" font-weight="700" font-size="20" transform="matrix(1 0 0 1.0009 877.503 432)">Modules</text></g><g clip-path="url(#clip18)"><text font-family="Arial,Arial_MSFontService,sans-serif" font-weight="400" font-size="20" transform="matrix(1 0 0 1.0009 877.503 475)">Functions that operate on data</text></g><g clip-path="url(#clip19)"><text font-family="Arial,Arial_MSFontService,sans-serif" font-weight="400" font-size="20" transform="matrix(1 0 0 1.0009 877.503 499)">Raw data </text></g><text font-family="Wingdings,Wingdings_MSFontService,sans-serif" font-weight="400" font-size="20" transform="matrix(1 0 0 1.0009 967.644 499)"><tspan font-family="Arial,Arial_MSFontService,sans-serif" font-size="20" x="25.1596" y="0">Processed data or </tspan></text><g clip-path="url(#clip20)"><text font-family="Arial,Arial_MSFontService,sans-serif" font-weight="400" font-size="20" transform="matrix(1 0 0 1.0009 877.503 523)">Properties</text></g><path d="M757.028 481.434 846.914 482.279 846.858 488.283 756.972 487.437ZM830.526 472.027 852.838 485.337 830.28 498.225C828.842 499.047 827.01 498.546 826.189 497.106 825.368 495.666 825.868 493.832 827.307 493.011L845.399 482.674 845.351 487.859 827.455 477.184C826.032 476.335 825.566 474.493 826.414 473.069 827.262 471.645 829.103 471.178 830.526 472.027Z"/><path d="M514.184 312.356 305.391 178.885 308.62 173.825 517.412 307.296ZM313.852 196.276 301.988 173.148 327.941 174.196C329.597 174.262 330.884 175.659 330.817 177.316 330.751 178.973 329.355 180.261 327.7 180.194L306.884 179.354 309.673 174.984 319.188 193.533C319.945 195.008 319.364 196.818 317.89 197.575 316.417 198.332 314.609 197.75 313.852 196.276Z"/><text font-family="Arial,Arial_MSFontService,sans-serif" font-weight="400" font-size="20" transform="matrix(1 0 0 1.0009 651.638 260)">(many to 1)</text></g></svg>