<svg version="1.1" xmlns="http://www.w3.org/2000/svg" xmlns:xlink="http://www.w3.org/1999/xlink" width="2000" height="1000"><defs/><g transform="translate(95.82785808147179,-42.279894875164246) scale(2.2339027595269383,2.2339027595269383)"><path fill="rgb(128,128,128)" stroke="rgb(0,0,0)" paint-order="fill stroke markers" d=" M 200 69.5 L 246 69.5 L 246 69.5 A 8 8 0 0 1 254 77.5 L 254 122.5 L 254 122.5 A 8 8 0 0 1 246 130.5 L 154 130.5 L 154 130.5 A 8 8 0 0 1 146 122.5 L 146 77.5 L 146 77.5 A 8 8 0 0 1 154 69.5 L 200 69.5 Z" fill-opacity="1" stroke-opacity="1" stroke-miterlimit="10" stroke-width="3"/><text fill="rgb(0,0,0)" stroke="none" font-family="arial" font-size="16px" font-style="normal" font-weight="bold" text-decoration="normal" x="200" y="69.5" text-anchor="middle" dominant-baseline="text-after-edge" fill-opacity="1">users</text><path fill="rgb(128,128,128)" stroke="rgb(0,0,0)" paint-order="fill stroke markers" d=" M 600 69.5 L 668 69.5 L 668 69.5 A 8 8 0 0 1 676 77.5 L 676 122.5 L 676 122.5 A 8 8 0 0 1 668 130.5 L 532 130.5 L 532 130.5 A 8 8 0 0 1 524 122.5 L 524 77.5 L 524 77.5 A 8 8 0 0 1 532 69.5 L 600 69.5 Z" fill-opacity="1" stroke-opacity="1" stroke-miterlimit="10" stroke-width="3"/><text fill="rgb(0,0,0)" stroke="none" font-family="arial" font-size="16px" font-style="normal" font-weight="bold" text-decoration="normal" x="600" y="69.5" text-anchor="middle" dominant-baseline="text-after-edge" fill-opacity="1">experiment</text><path fill="rgb(128,128,128)" stroke="rgb(0,0,0)" paint-order="fill stroke markers" d=" M 133.33333333333334 169.5 L 183.33333333333334 169.5 L 183.33333333333334 169.5 A 8 8 0 0 1 191.33333333333334 177.5 L 191.33333333333334 372.5 L 191.33333333333334 372.5 A 8 8 0 0 1 183.33333333333334 380.5 L 83.33333333333334 380.5 L 83.33333333333334 380.5 A 8 8 0 0 1 75.33333333333334 372.5 L 75.33333333333334 177.5 L 75.33333333333334 177.5 A 8 8 0 0 1 83.33333333333334 169.5 L 133.33333333333334 169.5 Z" fill-opacity="1" stroke-opacity="1" stroke-miterlimit="10" stroke-width="3"/><text fill="rgb(0,0,0)" stroke="none" font-family="arial" font-size="16px" font-style="normal" font-weight="bold" text-decoration="normal" x="133.33333333333334" y="169.5" text-anchor="middle" dominant-baseline="text-after-edge" fill-opacity="1">identity</text><path fill="rgb(128,128,128)" stroke="rgb(0,0,0)" paint-order="fill stroke markers" d=" M 400 319.5 L 462.5 319.5 L 462.5 319.5 A 8 8 0 0 1 470.5 327.5 L 470.5 372.5 L 470.5 372.5 A 8 8 0 0 1 462.5 380.5 L 337.5 380.5 L 337.5 380.5 A 8 8 0 0 1 329.5 372.5 L 329.5 327.5 L 329.5 327.5 A 8 8 0 0 1 337.5 319.5 L 400 319.5 Z" fill-opacity="1" stroke-opacity="1" stroke-miterlimit="10" stroke-width="3"/><text fill="rgb(0,0,0)" stroke="none" font-family="arial" font-size="16px" font-style="normal" font-weight="bold" text-decoration="normal" x="400" y="319.5" text-anchor="middle" dominant-baseline="text-after-edge" fill-opacity="1">procedure</text><path fill="rgb(128,128,128)" stroke="rgb(0,0,0)" paint-order="fill stroke markers" d=" M 666.6666666666666 269.5 L 721.1666666666666 269.5 L 721.1666666666666 269.5 A 8 8 0 0 1 729.1666666666666 277.5 L 729.1666666666666 422.5 L 729.1666666666666 422.5 A 8 8 0 0 1 721.1666666666666 430.5 L 612.1666666666666 430.5 L 612.1666666666666 430.5 A 8 8 0 0 1 604.1666666666666 422.5 L 604.1666666666666 277.5 L 604.1666666666666 277.5 A 8 8 0 0 1 612.1666666666666 269.5 L 666.6666666666666 269.5 Z" fill-opacity="1" stroke-opacity="1" stroke-miterlimit="10" stroke-width="3"/><text fill="rgb(0,0,0)" stroke="none" font-family="arial" font-size="16px" font-style="normal" font-weight="bold" text-decoration="normal" x="666.6666666666666" y="269.5" text-anchor="middle" dominant-baseline="text-after-edge" fill-opacity="1">attribute</text><path fill="rgb(128,128,128)" stroke="rgb(0,0,0)" paint-order="fill stroke markers" d=" M 666.6666666666666 169.5 L 726.1666666666666 169.5 L 726.1666666666666 169.5 A 8 8 0 0 1 734.1666666666666 177.5 L 734.1666666666666 222.5 L 734.1666666666666 222.5 A 8 8 0 0 1 726.1666666666666 230.5 L 607.1666666666666 230.5 L 607.1666666666666 230.5 A 8 8 0 0 1 599.1666666666666 222.5 L 599.1666666666666 177.5 L 599.1666666666666 177.5 A 8 8 0 0 1 607.1666666666666 169.5 L 666.6666666666666 169.5 Z" fill-opacity="1" stroke-opacity="1" stroke-miterlimit="10" stroke-width="3"/><text fill="rgb(0,0,0)" stroke="none" font-family="arial" font-size="16px" font-style="normal" font-weight="bold" text-decoration="normal" x="666.6666666666666" y="169.5" text-anchor="middle" dominant-baseline="text-after-edge" fill-opacity="1">out</text><path fill="none" stroke="rgb(0,0,0)" paint-order="fill stroke markers" d=" M 335.5273812171471 218.13292403267738 L 192.83333333333334 258.265625" stroke-opacity="1" stroke-linejoin="round" stroke-miterlimit="10" stroke-width="3"/><path fill="none" stroke="rgb(0,0,0)" paint-order="fill stroke markers" d=" M 361 180.5 L 254.75262189689906 127.37631094844953" stroke-opacity="1" stroke-linejoin="round" stroke-miterlimit="10" stroke-width="3"/><path fill="none" stroke="rgb(0,0,0)" paint-order="fill stroke markers" d=" M 434.66666666666663 219.5 L 602.6666666666666 314" stroke-opacity="1" stroke-linejoin="round" stroke-miterlimit="10" stroke-width="3"/><path fill="none" stroke="rgb(0,0,0)" paint-order="fill stroke markers" d=" M 400 219.5 L 400 318" stroke-opacity="1" stroke-linejoin="round" stroke-miterlimit="10" stroke-width="3"/><path fill="none" stroke="rgb(0,0,0)" paint-order="fill stroke markers" d=" M 439 180.5 L 536 132" stroke-opacity="1" stroke-linejoin="round" stroke-miterlimit="10" stroke-width="3"/><path fill="none" stroke="rgb(0,0,0)" paint-order="fill stroke markers" d=" M 468 200 L 597.6666666666666 200" stroke-opacity="1" stroke-linejoin="round" stroke-miterlimit="10" stroke-width="3"/><path fill="rgb(217,125,125)" stroke="rgb(0,0,0)" paint-order="fill stroke markers" d=" M 400 182 L 458.5 182 L 458.5 182 A 8 8 0 0 1 466.5 190 L 466.5 210 L 466.5 210 A 8 8 0 0 1 458.5 218 L 341.5 218 L 341.5 218 A 8 8 0 0 1 333.5 210 L 333.5 190 L 333.5 190 A 8 8 0 0 1 341.5 182 L 400 182 Z" fill-opacity="1" stroke-opacity="1" stroke-miterlimit="10" stroke-width="3"/><text fill="rgb(0,0,0)" stroke="none" font-family="arial" font-size="16px" font-style="normal" font-weight="bold" text-decoration="normal" x="400" y="208" text-anchor="middle" dominant-baseline="text-after-edge" fill-opacity="1">polymerization</text><path fill="rgb(217,125,125)" stroke="rgb(0,0,0)" paint-order="fill stroke markers" d=" M 200 82 L 233.5 82 L 233.5 82 A 8 8 0 0 1 241.5 90 L 241.5 110 L 241.5 110 A 8 8 0 0 1 233.5 118 L 166.5 118 L 166.5 118 A 8 8 0 0 1 158.5 110 L 158.5 90 L 158.5 90 A 8 8 0 0 1 166.5 82 L 200 82 Z" fill-opacity="1" stroke-opacity="1" stroke-miterlimit="10" stroke-width="3"/><text fill="rgb(0,0,0)" stroke="none" font-family="arial" font-size="16px" font-style="normal" font-weight="bold" text-decoration="normal" x="200" y="108" text-anchor="middle" dominant-baseline="text-after-edge" fill-opacity="1">Dylan W</text><path fill="rgb(217,125,125)" stroke="rgb(0,0,0)" paint-order="fill stroke markers" d=" M 600 82 L 655.5 82 L 655.5 82 A 8 8 0 0 1 663.5 90 L 663.5 110 L 663.5 110 A 8 8 0 0 1 655.5 118 L 544.5 118 L 544.5 118 A 8 8 0 0 1 536.5 110 L 536.5 90 L 536.5 90 A 8 8 0 0 1 544.5 82 L 600 82 Z" fill-opacity="1" stroke-opacity="1" stroke-miterlimit="10" stroke-width="3"/><text fill="rgb(0,0,0)" stroke="none" font-family="arial" font-size="16px" font-style="normal" font-weight="bold" text-decoration="normal" x="600" y="108" text-anchor="middle" dominant-baseline="text-after-edge" fill-opacity="1">anionic polym</text><path fill="rgb(217,125,125)" stroke="rgb(0,0,0)" paint-order="fill stroke markers" d=" M 133.33333333333334 182 L 163.83333333333334 182 L 163.83333333333334 182 A 8 8 0 0 1 171.83333333333334 190 L 171.83333333333334 210 L 171.83333333333334 210 A 8 8 0 0 1 163.83333333333334 218 L 102.83333333333334 218 L 102.83333333333334 218 A 8 8 0 0 1 94.83333333333334 210 L 94.83333333333334 190 L 94.83333333333334 190 A 8 8 0 0 1 102.83333333333334 182 L 133.33333333333334 182 Z" fill-opacity="1" stroke-opacity="1" stroke-miterlimit="10" stroke-width="3"/><text fill="rgb(0,0,0)" stroke="none" font-family="arial" font-size="16px" font-style="normal" font-weight="bold" text-decoration="normal" x="133.33333333333334" y="208" text-anchor="middle" dominant-baseline="text-after-edge" fill-opacity="1">styrene</text><path fill="rgb(217,125,125)" stroke="rgb(0,0,0)" paint-order="fill stroke markers" d=" M 133.33333333333334 232 L 167.83333333333334 232 L 167.83333333333334 232 A 8 8 0 0 1 175.83333333333334 240 L 175.83333333333334 260 L 175.83333333333334 260 A 8 8 0 0 1 167.83333333333334 268 L 98.83333333333334 268 L 98.83333333333334 268 A 8 8 0 0 1 90.83333333333334 260 L 90.83333333333334 240 L 90.83333333333334 240 A 8 8 0 0 1 98.83333333333334 232 L 133.33333333333334 232 Z" fill-opacity="1" stroke-opacity="1" stroke-miterlimit="10" stroke-width="3"/><text fill="rgb(0,0,0)" stroke="none" font-family="arial" font-size="16px" font-style="normal" font-weight="bold" text-decoration="normal" x="133.33333333333334" y="258" text-anchor="middle" dominant-baseline="text-after-edge" fill-opacity="1">sec-bu li</text><path fill="rgb(217,125,125)" stroke="rgb(0,0,0)" paint-order="fill stroke markers" d=" M 133.33333333333334 282 L 163.83333333333334 282 L 163.83333333333334 282 A 8 8 0 0 1 171.83333333333334 290 L 171.83333333333334 310 L 171.83333333333334 310 A 8 8 0 0 1 163.83333333333334 318 L 102.83333333333334 318 L 102.83333333333334 318 A 8 8 0 0 1 94.83333333333334 310 L 94.83333333333334 290 L 94.83333333333334 290 A 8 8 0 0 1 102.83333333333334 282 L 133.33333333333334 282 Z" fill-opacity="1" stroke-opacity="1" stroke-miterlimit="10" stroke-width="3"/><text fill="rgb(0,0,0)" stroke="none" font-family="arial" font-size="16px" font-style="normal" font-weight="bold" text-decoration="normal" x="133.33333333333334" y="308" text-anchor="middle" dominant-baseline="text-after-edge" fill-opacity="1">toluene</text><path fill="rgb(217,125,125)" stroke="rgb(0,0,0)" paint-order="fill stroke markers" d=" M 133.33333333333334 332 L 170.83333333333334 332 L 170.83333333333334 332 A 8 8 0 0 1 178.83333333333334 340 L 178.83333333333334 360 L 178.83333333333334 360 A 8 8 0 0 1 170.83333333333334 368 L 95.83333333333334 368 L 95.83333333333334 368 A 8 8 0 0 1 87.83333333333334 360 L 87.83333333333334 340 L 87.83333333333334 340 A 8 8 0 0 1 95.83333333333334 332 L 133.33333333333334 332 Z" fill-opacity="1" stroke-opacity="1" stroke-miterlimit="10" stroke-width="3"/><text fill="rgb(0,0,0)" stroke="none" font-family="arial" font-size="16px" font-style="normal" font-weight="bold" text-decoration="normal" x="133.33333333333334" y="358" text-anchor="middle" dominant-baseline="text-after-edge" fill-opacity="1">methanol</text><path fill="rgb(217,125,125)" stroke="rgb(0,0,0)" paint-order="fill stroke markers" d=" M 400 332 L 450 332 L 450 332 A 8 8 0 0 1 458 340 L 458 360 L 458 360 A 8 8 0 0 1 450 368 L 350 368 L 350 368 A 8 8 0 0 1 342 360 L 342 340 L 342 340 A 8 8 0 0 1 350 332 L 400 332 Z" fill-opacity="1" stroke-opacity="1" stroke-miterlimit="10" stroke-width="3"/><text fill="rgb(0,0,0)" stroke="none" font-family="arial" font-size="16px" font-style="normal" font-weight="bold" text-decoration="normal" x="400" y="358" text-anchor="middle" dominant-baseline="text-after-edge" fill-opacity="1">In an argon f</text><path fill="rgb(217,125,125)" stroke="rgb(0,0,0)" paint-order="fill stroke markers" d=" M 666.6666666666666 182 L 713.6666666666666 182 L 713.6666666666666 182 A 8 8 0 0 1 721.6666666666666 190 L 721.6666666666666 210 L 721.6666666666666 210 A 8 8 0 0 1 713.6666666666666 218 L 619.6666666666666 218 L 619.6666666666666 218 A 8 8 0 0 1 611.6666666666666 210 L 611.6666666666666 190 L 611.6666666666666 190 A 8 8 0 0 1 619.6666666666666 182 L 666.6666666666666 182 Z" fill-opacity="1" stroke-opacity="1" stroke-miterlimit="10" stroke-width="3"/><text fill="rgb(0,0,0)" stroke="none" font-family="arial" font-size="16px" font-style="normal" font-weight="bold" text-decoration="normal" x="666.6666666666666" y="208" text-anchor="middle" dominant-baseline="text-after-edge" fill-opacity="1">polystyrene</text><path fill="rgb(217,125,125)" stroke="rgb(0,0,0)" paint-order="fill stroke markers" d=" M 666.6666666666666 282 L 685.1666666666666 282 L 685.1666666666666 282 A 8 8 0 0 1 693.1666666666666 290 L 693.1666666666666 310 L 693.1666666666666 310 A 8 8 0 0 1 685.1666666666666 318 L 648.1666666666666 318 L 648.1666666666666 318 A 8 8 0 0 1 640.1666666666666 310 L 640.1666666666666 290 L 640.1666666666666 290 A 8 8 0 0 1 648.1666666666666 282 L 666.6666666666666 282 Z" fill-opacity="1" stroke-opacity="1" stroke-miterlimit="10" stroke-width="3"/><text fill="rgb(0,0,0)" stroke="none" font-family="arial" font-size="16px" font-style="normal" font-weight="bold" text-decoration="normal" x="666.6666666666666" y="308" text-anchor="middle" dominant-baseline="text-after-edge" fill-opacity="1">time</text><path fill="rgb(217,125,125)" stroke="rgb(0,0,0)" paint-order="fill stroke markers" d=" M 666.6666666666666 332 L 687.6666666666666 332 L 687.6666666666666 332 A 8 8 0 0 1 695.6666666666666 340 L 695.6666666666666 360 L 695.6666666666666 360 A 8 8 0 0 1 687.6666666666666 368 L 645.6666666666666 368 L 645.6666666666666 368 A 8 8 0 0 1 637.6666666666666 360 L 637.6666666666666 340 L 637.6666666666666 340 A 8 8 0 0 1 645.6666666666666 332 L 666.6666666666666 332 Z" fill-opacity="1" stroke-opacity="1" stroke-miterlimit="10" stroke-width="3"/><text fill="rgb(0,0,0)" stroke="none" font-family="arial" font-size="16px" font-style="normal" font-weight="bold" text-decoration="normal" x="666.6666666666666" y="358" text-anchor="middle" dominant-baseline="text-after-edge" fill-opacity="1">temp</text><path fill="rgb(217,125,125)" stroke="rgb(0,0,0)" paint-order="fill stroke markers" d=" M 666.6666666666666 382 L 708.6666666666666 382 L 708.6666666666666 382 A 8 8 0 0 1 716.6666666666666 390 L 716.6666666666666 410 L 716.6666666666666 410 A 8 8 0 0 1 708.6666666666666 418 L 624.6666666666666 418 L 624.6666666666666 418 A 8 8 0 0 1 616.6666666666666 410 L 616.6666666666666 390 L 616.6666666666666 390 A 8 8 0 0 1 624.6666666666666 382 L 666.6666666666666 382 Z" fill-opacity="1" stroke-opacity="1" stroke-miterlimit="10" stroke-width="3"/><text fill="rgb(0,0,0)" stroke="none" font-family="arial" font-size="16px" font-style="normal" font-weight="bold" text-decoration="normal" x="666.6666666666666" y="408" text-anchor="middle" dominant-baseline="text-after-edge" fill-opacity="1">samp_rate</text><g transform="scale(0.4476470588235294,0.4476470588235294) translate(-95.82785808147179,42.279894875164246)"/></g></svg>