<svg version="1.1" xmlns="http://www.w3.org/2000/svg" xmlns:xlink="http://www.w3.org/1999/xlink" width="2000" height="1000"><defs/><g transform="translate(109.78975032851523,-42.279894875164246) scale(2.2339027595269383,2.2339027595269383)"><path fill="rgb(128,128,128)" stroke="rgb(0,0,0)" paint-order="fill stroke markers" d=" M 200 69.5 L 246 69.5 L 246 69.5 A 8 8 0 0 1 254 77.5 L 254 122.5 L 254 122.5 A 8 8 0 0 1 246 130.5 L 154 130.5 L 154 130.5 A 8 8 0 0 1 146 122.5 L 146 77.5 L 146 77.5 A 8 8 0 0 1 154 69.5 L 200 69.5 Z" fill-opacity="1" stroke-opacity="1" stroke-miterlimit="10" stroke-width="3"/><text fill="rgb(0,0,0)" stroke="none" font-family="arial" font-size="16px" font-style="normal" font-weight="bold" text-decoration="normal" x="200" y="69.5" text-anchor="middle" dominant-baseline="text-after-edge" fill-opacity="1">users</text><path fill="rgb(128,128,128)" stroke="rgb(0,0,0)" paint-order="fill stroke markers" d=" M 600 69.5 L 668 69.5 L 668 69.5 A 8 8 0 0 1 676 77.5 L 676 122.5 L 676 122.5 A 8 8 0 0 1 668 130.5 L 532 130.5 L 532 130.5 A 8 8 0 0 1 524 122.5 L 524 77.5 L 524 77.5 A 8 8 0 0 1 532 69.5 L 600 69.5 Z" fill-opacity="1" stroke-opacity="1" stroke-miterlimit="10" stroke-width="3"/><text fill="rgb(0,0,0)" stroke="none" font-family="arial" font-size="16px" font-style="normal" font-weight="bold" text-decoration="normal" x="600" y="69.5" text-anchor="middle" dominant-baseline="text-after-edge" fill-opacity="1">experiment</text><path fill="rgb(128,128,128)" stroke="rgb(0,0,0)" paint-order="fill stroke markers" d=" M 133.33333333333334 169.5 L 210.33333333333334 169.5 L 210.33333333333334 169.5 A 8 8 0 0 1 218.33333333333334 177.5 L 218.33333333333334 372.5 L 218.33333333333334 372.5 A 8 8 0 0 1 210.33333333333334 380.5 L 56.33333333333334 380.5 L 56.33333333333334 380.5 A 8 8 0 0 1 48.33333333333334 372.5 L 48.33333333333334 177.5 L 48.33333333333334 177.5 A 8 8 0 0 1 56.33333333333334 169.5 L 133.33333333333334 169.5 Z" fill-opacity="1" stroke-opacity="1" stroke-miterlimit="10" stroke-width="3"/><text fill="rgb(0,0,0)" stroke="none" font-family="arial" font-size="16px" font-style="normal" font-weight="bold" text-decoration="normal" x="133.33333333333334" y="169.5" text-anchor="middle" dominant-baseline="text-after-edge" fill-opacity="1">identity</text><path fill="rgb(128,128,128)" stroke="rgb(0,0,0)" paint-order="fill stroke markers" d=" M 666.6666666666666 169.5 L 740.6666666666666 169.5 L 740.6666666666666 169.5 A 8 8 0 0 1 748.6666666666666 177.5 L 748.6666666666666 372.5 L 748.6666666666666 372.5 A 8 8 0 0 1 740.6666666666666 380.5 L 592.6666666666666 380.5 L 592.6666666666666 380.5 A 8 8 0 0 1 584.6666666666666 372.5 L 584.6666666666666 177.5 L 584.6666666666666 177.5 A 8 8 0 0 1 592.6666666666666 169.5 L 666.6666666666666 169.5 Z" fill-opacity="1" stroke-opacity="1" stroke-miterlimit="10" stroke-width="3"/><text fill="rgb(0,0,0)" stroke="none" font-family="arial" font-size="16px" font-style="normal" font-weight="bold" text-decoration="normal" x="666.6666666666666" y="169.5" text-anchor="middle" dominant-baseline="text-after-edge" fill-opacity="1">properties</text><path fill="rgb(128,128,128)" stroke="rgb(0,0,0)" paint-order="fill stroke markers" d=" M 330 319.5 L 398 319.5 L 398 319.5 A 8 8 0 0 1 406 327.5 L 406 372.5 L 406 372.5 A 8 8 0 0 1 398 380.5 L 262 380.5 L 262 380.5 A 8 8 0 0 1 254 372.5 L 254 327.5 L 254 327.5 A 8 8 0 0 1 262 319.5 L 330 319.5 Z" fill-opacity="1" stroke-opacity="1" stroke-miterlimit="10" stroke-width="3"/><text fill="rgb(0,0,0)" stroke="none" font-family="arial" font-size="16px" font-style="normal" font-weight="bold" text-decoration="normal" x="330" y="319.5" text-anchor="middle" dominant-baseline="text-after-edge" fill-opacity="1">process</text><path fill="rgb(128,128,128)" stroke="rgb(0,0,0)" paint-order="fill stroke markers" d=" M 470 319.5 L 513.5 319.5 L 513.5 319.5 A 8 8 0 0 1 521.5 327.5 L 521.5 422.5 L 521.5 422.5 A 8 8 0 0 1 513.5 430.5 L 426.5 430.5 L 426.5 430.5 A 8 8 0 0 1 418.5 422.5 L 418.5 327.5 L 418.5 327.5 A 8 8 0 0 1 426.5 319.5 L 470 319.5 Z" fill-opacity="1" stroke-opacity="1" stroke-miterlimit="10" stroke-width="3"/><text fill="rgb(0,0,0)" stroke="none" font-family="arial" font-size="16px" font-style="normal" font-weight="bold" text-decoration="normal" x="470" y="319.5" text-anchor="middle" dominant-baseline="text-after-edge" fill-opacity="1">data</text><path fill="none" stroke="rgb(0,0,0)" paint-order="fill stroke markers" d=" M 340.45987902440197 216.74565902438695 L 219.83333333333331 250.671875" stroke-opacity="1" stroke-linejoin="round" stroke-miterlimit="10" stroke-width="3"/><path fill="none" stroke="rgb(0,0,0)" paint-order="fill stroke markers" d=" M 361 180.5 L 254.75262189689906 127.37631094844953" stroke-opacity="1" stroke-linejoin="round" stroke-miterlimit="10" stroke-width="3"/><path fill="none" stroke="rgb(0,0,0)" paint-order="fill stroke markers" d=" M 459.54012097559803 216.74565902438695 L 583.1666666666666 251.515625" stroke-opacity="1" stroke-linejoin="round" stroke-miterlimit="10" stroke-width="3"/><path fill="none" stroke="rgb(0,0,0)" paint-order="fill stroke markers" d=" M 390.9 219.5 L 344.93333333333334 318" stroke-opacity="1" stroke-linejoin="round" stroke-miterlimit="10" stroke-width="3"/><path fill="none" stroke="rgb(0,0,0)" paint-order="fill stroke markers" d=" M 407.8 219.5 L 447.2 318" stroke-opacity="1" stroke-linejoin="round" stroke-miterlimit="10" stroke-width="3"/><path fill="none" stroke="rgb(0,0,0)" paint-order="fill stroke markers" d=" M 439 180.5 L 536 132" stroke-opacity="1" stroke-linejoin="round" stroke-miterlimit="10" stroke-width="3"/><path fill="rgb(217,125,125)" stroke="rgb(0,0,0)" paint-order="fill stroke markers" d=" M 400 182 L 452 182 L 452 182 A 8 8 0 0 1 460 190 L 460 210 L 460 210 A 8 8 0 0 1 452 218 L 348 218 L 348 218 A 8 8 0 0 1 340 210 L 340 190 L 340 190 A 8 8 0 0 1 348 182 L 400 182 Z" fill-opacity="1" stroke-opacity="1" stroke-miterlimit="10" stroke-width="3"/><text fill="rgb(0,0,0)" stroke="none" font-family="arial" font-size="16px" font-style="normal" font-weight="bold" text-decoration="normal" x="400" y="208" text-anchor="middle" dominant-baseline="text-after-edge" fill-opacity="1">poly(styrene)</text><path fill="rgb(217,125,125)" stroke="rgb(0,0,0)" paint-order="fill stroke markers" d=" M 200 82 L 233.5 82 L 233.5 82 A 8 8 0 0 1 241.5 90 L 241.5 110 L 241.5 110 A 8 8 0 0 1 233.5 118 L 166.5 118 L 166.5 118 A 8 8 0 0 1 158.5 110 L 158.5 90 L 158.5 90 A 8 8 0 0 1 166.5 82 L 200 82 Z" fill-opacity="1" stroke-opacity="1" stroke-miterlimit="10" stroke-width="3"/><text fill="rgb(0,0,0)" stroke="none" font-family="arial" font-size="16px" font-style="normal" font-weight="bold" text-decoration="normal" x="200" y="108" text-anchor="middle" dominant-baseline="text-after-edge" fill-opacity="1">Dylan W</text><path fill="rgb(217,125,125)" stroke="rgb(0,0,0)" paint-order="fill stroke markers" d=" M 600 82 L 655.5 82 L 655.5 82 A 8 8 0 0 1 663.5 90 L 663.5 110 L 663.5 110 A 8 8 0 0 1 655.5 118 L 544.5 118 L 544.5 118 A 8 8 0 0 1 536.5 110 L 536.5 90 L 536.5 90 A 8 8 0 0 1 544.5 82 L 600 82 Z" fill-opacity="1" stroke-opacity="1" stroke-miterlimit="10" stroke-width="3"/><text fill="rgb(0,0,0)" stroke="none" font-family="arial" font-size="16px" font-style="normal" font-weight="bold" text-decoration="normal" x="600" y="108" text-anchor="middle" dominant-baseline="text-after-edge" fill-opacity="1">anionic polym</text><path fill="rgb(217,125,125)" stroke="rgb(0,0,0)" paint-order="fill stroke markers" d=" M 133.33333333333334 182 L 194.83333333333334 182 L 194.83333333333334 182 A 8 8 0 0 1 202.83333333333334 190 L 202.83333333333334 210 L 202.83333333333334 210 A 8 8 0 0 1 194.83333333333334 218 L 71.83333333333334 218 L 71.83333333333334 218 A 8 8 0 0 1 63.83333333333334 210 L 63.83333333333334 190 L 63.83333333333334 190 A 8 8 0 0 1 71.83333333333334 182 L 133.33333333333334 182 Z" fill-opacity="1" stroke-opacity="1" stroke-miterlimit="10" stroke-width="3"/><text fill="rgb(0,0,0)" stroke="none" font-family="arial" font-size="16px" font-style="normal" font-weight="bold" text-decoration="normal" x="133.33333333333334" y="208" text-anchor="middle" dominant-baseline="text-after-edge" fill-opacity="1">Poly(1-phenylet</text><path fill="rgb(217,125,125)" stroke="rgb(0,0,0)" paint-order="fill stroke markers" d=" M 133.33333333333334 232 L 171.83333333333334 232 L 171.83333333333334 232 A 8 8 0 0 1 179.83333333333334 240 L 179.83333333333334 260 L 179.83333333333334 260 A 8 8 0 0 1 171.83333333333334 268 L 94.83333333333334 268 L 94.83333333333334 268 A 8 8 0 0 1 86.83333333333334 260 L 86.83333333333334 240 L 86.83333333333334 240 A 8 8 0 0 1 94.83333333333334 232 L 133.33333333333334 232 Z" fill-opacity="1" stroke-opacity="1" stroke-miterlimit="10" stroke-width="3"/><text fill="rgb(0,0,0)" stroke="none" font-family="arial" font-size="16px" font-style="normal" font-weight="bold" text-decoration="normal" x="133.33333333333334" y="258" text-anchor="middle" dominant-baseline="text-after-edge" fill-opacity="1">9003-53-6</text><path fill="rgb(217,125,125)" stroke="rgb(0,0,0)" paint-order="fill stroke markers" d=" M 133.33333333333334 282 L 197.83333333333334 282 L 197.83333333333334 282 A 8 8 0 0 1 205.83333333333334 290 L 205.83333333333334 310 L 205.83333333333334 310 A 8 8 0 0 1 197.83333333333334 318 L 68.83333333333334 318 L 68.83333333333334 318 A 8 8 0 0 1 60.83333333333334 310 L 60.83333333333334 290 L 60.83333333333334 290 A 8 8 0 0 1 68.83333333333334 282 L 133.33333333333334 282 Z" fill-opacity="1" stroke-opacity="1" stroke-miterlimit="10" stroke-width="3"/><text fill="rgb(0,0,0)" stroke="none" font-family="arial" font-size="16px" font-style="normal" font-weight="bold" text-decoration="normal" x="133.33333333333334" y="308" text-anchor="middle" dominant-baseline="text-after-edge" fill-opacity="1">{[$]CC(c1ccccc1</text><path fill="rgb(217,125,125)" stroke="rgb(0,0,0)" paint-order="fill stroke markers" d=" M 133.33333333333334 332 L 155.83333333333334 332 L 155.83333333333334 332 A 8 8 0 0 1 163.83333333333334 340 L 163.83333333333334 360 L 163.83333333333334 360 A 8 8 0 0 1 155.83333333333334 368 L 110.83333333333334 368 L 110.83333333333334 368 A 8 8 0 0 1 102.83333333333334 360 L 102.83333333333334 340 L 102.83333333333334 340 A 8 8 0 0 1 110.83333333333334 332 L 133.33333333333334 332 Z" fill-opacity="1" stroke-opacity="1" stroke-miterlimit="10" stroke-width="3"/><text fill="rgb(0,0,0)" stroke="none" font-family="arial" font-size="16px" font-style="normal" font-weight="bold" text-decoration="normal" x="133.33333333333334" y="358" text-anchor="middle" dominant-baseline="text-after-edge" fill-opacity="1">C8H8</text><path fill="rgb(217,125,125)" stroke="rgb(0,0,0)" paint-order="fill stroke markers" d=" M 666.6666666666666 182 L 728.1666666666666 182 L 728.1666666666666 182 A 8 8 0 0 1 736.1666666666666 190 L 736.1666666666666 210 L 736.1666666666666 210 A 8 8 0 0 1 728.1666666666666 218 L 605.1666666666666 218 L 605.1666666666666 218 A 8 8 0 0 1 597.1666666666666 210 L 597.1666666666666 190 L 597.1666666666666 190 A 8 8 0 0 1 605.1666666666666 182 L 666.6666666666666 182 Z" fill-opacity="1" stroke-opacity="1" stroke-miterlimit="10" stroke-width="3"/><text fill="rgb(0,0,0)" stroke="none" font-family="arial" font-size="16px" font-style="normal" font-weight="bold" text-decoration="normal" x="666.6666666666666" y="208" text-anchor="middle" dominant-baseline="text-after-edge" fill-opacity="1">conv_mon_nmr</text><path fill="rgb(217,125,125)" stroke="rgb(0,0,0)" paint-order="fill stroke markers" d=" M 666.6666666666666 232 L 704.6666666666666 232 L 704.6666666666666 232 A 8 8 0 0 1 712.6666666666666 240 L 712.6666666666666 260 L 712.6666666666666 260 A 8 8 0 0 1 704.6666666666666 268 L 628.6666666666666 268 L 628.6666666666666 268 A 8 8 0 0 1 620.6666666666666 260 L 620.6666666666666 240 L 620.6666666666666 240 A 8 8 0 0 1 628.6666666666666 232 L 666.6666666666666 232 Z" fill-opacity="1" stroke-opacity="1" stroke-miterlimit="10" stroke-width="3"/><text fill="rgb(0,0,0)" stroke="none" font-family="arial" font-size="16px" font-style="normal" font-weight="bold" text-decoration="normal" x="666.6666666666666" y="258" text-anchor="middle" dominant-baseline="text-after-edge" fill-opacity="1">m_n_nmr</text><path fill="rgb(217,125,125)" stroke="rgb(0,0,0)" paint-order="fill stroke markers" d=" M 666.6666666666666 282 L 702.6666666666666 282 L 702.6666666666666 282 A 8 8 0 0 1 710.6666666666666 290 L 710.6666666666666 310 L 710.6666666666666 310 A 8 8 0 0 1 702.6666666666666 318 L 630.6666666666666 318 L 630.6666666666666 318 A 8 8 0 0 1 622.6666666666666 310 L 622.6666666666666 290 L 622.6666666666666 290 A 8 8 0 0 1 630.6666666666666 282 L 666.6666666666666 282 Z" fill-opacity="1" stroke-opacity="1" stroke-miterlimit="10" stroke-width="3"/><text fill="rgb(0,0,0)" stroke="none" font-family="arial" font-size="16px" font-style="normal" font-weight="bold" text-decoration="normal" x="666.6666666666666" y="308" text-anchor="middle" dominant-baseline="text-after-edge" fill-opacity="1">m_n_sec</text><path fill="rgb(217,125,125)" stroke="rgb(0,0,0)" paint-order="fill stroke markers" d=" M 666.6666666666666 332 L 691.1666666666666 332 L 691.1666666666666 332 A 8 8 0 0 1 699.1666666666666 340 L 699.1666666666666 360 L 699.1666666666666 360 A 8 8 0 0 1 691.1666666666666 368 L 642.1666666666666 368 L 642.1666666666666 368 A 8 8 0 0 1 634.1666666666666 360 L 634.1666666666666 340 L 634.1666666666666 340 A 8 8 0 0 1 642.1666666666666 332 L 666.6666666666666 332 Z" fill-opacity="1" stroke-opacity="1" stroke-miterlimit="10" stroke-width="3"/><text fill="rgb(0,0,0)" stroke="none" font-family="arial" font-size="16px" font-style="normal" font-weight="bold" text-decoration="normal" x="666.6666666666666" y="358" text-anchor="middle" dominant-baseline="text-after-edge" fill-opacity="1">d_sec</text><path fill="rgb(217,125,125)" stroke="rgb(0,0,0)" paint-order="fill stroke markers" d=" M 330 332 L 385.5 332 L 385.5 332 A 8 8 0 0 1 393.5 340 L 393.5 360 L 393.5 360 A 8 8 0 0 1 385.5 368 L 274.5 368 L 274.5 368 A 8 8 0 0 1 266.5 360 L 266.5 340 L 266.5 340 A 8 8 0 0 1 274.5 332 L 330 332 Z" fill-opacity="1" stroke-opacity="1" stroke-miterlimit="10" stroke-width="3"/><text fill="rgb(0,0,0)" stroke="none" font-family="arial" font-size="16px" font-style="normal" font-weight="bold" text-decoration="normal" x="330" y="358" text-anchor="middle" dominant-baseline="text-after-edge" fill-opacity="1">anionic polym</text><path fill="rgb(217,125,125)" stroke="rgb(0,0,0)" paint-order="fill stroke markers" d=" M 470 332 L 501 332 L 501 332 A 8 8 0 0 1 509 340 L 509 360 L 509 360 A 8 8 0 0 1 501 368 L 439 368 L 439 368 A 8 8 0 0 1 431 360 L 431 340 L 431 340 A 8 8 0 0 1 439 332 L 470 332 Z" fill-opacity="1" stroke-opacity="1" stroke-miterlimit="10" stroke-width="3"/><text fill="rgb(0,0,0)" stroke="none" font-family="arial" font-size="16px" font-style="normal" font-weight="bold" text-decoration="normal" x="470" y="358" text-anchor="middle" dominant-baseline="text-after-edge" fill-opacity="1">nmr_1h</text><path fill="rgb(217,125,125)" stroke="rgb(0,0,0)" paint-order="fill stroke markers" d=" M 470 382 L 485 382 L 485 382 A 8 8 0 0 1 493 390 L 493 410 L 493 410 A 8 8 0 0 1 485 418 L 455 418 L 455 418 A 8 8 0 0 1 447 410 L 447 390 L 447 390 A 8 8 0 0 1 455 382 L 470 382 Z" fill-opacity="1" stroke-opacity="1" stroke-miterlimit="10" stroke-width="3"/><text fill="rgb(0,0,0)" stroke="none" font-family="arial" font-size="16px" font-style="normal" font-weight="bold" text-decoration="normal" x="470" y="408" text-anchor="middle" dominant-baseline="text-after-edge" fill-opacity="1">sec</text><g transform="scale(0.4476470588235294,0.4476470588235294) translate(-109.78975032851523,42.279894875164246)"/></g></svg>