<svg version="1.1" xmlns="http://www.w3.org/2000/svg" xmlns:xlink="http://www.w3.org/1999/xlink" width="1200" height="600"><defs/><g transform="translate(61.182654402102486,-25.367936925098547) scale(1.340341655716163,1.340341655716163)"><path fill="rgb(128,128,128)" stroke="rgb(0,0,0)" paint-order="fill stroke markers" d=" M 200 169.5 L 271 169.5 L 271 169.5 A 8 8 0 0 1 279 177.5 L 279 422.5 L 279 422.5 A 8 8 0 0 1 271 430.5 L 129 430.5 L 129 430.5 A 8 8 0 0 1 121 422.5 L 121 177.5 L 121 177.5 A 8 8 0 0 1 129 169.5 L 200 169.5 Z" fill-opacity="1" stroke-opacity="1" stroke-miterlimit="10" stroke-width="3"/><text fill="rgb(0,0,0)" stroke="none" font-family="arial" font-size="16px" font-style="normal" font-weight="bold" text-decoration="normal" x="200" y="169.5" text-anchor="middle" dominant-baseline="text-after-edge" fill-opacity="1">users</text><path fill="rgb(128,128,128)" stroke="rgb(0,0,0)" paint-order="fill stroke markers" d=" M 600 169.5 L 675 169.5 L 675 169.5 A 8 8 0 0 1 683 177.5 L 683 322.5 L 683 322.5 A 8 8 0 0 1 675 330.5 L 525 330.5 L 525 330.5 A 8 8 0 0 1 517 322.5 L 517 177.5 L 517 177.5 A 8 8 0 0 1 525 169.5 L 600 169.5 Z" fill-opacity="1" stroke-opacity="1" stroke-miterlimit="10" stroke-width="3"/><text fill="rgb(0,0,0)" stroke="none" font-family="arial" font-size="16px" font-style="normal" font-weight="bold" text-decoration="normal" x="600" y="169.5" text-anchor="middle" dominant-baseline="text-after-edge" fill-opacity="1">publications</text><path fill="rgb(128,128,128)" stroke="rgb(0,0,0)" paint-order="fill stroke markers" d=" M 406 69.5 L 490 69.5 L 490 69.5 A 8 8 0 0 1 498 77.5 L 498 122.5 L 498 122.5 A 8 8 0 0 1 490 130.5 L 322 130.5 L 322 130.5 A 8 8 0 0 1 314 122.5 L 314 77.5 L 314 77.5 A 8 8 0 0 1 322 69.5 L 406 69.5 Z" fill-opacity="1" stroke-opacity="1" stroke-miterlimit="10" stroke-width="3"/><text fill="rgb(0,0,0)" stroke="none" font-family="arial" font-size="16px" font-style="normal" font-weight="bold" text-decoration="normal" x="406" y="69.5" text-anchor="middle" dominant-baseline="text-after-edge" fill-opacity="1">group</text><path fill="none" stroke="rgb(0,0,0)" paint-order="fill stroke markers" d=" M 401.17 180.5 L 404.08 132" stroke-opacity="1" stroke-linejoin="round" stroke-miterlimit="10" stroke-width="3"/><path fill="none" stroke="rgb(0,0,0)" paint-order="fill stroke markers" d=" M 280.5 259.75 L 366.4746841227277 216.76265793863615" stroke-opacity="1" stroke-linejoin="round" stroke-miterlimit="10" stroke-width="3"/><path fill="none" stroke="rgb(0,0,0)" paint-order="fill stroke markers" d=" M 515.5 228.875 L 435.5 208.875" stroke-opacity="1" stroke-linejoin="round" stroke-miterlimit="10" stroke-width="3"/><path fill="rgb(217,125,125)" stroke="rgb(0,0,0)" paint-order="fill stroke markers" d=" M 400 182 L 426 182 L 426 182 A 8 8 0 0 1 434 190 L 434 210 L 434 210 A 8 8 0 0 1 426 218 L 374 218 L 374 218 A 8 8 0 0 1 366 210 L 366 190 L 366 190 A 8 8 0 0 1 374 182 L 400 182 Z" fill-opacity="1" stroke-opacity="1" stroke-miterlimit="10" stroke-width="3"/><text fill="rgb(0,0,0)" stroke="none" font-family="arial" font-size="16px" font-style="normal" font-weight="bold" text-decoration="normal" x="400" y="208" text-anchor="middle" dominant-baseline="text-after-edge" fill-opacity="1">CRIPT</text><path fill="rgb(217,125,125)" stroke="rgb(0,0,0)" paint-order="fill stroke markers" d=" M 350 82 L 365.5 82 L 365.5 82 A 8 8 0 0 1 373.5 90 L 373.5 110 L 373.5 110 A 8 8 0 0 1 365.5 118 L 334.5 118 L 334.5 118 A 8 8 0 0 1 326.5 110 L 326.5 90 L 326.5 90 A 8 8 0 0 1 334.5 82 L 350 82 Z" fill-opacity="1" stroke-opacity="1" stroke-miterlimit="10" stroke-width="3"/><text fill="rgb(0,0,0)" stroke="none" font-family="arial" font-size="16px" font-style="normal" font-weight="bold" text-decoration="normal" x="350" y="108" text-anchor="middle" dominant-baseline="text-after-edge" fill-opacity="1">MIT</text><path fill="rgb(217,125,125)" stroke="rgb(0,0,0)" paint-order="fill stroke markers" d=" M 450 82 L 477.5 82 L 477.5 82 A 8 8 0 0 1 485.5 90 L 485.5 110 L 485.5 110 A 8 8 0 0 1 477.5 118 L 422.5 118 L 422.5 118 A 8 8 0 0 1 414.5 110 L 414.5 90 L 414.5 90 A 8 8 0 0 1 422.5 82 L 450 82 Z" fill-opacity="1" stroke-opacity="1" stroke-miterlimit="10" stroke-width="3"/><text fill="rgb(0,0,0)" stroke="none" font-family="arial" font-size="16px" font-style="normal" font-weight="bold" text-decoration="normal" x="450" y="108" text-anchor="middle" dominant-baseline="text-after-edge" fill-opacity="1">Citrine</text><path fill="rgb(217,125,125)" stroke="rgb(0,0,0)" paint-order="fill stroke markers" d=" M 200 182 L 233.5 182 L 233.5 182 A 8 8 0 0 1 241.5 190 L 241.5 210 L 241.5 210 A 8 8 0 0 1 233.5 218 L 166.5 218 L 166.5 218 A 8 8 0 0 1 158.5 210 L 158.5 190 L 158.5 190 A 8 8 0 0 1 166.5 182 L 200 182 Z" fill-opacity="1" stroke-opacity="1" stroke-miterlimit="10" stroke-width="3"/><text fill="rgb(0,0,0)" stroke="none" font-family="arial" font-size="16px" font-style="normal" font-weight="bold" text-decoration="normal" x="200" y="208" text-anchor="middle" dominant-baseline="text-after-edge" fill-opacity="1">Dylan W</text><path fill="rgb(217,125,125)" stroke="rgb(0,0,0)" paint-order="fill stroke markers" d=" M 200 232 L 226 232 L 226 232 A 8 8 0 0 1 234 240 L 234 260 L 234 260 A 8 8 0 0 1 226 268 L 174 268 L 174 268 A 8 8 0 0 1 166 260 L 166 240 L 166 240 A 8 8 0 0 1 174 232 L 200 232 Z" fill-opacity="1" stroke-opacity="1" stroke-miterlimit="10" stroke-width="3"/><text fill="rgb(0,0,0)" stroke="none" font-family="arial" font-size="16px" font-style="normal" font-weight="bold" text-decoration="normal" x="200" y="258" text-anchor="middle" dominant-baseline="text-after-edge" fill-opacity="1">Eric M</text><path fill="rgb(217,125,125)" stroke="rgb(0,0,0)" paint-order="fill stroke markers" d=" M 200 282 L 230.5 282 L 230.5 282 A 8 8 0 0 1 238.5 290 L 238.5 310 L 238.5 310 A 8 8 0 0 1 230.5 318 L 169.5 318 L 169.5 318 A 8 8 0 0 1 161.5 310 L 161.5 290 L 161.5 290 A 8 8 0 0 1 169.5 282 L 200 282 Z" fill-opacity="1" stroke-opacity="1" stroke-miterlimit="10" stroke-width="3"/><text fill="rgb(0,0,0)" stroke="none" font-family="arial" font-size="16px" font-style="normal" font-weight="bold" text-decoration="normal" x="200" y="308" text-anchor="middle" dominant-baseline="text-after-edge" fill-opacity="1">Chris B</text><path fill="rgb(217,125,125)" stroke="rgb(0,0,0)" paint-order="fill stroke markers" d=" M 200 332 L 258.5 332 L 258.5 332 A 8 8 0 0 1 266.5 340 L 266.5 360 L 266.5 360 A 8 8 0 0 1 258.5 368 L 141.5 368 L 141.5 368 A 8 8 0 0 1 133.5 360 L 133.5 340 L 133.5 340 A 8 8 0 0 1 141.5 332 L 200 332 Z" fill-opacity="1" stroke-opacity="1" stroke-miterlimit="10" stroke-width="3"/><text fill="rgb(0,0,0)" stroke="none" font-family="arial" font-size="16px" font-style="normal" font-weight="bold" text-decoration="normal" x="200" y="358" text-anchor="middle" dominant-baseline="text-after-edge" fill-opacity="1">Tzyy-Shyang L</text><path fill="rgb(217,125,125)" stroke="rgb(0,0,0)" paint-order="fill stroke markers" d=" M 200 382 L 231 382 L 231 382 A 8 8 0 0 1 239 390 L 239 410 L 239 410 A 8 8 0 0 1 231 418 L 169 418 L 169 418 A 8 8 0 0 1 161 410 L 161 390 L 161 390 A 8 8 0 0 1 169 382 L 200 382 Z" fill-opacity="1" stroke-opacity="1" stroke-miterlimit="10" stroke-width="3"/><text fill="rgb(0,0,0)" stroke="none" font-family="arial" font-size="16px" font-style="normal" font-weight="bold" text-decoration="normal" x="200" y="408" text-anchor="middle" dominant-baseline="text-after-edge" fill-opacity="1">Vinay H</text><path fill="rgb(217,125,125)" stroke="rgb(0,0,0)" paint-order="fill stroke markers" d=" M 600 182 L 662.5 182 L 662.5 182 A 8 8 0 0 1 670.5 190 L 670.5 210 L 670.5 210 A 8 8 0 0 1 662.5 218 L 537.5 218 L 537.5 218 A 8 8 0 0 1 529.5 210 L 529.5 190 L 529.5 190 A 8 8 0 0 1 537.5 182 L 600 182 Z" fill-opacity="1" stroke-opacity="1" stroke-miterlimit="10" stroke-width="3"/><text fill="rgb(0,0,0)" stroke="none" font-family="arial" font-size="16px" font-style="normal" font-weight="bold" text-decoration="normal" x="600" y="208" text-anchor="middle" dominant-baseline="text-after-edge" fill-opacity="1">CRIPT database</text><path fill="rgb(217,125,125)" stroke="rgb(0,0,0)" paint-order="fill stroke markers" d=" M 600 232 L 644.5 232 L 644.5 232 A 8 8 0 0 1 652.5 240 L 652.5 260 L 652.5 260 A 8 8 0 0 1 644.5 268 L 555.5 268 L 555.5 268 A 8 8 0 0 1 547.5 260 L 547.5 240 L 547.5 240 A 8 8 0 0 1 555.5 232 L 600 232 Z" fill-opacity="1" stroke-opacity="1" stroke-miterlimit="10" stroke-width="3"/><text fill="rgb(0,0,0)" stroke="none" font-family="arial" font-size="16px" font-style="normal" font-weight="bold" text-decoration="normal" x="600" y="258" text-anchor="middle" dominant-baseline="text-after-edge" fill-opacity="1">BigSMILES</text><path fill="rgb(217,125,125)" stroke="rgb(0,0,0)" paint-order="fill stroke markers" d=" M 600 282 L 631.5 282 L 631.5 282 A 8 8 0 0 1 639.5 290 L 639.5 310 L 639.5 310 A 8 8 0 0 1 631.5 318 L 568.5 318 L 568.5 318 A 8 8 0 0 1 560.5 310 L 560.5 290 L 560.5 290 A 8 8 0 0 1 568.5 282 L 600 282 Z" fill-opacity="1" stroke-opacity="1" stroke-miterlimit="10" stroke-width="3"/><text fill="rgb(0,0,0)" stroke="none" font-family="arial" font-size="16px" font-style="normal" font-weight="bold" text-decoration="normal" x="600" y="308" text-anchor="middle" dominant-baseline="text-after-edge" fill-opacity="1">PolyDat</text><g transform="scale(0.746078431372549,0.746078431372549) translate(-61.182654402102486,25.367936925098547)"/></g></svg>