<svg version="1.1" xmlns="http://www.w3.org/2000/svg" xmlns:xlink="http://www.w3.org/1999/xlink" width="800" height="400"><defs/><g transform="translate(-67.87878787878788,-33.636363636363654) scale(1.2121212121212122,1.2121212121212122)"><path fill="rgb(128,128,128)" stroke="rgb(0,0,0)" paint-order="fill stroke markers" d=" M 200 169.5 L 274 169.5 L 274 169.5 A 8 8 0 0 1 282 177.5 L 282 322.5 L 282 322.5 A 8 8 0 0 1 274 330.5 L 126 330.5 L 126 330.5 A 8 8 0 0 1 118 322.5 L 118 177.5 L 118 177.5 A 8 8 0 0 1 126 169.5 L 200 169.5 Z" fill-opacity="1" stroke-opacity="1" stroke-miterlimit="10" stroke-width="3"/><text fill="rgb(0,0,0)" stroke="none" font-family="arial" font-size="16px" font-style="normal" font-weight="bold" text-decoration="normal" x="200" y="169.5" text-anchor="middle" dominant-baseline="text-after-edge" fill-opacity="1">experiments</text><path fill="rgb(128,128,128)" stroke="rgb(0,0,0)" paint-order="fill stroke markers" d=" M 600 169.5 L 646 169.5 L 646 169.5 A 8 8 0 0 1 654 177.5 L 654 222.5 L 654 222.5 A 8 8 0 0 1 646 230.5 L 554 230.5 L 554 230.5 A 8 8 0 0 1 546 222.5 L 546 177.5 L 546 177.5 A 8 8 0 0 1 554 169.5 L 600 169.5 Z" fill-opacity="1" stroke-opacity="1" stroke-miterlimit="10" stroke-width="3"/><text fill="rgb(0,0,0)" stroke="none" font-family="arial" font-size="16px" font-style="normal" font-weight="bold" text-decoration="normal" x="600" y="169.5" text-anchor="middle" dominant-baseline="text-after-edge" fill-opacity="1">author</text><path fill="rgb(128,128,128)" stroke="rgb(0,0,0)" paint-order="fill stroke markers" d=" M 400 69.5 L 434 69.5 L 434 69.5 A 8 8 0 0 1 442 77.5 L 442 122.5 L 442 122.5 A 8 8 0 0 1 434 130.5 L 366 130.5 L 366 130.5 A 8 8 0 0 1 358 122.5 L 358 77.5 L 358 77.5 A 8 8 0 0 1 366 69.5 L 400 69.5 Z" fill-opacity="1" stroke-opacity="1" stroke-miterlimit="10" stroke-width="3"/><text fill="rgb(0,0,0)" stroke="none" font-family="arial" font-size="16px" font-style="normal" font-weight="bold" text-decoration="normal" x="400" y="69.5" text-anchor="middle" dominant-baseline="text-after-edge" fill-opacity="1">group</text><path fill="none" stroke="rgb(0,0,0)" paint-order="fill stroke markers" d=" M 400 180.5 L 400 132" stroke-opacity="1" stroke-linejoin="round" stroke-miterlimit="10" stroke-width="3"/><path fill="none" stroke="rgb(0,0,0)" paint-order="fill stroke markers" d=" M 334.2127809992413 216.44680475018967 L 283.5 229.125" stroke-opacity="1" stroke-linejoin="round" stroke-miterlimit="10" stroke-width="3"/><path fill="none" stroke="rgb(0,0,0)" paint-order="fill stroke markers" d=" M 467.5 200 L 544.5 200" stroke-opacity="1" stroke-linejoin="round" stroke-miterlimit="10" stroke-width="3"/><path fill="rgb(217,125,125)" stroke="rgb(0,0,0)" paint-order="fill stroke markers" d=" M 400 182 L 458 182 L 458 182 A 8 8 0 0 1 466 190 L 466 210 L 466 210 A 8 8 0 0 1 458 218 L 342 218 L 342 218 A 8 8 0 0 1 334 210 L 334 190 L 334 190 A 8 8 0 0 1 342 182 L 400 182 Z" fill-opacity="1" stroke-opacity="1" stroke-miterlimit="10" stroke-width="3"/><text fill="rgb(0,0,0)" stroke="none" font-family="arial" font-size="16px" font-style="normal" font-weight="bold" text-decoration="normal" x="400" y="208" text-anchor="middle" dominant-baseline="text-after-edge" fill-opacity="1">Engineering of</text><path fill="rgb(217,125,125)" stroke="rgb(0,0,0)" paint-order="fill stroke markers" d=" M 400 82 L 421.5 82 L 421.5 82 A 8 8 0 0 1 429.5 90 L 429.5 110 L 429.5 110 A 8 8 0 0 1 421.5 118 L 378.5 118 L 378.5 118 A 8 8 0 0 1 370.5 110 L 370.5 90 L 370.5 90 A 8 8 0 0 1 378.5 82 L 400 82 Z" fill-opacity="1" stroke-opacity="1" stroke-miterlimit="10" stroke-width="3"/><text fill="rgb(0,0,0)" stroke="none" font-family="arial" font-size="16px" font-style="normal" font-weight="bold" text-decoration="normal" x="400" y="108" text-anchor="middle" dominant-baseline="text-after-edge" fill-opacity="1">UIUC</text><path fill="rgb(217,125,125)" stroke="rgb(0,0,0)" paint-order="fill stroke markers" d=" M 200 182 L 261.5 182 L 261.5 182 A 8 8 0 0 1 269.5 190 L 269.5 210 L 269.5 210 A 8 8 0 0 1 261.5 218 L 138.5 218 L 138.5 218 A 8 8 0 0 1 130.5 210 L 130.5 190 L 130.5 190 A 8 8 0 0 1 138.5 182 L 200 182 Z" fill-opacity="1" stroke-opacity="1" stroke-miterlimit="10" stroke-width="3"/><text fill="rgb(0,0,0)" stroke="none" font-family="arial" font-size="16px" font-style="normal" font-weight="bold" text-decoration="normal" x="200" y="208" text-anchor="middle" dominant-baseline="text-after-edge" fill-opacity="1">ROMP monome</text><path fill="rgb(217,125,125)" stroke="rgb(0,0,0)" paint-order="fill stroke markers" d=" M 200 232 L 259 232 L 259 232 A 8 8 0 0 1 267 240 L 267 260 L 267 260 A 8 8 0 0 1 259 268 L 141 268 L 141 268 A 8 8 0 0 1 133 260 L 133 240 L 133 240 A 8 8 0 0 1 141 232 L 200 232 Z" fill-opacity="1" stroke-opacity="1" stroke-miterlimit="10" stroke-width="3"/><text fill="rgb(0,0,0)" stroke="none" font-family="arial" font-size="16px" font-style="normal" font-weight="bold" text-decoration="normal" x="200" y="258" text-anchor="middle" dominant-baseline="text-after-edge" fill-opacity="1">PLA bottlebrus</text><path fill="rgb(217,125,125)" stroke="rgb(0,0,0)" paint-order="fill stroke markers" d=" M 200 282 L 256.5 282 L 256.5 282 A 8 8 0 0 1 264.5 290 L 264.5 310 L 264.5 310 A 8 8 0 0 1 256.5 318 L 143.5 318 L 143.5 318 A 8 8 0 0 1 135.5 310 L 135.5 290 L 135.5 290 A 8 8 0 0 1 143.5 282 L 200 282 Z" fill-opacity="1" stroke-opacity="1" stroke-miterlimit="10" stroke-width="3"/><text fill="rgb(0,0,0)" stroke="none" font-family="arial" font-size="16px" font-style="normal" font-weight="bold" text-decoration="normal" x="200" y="308" text-anchor="middle" dominant-baseline="text-after-edge" fill-opacity="1">ROP of lactide</text><path fill="rgb(217,125,125)" stroke="rgb(0,0,0)" paint-order="fill stroke markers" d=" M 600 182 L 633.5 182 L 633.5 182 A 8 8 0 0 1 641.5 190 L 641.5 210 L 641.5 210 A 8 8 0 0 1 633.5 218 L 566.5 218 L 566.5 218 A 8 8 0 0 1 558.5 210 L 558.5 190 L 558.5 190 A 8 8 0 0 1 566.5 182 L 600 182 Z" fill-opacity="1" stroke-opacity="1" stroke-miterlimit="10" stroke-width="3"/><text fill="rgb(0,0,0)" stroke="none" font-family="arial" font-size="16px" font-style="normal" font-weight="bold" text-decoration="normal" x="600" y="208" text-anchor="middle" dominant-baseline="text-after-edge" fill-opacity="1">Dylan W</text><g transform="scale(0.825,0.825) translate(67.87878787878788,33.636363636363654)"/></g></svg>