<svg version="1.1" xmlns="http://www.w3.org/2000/svg" xmlns:xlink="http://www.w3.org/1999/xlink" width="800" height="400"><defs/><g transform="translate(81.12659698025556,-11.463414634146318) scale(0.7897793263646922,0.7897793263646922)"><path fill="rgb(128,128,128)" stroke="rgb(0,0,0)" paint-order="fill stroke markers" d=" M 600 69.5 L 673 69.5 L 673 69.5 A 8 8 0 0 1 681 77.5 L 681 322.5 L 681 322.5 A 8 8 0 0 1 673 330.5 L 527 330.5 L 527 330.5 A 8 8 0 0 1 519 322.5 L 519 77.5 L 519 77.5 A 8 8 0 0 1 527 69.5 L 600 69.5 Z" fill-opacity="1" stroke-opacity="1" stroke-miterlimit="10" stroke-width="3"/><text fill="rgb(0,0,0)" stroke="none" font-family="arial" font-size="16px" font-style="normal" font-weight="bold" text-decoration="normal" x="600" y="69.5" text-anchor="middle" dominant-baseline="text-after-edge" fill-opacity="1">materials</text><path fill="rgb(128,128,128)" stroke="rgb(0,0,0)" paint-order="fill stroke markers" d=" M 300 369.5 L 374 369.5 L 374 369.5 A 8 8 0 0 1 382 377.5 L 382 422.5 L 382 422.5 A 8 8 0 0 1 374 430.5 L 226 430.5 L 226 430.5 A 8 8 0 0 1 218 422.5 L 218 377.5 L 218 377.5 A 8 8 0 0 1 226 369.5 L 300 369.5 Z" fill-opacity="1" stroke-opacity="1" stroke-miterlimit="10" stroke-width="3"/><text fill="rgb(0,0,0)" stroke="none" font-family="arial" font-size="16px" font-style="normal" font-weight="bold" text-decoration="normal" x="300" y="369.5" text-anchor="middle" dominant-baseline="text-after-edge" fill-opacity="1">process</text><path fill="rgb(128,128,128)" stroke="rgb(0,0,0)" paint-order="fill stroke markers" d=" M 500 369.5 L 545 369.5 L 545 369.5 A 8 8 0 0 1 553 377.5 L 553 472.5 L 553 472.5 A 8 8 0 0 1 545 480.5 L 455 480.5 L 455 480.5 A 8 8 0 0 1 447 472.5 L 447 377.5 L 447 377.5 A 8 8 0 0 1 455 369.5 L 500 369.5 Z" fill-opacity="1" stroke-opacity="1" stroke-miterlimit="10" stroke-width="3"/><text fill="rgb(0,0,0)" stroke="none" font-family="arial" font-size="16px" font-style="normal" font-weight="bold" text-decoration="normal" x="500" y="369.5" text-anchor="middle" dominant-baseline="text-after-edge" fill-opacity="1">data</text><path fill="rgb(128,128,128)" stroke="rgb(0,0,0)" paint-order="fill stroke markers" d=" M 200 169.5 L 265.5 169.5 L 265.5 169.5 A 8 8 0 0 1 273.5 177.5 L 273.5 272.5 L 273.5 272.5 A 8 8 0 0 1 265.5 280.5 L 134.5 280.5 L 134.5 280.5 A 8 8 0 0 1 126.5 272.5 L 126.5 177.5 L 126.5 177.5 A 8 8 0 0 1 134.5 169.5 L 200 169.5 Z" fill-opacity="1" stroke-opacity="1" stroke-miterlimit="10" stroke-width="3"/><text fill="rgb(0,0,0)" stroke="none" font-family="arial" font-size="16px" font-style="normal" font-weight="bold" text-decoration="normal" x="200" y="169.5" text-anchor="middle" dominant-baseline="text-after-edge" fill-opacity="1">publications</text><path fill="rgb(128,128,128)" stroke="rgb(0,0,0)" paint-order="fill stroke markers" d=" M 400 69.5 L 446 69.5 L 446 69.5 A 8 8 0 0 1 454 77.5 L 454 122.5 L 454 122.5 A 8 8 0 0 1 446 130.5 L 354 130.5 L 354 130.5 A 8 8 0 0 1 346 122.5 L 346 77.5 L 346 77.5 A 8 8 0 0 1 354 69.5 L 400 69.5 Z" fill-opacity="1" stroke-opacity="1" stroke-miterlimit="10" stroke-width="3"/><text fill="rgb(0,0,0)" stroke="none" font-family="arial" font-size="16px" font-style="normal" font-weight="bold" text-decoration="normal" x="400" y="69.5" text-anchor="middle" dominant-baseline="text-after-edge" fill-opacity="1">users</text><path fill="none" stroke="rgb(0,0,0)" paint-order="fill stroke markers" d=" M 337 207.875 L 275 215.625" stroke-opacity="1" stroke-linejoin="round" stroke-miterlimit="10" stroke-width="3"/><path fill="none" stroke="rgb(0,0,0)" paint-order="fill stroke markers" d=" M 400 180.5 L 400 132" stroke-opacity="1" stroke-linejoin="round" stroke-miterlimit="10" stroke-width="3"/><path fill="none" stroke="rgb(0,0,0)" paint-order="fill stroke markers" d=" M 463 200 L 517.5 200" stroke-opacity="1" stroke-linejoin="round" stroke-miterlimit="10" stroke-width="3"/><path fill="none" stroke="rgb(0,0,0)" paint-order="fill stroke markers" d=" M 390.25 219.5 L 316 368" stroke-opacity="1" stroke-linejoin="round" stroke-miterlimit="10" stroke-width="3"/><path fill="none" stroke="rgb(0,0,0)" paint-order="fill stroke markers" d=" M 408.6666666666667 219.5 L 474.6666666666667 368" stroke-opacity="1" stroke-linejoin="round" stroke-miterlimit="10" stroke-width="3"/><path fill="rgb(217,125,125)" stroke="rgb(0,0,0)" paint-order="fill stroke markers" d=" M 400 182 L 453.5 182 L 453.5 182 A 8 8 0 0 1 461.5 190 L 461.5 210 L 461.5 210 A 8 8 0 0 1 453.5 218 L 346.5 218 L 346.5 218 A 8 8 0 0 1 338.5 210 L 338.5 190 L 338.5 190 A 8 8 0 0 1 346.5 182 L 400 182 Z" fill-opacity="1" stroke-opacity="1" stroke-miterlimit="10" stroke-width="3"/><text fill="rgb(0,0,0)" stroke="none" font-family="arial" font-size="16px" font-style="normal" font-weight="bold" text-decoration="normal" x="400" y="208" text-anchor="middle" dominant-baseline="text-after-edge" fill-opacity="1">ROMP kinetic</text><path fill="rgb(217,125,125)" stroke="rgb(0,0,0)" paint-order="fill stroke markers" d=" M 400 82 L 433.5 82 L 433.5 82 A 8 8 0 0 1 441.5 90 L 441.5 110 L 441.5 110 A 8 8 0 0 1 433.5 118 L 366.5 118 L 366.5 118 A 8 8 0 0 1 358.5 110 L 358.5 90 L 358.5 90 A 8 8 0 0 1 366.5 82 L 400 82 Z" fill-opacity="1" stroke-opacity="1" stroke-miterlimit="10" stroke-width="3"/><text fill="rgb(0,0,0)" stroke="none" font-family="arial" font-size="16px" font-style="normal" font-weight="bold" text-decoration="normal" x="400" y="108" text-anchor="middle" dominant-baseline="text-after-edge" fill-opacity="1">Dylan W</text><path fill="rgb(217,125,125)" stroke="rgb(0,0,0)" paint-order="fill stroke markers" d=" M 200 182 L 253 182 L 253 182 A 8 8 0 0 1 261 190 L 261 210 L 261 210 A 8 8 0 0 1 253 218 L 147 218 L 147 218 A 8 8 0 0 1 139 210 L 139 190 L 139 190 A 8 8 0 0 1 147 182 L 200 182 Z" fill-opacity="1" stroke-opacity="1" stroke-miterlimit="10" stroke-width="3"/><text fill="rgb(0,0,0)" stroke="none" font-family="arial" font-size="16px" font-style="normal" font-weight="bold" text-decoration="normal" x="200" y="208" text-anchor="middle" dominant-baseline="text-after-edge" fill-opacity="1">Kinetic Study</text><path fill="rgb(217,125,125)" stroke="rgb(0,0,0)" paint-order="fill stroke markers" d=" M 200 232 L 253 232 L 253 232 A 8 8 0 0 1 261 240 L 261 260 L 261 260 A 8 8 0 0 1 253 268 L 147 268 L 147 268 A 8 8 0 0 1 139 260 L 139 240 L 139 240 A 8 8 0 0 1 147 232 L 200 232 Z" fill-opacity="1" stroke-opacity="1" stroke-miterlimit="10" stroke-width="3"/><text fill="rgb(0,0,0)" stroke="none" font-family="arial" font-size="16px" font-style="normal" font-weight="bold" text-decoration="normal" x="200" y="258" text-anchor="middle" dominant-baseline="text-after-edge" fill-opacity="1">Kinetic Study</text><path fill="rgb(217,125,125)" stroke="rgb(0,0,0)" paint-order="fill stroke markers" d=" M 600 82 L 646 82 L 646 82 A 8 8 0 0 1 654 90 L 654 110 L 654 110 A 8 8 0 0 1 646 118 L 554 118 L 554 118 A 8 8 0 0 1 546 110 L 546 90 L 546 90 A 8 8 0 0 1 554 82 L 600 82 Z" fill-opacity="1" stroke-opacity="1" stroke-miterlimit="10" stroke-width="3"/><text fill="rgb(0,0,0)" stroke="none" font-family="arial" font-size="16px" font-style="normal" font-weight="bold" text-decoration="normal" x="600" y="108" text-anchor="middle" dominant-baseline="text-after-edge" fill-opacity="1">G3 Catalyst</text><path fill="rgb(217,125,125)" stroke="rgb(0,0,0)" paint-order="fill stroke markers" d=" M 600 132 L 648 132 L 648 132 A 8 8 0 0 1 656 140 L 656 160 L 656 160 A 8 8 0 0 1 648 168 L 552 168 L 552 168 A 8 8 0 0 1 544 160 L 544 140 L 544 140 A 8 8 0 0 1 552 132 L 600 132 Z" fill-opacity="1" stroke-opacity="1" stroke-miterlimit="10" stroke-width="3"/><text fill="rgb(0,0,0)" stroke="none" font-family="arial" font-size="16px" font-style="normal" font-weight="bold" text-decoration="normal" x="600" y="158" text-anchor="middle" dominant-baseline="text-after-edge" fill-opacity="1">dichloromet</text><path fill="rgb(217,125,125)" stroke="rgb(0,0,0)" paint-order="fill stroke markers" d=" M 600 182 L 649 182 L 649 182 A 8 8 0 0 1 657 190 L 657 210 L 657 210 A 8 8 0 0 1 649 218 L 551 218 L 551 218 A 8 8 0 0 1 543 210 L 543 190 L 543 190 A 8 8 0 0 1 551 182 L 600 182 Z" fill-opacity="1" stroke-opacity="1" stroke-miterlimit="10" stroke-width="3"/><text fill="rgb(0,0,0)" stroke="none" font-family="arial" font-size="16px" font-style="normal" font-weight="bold" text-decoration="normal" x="600" y="208" text-anchor="middle" dominant-baseline="text-after-edge" fill-opacity="1">norbornene-</text><path fill="rgb(217,125,125)" stroke="rgb(0,0,0)" paint-order="fill stroke markers" d=" M 600 232 L 641 232 L 641 232 A 8 8 0 0 1 649 240 L 649 260 L 649 260 A 8 8 0 0 1 641 268 L 559 268 L 559 268 A 8 8 0 0 1 551 260 L 551 240 L 551 240 A 8 8 0 0 1 559 232 L 600 232 Z" fill-opacity="1" stroke-opacity="1" stroke-miterlimit="10" stroke-width="3"/><text fill="rgb(0,0,0)" stroke="none" font-family="arial" font-size="16px" font-style="normal" font-weight="bold" text-decoration="normal" x="600" y="258" text-anchor="middle" dominant-baseline="text-after-edge" fill-opacity="1">ethyl vinyl</text><path fill="rgb(217,125,125)" stroke="rgb(0,0,0)" paint-order="fill stroke markers" d=" M 600 282 L 660.5 282 L 660.5 282 A 8 8 0 0 1 668.5 290 L 668.5 310 L 668.5 310 A 8 8 0 0 1 660.5 318 L 539.5 318 L 539.5 318 A 8 8 0 0 1 531.5 310 L 531.5 290 L 531.5 290 A 8 8 0 0 1 539.5 282 L 600 282 Z" fill-opacity="1" stroke-opacity="1" stroke-miterlimit="10" stroke-width="3"/><text fill="rgb(0,0,0)" stroke="none" font-family="arial" font-size="16px" font-style="normal" font-weight="bold" text-decoration="normal" x="600" y="308" text-anchor="middle" dominant-baseline="text-after-edge" fill-opacity="1">poly(norborene</text><path fill="rgb(217,125,125)" stroke="rgb(0,0,0)" paint-order="fill stroke markers" d=" M 300 382 L 361.5 382 L 361.5 382 A 8 8 0 0 1 369.5 390 L 369.5 410 L 369.5 410 A 8 8 0 0 1 361.5 418 L 238.5 418 L 238.5 418 A 8 8 0 0 1 230.5 410 L 230.5 390 L 230.5 390 A 8 8 0 0 1 238.5 382 L 300 382 Z" fill-opacity="1" stroke-opacity="1" stroke-miterlimit="10" stroke-width="3"/><text fill="rgb(0,0,0)" stroke="none" font-family="arial" font-size="16px" font-style="normal" font-weight="bold" text-decoration="normal" x="300" y="408" text-anchor="middle" dominant-baseline="text-after-edge" fill-opacity="1">ROMP polymeri</text><path fill="rgb(217,125,125)" stroke="rgb(0,0,0)" paint-order="fill stroke markers" d=" M 500 382 L 532.5 382 L 532.5 382 A 8 8 0 0 1 540.5 390 L 540.5 410 L 540.5 410 A 8 8 0 0 1 532.5 418 L 467.5 418 L 467.5 418 A 8 8 0 0 1 459.5 410 L 459.5 390 L 459.5 390 A 8 8 0 0 1 467.5 382 L 500 382 Z" fill-opacity="1" stroke-opacity="1" stroke-miterlimit="10" stroke-width="3"/><text fill="rgb(0,0,0)" stroke="none" font-family="arial" font-size="16px" font-style="normal" font-weight="bold" text-decoration="normal" x="500" y="408" text-anchor="middle" dominant-baseline="text-after-edge" fill-opacity="1">1H NMR</text><path fill="rgb(217,125,125)" stroke="rgb(0,0,0)" paint-order="fill stroke markers" d=" M 500 432 L 518.5 432 L 518.5 432 A 8 8 0 0 1 526.5 440 L 526.5 460 L 526.5 460 A 8 8 0 0 1 518.5 468 L 481.5 468 L 481.5 468 A 8 8 0 0 1 473.5 460 L 473.5 440 L 473.5 440 A 8 8 0 0 1 481.5 432 L 500 432 Z" fill-opacity="1" stroke-opacity="1" stroke-miterlimit="10" stroke-width="3"/><text fill="rgb(0,0,0)" stroke="none" font-family="arial" font-size="16px" font-style="normal" font-weight="bold" text-decoration="normal" x="500" y="458" text-anchor="middle" dominant-baseline="text-after-edge" fill-opacity="1">SEC</text><g transform="scale(1.2661764705882355,1.2661764705882355) translate(-81.12659698025556,11.463414634146318)"/></g></svg>