<svg width="1280" height="720" xmlns="http://www.w3.org/2000/svg" xmlns:xlink="http://www.w3.org/1999/xlink" overflow="hidden"><defs><clipPath id="clip0"><rect x="0" y="0" width="1280" height="720"/></clipPath></defs><g clip-path="url(#clip0)"><rect x="0" y="0" width="1280" height="720" fill="#FFFFFF"/><path d="M36 240.022C36 231.726 42.7257 225 51.0223 225L124.978 225C133.274 225 140 231.726 140 240.022L140 261.978C140 270.274 133.274 277 124.978 277L51.0223 277C42.7257 277 36 270.274 36 261.978Z" stroke="#A31F34" stroke-width="4" stroke-miterlimit="8" fill="#D97D7D" fill-rule="evenodd"/><text font-family="Arial,Arial_MSFontService,sans-serif" font-weight="700" font-size="19" transform="translate(54.9166 258)">Groups</text><path d="M283 240.022C283 231.726 289.726 225 298.022 225L370.978 225C379.274 225 386 231.726 386 240.022L386 261.978C386 270.274 379.274 277 370.978 277L298.022 277C289.726 277 283 270.274 283 261.978Z" stroke="#A31F34" stroke-width="4" stroke-miterlimit="8" fill="#D97D7D" fill-rule="evenodd"/><text font-family="Arial,Arial_MSFontService,sans-serif" font-weight="700" font-size="19" transform="translate(308.352 258)">Users</text><path d="M523 240.022C523 231.726 529.726 225 538.022 225L650.978 225C659.274 225 666 231.726 666 240.022L666 261.978C666 270.274 659.274 277 650.978 277L538.022 277C529.726 277 523 270.274 523 261.978Z" stroke="#A31F34" stroke-width="4" stroke-miterlimit="8" fill="#D97D7D" fill-rule="evenodd"/><text font-family="Arial,Arial_MSFontService,sans-serif" font-weight="700" font-size="19" transform="translate(538.889 258)">Experiments</text><path d="M850 124.311C850 115.855 856.855 109 865.311 109L976.689 109C985.145 109 992 115.855 992 124.311L992 146.689C992 155.145 985.145 162 976.689 162L865.311 162C856.855 162 850 155.145 850 146.689Z" stroke="#A31F34" stroke-width="4" stroke-miterlimit="8" fill="#D97D7D" fill-rule="evenodd"/><text font-family="Arial,Arial_MSFontService,sans-serif" font-weight="700" font-size="19" transform="translate(880.667 131)">Materials<tspan font-size="19" x="-7.2533" y="23">(polymers)</tspan></text><path d="M850 240.022C850 231.726 856.726 225 865.022 225L976.978 225C985.274 225 992 231.726 992 240.022L992 261.978C992 270.274 985.274 277 976.978 277L865.022 277C856.726 277 850 270.274 850 261.978Z" stroke="#A31F34" stroke-width="4" stroke-miterlimit="8" fill="#D97D7D" fill-rule="evenodd"/><text font-family="Arial,Arial_MSFontService,sans-serif" font-weight="700" font-size="19" transform="translate(884.747 258)">Process</text><path d="M850 356.022C850 347.726 856.726 341 865.022 341L976.978 341C985.274 341 992 347.726 992 356.022L992 377.978C992 386.274 985.274 393 976.978 393L865.022 393C856.726 393 850 386.274 850 377.978Z" stroke="#A31F34" stroke-width="4" stroke-miterlimit="8" fill="#D97D7D" fill-rule="evenodd"/><text font-family="Arial,Arial_MSFontService,sans-serif" font-weight="700" font-size="19" transform="translate(900.83 374)">Data</text><path d="M850 469.022C850 460.726 856.726 454 865.022 454L976.978 454C985.274 454 992 460.726 992 469.022L992 490.978C992 499.274 985.274 506 976.978 506L865.022 506C856.726 506 850 499.274 850 490.978Z" stroke="#A31F34" stroke-width="4" stroke-miterlimit="8" fill="#D97D7D" fill-rule="evenodd"/><text font-family="Arial,Arial_MSFontService,sans-serif" font-weight="700" font-size="19" transform="translate(883.331 487)">Modules</text><path d="M494 553.022C494 544.726 500.726 538 509.022 538L657.978 538C666.274 538 673 544.726 673 553.022L673 574.978C673 583.274 666.274 590 657.978 590L509.022 590C500.726 590 494 583.274 494 574.978Z" stroke="#A31F34" stroke-width="4" stroke-miterlimit="8" fill="#D97D7D" fill-rule="evenodd"/><text font-family="Arial,Arial_MSFontService,sans-serif" font-weight="700" font-size="19" transform="translate(514.016 571)">Version Control</text><path d="M149.5 250 276.663 250 276.663 253 149.5 253ZM268.419 244.954 279.64 251.5 268.419 258.046C267.704 258.463 266.785 258.222 266.368 257.506 265.95 256.79 266.192 255.872 266.908 255.454L275.908 250.204 275.908 252.796 266.908 247.546C266.192 247.128 265.95 246.21 266.368 245.494 266.785 244.779 267.704 244.537 268.419 244.954Z"/><path d="M390.5 250 517.663 250 517.663 253 390.5 253ZM509.419 244.954 520.64 251.5 509.419 258.046C508.704 258.463 507.785 258.222 507.368 257.506 506.95 256.79 507.192 255.872 507.908 255.454L516.908 250.204 516.908 252.796 507.908 247.546C507.192 247.128 506.95 246.21 507.368 245.494 507.785 244.779 508.704 244.537 509.419 244.954Z"/><path d="M717.5 135 844.663 135 844.663 138 717.5 138ZM836.419 129.954 847.64 136.5 836.419 143.046C835.704 143.463 834.785 143.222 834.368 142.506 833.95 141.79 834.192 140.872 834.908 140.454L843.908 135.204 843.908 137.796 834.908 132.546C834.192 132.128 833.95 131.21 834.368 130.494 834.785 129.779 835.704 129.537 836.419 129.954Z"/><path d="M0.012497-1.49995 161.17-0.157239 161.145 2.84266-0.012497 1.49995ZM152.968-5.27142 164.135 1.36751 152.859 7.81947C152.14 8.23091 151.224 7.98156 150.812 7.26253 150.401 6.5435 150.65 5.62707 151.369 5.21563L160.413 0.0407898 160.391 2.63204 151.435-2.69276C150.723-3.11613 150.489-4.03659 150.912-4.74866 151.336-5.46074 152.256-5.69478 152.968-5.27142Z" transform="matrix(1 0 0 -1 688.5 251.868)"/><path d="M718.5 367 845.663 367 845.663 370 718.5 370ZM837.419 361.954 848.64 368.5 837.419 375.046C836.704 375.463 835.785 375.222 835.368 374.506 834.95 373.79 835.192 372.872 835.908 372.454L844.908 367.204 844.908 369.796 835.908 364.546C835.192 364.128 834.95 363.21 835.368 362.494 835.785 361.779 836.704 361.537 837.419 361.954Z"/><path d="M923 166.5 923 216.369 920 216.369 920 166.5ZM928.046 208.125 921.5 219.346 914.954 208.125C914.537 207.409 914.779 206.491 915.494 206.073 916.21 205.656 917.128 205.898 917.546 206.613L922.796 215.613 920.204 215.613 925.454 206.613C925.872 205.897 926.79 205.656 927.506 206.073 928.221 206.491 928.463 207.409 928.046 208.125Z"/><path d="M983.4 163.3 987.951 166.713 992.596 170.85 997.289 175.605 1001.91 180.919 1006.51 186.79 1010.99 193.095 1015.4 199.895 1019.68 207.077 1027.73 222.284 1034.83 238.448 1040.74 255.229 1043.2 263.673 1045.28 272.114 1046.92 280.499 1048.12 288.829 1048.81 296.918 1049 304.888 1048.68 312.565 1047.73 319.949 1046.13 327.03 1043.9 333.682 1041 339.914 1037.33 345.589 1032.88 350.751 1027.64 355.272 1021.58 359.076 1014.72 362.157 1006.97 364.525 1001.37 365.48 1000.86 362.523 1006.37 361.584 1006.19 361.628 1013.75 359.316 1013.57 359.381 1020.26 356.381 1020.08 356.48 1025.95 352.792 1025.77 352.928 1030.83 348.553 1030.68 348.708 1034.99 343.708 1034.87 343.872 1038.43 338.372 1038.33 338.556 1041.14 332.494 1041.08 332.647 1043.27 326.147 1043.22 326.295 1044.79 319.358 1044.76 319.495 1045.7 312.245 1045.69 312.376 1046 304.813 1046 304.911 1045.81 297.036 1045.82 297.128 1045.13 289.128 1045.14 289.214 1043.95 280.964 1043.97 281.038 1042.34 272.725 1042.36 272.796 1040.29 264.421 1040.31 264.482 1037.87 256.107 1037.9 256.186 1032.02 239.498 1032.06 239.604 1025 223.541 1025.05 223.639 1017.05 208.514 1017.09 208.581 1012.84 201.456 1012.87 201.503 1008.49 194.753 1008.53 194.806 1004.09 188.556 1004.13 188.614 999.57 182.801 999.618 182.859 995.055 177.609 995.12 177.679 990.495 172.991 990.565 173.058 986.003 168.995 986.1 169.075 981.6 165.7ZM1010.34 369.069 998.181 364.501 1008.14 356.164C1008.78 355.632 1009.72 355.716 1010.26 356.352 1010.79 356.987 1010.7 357.933 1010.07 358.465L1002.08 365.152 1001.64 362.597 1011.4 366.261C1012.17 366.552 1012.56 367.417 1012.27 368.193 1011.98 368.968 1011.12 369.361 1010.34 369.069Z"/><path d="M717.5 136.5 717.5 368.71" stroke="#000000" stroke-width="3" stroke-miterlimit="8" fill="none" fill-rule="evenodd"/><path d="M923 398.5 923 448.369 920 448.369 920 398.5ZM928.046 440.125 921.5 451.346 914.954 440.125C914.537 439.409 914.779 438.491 915.494 438.073 916.21 437.656 917.128 437.898 917.546 438.613L922.796 447.613 920.204 447.613 925.454 438.613C925.872 437.898 926.79 437.656 927.506 438.073 928.221 438.491 928.463 439.409 928.046 440.125Z"/><text font-family="Arial,Arial_MSFontService,sans-serif" font-weight="400" font-size="21" transform="translate(529.419 502)">(links to all)<tspan font-size="21" x="-37.3333" y="25">(history </tspan><tspan font-size="21" x="38.6666" y="25">collections)</tspan></text><path d="M257 364.022C257 355.726 263.726 349 272.022 349L420.978 349C429.274 349 436 355.726 436 364.022L436 385.978C436 394.274 429.274 401 420.978 401L272.022 401C263.726 401 257 394.274 257 385.978Z" stroke="#A31F34" stroke-width="4" stroke-miterlimit="8" fill="#D97D7D" fill-rule="evenodd"/><text font-family="Arial,Arial_MSFontService,sans-serif" font-weight="700" font-size="19" transform="translate(296.782 382)">Publication</text><path d="M141.31 278.238 256.54 352.158 254.92 354.683 139.69 280.763ZM252.325 343.459 258.236 355.028 245.257 354.478C244.429 354.443 243.786 353.744 243.821 352.916 243.856 352.089 244.556 351.446 245.383 351.481L255.794 351.922 254.394 354.103 249.654 344.824C249.277 344.087 249.569 343.183 250.307 342.806 251.045 342.429 251.948 342.722 252.325 343.459Z"/><path d="M341 278.5 341 338.818 338 338.818 338 278.5ZM346.046 330.574 339.5 341.795 332.954 330.574C332.537 329.858 332.779 328.939 333.494 328.522 334.21 328.105 335.128 328.346 335.546 329.062L340.796 338.062 338.204 338.062 343.454 329.062C343.872 328.346 344.79 328.105 345.506 328.522 346.222 328.939 346.463 329.858 346.046 330.574Z"/><path d="M0.746411-1.3011 137.202 76.9799 135.709 79.5821-0.746411 1.3011ZM132.562 68.5012 139.038 79.7626 126.048 79.8566C125.219 79.8626 124.543 79.1959 124.537 78.3675 124.531 77.5391 125.197 76.8627 126.026 76.8567L136.445 76.7813 135.155 79.029 129.961 69.9967C129.548 69.2786 129.796 68.3616 130.514 67.9486 131.232 67.5356 132.149 67.783 132.562 68.5012Z" transform="matrix(-1 0 0 1 591.532 277.5)"/><rect x="312" y="290" width="61" height="27" fill="#FFFFFF"/><text font-family="Arial,Arial_MSFontService,sans-serif" font-weight="400" font-size="14" transform="translate(321.774 309)">N to N</text><path d="M1109 364.022C1109 355.726 1115.73 349 1124.02 349L1236.98 349C1245.27 349 1252 355.726 1252 364.022L1252 385.978C1252 394.274 1245.27 401 1236.98 401L1124.02 401C1115.73 401 1109 394.274 1109 385.978Z" stroke="#000000" stroke-width="4" stroke-miterlimit="8" fill="#D9D9D9" fill-rule="evenodd"/><text font-family="Arial,Arial_MSFontService,sans-serif" font-weight="700" font-size="19" transform="translate(1136.3 370)">Data Lake<tspan font-size="19" x="16.58" y="23">(Files)</tspan></text><path d="M998.5 373 1100.59 373 1100.59 376 998.5 376ZM1092.35 367.954 1103.57 374.5 1092.35 381.046C1091.63 381.463 1090.71 381.222 1090.3 380.506 1089.88 379.79 1090.12 378.872 1090.84 378.454L1099.84 373.204 1099.84 375.796 1090.84 370.546C1090.12 370.128 1089.88 369.21 1090.3 368.494 1090.71 367.779 1091.63 367.537 1092.35 367.954Z"/><path d="M992 122.022C992 113.726 998.726 107 1007.02 107L1119.98 107C1128.27 107 1135 113.726 1135 122.022L1135 143.978C1135 152.274 1128.27 159 1119.98 159L1007.02 159C998.726 159 992 152.274 992 143.978Z" stroke="#A31F34" stroke-width="4" stroke-miterlimit="8" fill="#D97D7D" fill-rule="evenodd"/><text font-family="Arial,Arial_MSFontService,sans-serif" font-weight="700" font-size="19" transform="translate(1023.6 129)">Materials<tspan font-size="19" x="10.92" y="23">(other)</tspan></text></g></svg>