<svg width="2496" height="1248" xmlns="http://www.w3.org/2000/svg" xmlns:xlink="http://www.w3.org/1999/xlink" overflow="hidden"><defs><clipPath id="clip0"><rect x="0" y="0" width="2496" height="1248"/></clipPath></defs><g clip-path="url(#clip0)"><rect x="0" y="0" width="2496" height="1248" fill="#FFFFFF"/><path d="M0.022446-2.83324 125.135-1.84206 125.09 3.82443-0.022446 2.83324ZM122.346-7.531 139.278 1.10341 122.212 9.46847Z" fill="#A6A6A6" transform="matrix(1 0 0 -1 174 515.103)"/><path d="M429.125 396.169 473.106 398.112 472.855 403.773 428.875 401.831ZM470.525 392.326 487.133 401.568 469.775 409.309Z" fill="#A6A6A6"/><path d="M1.86655-2.13162 49.808 39.8483 46.0749 44.1115-1.86655 2.13162ZM51.4095 33.7185 58.5996 51.3126 40.2103 46.5082Z" fill="#A6A6A6" transform="matrix(1 0 0 -1 429 398.313)"/><path d="M1.26748-2.53402 36.5796 15.1286 34.0447 20.1966-1.26748 2.53402ZM36.5806 8.79305 47.9823 24 28.9757 23.9972Z" fill="#A6A6A6" transform="matrix(1 0 0 -1 175 365)"/><path d="M176.647 304.695 213.104 330.749 209.809 335.359 173.353 309.305ZM214.094 324.491 222.982 341.291 204.209 338.322Z" fill="#A6A6A6"/><path d="M1.94606-2.05928 19.7633 14.7784 15.8711 18.8969-1.94606 2.05928ZM21.5961 8.71377 28.1136 26.568 9.91975 21.0694Z" fill="#A6A6A6" transform="matrix(1 0 0 -1 338 340.568)"/><path d="M175.593 648.229 299.712 674.797 298.526 680.339 174.407 653.771ZM298.128 668.663 312.972 680.533 294.57 685.287Z" fill="#A6A6A6"/><path d="M0.507891-2.78744 124.543 19.8126 123.527 25.3875-0.507891 2.78744ZM122.771 13.7299 137.972 25.1395 119.724 30.4545Z" fill="#A6A6A6" transform="matrix(1 0 0 -1 175 650.14)"/><path d="M175.031 450.167 391.164 452.547 391.102 458.214 174.969 455.833ZM388.393 446.85 405.299 455.537 388.206 463.849Z"/><path d="M520.047 453.167 554.069 453.732 553.975 459.398 519.953 458.833ZM551.33 448.019 568.187 456.8 551.048 465.017Z"/><path d="M177.211 451.228 306.326 612.379 301.903 615.923 172.789 454.772ZM308.976 606.625 312.972 625.207 295.709 617.255Z"/><path d="M60 437C60 432.582 63.5818 429 68.0002 429L167 429C171.418 429 175 432.582 175 437L175 469C175 473.418 171.418 477 167 477L68.0002 477C63.5818 477 60 473.418 60 469Z" stroke="#000000" stroke-width="2" stroke-miterlimit="8" fill="#9100B8" fill-rule="evenodd"/><text fill="#FFFFFF" font-family="Arial,Arial_MSFontService,sans-serif" font-weight="700" font-size="21" transform="translate(75.2474 461)">Dylan W</text><path d="M405 440C405 435.582 408.582 432 413 432L512 432C516.418 432 520 435.582 520 440L520 472C520 476.418 516.418 480 512 480L413 480C408.582 480 405 476.418 405 472Z" stroke="#000000" stroke-width="2" stroke-miterlimit="8" fill="#FB7623" fill-rule="evenodd"/><text fill="#FFFFFF" font-family="Arial,Arial_MSFontService,sans-serif" font-weight="700" font-size="19" transform="translate(434.829 451)">CRIPT <tspan font-size="19" x="3.66666" y="23">Team </tspan></text><path d="M569 441C569 436.582 572.582 433 577 433L676 433C680.418 433 684 436.582 684 441L684 473C684 477.418 680.418 481 676 481L577 481C572.582 481 569 477.418 569 473Z" stroke="#000000" stroke-width="2" stroke-miterlimit="8" fill="#00B0F0" fill-rule="evenodd"/><text fill="#FFFFFF" font-family="Arial,Arial_MSFontService,sans-serif" font-weight="700" font-size="19" transform="translate(598.216 452)">CRIPT <tspan font-size="19" x="2.08667" y="23">Demo</tspan></text><path d="M313 609C313 604.582 316.582 601 321 601L420 601C424.418 601 428 604.582 428 609L428 641C428 645.418 424.418 649 420 649L321 649C316.582 649 313 645.418 313 641Z" stroke="#000000" stroke-width="2" stroke-miterlimit="8" fill="#595959" fill-rule="evenodd"/><text fill="#FFFFFF" font-family="Arial,Arial_MSFontService,sans-serif" font-weight="700" font-size="21" transform="translate(335.003 634)">Recent</text><path d="M223 325C223 320.582 226.582 317 231 317L330 317C334.418 317 338 320.582 338 325L338 357C338 361.418 334.418 365 330 365L231 365C226.582 365 223 361.418 223 357Z" stroke="#000000" stroke-width="2" stroke-miterlimit="8" fill="#FB7623" fill-rule="evenodd"/><text fill="#FFFFFF" font-family="Arial,Arial_MSFontService,sans-serif" font-weight="700" font-size="19" transform="translate(264.513 348)">MIT</text><path d="M314 383C314 378.582 317.582 375 322 375L421 375C425.418 375 429 378.582 429 383L429 415C429 419.418 425.418 423 421 423L322 423C317.582 423 314 419.418 314 415Z" stroke="#000000" stroke-width="2" stroke-miterlimit="8" fill="#FB7623" fill-rule="evenodd"/><text fill="#FFFFFF" font-family="Arial,Arial_MSFontService,sans-serif" font-weight="700" font-size="19" transform="translate(326.192 405)">Olsen Lab</text><path d="M313 664C313 659.582 316.582 656 321 656L420 656C424.418 656 428 659.582 428 664L428 696C428 700.418 424.418 704 420 704L321 704C316.582 704 313 700.418 313 696Z" stroke="#000000" stroke-width="2" stroke-miterlimit="8" fill="#595959" fill-rule="evenodd"/><text fill="#FFFFFF" font-family="Arial,Arial_MSFontService,sans-serif" font-weight="700" font-size="21" transform="translate(334.92 688)">Kinetic</text><path d="M2.60553-1.11311 45.0223 98.1745 39.8112 100.401-2.60553 1.11311ZM49.1202 93.3427 47.9823 112.315 33.487 100.021Z" transform="matrix(1 0 0 -1 175 453.315)"/><path d="M1.03956-2.63573 126.439 46.8232 124.359 52.0946-1.03956 2.63573ZM125.882 40.5121 138.578 54.6567 119.645 56.3265Z" transform="matrix(1 0 0 -1 175 453.657)"/><path d="M177.421 451.528 308.032 666.303 303.19 669.247 172.579 454.472ZM311.402 660.938 312.972 679.879 296.877 669.771Z"/><path d="M428 677.167 444.722 677.167 444.722 682.833 428 682.833ZM441.889 671.5 458.889 680 441.889 688.5Z" fill="#A6A6A6"/><path d="M459 609C459 604.582 462.582 601 467 601L566 601C570.418 601 574 604.582 574 609L574 641C574 645.418 570.418 649 566 649L467 649C462.582 649 459 645.418 459 641Z" stroke="#000000" stroke-width="2" stroke-miterlimit="8" fill="#00B0F0" fill-rule="evenodd"/><text fill="#FFFFFF" font-family="Arial,Arial_MSFontService,sans-serif" font-weight="700" font-size="21" transform="translate(493.425 634)">Coll.</text><path d="M459 664C459 659.582 462.582 656 467 656L566 656C570.418 656 574 659.582 574 664L574 696C574 700.418 570.418 704 566 704L467 704C462.582 704 459 700.418 459 696Z" stroke="#000000" stroke-width="2" stroke-miterlimit="8" fill="#00B0F0" fill-rule="evenodd"/><text fill="#FFFFFF" font-family="Arial,Arial_MSFontService,sans-serif" font-weight="700" font-size="21" transform="translate(493.425 688)">Coll.</text><path d="M428 622.167 444.722 622.167 444.722 627.833 428 627.833ZM441.889 616.5 458.889 625 441.889 633.5Z" fill="#A6A6A6"/><path d="M628.793 480.523 684.256 805.156 678.67 806.11 623.207 481.477ZM689.364 801.409 683.849 819.597 672.607 804.272Z"/><path d="M2.57066-1.19143 113.408 237.954 108.267 240.337-2.57066 1.19143ZM117.358 233.001 116.795 251.999 101.934 240.15Z" transform="matrix(1 0 0 -1 684 456.999)"/><path d="M0.00726388-2.83332 147.228-2.45589 147.213 3.21076-0.00726388 2.83332ZM144.409-8.1298 161.387 0.413753 144.365 8.87014Z" transform="matrix(1 0 0 -1 684 456.414)"/><path d="M340.023 339.017 363.101 362.559 359.055 366.525 335.977 342.983ZM365.165 356.568 370.995 374.658 353.025 368.469Z"/><path d="M430.976 396.969 454.942 420.284 450.991 424.346 427.024 401.031ZM456.863 414.247 463.121 432.193 445.009 426.432Z"/><path d="M487 385C487 380.582 490.582 377 495 377L594 377C598.418 377 602 380.582 602 385L602 417C602 421.418 598.418 425 594 425L495 425C490.582 425 487 421.418 487 417Z" stroke="#000000" stroke-width="2" stroke-miterlimit="8" fill="#00B0F0" fill-rule="evenodd"/><text fill="#FFFFFF" font-family="Arial,Arial_MSFontService,sans-serif" font-weight="700" font-size="21" transform="translate(521.275 409)">Coll.</text><path d="M487 331C487 326.582 490.582 323 495 323L595 323C599.418 323 603 326.582 603 331L603 363C603 367.418 599.418 371 595 371L495 371C490.582 371 487 367.418 487 363Z" stroke="#000000" stroke-width="2" stroke-miterlimit="8" fill="#00B0F0" fill-rule="evenodd"/><text fill="#FFFFFF" font-family="Arial,Arial_MSFontService,sans-serif" font-weight="700" font-size="21" transform="translate(521.741 355)">Coll.</text><path d="M60 635C60 630.582 63.5818 627 68.0002 627L167 627C171.418 627 175 630.582 175 635L175 667C175 671.418 171.418 675 167 675L68.0002 675C63.5818 675 60 671.418 60 667Z" stroke="#000000" stroke-width="2" stroke-miterlimit="8" fill="#9100B8" fill-rule="evenodd"/><text fill="#FFFFFF" font-family="Arial,Arial_MSFontService,sans-serif" font-weight="700" font-size="21" transform="translate(93.664 659)">User</text><path d="M60 291C60 286.582 63.5818 283 68.0002 283L167 283C171.418 283 175 286.582 175 291L175 323C175 327.418 171.418 331 167 331L68.0002 331C63.5818 331 60 327.418 60 323Z" stroke="#000000" stroke-width="2" stroke-miterlimit="8" fill="#9100B8" fill-rule="evenodd"/><text fill="#FFFFFF" font-family="Arial,Arial_MSFontService,sans-serif" font-weight="700" font-size="21" transform="translate(93.664 315)">User</text><path d="M60 349C60 344.582 63.5818 341 68.0002 341L167 341C171.418 341 175 344.582 175 349L175 381C175 385.418 171.418 389 167 389L68.0002 389C63.5818 389 60 385.418 60 381Z" stroke="#000000" stroke-width="2" stroke-miterlimit="8" fill="#9100B8" fill-rule="evenodd"/><text fill="#FFFFFF" font-family="Arial,Arial_MSFontService,sans-serif" font-weight="700" font-size="21" transform="translate(93.664 373)">User</text><path d="M366 298C366 293.582 369.582 290 374 290L473 290C477.418 290 481 293.582 481 298L481 330C481 334.418 477.418 338 473 338L374 338C369.582 338 366 334.418 366 330Z" stroke="#000000" stroke-width="2" stroke-miterlimit="8" fill="#00B0F0" fill-rule="evenodd"/><text fill="#FFFFFF" font-family="Arial,Arial_MSFontService,sans-serif" font-weight="700" font-size="21" transform="translate(400.66 323)">Coll.</text><path d="M456 613.5C456 602.178 465.178 593 476.5 593L560.5 593C571.822 593 581 602.178 581 613.5L581 695.5C581 706.822 571.822 716 560.5 716L476.5 716C465.178 716 456 706.822 456 695.5Z" fill="#FFFFFF" fill-rule="evenodd" fill-opacity="0.8"/><path d="M56 632.5C56 627.253 60.2534 623 65.5001 623L166.5 623C171.747 623 176 627.253 176 632.5L176 670.5C176 675.747 171.747 680 166.5 680L65.5001 680C60.2534 680 56 675.747 56 670.5Z" fill="#FFFFFF" fill-rule="evenodd" fill-opacity="0.8"/><path d="M365 290.333C365 284.626 369.626 280 375.333 280L473.667 280C479.374 280 484 284.626 484 290.333L484 331.667C484 337.374 479.374 342 473.667 342L375.333 342C369.626 342 365 337.374 365 331.667Z" fill="#FFFFFF" fill-rule="evenodd" fill-opacity="0.8"/><path d="M485 332.362C485 323.326 492.326 316 501.362 316L587.638 316C596.674 316 604 323.326 604 332.362L604 414.638C604 423.674 596.674 431 587.638 431L501.362 431C492.326 431 485 423.674 485 414.638Z" fill="#FFFFFF" fill-rule="evenodd" fill-opacity="0.8"/><path d="M53 294.362C53 285.326 60.3256 278 69.3622 278L161.638 278C170.674 278 178 285.326 178 294.362L178 376.638C178 385.674 170.674 393 161.638 393L69.3622 393C60.3256 393 53 385.674 53 376.638Z" fill="#FFFFFF" fill-rule="evenodd" fill-opacity="0.8"/><path d="M313 498C313 493.582 316.582 490 321 490L420 490C424.418 490 428 493.582 428 498L428 530C428 534.418 424.418 538 420 538L321 538C316.582 538 313 534.418 313 530Z" stroke="#000000" stroke-width="2" stroke-miterlimit="8" fill="#FB7623" fill-rule="evenodd"/><text fill="#FFFFFF" font-family="Arial,Arial_MSFontService,sans-serif" font-weight="700" font-size="19" transform="translate(340.865 520)">Citrine</text><path d="M313 383C313 378.582 316.582 375 321 375L421 375C425.418 375 429 378.582 429 383L429 415C429 419.418 425.418 423 421 423L321 423C316.582 423 313 419.418 313 415Z" stroke="#000000" stroke-width="2" stroke-miterlimit="8" fill="#FB7623" fill-rule="evenodd"/><text fill="#FFFFFF" font-family="Arial,Arial_MSFontService,sans-serif" font-weight="700" font-size="19" transform="translate(326.032 405)">Olsen Lab</text><path d="M313 498C313 493.582 316.582 490 321 490L421 490C425.418 490 429 493.582 429 498L429 530C429 534.418 425.418 538 421 538L321 538C316.582 538 313 534.418 313 530Z" stroke="#000000" stroke-width="2" stroke-miterlimit="8" fill="#FB7623" fill-rule="evenodd"/><text fill="#FFFFFF" font-family="Arial,Arial_MSFontService,sans-serif" font-weight="700" font-size="19" transform="translate(341.449 520)">Citrine</text><path d="M1.99092-2.01594 26.1917 21.8845 22.2098 25.9163-1.99092 2.01594ZM28.1576 15.8617 34.2804 33.855 16.212 27.9573Z" transform="matrix(1 0 0 -1 429 513.855)"/><path d="M57 498C57 493.582 60.5818 490 65.0001 490L165 490C169.418 490 173 493.582 173 498L173 530C173 534.418 169.418 538 165 538L65.0001 538C60.5818 538 57 534.418 57 530Z" stroke="#000000" stroke-width="2" stroke-miterlimit="8" fill="#9100B8" fill-rule="evenodd"/><text fill="#FFFFFF" font-family="Arial,Arial_MSFontService,sans-serif" font-weight="700" font-size="21" transform="translate(91.2975 522)">User</text><path d="M53 495.5C53 490.253 57.2534 486 62.5002 486L164.5 486C169.747 486 174 490.253 174 495.5L174 533.5C174 538.747 169.747 543 164.5 543L62.5002 543C57.2534 543 53 538.747 53 533.5Z" fill="#FFFFFF" fill-rule="evenodd" fill-opacity="0.8"/><path d="M459 551C459 546.582 462.582 543 467 543L566 543C570.418 543 574 546.582 574 551L574 583C574 587.418 570.418 591 566 591L467 591C462.582 591 459 587.418 459 583Z" stroke="#000000" stroke-width="2" stroke-miterlimit="8" fill="#595959" fill-rule="evenodd"/><text fill="#FFFFFF" font-family="Arial,Arial_MSFontService,sans-serif" font-weight="700" font-size="19" transform="translate(472.928 574)">Synthesis</text><path d="M574.024 564.167 664.677 564.933 664.629 570.6 573.976 569.833ZM661.892 559.243 678.82 567.886 661.748 576.242Z" fill="#A6A6A6"/><path d="M679 552C679 547.582 682.582 544 687 544L786 544C790.418 544 794 547.582 794 552L794 584C794 588.418 790.418 592 786 592L687 592C682.582 592 679 588.418 679 584Z" stroke="#000000" stroke-width="2" stroke-miterlimit="8" fill="#00B0F0" fill-rule="evenodd"/><text fill="#FFFFFF" font-family="Arial,Arial_MSFontService,sans-serif" font-weight="700" font-size="21" transform="translate(713.698 576)">Coll.</text><path d="M465.152 478.157 509.951 530.45 505.647 534.137 460.848 481.843ZM512.411 524.612 517.016 543.052 499.501 535.672Z"/><path d="M675 548.5C675 543.253 679.253 539 684.5 539L794.5 539C799.747 539 804 543.253 804 548.5L804 586.5C804 591.747 799.747 596 794.5 596L684.5 596C679.253 596 675 591.747 675 586.5Z" fill="#FFFFFF" fill-rule="evenodd" fill-opacity="0.8"/><path d="M1212 208.141 1120.82 181.67 1122.39 176.228 1213.58 202.699ZM1121.96 187.902 1108 175 1126.7 171.576Z"/><path d="M991 383C972.498 383 957.5 380.5 957.5 377.417L957.5 210.083C957.5 207 942.502 204.5 924 204.5 942.502 204.5 957.5 202 957.5 198.917L957.5 31.583C957.5 28.4996 972.498 26 991 26" stroke="#000000" stroke-width="4" stroke-miterlimit="8" fill="none" fill-rule="evenodd"/><path d="M993 41.0002C993 36.5818 996.582 33 1001 33L1100 33C1104.42 33 1108 36.5818 1108 41.0002L1108 72.9998C1108 77.4182 1104.42 81 1100 81L1001 81C996.582 81 993 77.4182 993 72.9998Z" stroke="#000000" stroke-width="2" stroke-miterlimit="8" fill="#0A24CC" fill-rule="evenodd"/><text fill="#FFFFFF" font-family="Arial,Arial_MSFontService,sans-serif" font-weight="700" font-size="21" transform="translate(1007.97 65)">SecBuLi</text><path d="M993 100C993 95.5818 996.582 92 1001 92L1100 92C1104.42 92 1108 95.5818 1108 100L1108 132C1108 136.418 1104.42 140 1100 140L1001 140C996.582 140 993 136.418 993 132Z" stroke="#000000" stroke-width="2" stroke-miterlimit="8" fill="#0A24CC" fill-rule="evenodd"/><text fill="#FFFFFF" font-family="Arial,Arial_MSFontService,sans-serif" font-weight="700" font-size="21" transform="translate(1010.88 124)">Butano<tspan font-size="21" x="73.3334" y="0">l</tspan></text><path d="M993 159C993 154.582 996.582 151 1001 151L1100 151C1104.42 151 1108 154.582 1108 159L1108 191C1108 195.418 1104.42 199 1100 199L1001 199C996.582 199 993 195.418 993 191Z" stroke="#000000" stroke-width="2" stroke-miterlimit="8" fill="#0A24CC" fill-rule="evenodd"/><text fill="#FFFFFF" font-family="Arial,Arial_MSFontService,sans-serif" font-weight="700" font-size="21" transform="translate(1011.47 184)">Styrene</text><path d="M993 222C993 217.582 996.582 214 1001 214L1100 214C1104.42 214 1108 217.582 1108 222L1108 254C1108 258.418 1104.42 262 1100 262L1001 262C996.582 262 993 258.418 993 254Z" stroke="#000000" stroke-width="2" stroke-miterlimit="8" fill="#0A24CC" fill-rule="evenodd"/><text fill="#FFFFFF" font-family="Arial,Arial_MSFontService,sans-serif" font-weight="700" font-size="21" transform="translate(1019.72 247)">MeOH</text><path d="M993 282C993 277.582 996.582 274 1001 274L1100 274C1104.42 274 1108 277.582 1108 282L1108 314C1108 318.418 1104.42 322 1100 322L1001 322C996.582 322 993 318.418 993 314Z" stroke="#000000" stroke-width="2" stroke-miterlimit="8" fill="#0A24CC" fill-rule="evenodd"/><text fill="#FFFFFF" font-family="Arial,Arial_MSFontService,sans-serif" font-weight="700" font-size="21" transform="translate(1009.72 306)">Toluene</text><path d="M1422 190C1422 185.582 1425.58 182 1430 182L1529 182C1533.42 182 1537 185.582 1537 190L1537 222C1537 226.418 1533.42 230 1529 230L1430 230C1425.58 230 1422 226.418 1422 222Z" stroke="#000000" stroke-width="2" stroke-miterlimit="8" fill="#0A24CC" fill-rule="evenodd"/><text fill="#FFFFFF" font-family="Arial,Arial_MSFontService,sans-serif" font-weight="700" font-size="15" transform="translate(1437.6 211)">Polystyrene</text><path d="M1361 109C1361 104.582 1364.58 101 1369 101L1468 101C1472.42 101 1476 104.582 1476 109L1476 141C1476 145.418 1472.42 149 1468 149L1369 149C1364.58 149 1361 145.418 1361 141Z" stroke="#000000" stroke-width="2" stroke-miterlimit="8" fill="#067F10" fill-rule="evenodd"/><text fill="#FFFFFF" font-family="Arial,Arial_MSFontService,sans-serif" font-weight="700" font-size="21" transform="translate(1377.73 133)">1H NMR </text><path d="M1488 109C1488 104.582 1491.58 101 1496 101L1595 101C1599.42 101 1603 104.582 1603 109L1603 141C1603 145.418 1599.42 149 1595 149L1496 149C1491.58 149 1488 145.418 1488 141Z" stroke="#000000" stroke-width="2" stroke-miterlimit="8" fill="#067F10" fill-rule="evenodd"/><text fill="#FFFFFF" font-family="Arial,Arial_MSFontService,sans-serif" font-weight="700" font-size="21" transform="translate(1524.06 133)">SEC</text><path d="M1210.94 207.925 1116.91 127.368 1120.6 123.065 1214.63 203.622ZM1115.38 133.515 1108 116 1126.44 120.605Z"/><path d="M1210.47 207.756 1113.83 70.2203 1118.46 66.9623 1215.11 204.498ZM1110.82 75.7963 1108 57 1124.73 66.0225Z"/><path d="M2.34958-1.58343 99.2206 142.159 94.5214 145.326-2.34958 1.58343ZM102.336 136.643 104.788 155.49 88.2388 146.143Z" transform="matrix(-1 0 0 1 1212.79 206)"/><path d="M0.839844-2.706 92.098 25.6172 90.4183 31.0292-0.839844 2.706ZM91.0717 19.3653 104.788 32.5224 86.0326 35.6013Z" transform="matrix(-1 0 0 1 1212.79 206)"/><path d="M1.86791-2.13042 96.0039 80.4061 92.2681 84.667-1.86791 2.13042ZM97.6093 74.2774 104.788 91.8761 86.4019 87.0599Z" transform="matrix(-1 0 0 1 1212.79 206)"/><path d="M3.18322e-06-2.83333 79.2806-2.83324 79.2806 2.83342-3.18322e-06 2.83333ZM76.4473-8.49991 93.4472 0.000104987 76.4472 8.50009Z" transform="matrix(-1 0 0 1 1421.45 206)"/><path d="M1213 190C1213 185.582 1216.58 182 1221 182L1320 182C1324.42 182 1328 185.582 1328 190L1328 222C1328 226.418 1324.42 230 1320 230L1221 230C1216.58 230 1213 226.418 1213 222Z" stroke="#000000" stroke-width="2" stroke-miterlimit="8" fill="#FFC000" fill-rule="evenodd"/><text fill="#FFFFFF" font-family="Arial,Arial_MSFontService,sans-serif" font-weight="700" font-size="19" transform="translate(1236.46 201)">Anionic <tspan font-size="19" x="11.8333" y="23">Poly.</tspan></text><path d="M1478.26 184.661 1430.07 158.286 1432.79 153.315 1480.98 179.69ZM1429.83 164.618 1419 149 1437.99 149.705Z"/><path d="M1.26163-2.53694 55.2873 24.3303 52.764 29.4042-1.26163 2.53694ZM55.2736 17.9948 66.7103 33.1754 47.7038 33.2164Z" transform="matrix(1 0 0 -1 1479 182.175)"/><text fill="#898989" font-family="Arial,Arial_MSFontService,sans-serif" font-weight="400" font-size="12" transform="translate(2037.71 752)">1</text><path d="M993 409C993 404.582 996.582 401 1001 401L1100 401C1104.42 401 1108 404.582 1108 409L1108 441C1108 445.418 1104.42 449 1100 449L1001 449C996.582 449 993 445.418 993 441Z" stroke="#000000" stroke-width="2" stroke-miterlimit="8" fill="#0A24CC" fill-rule="evenodd"/><text fill="#FFFFFF" font-family="Arial,Arial_MSFontService,sans-serif" font-weight="700" font-size="19" transform="translate(1011.8 421)">Ethylene <tspan font-size="19" x="12.9134" y="23">Oxide</tspan></text><path d="M1209.35 442.782 1121.6 429.866 1122.43 424.26 1210.18 437.175ZM1123.58 435.885 1108 425 1126.06 419.066Z"/><path d="M3.18322e-06-2.83333 79.2806-2.83324 79.2806 2.83342-3.18322e-06 2.83333ZM76.4473-8.49991 93.4472 0.000104987 76.4472 8.50009Z" transform="matrix(-1 0 0 1 1418.45 440)"/><path d="M1473.98 418.257 1421.72 379.691 1425.08 375.131 1477.35 413.697ZM1420.63 385.933 1412 369 1430.73 372.254Z"/><path d="M1.68224-2.27988 53.9495 36.2862 50.585 40.846-1.68224 2.27988ZM55.0341 30.0442 63.6667 46.9773 44.9407 43.7235Z" transform="matrix(1 0 0 -1 1476 415.977)"/><path d="M993 468C993 463.582 996.582 460 1001 460L1100 460C1104.42 460 1108 463.582 1108 468L1108 500C1108 504.418 1104.42 508 1100 508L1001 508C996.582 508 993 504.418 993 500Z" stroke="#000000" stroke-width="2" stroke-miterlimit="8" fill="#0A24CC" fill-rule="evenodd"/><text fill="#FFFFFF" font-family="Arial,Arial_MSFontService,sans-serif" font-weight="700" font-size="16" transform="translate(1005.22 481)">Norbornene<tspan font-size="16" x="22.6667" y="19">-</tspan><tspan font-size="16" x="28.0001" y="19">COCl</tspan></text><path d="M1.11427-2.60503 89.8542 35.3522 87.6257 40.5623-1.11427 2.60503ZM89.4778 29.0279 101.765 43.5286 82.7922 44.6581Z" transform="matrix(-1 0 0 1 1209.77 440)"/><path d="M993 528C993 523.582 996.582 520 1001 520L1100 520C1104.42 520 1108 523.582 1108 528L1108 560C1108 564.418 1104.42 568 1100 568L1001 568C996.582 568 993 564.418 993 560Z" stroke="#000000" stroke-width="2" stroke-miterlimit="8" fill="#0A24CC" fill-rule="evenodd"/><text fill="#FFFFFF" font-family="Arial,Arial_MSFontService,sans-serif" font-weight="700" font-size="16" transform="translate(1005.22 540)">Norbornene<tspan font-size="16" x="30.6667" y="19">-</tspan><tspan font-size="16" x="36.0001" y="19">OH</tspan></text><path d="M993 587C993 582.582 996.582 579 1001 579L1100 579C1104.42 579 1108 582.582 1108 587L1108 619C1108 623.418 1104.42 627 1100 627L1001 627C996.582 627 993 623.418 993 619Z" stroke="#000000" stroke-width="2" stroke-miterlimit="8" fill="#0A24CC" fill-rule="evenodd"/><text fill="#FFFFFF" font-family="Arial,Arial_MSFontService,sans-serif" font-weight="700" font-size="21" transform="translate(1013.22 611)">Lactide</text><path d="M993 647C993 642.582 996.582 639 1001 639L1100 639C1104.42 639 1108 642.582 1108 647L1108 679C1108 683.418 1104.42 687 1100 687L1001 687C996.582 687 993 683.418 993 679Z" stroke="#000000" stroke-width="2" stroke-miterlimit="8" fill="#0A24CC" fill-rule="evenodd"/><text fill="#FFFFFF" font-family="Arial,Arial_MSFontService,sans-serif" font-weight="700" font-size="21" transform="translate(1027.55 671)">DBU</text><path d="M993 707C993 702.582 996.582 699 1001 699L1100 699C1104.42 699 1108 702.582 1108 707L1108 739C1108 743.418 1104.42 747 1100 747L1001 747C996.582 747 993 743.418 993 739Z" stroke="#000000" stroke-width="2" stroke-miterlimit="8" fill="#0A24CC" fill-rule="evenodd"/><text fill="#FFFFFF" font-family="Arial,Arial_MSFontService,sans-serif" font-weight="700" font-size="19" transform="translate(1026.72 718)">Boric <tspan font-size="19" x="3.66663" y="23">Acid</tspan></text><path d="M0.0912711-2.83186 53.797-1.10092 53.6145 4.5628-0.0912711 2.83186ZM51.1477-6.85592 67.8651 2.1873 50.6001 10.1353Z" transform="matrix(-1 0 0 1 1396.87 654)"/><path d="M1453.54 632.685 1345.35 593.49 1347.28 588.162 1455.47 627.357ZM1346.09 599.782 1333 586 1351.88 583.799Z"/><path d="M2.8088-0.372045 6.77944 29.6048 1.16184 30.3489-2.8088 0.372045ZM12.025 26.052 5.83087 44.0209-4.8278 28.2842Z" transform="matrix(1 0 0 -1 1455 630.021)"/><path d="M1.50479-2.40071 95.3823 56.4428 92.3727 61.2442-1.50479 2.40071ZM95.9912 50.1366 105.881 66.3675 86.9624 64.5408Z" transform="matrix(-1 0 0 1 1213.88 656)"/><path d="M0.17931-2.82765 91.9221 2.99002 91.5635 8.64533-0.17931 2.82765ZM89.4531-2.84459 105.881 6.71423 88.3772 14.1213Z" transform="matrix(-1 0 0 1 1213.88 656)"/><path d="M1212.61 658.474 1119.4 611.87 1121.94 606.801 1215.15 653.405ZM1119.4 618.205 1108 603 1127.01 603Z"/><path d="M1211.82 658.534 1115.64 556.261 1119.77 552.379 1215.95 654.652ZM1113.45 562.207 1108 544 1125.84 550.561Z"/><path d="M1595.27 586.272 1484.06 475.987 1488.05 471.964 1599.26 582.248ZM1482.09 482.006 1476 464 1494.06 469.935Z"/><path d="M0.857574-2.70043 130.088 38.3393 128.373 43.7401-0.857574 2.70043ZM129.103 32.0808 142.733 45.3276 123.958 48.2834Z" transform="matrix(-1 0 0 1 1597.73 585)"/><path d="M3.85618e-06-2.83333 62.9725-2.83325 62.9725 2.83342-3.85618e-06 2.83333ZM60.1392-8.49992 77.1392 0.000104987 60.1392 8.50008Z" transform="matrix(-1 0 0 1 1790.14 585)"/><path d="M1849.78 608.465 1856.83 645.105 1851.27 646.176 1844.22 609.535ZM1861.86 641.252 1856.73 659.552 1845.17 644.464Z"/><path d="M1.1189-2.60305 105.71 42.3546 103.472 47.5607-1.1189 2.60305ZM105.345 36.0296 117.607 50.5521 98.6315 51.6479Z" transform="matrix(-1 0 0 1 1847.61 609)"/><path d="M0.686807-2.74883 264.415 63.1448 263.041 68.6424-0.686807 2.74883ZM263.04 56.9602 277.472 69.3276 258.919 73.4532Z" fill="#566BF7" transform="matrix(-1 0 0 1 1789.47 585)"/><path d="M1788.61 586.729 1544.95 449.423 1547.73 444.486 1791.4 581.792ZM1544.64 455.751 1534 440 1552.98 440.94Z" fill="#566BF7"/><path d="M1.70168-2.2654 76.4058 53.8495 73.0024 58.3803-1.70168 2.2654ZM77.5437 47.617 86.0311 64.6233 67.3336 61.2094Z" transform="matrix(-1 0 0 1 1991.03 520)"/><path d="M0.00735779-2.83332 71.8718-2.6467 71.8571 3.01995-0.00735779 2.83332ZM69.0532-8.32071 86.0311 0.223412 69.0091 8.67924Z" transform="matrix(-1 0 0 1 1991.03 584)"/><path d="M1989.37 649.812 1914.79 595.62 1918.13 591.036 1992.7 645.228ZM1913.76 601.87 1905 585 1923.75 588.118Z"/><path d="M2171 504C2171 499.582 2174.58 496 2179 496L2278 496C2282.42 496 2286 499.582 2286 504L2286 536C2286 540.418 2282.42 544 2278 544L2179 544C2174.58 544 2171 540.418 2171 536Z" stroke="#000000" stroke-width="2" stroke-miterlimit="8" fill="#0A24CC" fill-rule="evenodd"/><text fill="#FFFFFF" font-family="Arial,Arial_MSFontService,sans-serif" font-weight="700" font-size="16" transform="translate(2186.32 526)">Thin Film 1</text><path d="M4.58048e-06-2.83333 50.7748-2.83325 50.7747 2.83342-4.58048e-06 2.83333ZM47.9414-8.49992 64.9414 0.000104987 47.9414 8.50008Z" transform="matrix(-1 0 0 1 2170.94 520)"/><path d="M2173 568C2173 563.582 2176.58 560 2181 560L2280 560C2284.42 560 2288 563.582 2288 568L2288 600C2288 604.418 2284.42 608 2280 608L2181 608C2176.58 608 2173 604.418 2173 600Z" stroke="#000000" stroke-width="2" stroke-miterlimit="8" fill="#0A24CC" fill-rule="evenodd"/><text fill="#FFFFFF" font-family="Arial,Arial_MSFontService,sans-serif" font-weight="700" font-size="16" transform="translate(2187.85 591)">Thin Film 2</text><path d="M2173.48 587.309 2119.95 583.763 2120.32 578.109 2173.86 581.655ZM2122.4 589.605 2106 580 2123.52 572.642Z"/><path d="M2173 631C2173 626.582 2176.58 623 2181 623L2280 623C2284.42 623 2288 626.582 2288 631L2288 663C2288 667.418 2284.42 671 2280 671L2181 671C2176.58 671 2173 667.418 2173 663Z" stroke="#000000" stroke-width="2" stroke-miterlimit="8" fill="#0A24CC" fill-rule="evenodd"/><text fill="#FFFFFF" font-family="Arial,Arial_MSFontService,sans-serif" font-weight="700" font-size="21" transform="translate(2204.85 655)">Puck</text><path d="M2171.14 649.831 2120.02 647.481 2120.28 641.82 2171.4 644.171ZM2122.59 653.272 2106 644 2123.37 636.29Z"/><path d="M0.668478-2.75335 253.074 58.5275 251.737 64.0342-0.668478 2.75335ZM251.658 52.3524 266.172 64.6233 247.647 68.8725Z" fill="#566BF7" transform="matrix(-1 0 0 1 2171.17 520)"/><path d="M0.564501-2.77653 645.531 128.353 644.402 133.906-0.564501 2.77653ZM643.879 122.234 658.845 133.951 640.492 138.893Z" fill="#566BF7" transform="matrix(-1 0 0 1 2170.84 520)"/><path d="M2171.03 522.448 1547.71 444.568 1548.41 438.945 2171.73 516.825ZM1549.82 450.542 1534 440 1551.92 433.673Z" fill="#566BF7"/><path d="M2172.28 586.801 1547.19 445.879 1548.44 440.351 2173.53 581.273ZM1548.71 452.031 1534 440 1552.45 435.447Z" fill="#566BF7"/><path d="M0.0023646-2.83333 253.535-2.62174 253.53 3.04492-0.0023646 2.83333ZM250.706-8.29077 267.699 0.223412 250.692 8.70922Z" fill="#566BF7" transform="matrix(-1 0 0 1 2172.7 584)"/><path d="M0.296768-2.81775 646.579 65.2493 645.985 70.8848-0.296768 2.81775ZM644.355 59.3171 660.371 69.551 642.575 76.2236Z" fill="#566BF7" transform="matrix(-1 0 0 1 2172.37 584)"/><path d="M0.0292073-2.83318 646.233 3.82853 646.174 9.49489-0.0292073 2.83318ZM643.46-1.86702 660.371 6.80777 643.285 15.1321Z" fill="#566BF7" transform="matrix(-1 0 0 1 2172.37 647)"/><path d="M2172.05 650.279 1918.15 590.981 1919.44 585.463 2173.34 644.761ZM1919.62 597.143 1905 585 1923.49 580.589Z" fill="#566BF7"/><path d="M2172.03 649.476 1546.61 447.058 1548.35 441.667 2173.78 644.084ZM1547.56 453.322 1534 440 1552.79 437.148Z" fill="#566BF7"/><path d="M1991 504C1991 499.582 1994.58 496 1999 496L2098 496C2102.42 496 2106 499.582 2106 504L2106 536C2106 540.418 2102.42 544 2098 544L1999 544C1994.58 544 1991 540.418 1991 536Z" stroke="#000000" stroke-width="2" stroke-miterlimit="8" fill="#FFC000" fill-rule="evenodd"/><text fill="#FFFFFF" font-family="Arial,Arial_MSFontService,sans-serif" font-weight="700" font-size="19" transform="translate(2005.18 527)">Spin Coat</text><path d="M1991 568C1991 563.582 1994.58 560 1999 560L2098 560C2102.42 560 2106 563.582 2106 568L2106 600C2106 604.418 2102.42 608 2098 608L1999 608C1994.58 608 1991 604.418 1991 600Z" stroke="#000000" stroke-width="2" stroke-miterlimit="8" fill="#FFC000" fill-rule="evenodd"/><text fill="#FFFFFF" font-family="Arial,Arial_MSFontService,sans-serif" font-weight="700" font-size="19" transform="translate(2005.18 580)">Spin Coat <tspan font-size="19" x="4.41333" y="23">+ Anneal</tspan></text><path d="M1991 631C1991 626.582 1994.58 623 1999 623L2098 623C2102.42 623 2106 626.582 2106 631L2106 663C2106 667.418 2102.42 671 2098 671L1999 671C1994.58 671 1991 667.418 1991 663Z" stroke="#000000" stroke-width="2" stroke-miterlimit="8" fill="#FFC000" fill-rule="evenodd"/><text fill="#FFFFFF" font-family="Arial,Arial_MSFontService,sans-serif" font-weight="700" font-size="19" transform="translate(2005.1 654)">Hot Press</text><path d="M1790 569C1790 564.582 1793.58 561 1798 561L1897 561C1901.42 561 1905 564.582 1905 569L1905 601C1905 605.418 1901.42 609 1897 609L1798 609C1793.58 609 1790 605.418 1790 601Z" stroke="#000000" stroke-width="2" stroke-miterlimit="8" fill="#0A24CC" fill-rule="evenodd"/><text fill="#FFFFFF" font-family="Arial,Arial_MSFontService,sans-serif" font-weight="700" font-size="15" transform="translate(1813.2 581)">Polylactic <tspan font-size="15" x="18.2533" y="18">Acid</tspan></text><path d="M2078 417C2078 412.582 2081.58 409 2086 409L2185 409C2189.42 409 2193 412.582 2193 417L2193 449C2193 453.418 2189.42 457 2185 457L2086 457C2081.58 457 2078 453.418 2078 449Z" stroke="#000000" stroke-width="2" stroke-miterlimit="8" fill="#067F10" fill-rule="evenodd"/><text fill="#FFFFFF" font-family="Arial,Arial_MSFontService,sans-serif" font-weight="700" font-size="21" transform="translate(2112.77 442)">TEM </text><path d="M2327 548C2327 543.582 2330.58 540 2335 540L2435 540C2439.42 540 2443 543.582 2443 548L2443 580C2443 584.418 2439.42 588 2435 588L2335 588C2330.58 588 2327 584.418 2327 580Z" stroke="#000000" stroke-width="2" stroke-miterlimit="8" fill="#067F10" fill-rule="evenodd"/><text fill="#FFFFFF" font-family="Arial,Arial_MSFontService,sans-serif" font-weight="700" font-size="21" transform="translate(2362.47 573)">TEM </text><path d="M2240 710C2240 705.582 2243.58 702 2248 702L2347 702C2351.42 702 2355 705.582 2355 710L2355 742C2355 746.418 2351.42 750 2347 750L2248 750C2243.58 750 2240 746.418 2240 742Z" stroke="#000000" stroke-width="2" stroke-miterlimit="8" fill="#067F10" fill-rule="evenodd"/><text fill="#FFFFFF" font-family="Arial,Arial_MSFontService,sans-serif" font-weight="700" font-size="21" transform="translate(2275.54 735)">SEC </text><path d="M2108 711C2108 706.582 2111.58 703 2116 703L2215 703C2219.42 703 2223 706.582 2223 711L2223 743C2223 747.418 2219.42 751 2215 751L2116 751C2111.58 751 2108 747.418 2108 743Z" stroke="#000000" stroke-width="2" stroke-miterlimit="8" fill="#067F10" fill-rule="evenodd"/><text fill="#FFFFFF" font-family="Arial,Arial_MSFontService,sans-serif" font-weight="400" font-size="19" transform="translate(2124.51 722)">frequency <tspan font-size="19" x="9.25342" y="23">sweeps</tspan></text><path d="M2327 604C2327 599.582 2330.58 596 2335 596L2435 596C2439.42 596 2443 599.582 2443 604L2443 636C2443 640.418 2439.42 644 2435 644L2335 644C2330.58 644 2327 640.418 2327 636Z" stroke="#000000" stroke-width="2" stroke-miterlimit="8" fill="#067F10" fill-rule="evenodd"/><text fill="#FFFFFF" font-family="Arial,Arial_MSFontService,sans-serif" font-weight="700" font-size="21" transform="translate(2363.14 628)">SEC </text><path d="M1.2375-2.5488 53.4137 22.7838 50.9387 27.8814-1.2375 2.5488ZM53.3399 16.4487 64.9202 31.5201 45.9149 31.7415Z" transform="matrix(-1 0 0 1 2229.92 671)"/><path d="M2231.2 668.431 2285.46 693.689 2283.07 698.826 2228.8 673.569ZM2285.28 687.356 2297.11 702.236 2278.11 702.768Z"/><path d="M2289.9 581.896 2318.88 608.02 2315.08 612.229 2286.1 586.104ZM2320.57 601.914 2327.5 619.61 2309.18 614.541Z"/><path d="M1.27525-2.53012 28.1273 11.004 25.5768 16.0642-1.27525 2.53012ZM28.1477 4.6685 39.5027 19.9103 20.4962 19.8492Z" transform="matrix(1 0 0 -1 2288 583.91)"/><path d="M2227.39 498.252 2147.01 465.03 2149.17 459.793 2229.56 493.015ZM2147.46 471.349 2135 457 2153.96 455.638Z"/><path d="M2265 417C2265 412.582 2268.58 409 2273 409L2372 409C2376.42 409 2380 412.582 2380 417L2380 449C2380 453.418 2376.42 457 2372 457L2273 457C2268.58 457 2265 453.418 2265 449Z" stroke="#000000" stroke-width="2" stroke-miterlimit="8" fill="#067F10" fill-rule="evenodd"/><text fill="#FFFFFF" font-family="Arial,Arial_MSFontService,sans-serif" font-weight="700" font-size="21" transform="translate(2288.33 442)">UV-<tspan font-size="21" x="36.6667" y="0">Vis </tspan></text><path d="M1.07779-2.62033 81.903 30.6244 79.7474 35.8651-1.07779 2.62033ZM81.4382 24.306 93.9268 38.6337 74.9715 40.028Z" transform="matrix(1 0 0 -1 2229 495.634)"/><path d="M2171 354C2171 349.582 2174.58 346 2179 346L2278 346C2282.42 346 2286 349.582 2286 354L2286 386C2286 390.418 2282.42 394 2278 394L2179 394C2174.58 394 2171 390.418 2171 386Z" stroke="#000000" stroke-width="2" stroke-miterlimit="8" fill="#067F10" fill-rule="evenodd"/><text fill="#FFFFFF" font-family="Arial,Arial_MSFontService,sans-serif" font-weight="700" font-size="21" transform="translate(2192.66 378)">Photos </text><path d="M2.83333-2.91982e-06 2.83342 87.7104-2.83324 87.7104-2.83333 2.91982e-06ZM8.50009 84.8771 0.000104987 101.877-8.49991 84.8771Z" transform="matrix(1 0 0 -1 2229 495.877)"/><path d="M1845.03 561.88 1808.79 474.175 1814.03 472.011 1850.27 559.716ZM1804.64 478.958 1806 460 1820.35 472.465Z"/><path d="M2.23534-1.74098 73.3299 89.5411 68.8592 93.023-2.23534 1.74098ZM76.0596 83.8238 79.7995 102.459 62.6475 94.2697Z" transform="matrix(1 0 0 -1 1847 560.459)"/><path d="M2013.31 713.999 1912.15 597.553 1916.43 593.836 2017.59 710.282ZM1909.73 603.408 1905 585 1922.57 592.259Z"/><path d="M2082 804C2082 799.582 2085.58 796 2090 796L2189 796C2193.42 796 2197 799.582 2197 804L2197 836C2197 840.418 2193.42 844 2189 844L2090 844C2085.58 844 2082 840.418 2082 836Z" stroke="#000000" stroke-width="2" stroke-miterlimit="8" fill="#067F10" fill-rule="evenodd"/><text fill="#FFFFFF" font-family="Arial,Arial_MSFontService,sans-serif" font-weight="700" font-size="21" transform="translate(2103.29 828)">Photos </text><path d="M0.826838-2.71 106.207 29.4421 104.553 34.8621-0.826838 2.71ZM105.151 23.1953 118.93 36.2863 100.19 39.4553Z" transform="matrix(-1 0 0 1 2014.93 760)"/><path d="M2017.83 759.804 2019.37 781.957 2013.71 782.35 2012.17 760.196ZM2024.82 778.738 2017.52 796.286 2007.86 779.917Z"/><path d="M2015.8 757.281 2126.15 789.587 2124.56 795.025 2014.2 762.719ZM2125.03 783.353 2138.95 796.286 2120.25 799.668Z"/><path d="M1960 804C1960 799.582 1963.58 796 1968 796L2068 796C2072.42 796 2076 799.582 2076 804L2076 836C2076 840.418 2072.42 844 2068 844L1968 844C1963.58 844 1960 840.418 1960 836Z" stroke="#000000" stroke-width="2" stroke-miterlimit="8" fill="#067F10" fill-rule="evenodd"/><text fill="#FFFFFF" font-family="Arial,Arial_MSFontService,sans-serif" font-weight="700" font-size="21" transform="translate(1983.61 828)">UV-<tspan font-size="21" x="36.6667" y="0">Vis </tspan></text><path d="M1839 804C1839 799.582 1842.58 796 1847 796L1946 796C1950.42 796 1954 799.582 1954 804L1954 836C1954 840.418 1950.42 844 1946 844L1847 844C1842.58 844 1839 840.418 1839 836Z" stroke="#000000" stroke-width="2" stroke-miterlimit="8" fill="#067F10" fill-rule="evenodd"/><text fill="#FFFFFF" font-family="Arial,Arial_MSFontService,sans-serif" font-weight="700" font-size="19" transform="translate(1863.41 816)">grazing<tspan font-size="19" x="7.57996" y="23">SAXS </tspan></text><path d="M1002 1057C975.49 1057 954 1053.42 954 1049L954 859.509C954 855.091 932.51 851.509 906 851.509 932.51 851.509 954 847.928 954 843.51L954 758C954 753.582 975.49 750 1002 750" stroke="#000000" stroke-width="4" stroke-miterlimit="8" fill="none" fill-rule="evenodd"/><path d="M1016 1057C989.49 1057 968 1053.42 968 1049L968 911.5C968 907.082 946.51 903.5 920 903.5 946.51 903.5 968 899.918 968 895.5L968 758C968 753.582 989.49 750 1016 750" stroke="#000000" stroke-width="4" stroke-miterlimit="8" fill="none" fill-rule="evenodd"/><path d="M993 997C993 992.582 996.582 989 1001 989L1100 989C1104.42 989 1108 992.582 1108 997L1108 1029C1108 1033.42 1104.42 1037 1100 1037L1001 1037C996.582 1037 993 1033.42 993 1029Z" stroke="#000000" stroke-width="2" stroke-miterlimit="8" fill="#0A24CC" fill-rule="evenodd"/><text fill="#FFFFFF" font-family="Arial,Arial_MSFontService,sans-serif" font-weight="700" font-size="21" transform="translate(1012.72 1021)">Hexane</text><path d="M1443 826C1443 821.582 1446.58 818 1451 818L1550 818C1554.42 818 1558 821.582 1558 826L1558 858C1558 862.418 1554.42 866 1550 866L1451 866C1446.58 866 1443 862.418 1443 858Z" stroke="#000000" stroke-width="2" stroke-miterlimit="8" fill="#0A24CC" fill-rule="evenodd"/><text fill="#FFFFFF" font-family="Arial,Arial_MSFontService,sans-serif" font-weight="700" font-size="15" transform="translate(1482.28 838)">Poly-<tspan font-size="15" x="-22.92" y="18">norbornene </tspan></text><path d="M1354 765C1354 760.582 1357.58 757 1362 757L1461 757C1465.42 757 1469 760.582 1469 765L1469 797C1469 801.418 1465.42 805 1461 805L1362 805C1357.58 805 1354 801.418 1354 797Z" stroke="#000000" stroke-width="2" stroke-miterlimit="8" fill="#067F10" fill-rule="evenodd"/><text fill="#FFFFFF" font-family="Arial,Arial_MSFontService,sans-serif" font-weight="700" font-size="19" transform="translate(1375.7 776)">1H NMR <tspan font-size="19" x="11.3333" y="23">Array</tspan></text><path d="M1606 1026C1606 1021.58 1609.58 1018 1614 1018L1714 1018C1718.42 1018 1722 1021.58 1722 1026L1722 1058C1722 1062.42 1718.42 1066 1714 1066L1614 1066C1609.58 1066 1606 1062.42 1606 1058Z" stroke="#000000" stroke-width="2" stroke-miterlimit="8" fill="#067F10" fill-rule="evenodd"/><text fill="#FFFFFF" font-family="Arial,Arial_MSFontService,sans-serif" font-weight="700" font-size="21" transform="translate(1642.17 1050)">SEC</text><path d="M1.5848-2.34865 45.5872 27.3429 42.4175 32.0402-1.5848 2.34865ZM46.4081 21.0608 55.7456 37.6155 36.8993 35.1527Z" transform="matrix(1 0 0 -1 1298 818.616)"/><path d="M0.0132178-2.8333 72.7367-2.49404 72.7102 3.17257-0.0132178 2.8333ZM69.9298-8.17386 86.89 0.405354 69.8505 8.82595Z" transform="matrix(-1 0 0 1 1442.89 842)"/><path d="M1241 826C1241 821.582 1244.58 818 1249 818L1348 818C1352.42 818 1356 821.582 1356 826L1356 858C1356 862.418 1352.42 866 1348 866L1249 866C1244.58 866 1241 862.418 1241 858Z" stroke="#000000" stroke-width="2" stroke-miterlimit="8" fill="#FFC000" fill-rule="evenodd"/><text fill="#FFFFFF" font-family="Arial,Arial_MSFontService,sans-serif" font-weight="700" font-size="19" transform="translate(1276.85 838)">NMR <tspan font-size="19" x="-14.5" y="23">ROMP 1</tspan></text><path d="M993 939C993 934.582 996.582 931 1001 931L1100 931C1104.42 931 1108 934.582 1108 939L1108 971C1108 975.418 1104.42 979 1100 979L1001 979C996.582 979 993 975.418 993 971Z" stroke="#000000" stroke-width="2" stroke-miterlimit="8" fill="#0A24CC" fill-rule="evenodd"/><text fill="#FFFFFF" font-family="Arial,Arial_MSFontService,sans-serif" font-weight="700" font-size="16" transform="translate(1005.22 952)">Norbornene<tspan font-size="16" x="24.42" y="19">imide</tspan></text><path d="M993 828C993 823.582 996.582 820 1001 820L1100 820C1104.42 820 1108 823.582 1108 828L1108 860C1108 864.418 1104.42 868 1100 868L1001 868C996.582 868 993 864.418 993 860Z" stroke="#000000" stroke-width="2" stroke-miterlimit="8" fill="#0A24CC" fill-rule="evenodd"/><text fill="#FFFFFF" font-family="Arial,Arial_MSFontService,sans-serif" font-weight="700" font-size="16" transform="translate(1009.55 841)">Ethyl Vinyl <tspan font-size="16" x="20.5866" y="19">Ether</tspan></text><path d="M993 776C993 771.582 996.582 768 1001 768L1100 768C1104.42 768 1108 771.582 1108 776L1108 808C1108 812.418 1104.42 816 1100 816L1001 816C996.582 816 993 812.418 993 808Z" stroke="#000000" stroke-width="2" stroke-miterlimit="8" fill="#0A24CC" fill-rule="evenodd"/><text fill="#FFFFFF" font-family="Arial,Arial_MSFontService,sans-serif" font-weight="700" font-size="16" transform="translate(1022.05 789)">Grubbs <tspan font-size="16" x="6.75336" y="19">Cat. 3</tspan></text><path d="M993 884C993 879.582 996.582 876 1001 876L1100 876C1104.42 876 1108 879.582 1108 884L1108 916C1108 920.418 1104.42 924 1100 924L1001 924C996.582 924 993 920.418 993 916Z" stroke="#000000" stroke-width="2" stroke-miterlimit="8" fill="#0A24CC" fill-rule="evenodd"/><text fill="#FFFFFF" font-family="Arial,Arial_MSFontService,sans-serif" font-weight="700" font-size="16" transform="translate(1026.63 906)">CDCl3</text><path d="M1241 885C1241 880.582 1244.58 877 1249 877L1348 877C1352.42 877 1356 880.582 1356 885L1356 917C1356 921.418 1352.42 925 1348 925L1249 925C1244.58 925 1241 921.418 1241 917Z" stroke="#000000" stroke-width="2" stroke-miterlimit="8" fill="#FFC000" fill-rule="evenodd"/><text fill="#FFFFFF" font-family="Arial,Arial_MSFontService,sans-serif" font-weight="700" font-size="19" transform="translate(1276.85 896)">NMR <tspan font-size="19" x="-14.5" y="23">ROMP 2</tspan></text><path d="M1241 1000C1241 995.582 1244.58 992 1249 992L1348 992C1352.42 992 1356 995.582 1356 1000L1356 1032C1356 1036.42 1352.42 1040 1348 1040L1249 1040C1244.58 1040 1241 1036.42 1241 1032Z" stroke="#000000" stroke-width="2" stroke-miterlimit="8" fill="#FFC000" fill-rule="evenodd"/><text fill="#FFFFFF" font-family="Arial,Arial_MSFontService,sans-serif" font-weight="700" font-size="19" transform="translate(1276.85 1011)">NMR <tspan font-size="19" x="-14.5" y="23">ROMP 3</tspan></text><path d="M1444 886C1444 881.582 1447.58 878 1452 878L1551 878C1555.42 878 1559 881.582 1559 886L1559 918C1559 922.418 1555.42 926 1551 926L1452 926C1447.58 926 1444 922.418 1444 918Z" stroke="#000000" stroke-width="2" stroke-miterlimit="8" fill="#0A24CC" fill-rule="evenodd"/><text fill="#FFFFFF" font-family="Arial,Arial_MSFontService,sans-serif" font-weight="700" font-size="15" transform="translate(1483.45 898)">Poly-<tspan font-size="15" x="-22.9199" y="18">norbornene </tspan></text><path d="M1424 1026C1424 1021.58 1427.58 1018 1432 1018L1532 1018C1536.42 1018 1540 1021.58 1540 1026L1540 1058C1540 1062.42 1536.42 1066 1532 1066L1432 1066C1427.58 1066 1424 1062.42 1424 1058Z" stroke="#000000" stroke-width="2" stroke-miterlimit="8" fill="#0A24CC" fill-rule="evenodd"/><text fill="#FFFFFF" font-family="Arial,Arial_MSFontService,sans-serif" font-weight="700" font-size="15" transform="translate(1464.01 1038)">Poly-<tspan font-size="15" x="-22.92" y="18">norbornene </tspan></text><path d="M1444.02 905.145 1370.12 904.044 1370.21 898.378 1444.1 899.479ZM1372.87 909.752 1356 901 1373.12 892.754Z"/><path d="M1423.6 1045.08 1368.2 1023.74 1370.24 1018.45 1425.64 1039.79ZM1368.81 1030.04 1356 1016 1374.92 1014.18Z"/><path d="M1619 888C1619 883.582 1622.58 880 1627 880L1726 880C1730.42 880 1734 883.582 1734 888L1734 920C1734 924.418 1730.42 928 1726 928L1627 928C1622.58 928 1619 924.418 1619 920Z" stroke="#000000" stroke-width="2" stroke-miterlimit="8" fill="#067F10" fill-rule="evenodd"/><text fill="#FFFFFF" font-family="Arial,Arial_MSFontService,sans-serif" font-weight="700" font-size="21" transform="translate(1654.52 912)">SEC</text><path d="M1617 826C1617 821.582 1620.58 818 1625 818L1724 818C1728.42 818 1732 821.582 1732 826L1732 858C1732 862.418 1728.42 866 1724 866L1625 866C1620.58 866 1617 862.418 1617 858Z" stroke="#000000" stroke-width="2" stroke-miterlimit="8" fill="#067F10" fill-rule="evenodd"/><text fill="#FFFFFF" font-family="Arial,Arial_MSFontService,sans-serif" font-weight="700" font-size="21" transform="translate(1652.33 850)">SEC</text><path d="M1367 952C1367 947.582 1370.58 944 1375 944L1474 944C1478.42 944 1482 947.582 1482 952L1482 984C1482 988.418 1478.42 992 1474 992L1375 992C1370.58 992 1367 988.418 1367 984Z" stroke="#000000" stroke-width="2" stroke-miterlimit="8" fill="#067F10" fill-rule="evenodd"/><text fill="#FFFFFF" font-family="Arial,Arial_MSFontService,sans-serif" font-weight="700" font-size="19" transform="translate(1388.43 963)">1H NMR <tspan font-size="19" x="11.3334" y="23">Array</tspan></text><path d="M1241 1096C1241 1091.58 1244.58 1088 1249 1088L1349 1088C1353.42 1088 1357 1091.58 1357 1096L1357 1128C1357 1132.42 1353.42 1136 1349 1136L1249 1136C1244.58 1136 1241 1132.42 1241 1128Z" stroke="#000000" stroke-width="2" stroke-miterlimit="8" fill="#067F10" fill-rule="evenodd"/><text fill="#FFFFFF" font-family="Arial,Arial_MSFontService,sans-serif" font-weight="700" font-size="19" transform="translate(1263.31 1107)">1H NMR <tspan font-size="19" x="11.3333" y="23">Array</tspan></text><path d="M1240.29 1018.41 1122.11 1016.11 1122.22 1010.44 1240.4 1012.75ZM1124.83 1021.83 1108 1013 1125.16 1004.83Z"/><path d="M1238.11 1017.19 1114.41 856.946 1118.9 853.483 1242.59 1013.72ZM1111.66 862.651 1108 844 1125.12 852.263Z"/><path d="M1237.91 1016.87 1112.78 805.633 1117.66 802.745 1242.79 1013.98ZM1109.35 810.958 1108 792 1123.98 802.294Z"/><path d="M1238.48 1017.9 1116.8 911.46 1120.53 907.195 1242.21 1013.64ZM1115.2 917.59 1108 900 1126.39 904.795Z"/><path d="M1239.17 1018.35 1119.69 963.487 1122.06 958.337 1241.53 1013.2ZM1119.9 969.819 1108 955 1127 954.37Z"/><path d="M1.83539-2.1585 123.392 101.203 119.721 105.52-1.83539 2.1585ZM124.904 95.0503 132.349 112.538 113.892 108.001Z" transform="matrix(-1 0 0 1 1240.35 901)"/><path d="M1239.24 902.946 1119.92 852.156 1122.14 846.942 1241.46 897.732ZM1120.31 858.479 1108 844 1126.97 842.838Z"/><path d="M1240.34 903.488 1122.15 902.903 1122.18 897.237 1240.36 897.821ZM1124.96 908.584 1108 900 1125.04 891.584Z"/><path d="M1238.55 902.501 1117.17 803.165 1120.76 798.779 1242.14 898.116ZM1115.77 809.344 1108 792 1126.54 796.188Z"/><path d="M1.07617-2.621 120.321 46.3401 118.168 51.5821-1.07617 2.621ZM119.852 40.0219 132.349 54.3419 113.395 55.7479Z" transform="matrix(-1 0 0 1 1240.35 901)"/><path d="M1.83622-2.1578 123.397 101.286 119.724 105.602-1.83622 2.1578ZM124.911 95.1343 132.349 112.625 113.894 108.081Z" transform="matrix(-1 0 0 1 1240.35 842)"/><path d="M1239.35 844.676 1120.25 799.659 1122.25 794.359 1241.35 839.375ZM1120.9 805.962 1108 792 1126.91 790.06Z"/><path d="M1.13113-2.59775 120.492 49.3749 118.229 54.5704-1.13113 2.59775ZM120.156 43.0482 132.349 57.6282 113.369 58.6347Z" transform="matrix(-1 0 0 1 1240.35 842)"/><path d="M0.041618-2.83303 118.226-1.09686 118.143 4.56919-0.041618 2.83303ZM115.476-6.80454 132.349 1.94425 115.226 10.1936Z" transform="matrix(-1 0 0 1 1240.35 842)"/><path d="M2.23975-1.73532 125.912 157.887 121.433 161.358-2.23975 1.73532ZM128.657 152.177 132.349 170.821 115.218 162.589Z" transform="matrix(-1 0 0 1 1240.35 842)"/><path d="M1299.51 922.603 1356.01 958.186 1352.99 962.98 1296.49 927.397ZM1356.63 951.881 1366.48 968.133 1347.57 966.265Z"/><path d="M1300.83 1039.94 1301.51 1073.76 1295.84 1073.88 1295.17 1040.06ZM1307.12 1070.82 1298.96 1087.98 1290.12 1071.16Z"/><path d="M1540 1039.17 1592.71 1039.17 1592.71 1044.83 1540 1044.83ZM1589.88 1033.5 1606.88 1042 1589.88 1050.5Z"/><path d="M1559.09 899.168 1604.72 900.554 1604.55 906.218 1558.91 904.832ZM1602.06 894.804 1618.79 903.816 1601.54 911.796Z"/><path d="M1558 839.167 1602.61 839.167 1602.61 844.833 1558 844.833ZM1599.77 833.5 1616.77 842 1599.77 850.5Z"/><path d="M1027 1057C1000.49 1057 979 1053.42 979 1049L979 965.888C979 961.47 957.51 957.888 931 957.888 957.51 957.888 979 954.307 979 949.888L979 758C979 753.582 1000.49 750 1027 750" stroke="#000000" stroke-width="4" stroke-miterlimit="8" fill="none" fill-rule="evenodd"/><path d="M804 833C804 828.582 807.582 825 812 825L911 825C915.418 825 919 828.582 919 833L919 865C919 869.418 915.418 873 911 873L812 873C807.582 873 804 869.418 804 865Z" stroke="#000000" stroke-width="2" stroke-miterlimit="8" fill="#D9D9D9" fill-rule="evenodd"/><text font-family="Arial,Arial_MSFontService,sans-serif" font-weight="700" font-size="21" transform="translate(820.869 857)">ROMP 1 </text><path d="M804 887C804 882.582 807.582 879 812 879L911 879C915.418 879 919 882.582 919 887L919 919C919 923.418 915.418 927 911 927L812 927C807.582 927 804 923.418 804 919Z" stroke="#000000" stroke-width="2" stroke-miterlimit="8" fill="#D9D9D9" fill-rule="evenodd"/><text font-family="Arial,Arial_MSFontService,sans-serif" font-weight="700" font-size="21" transform="translate(820.869 911)">ROMP 2 </text><path d="M804 943C804 938.582 807.582 935 812 935L911 935C915.418 935 919 938.582 919 943L919 975C919 979.418 915.418 983 911 983L812 983C807.582 983 804 979.418 804 975Z" stroke="#000000" stroke-width="2" stroke-miterlimit="8" fill="#D9D9D9" fill-rule="evenodd"/><text font-family="Arial,Arial_MSFontService,sans-serif" font-weight="700" font-size="21" transform="translate(820.869 967)">ROMP 3 </text><path d="M626 827C626 822.582 629.582 819 634 819L734 819C738.418 819 742 822.582 742 827L742 859C742 863.418 738.418 867 734 867L634 867C629.582 867 626 863.418 626 859Z" stroke="#000000" stroke-width="2" stroke-miterlimit="8" fill="#00B0F0" fill-rule="evenodd"/><text fill="#FFFFFF" font-family="Arial,Arial_MSFontService,sans-serif" font-weight="700" font-size="19" transform="translate(653.065 850)">Kinetic</text><path d="M743.954 840.949 796.218 890.738 792.309 894.841 740.046 845.051ZM798.075 884.681 804.521 902.561 786.349 896.99Z"/><path d="M742.247 840.177 790.655 844.409 790.161 850.054 741.753 845.823ZM788.325 838.517 804.521 848.465 786.845 855.453Z"/><path d="M744.494 841.655 800.288 945.078 795.301 947.769 739.506 844.345ZM803.93 939.894 804.521 958.892 788.968 947.966Z"/><path d="M801 189C801 184.582 804.582 181 809 181L908 181C912.418 181 916 184.582 916 189L916 221C916 225.418 912.418 229 908 229L809 229C804.582 229 801 225.418 801 221Z" stroke="#000000" stroke-width="2" stroke-miterlimit="8" fill="#D9D9D9" fill-rule="evenodd"/><text font-family="Arial,Arial_MSFontService,sans-serif" font-weight="700" font-size="21" transform="translate(819.127 213)">Anionic </text><path d="M1208.03 442.306 1117.45 371.929 1120.93 367.455 1211.5 437.832ZM1116.21 378.142 1108 361 1126.64 364.718Z" fill="#F09191"/><path d="M1207.46 442.328 1113.92 311.179 1118.53 307.889 1212.07 439.038ZM1110.95 316.776 1108 298 1124.79 306.905Z" fill="#F09191"/><path d="M1207.23 441.311 1111.84 251.927 1116.9 249.378 1212.3 438.762ZM1108.06 257.007 1108 238 1123.24 249.359Z" fill="#F09191"/><path d="M1207.12 440.995 1110.43 189.241 1115.72 187.209 1212.41 438.963ZM1106.16 193.917 1108 175 1122.03 187.822Z" fill="#F09191"/><path d="M1207.03 441.413 1108.89 71.4196 1114.37 69.9668 1212.5 439.96ZM1104.14 75.611 1108 57 1120.57 71.2527Z" fill="#F09191"/><path d="M1.10655-2.60832 477.343 199.431 475.13 204.647-1.10655 2.60832ZM476.949 193.108 489.279 207.572 470.309 208.758Z" fill="#F09191" transform="matrix(-1 0 0 1 1597.28 585)"/><path d="M1.32773-2.50298 478.092 250.4 475.436 255.406-1.32773 2.50298ZM478.244 244.066 489.279 259.542 470.278 259.084Z" fill="#F09191" transform="matrix(-1 0 0 1 1597.28 585)"/><path d="M1596.1 586.907 1119.71 369.461 1122.07 364.306 1598.46 581.752ZM1119.94 375.792 1108 361 1126.99 360.326Z" fill="#F09191"/><path d="M1211.21 656.801 1110.12 375.291 1115.45 373.375 1216.55 654.886ZM1105.75 379.872 1108 361 1121.75 374.127Z" fill="#F09191"/><path d="M1805.11 414.941 1121.52 303.083 1122.44 297.491 1806.02 409.349ZM1123.4 309.134 1108 298 1126.15 292.357Z" fill="#F09191"/><path d="M1926.63 413.292 1121.65 302.735 1122.42 297.121 1927.4 407.678ZM1123.69 308.734 1108 298 1126 291.892Z" fill="#F09191"/><path d="M2030.86 725.4 1119.69 306.492 1122.06 301.344 2033.22 720.252ZM1119.9 312.824 1108 298 1127 297.378Z" fill="#F09191"/><path d="M1397 638C1397 633.582 1400.58 630 1405 630L1504 630C1508.42 630 1512 633.582 1512 638L1512 670C1512 674.418 1508.42 678 1504 678L1405 678C1400.58 678 1397 674.418 1397 670Z" stroke="#000000" stroke-width="2" stroke-miterlimit="8" fill="#0A24CC" fill-rule="evenodd"/><text fill="#FFFFFF" font-family="Arial,Arial_MSFontService,sans-serif" font-weight="700" font-size="15" transform="translate(1420.53 650)">Polylactic <tspan font-size="15" x="18.2533" y="18">Acid</tspan></text><path d="M1214 640C1214 635.582 1217.58 632 1222 632L1321 632C1325.42 632 1329 635.582 1329 640L1329 672C1329 676.418 1325.42 680 1321 680L1222 680C1217.58 680 1214 676.418 1214 672Z" stroke="#000000" stroke-width="2" stroke-miterlimit="8" fill="#FFC000" fill-rule="evenodd"/><text fill="#FFFFFF" font-family="Arial,Arial_MSFontService,sans-serif" font-weight="700" font-size="19" transform="translate(1251.38 663)">ROP</text><path d="M1597 569C1597 564.582 1600.58 561 1605 561L1705 561C1709.42 561 1713 564.582 1713 569L1713 601C1713 605.418 1709.42 609 1705 609L1605 609C1600.58 609 1597 605.418 1597 601Z" stroke="#000000" stroke-width="2" stroke-miterlimit="8" fill="#FFC000" fill-rule="evenodd"/><text fill="#FFFFFF" font-family="Arial,Arial_MSFontService,sans-serif" font-weight="700" font-size="19" transform="translate(1627.03 591)">ROMP</text><path d="M1419 424C1419 419.582 1422.58 416 1427 416L1526 416C1530.42 416 1534 419.582 1534 424L1534 456C1534 460.418 1530.42 464 1526 464L1427 464C1422.58 464 1419 460.418 1419 456Z" stroke="#000000" stroke-width="2" stroke-miterlimit="8" fill="#0A24CC" fill-rule="evenodd"/><text fill="#FFFFFF" font-family="Arial,Arial_MSFontService,sans-serif" font-weight="700" font-size="15" transform="translate(1434.58 446)">Polystyrene</text><path d="M1210 424C1210 419.582 1213.58 416 1218 416L1317 416C1321.42 416 1325 419.582 1325 424L1325 456C1325 460.418 1321.42 464 1317 464L1218 464C1213.58 464 1210 460.418 1210 456Z" stroke="#000000" stroke-width="2" stroke-miterlimit="8" fill="#FFC000" fill-rule="evenodd"/><text fill="#FFFFFF" font-family="Arial,Arial_MSFontService,sans-serif" font-weight="700" font-size="19" transform="translate(1233.43 436)">Anionic <tspan font-size="19" x="11.8334" y="23">Poly.</tspan></text><path d="M1276 546C1276 541.582 1279.58 538 1284 538L1383 538C1387.42 538 1391 541.582 1391 546L1391 578C1391 582.418 1387.42 586 1383 586L1284 586C1279.58 586 1276 582.418 1276 578Z" stroke="#000000" stroke-width="2" stroke-miterlimit="8" fill="#067F10" fill-rule="evenodd"/><text fill="#FFFFFF" font-family="Arial,Arial_MSFontService,sans-serif" font-weight="700" font-size="21" transform="translate(1292.36 570)">1H NMR </text><path d="M1403 546C1403 541.582 1406.58 538 1411 538L1510 538C1514.42 538 1518 541.582 1518 546L1518 578C1518 582.418 1514.42 586 1510 586L1411 586C1406.58 586 1403 582.418 1403 578Z" stroke="#000000" stroke-width="2" stroke-miterlimit="8" fill="#067F10" fill-rule="evenodd"/><text fill="#FFFFFF" font-family="Arial,Arial_MSFontService,sans-serif" font-weight="700" font-size="21" transform="translate(1438.69 570)">SEC</text><path d="M1355 329C1355 324.582 1358.58 321 1363 321L1462 321C1466.42 321 1470 324.582 1470 329L1470 361C1470 365.418 1466.42 369 1462 369L1363 369C1358.58 369 1355 365.418 1355 361Z" stroke="#000000" stroke-width="2" stroke-miterlimit="8" fill="#067F10" fill-rule="evenodd"/><text fill="#FFFFFF" font-family="Arial,Arial_MSFontService,sans-serif" font-weight="700" font-size="21" transform="translate(1371.66 354)">1H NMR </text><path d="M1482 329C1482 324.582 1485.58 321 1490 321L1589 321C1593.42 321 1597 324.582 1597 329L1597 361C1597 365.418 1593.42 369 1589 369L1490 369C1485.58 369 1482 365.418 1482 361Z" stroke="#000000" stroke-width="2" stroke-miterlimit="8" fill="#067F10" fill-rule="evenodd"/><text fill="#FFFFFF" font-family="Arial,Arial_MSFontService,sans-serif" font-weight="700" font-size="21" transform="translate(1518 354)">SEC</text><path d="M1672 667C1672 662.582 1675.58 659 1680 659L1779 659C1783.42 659 1787 662.582 1787 667L1787 699C1787 703.418 1783.42 707 1779 707L1680 707C1675.58 707 1672 703.418 1672 699Z" stroke="#000000" stroke-width="2" stroke-miterlimit="8" fill="#067F10" fill-rule="evenodd"/><text fill="#FFFFFF" font-family="Arial,Arial_MSFontService,sans-serif" font-weight="700" font-size="21" transform="translate(1688.93 691)">1H NMR </text><path d="M1799 667C1799 662.582 1802.58 659 1807 659L1907 659C1911.42 659 1915 662.582 1915 667L1915 699C1915 703.418 1911.42 707 1907 707L1807 707C1802.58 707 1799 703.418 1799 699Z" stroke="#000000" stroke-width="2" stroke-miterlimit="8" fill="#067F10" fill-rule="evenodd"/><text fill="#FFFFFF" font-family="Arial,Arial_MSFontService,sans-serif" font-weight="700" font-size="21" transform="translate(1835.26 691)">SEC</text><path d="M1958 720C1958 715.582 1961.58 712 1966 712L2065 712C2069.42 712 2073 715.582 2073 720L2073 752C2073 756.418 2069.42 760 2065 760L1966 760C1961.58 760 1958 756.418 1958 752Z" stroke="#000000" stroke-width="2" stroke-miterlimit="8" fill="#FFC000" fill-rule="evenodd"/><text fill="#FFFFFF" font-family="Arial,Arial_MSFontService,sans-serif" font-weight="700" font-size="19" transform="translate(2003.5 731)">3D <tspan font-size="19" x="-22.6666" y="23">printing</tspan></text><path d="M1748 420C1748 415.582 1751.58 412 1756 412L1855 412C1859.42 412 1863 415.582 1863 420L1863 452C1863 456.418 1859.42 460 1855 460L1756 460C1751.58 460 1748 456.418 1748 452Z" stroke="#000000" stroke-width="2" stroke-miterlimit="8" fill="#067F10" fill-rule="evenodd"/><text fill="#FFFFFF" font-family="Arial,Arial_MSFontService,sans-serif" font-weight="700" font-size="15" transform="translate(1762.13 432)">Sol. Neutron <tspan font-size="15" x="7.7467" y="18">Scattering</tspan></text><path d="M1870 418C1870 413.582 1873.58 410 1878 410L1977 410C1981.42 410 1985 413.582 1985 418L1985 450C1985 454.418 1981.42 458 1977 458L1878 458C1873.58 458 1870 454.418 1870 450Z" stroke="#000000" stroke-width="2" stroke-miterlimit="8" fill="#067F10" fill-rule="evenodd"/><text fill="#FFFFFF" font-family="Arial,Arial_MSFontService,sans-serif" font-weight="400" font-size="19" transform="translate(1886.34 430)">frequency <tspan font-size="19" x="9.2533" y="23">sweeps</tspan></text><path d="M1007 876C992.364 876 980.5 874.023 980.5 871.584L980.5 455.416C980.5 452.977 968.636 451 954 451 968.636 451 980.5 449.023 980.5 446.584L980.5 30.4164C980.5 27.9773 992.365 26 1007 26" stroke="#000000" stroke-width="4" stroke-miterlimit="8" fill="none" fill-rule="evenodd"/><path d="M845 440C845 435.582 848.582 432 853 432L952 432C956.418 432 960 435.582 960 440L960 472C960 476.418 956.418 480 952 480L853 480C848.582 480 845 476.418 845 472Z" stroke="#000000" stroke-width="2" stroke-miterlimit="8" fill="#D9D9D9" fill-rule="evenodd"/><text font-family="Arial,Arial_MSFontService,sans-serif" font-weight="700" font-size="21" transform="translate(864.303 464)">Diblock</text><path d="M993 345C993 340.582 996.582 337 1001 337L1100 337C1104.42 337 1108 340.582 1108 345L1108 377C1108 381.418 1104.42 385 1100 385L1001 385C996.582 385 993 381.418 993 377Z" stroke="#000000" stroke-width="2" stroke-miterlimit="8" fill="#0A24CC" fill-rule="evenodd"/><text fill="#FFFFFF" font-family="Arial,Arial_MSFontService,sans-serif" font-weight="700" font-size="21" transform="translate(1029.88 370)">THF</text><path d="M628 1184C628 1179.58 631.582 1176 636 1176L735 1176C739.418 1176 743 1179.58 743 1184L743 1216C743 1220.42 739.418 1224 735 1224L636 1224C631.582 1224 628 1220.42 628 1216Z" stroke="#000000" stroke-width="2" stroke-miterlimit="8" fill="#0A24CC" fill-rule="evenodd"/><text fill="#FFFFFF" font-family="Arial,Arial_MSFontService,sans-serif" font-weight="700" font-size="21" transform="translate(645.435 1209)">Material</text><path d="M1128 1184C1128 1179.58 1131.58 1176 1136 1176L1235 1176C1239.42 1176 1243 1179.58 1243 1184L1243 1216C1243 1220.42 1239.42 1224 1235 1224L1136 1224C1131.58 1224 1128 1220.42 1128 1216Z" stroke="#000000" stroke-width="2" stroke-miterlimit="8" fill="#FFC000" fill-rule="evenodd"/><text fill="#FFFFFF" font-family="Arial,Arial_MSFontService,sans-serif" font-weight="700" font-size="21" transform="translate(1144.12 1209)">Process </text><path d="M878 1184C878 1179.58 881.582 1176 886 1176L985 1176C989.418 1176 993 1179.58 993 1184L993 1216C993 1220.42 989.418 1224 985 1224L886 1224C881.582 1224 878 1220.42 878 1216Z" stroke="#000000" stroke-width="2" stroke-miterlimit="8" fill="#9A3333" fill-rule="evenodd"/><text fill="#FFFFFF" font-family="Arial,Arial_MSFontService,sans-serif" font-weight="700" font-size="21" transform="translate(897.779 1209)">Sample </text><path d="M1253 1184C1253 1179.58 1256.58 1176 1261 1176L1360 1176C1364.42 1176 1368 1179.58 1368 1184L1368 1216C1368 1220.42 1364.42 1224 1360 1224L1261 1224C1256.58 1224 1253 1220.42 1253 1216Z" stroke="#000000" stroke-width="2" stroke-miterlimit="8" fill="#067F10" fill-rule="evenodd"/><text fill="#FFFFFF" font-family="Arial,Arial_MSFontService,sans-serif" font-weight="700" font-size="21" transform="translate(1287.38 1209)">Data </text><path d="M753 1184C753 1179.58 756.582 1176 761 1176L860 1176C864.418 1176 868 1179.58 868 1184L868 1216C868 1220.42 864.418 1224 860 1224L761 1224C756.582 1224 753 1220.42 753 1216Z" stroke="#000000" stroke-width="2" stroke-miterlimit="8" fill="#9100B8" fill-rule="evenodd"/><text fill="#FFFFFF" font-family="Arial,Arial_MSFontService,sans-serif" font-weight="700" font-size="21" transform="translate(787.107 1209)">User</text><path d="M1378 1184C1378 1179.58 1381.58 1176 1386 1176L1485 1176C1489.42 1176 1493 1179.58 1493 1184L1493 1216C1493 1220.42 1489.42 1224 1485 1224L1386 1224C1381.58 1224 1378 1220.42 1378 1216Z" stroke="#000000" stroke-width="2" stroke-miterlimit="8" fill="#00B0F0" fill-rule="evenodd"/><text fill="#FFFFFF" font-family="Arial,Arial_MSFontService,sans-serif" font-weight="700" font-size="21" transform="translate(1412.22 1209)">Coll.</text><path d="M1003 1184C1003 1179.58 1006.58 1176 1011 1176L1110 1176C1114.42 1176 1118 1179.58 1118 1184L1118 1216C1118 1220.42 1114.42 1224 1110 1224L1011 1224C1006.58 1224 1003 1220.42 1003 1216Z" stroke="#000000" stroke-width="2" stroke-miterlimit="8" fill="#FB7623" fill-rule="evenodd"/><text fill="#FFFFFF" font-family="Arial,Arial_MSFontService,sans-serif" font-weight="700" font-size="21" transform="translate(1028.62 1209)">Group </text><path d="M1503 1184C1503 1179.58 1506.58 1176 1511 1176L1610 1176C1614.42 1176 1618 1179.58 1618 1184L1618 1216C1618 1220.42 1614.42 1224 1610 1224L1511 1224C1506.58 1224 1503 1220.42 1503 1216Z" stroke="#000000" stroke-width="2" stroke-miterlimit="8" fill="#595959" fill-rule="evenodd"/><text fill="#FFFFFF" font-family="Arial,Arial_MSFontService,sans-serif" font-weight="700" font-size="21" transform="translate(1537.22 1209)">Pub. </text><path d="M1628 1184C1628 1179.58 1631.58 1176 1636 1176L1735 1176C1739.42 1176 1743 1179.58 1743 1184L1743 1216C1743 1220.42 1739.42 1224 1735 1224L1636 1224C1631.58 1224 1628 1220.42 1628 1216Z" stroke="#000000" stroke-width="2" stroke-miterlimit="8" fill="#D9D9D9" fill-rule="evenodd"/><text font-family="Arial,Arial_MSFontService,sans-serif" font-weight="700" font-size="21" transform="translate(1659.14 1209)">Expt. </text><path d="M1753 1184C1753 1179.58 1756.58 1176 1761 1176L1860 1176C1864.42 1176 1868 1179.58 1868 1184L1868 1216C1868 1220.42 1864.42 1224 1860 1224L1761 1224C1756.58 1224 1753 1220.42 1753 1216Z" stroke="#7F7F7F" stroke-width="2" stroke-miterlimit="8" fill-rule="evenodd"/><text fill="#FFFFFF" font-family="Arial,Arial_MSFontService,sans-serif" font-weight="700" font-size="21" transform="translate(1787.56 1209)">Sim. </text></g></svg>