<svg width="1728" height="787" xmlns="http://www.w3.org/2000/svg" xmlns:xlink="http://www.w3.org/1999/xlink" overflow="hidden"><defs><clipPath id="clip0"><rect x="0" y="0" width="1728" height="787"/></clipPath></defs><g clip-path="url(#clip0)"><rect x="0" y="0" width="1728" height="786.833" fill="#FFFFFF"/><path d="M1262.34 476.204 368.959 238.333 370.417 232.858 1263.8 470.729ZM370.24 244.537 356 231.951 374.615 228.113Z"/><path d="M1238.49 284.572 369.988 235.577 370.307 229.921 1238.81 278.915ZM372.494 241.393 356 231.951 373.452 224.424Z"/><text fill="#898989" font-family="Arial,Arial_MSFontService,sans-serif" font-weight="400" font-size="12" transform="matrix(1 0 0 0.999788 1285.44 514)">1</text><path d="M456.768 205.495 368.795 179.671 370.391 174.235 458.364 200.059ZM369.917 185.905 356 172.963 374.706 169.597Z"/><path d="M236 697.852C217.222 697.852 202 695.316 202 692.187L202 363.089C202 359.961 186.778 357.424 168 357.424 186.778 357.424 202 354.888 202 351.759L202 22.6613C202 19.5326 217.223 16.9964 236.001 16.9964" stroke="#000000" stroke-width="4" stroke-miterlimit="8" fill="none" fill-rule="evenodd"/><path d="M24 338.928C24 334.511 27.5818 330.93 32.0002 330.93L131 330.93C135.418 330.93 139 334.511 139 338.928L139 370.921C139 375.339 135.418 378.92 131 378.92L32.0002 378.92C27.5818 378.92 24 375.339 24 370.921Z" stroke="#000000" stroke-width="2" stroke-miterlimit="8" fill="#D9D9D9" fill-rule="evenodd"/><text font-family="Arial,Arial_MSFontService,sans-serif" font-weight="700" font-size="19" transform="matrix(1 0 0 0.999788 48.0236 351)">Diblock <tspan font-size="19" x="20.08" y="23.0049">BB </tspan></text><path d="M241 36.9924C241 32.5749 244.582 28.9939 249 28.9939L348 28.9939C352.418 28.9939 356 32.5749 356 36.9924L356 68.9852C356 73.4026 352.418 76.9837 348 76.9837L249 76.9837C244.582 76.9837 241 73.4026 241 68.9852Z" stroke="#000000" stroke-width="2" stroke-miterlimit="8" fill="#0A24CC" fill-rule="evenodd"/><text fill="#FFFFFF" font-family="Arial,Arial_MSFontService,sans-serif" font-weight="700" font-size="21" transform="matrix(1 0 0 0.999788 255.894 62)">SecBuLi</text><path d="M241 96.9797C241 92.5622 244.582 88.9812 249 88.9812L348 88.9812C352.418 88.9812 356 92.5622 356 96.9797L356 128.972C356 133.39 352.418 136.971 348 136.971L249 136.971C244.582 136.971 241 133.39 241 128.972Z" stroke="#000000" stroke-width="2" stroke-miterlimit="8" fill="#0A24CC" fill-rule="evenodd"/><text fill="#FFFFFF" font-family="Arial,Arial_MSFontService,sans-serif" font-weight="700" font-size="21" transform="matrix(1 0 0 0.999788 257.644 121)">Toluene</text><path d="M241 156.967C241 152.549 244.582 148.968 249 148.968L348 148.968C352.418 148.968 356 152.549 356 156.967L356 188.96C356 193.377 352.418 196.958 348 196.958L249 196.958C244.582 196.958 241 193.377 241 188.96Z" stroke="#000000" stroke-width="2" stroke-miterlimit="8" fill="#0A24CC" fill-rule="evenodd"/><text fill="#FFFFFF" font-family="Arial,Arial_MSFontService,sans-serif" font-weight="700" font-size="21" transform="matrix(1 0 0 0.999788 259.394 181)">Styrene</text><path d="M241 215.954C241 211.537 244.582 207.956 249 207.956L348 207.956C352.418 207.956 356 211.537 356 215.954L356 247.947C356 252.365 352.418 255.946 348 255.946L249 255.946C244.582 255.946 241 252.365 241 247.947Z" stroke="#000000" stroke-width="2" stroke-miterlimit="8" fill="#0A24CC" fill-rule="evenodd"/><text fill="#FFFFFF" font-family="Arial,Arial_MSFontService,sans-serif" font-weight="700" font-size="21" transform="matrix(1 0 0 0.999788 277.81 241)">THF</text><path d="M241 275.942C241 271.524 244.582 267.943 249 267.943L348 267.943C352.418 267.943 356 271.524 356 275.942L356 307.935C356 312.352 352.418 315.933 348 315.933L249 315.933C244.582 315.933 241 312.352 241 307.935Z" stroke="#000000" stroke-width="2" stroke-miterlimit="8" fill="#0A24CC" fill-rule="evenodd"/><text fill="#FFFFFF" font-family="Arial,Arial_MSFontService,sans-serif" font-weight="700" font-size="19" transform="matrix(1 0 0 0.999788 259.727 288)">Ethylene <tspan font-size="19" x="12.9134" y="23.0049">Oxide</tspan></text><path d="M241 335.929C241 331.512 244.582 327.931 249 327.931L348 327.931C352.418 327.931 356 331.512 356 335.929L356 367.922C356 372.339 352.418 375.92 348 375.92L249 375.92C244.582 375.92 241 372.339 241 367.922Z" stroke="#000000" stroke-width="2" stroke-miterlimit="8" fill="#0A24CC" fill-rule="evenodd"/><text fill="#FFFFFF" font-family="Arial,Arial_MSFontService,sans-serif" font-weight="700" font-size="21" transform="matrix(1 0 0 0.999788 267.644 360)">MeOH</text><path d="M666 186.961C666 182.543 669.582 178.962 674 178.962L773 178.962C777.418 178.962 781 182.543 781 186.961L781 218.953C781 223.371 777.418 226.952 773 226.952L674 226.952C669.582 226.952 666 223.371 666 218.953Z" stroke="#000000" stroke-width="2" stroke-miterlimit="8" fill="#0A24CC" fill-rule="evenodd"/><text fill="#FFFFFF" font-family="Arial,Arial_MSFontService,sans-serif" font-weight="700" font-size="15" transform="matrix(1 0 0 0.999788 682.307 208)">Polystyrene</text><path d="M603 91.9807C603 87.5633 606.582 83.9822 611 83.9822L710 83.9822C714.418 83.9822 718 87.5633 718 91.9807L718 123.974C718 128.391 714.418 131.972 710 131.972L611 131.972C606.582 131.972 603 128.391 603 123.974Z" stroke="#000000" stroke-width="2" stroke-miterlimit="8" fill="#067F10" fill-rule="evenodd"/><text fill="#FFFFFF" font-family="Arial,Arial_MSFontService,sans-serif" font-weight="700" font-size="21" transform="matrix(1 0 0 0.999788 619.39 116)">1H NMR </text><path d="M730 91.9807C730 87.5633 733.582 83.9822 738 83.9822L837 83.9822C841.418 83.9822 845 87.5633 845 91.9807L845 123.974C845 128.391 841.418 131.972 837 131.972L738 131.972C733.582 131.972 730 128.391 730 123.974Z" stroke="#000000" stroke-width="2" stroke-miterlimit="8" fill="#067F10" fill-rule="evenodd"/><text fill="#FFFFFF" font-family="Arial,Arial_MSFontService,sans-serif" font-weight="700" font-size="21" transform="matrix(1 0 0 0.999788 765.724 116)">SEC</text><path d="M455.693 204.556 364.757 124.464 368.503 120.213 459.439 200.305ZM363.138 130.588 356 112.976 374.375 117.834Z"/><path d="M455.224 203.679 361.633 66.2899 366.316 63.1008 459.908 200.49ZM358.544 71.8203 356 52.9888 372.595 62.2528Z"/><path d="M0.798349-2.71791 88.7534 23.1177 87.1567 28.5535-0.798349 2.71791ZM87.6322 16.8836 101.545 29.8274 82.8421 33.191Z" transform="matrix(-1.00021 0 0 1 457.566 202.957)"/><path d="M1.87267-2.12544 92.79 77.9795 89.0447 82.2303-1.87267 2.12544ZM94.41 71.856 101.545 89.4683 83.1739 84.6086Z" transform="matrix(-1.00021 0 0 1 457.566 202.957)"/><path d="M2.34136-1.59449 95.9135 135.808 91.2308 138.997-2.34136 1.59449ZM99.0017 130.278 101.545 149.109 84.9536 139.844Z" transform="matrix(-1.00021 0 0 1 457.566 202.957)"/><path d="M3.18254e-06-2.83273 79.2638-2.83264 79.2638 2.83282-3.18254e-06 2.83273ZM76.4311-8.49811 93.4275 0.000104965 76.431 8.49829Z" transform="matrix(-1.00021 0 0 1 666.447 202.957)"/><path d="M458 186.961C458 182.543 461.582 178.962 466 178.962L565 178.962C569.418 178.962 573 182.543 573 186.961L573 218.953C573 223.371 569.418 226.952 565 226.952L466 226.952C461.582 226.952 458 223.371 458 218.953Z" stroke="#000000" stroke-width="2" stroke-miterlimit="8" fill="#FFC000" fill-rule="evenodd"/><text fill="#FFFFFF" font-family="Arial,Arial_MSFontService,sans-serif" font-weight="700" font-size="19" transform="matrix(1 0 0 0.999788 481.16 198)">Anionic <tspan font-size="19" x="11.8333" y="23.0049">Poly.</tspan></text><path d="M721.984 181.219 669.717 142.661 673.082 138.102 725.349 176.66ZM668.633 148.902 660 131.972 678.726 135.225Z"/><path d="M1.68188-2.2794 53.9381 36.2786 50.5743 40.8373-1.68188 2.2794ZM55.0225 30.0379 63.6532 46.9674 44.9312 43.7143Z" transform="matrix(1.00021 0 0 -1 724 178.939)"/><path d="M241 394.917C241 390.499 244.582 386.918 249 386.918L348 386.918C352.418 386.918 356 390.499 356 394.917L356 426.909C356 431.327 352.418 434.908 348 434.908L249 434.908C244.582 434.908 241 431.327 241 426.909Z" stroke="#000000" stroke-width="2" stroke-miterlimit="8" fill="#0A24CC" fill-rule="evenodd"/><text fill="#FFFFFF" font-family="Arial,Arial_MSFontService,sans-serif" font-weight="700" font-size="16" transform="matrix(1 0 0 0.999788 253.144 408)">Norbornene<tspan font-size="16" x="22.6667" y="19.004">-</tspan><tspan font-size="16" x="28" y="19.004">COCl</tspan></text><path d="M2.54734-1.23913 97.8964 194.775 92.8017 197.253-2.54734 1.23913ZM101.752 189.749 101.545 208.75 86.4678 197.183Z" transform="matrix(-1.00021 0 0 1 457.566 202.957)"/><path d="M241 454.904C241 450.486 244.582 446.905 249 446.905L348 446.905C352.418 446.905 356 450.486 356 454.904L356 486.897C356 491.314 352.418 494.895 348 494.895L249 494.895C244.582 494.895 241 491.314 241 486.897Z" stroke="#000000" stroke-width="2" stroke-miterlimit="8" fill="#0A24CC" fill-rule="evenodd"/><text fill="#FFFFFF" font-family="Arial,Arial_MSFontService,sans-serif" font-weight="700" font-size="16" transform="matrix(1 0 0 0.999788 253.144 468)">Norbornene<tspan font-size="16" x="30.6667" y="19.004">-</tspan><tspan font-size="16" x="36" y="19.004">OH</tspan></text><path d="M241 514.891C241 510.474 244.582 506.893 249 506.893L348 506.893C352.418 506.893 356 510.474 356 514.891L356 546.884C356 551.301 352.418 554.882 348 554.882L249 554.882C244.582 554.882 241 551.301 241 546.884Z" stroke="#000000" stroke-width="2" stroke-miterlimit="8" fill="#0A24CC" fill-rule="evenodd"/><text fill="#FFFFFF" font-family="Arial,Arial_MSFontService,sans-serif" font-weight="700" font-size="21" transform="matrix(1 0 0 0.999788 261.144 539)">Lactide</text><path d="M241 573.879C241 569.461 244.582 565.88 249 565.88L348 565.88C352.418 565.88 356 569.461 356 573.879L356 605.872C356 610.289 352.418 613.87 348 613.87L249 613.87C244.582 613.87 241 610.289 241 605.872Z" stroke="#000000" stroke-width="2" stroke-miterlimit="8" fill="#0A24CC" fill-rule="evenodd"/><text fill="#FFFFFF" font-family="Arial,Arial_MSFontService,sans-serif" font-weight="700" font-size="21" transform="matrix(1 0 0 0.999788 275.477 598)">DBU</text><path d="M241 633.866C241 629.448 244.582 625.867 249 625.867L348 625.867C352.418 625.867 356 629.448 356 633.866L356 665.859C356 670.276 352.418 673.857 348 673.857L249 673.857C244.582 673.857 241 670.276 241 665.859Z" stroke="#000000" stroke-width="2" stroke-miterlimit="8" fill="#0A24CC" fill-rule="evenodd"/><text fill="#FFFFFF" font-family="Arial,Arial_MSFontService,sans-serif" font-weight="700" font-size="19" transform="matrix(1 0 0 0.999788 274.644 645)">Boric <tspan font-size="19" x="3.66666" y="23.0049">Acid</tspan></text><path d="M666 490.896C666 486.479 669.582 482.898 674 482.898L773 482.898C777.418 482.898 781 486.479 781 490.896L781 522.889C781 527.307 777.418 530.888 773 530.888L674 530.888C669.582 530.888 666 527.307 666 522.889Z" stroke="#000000" stroke-width="2" stroke-miterlimit="8" fill="#0A24CC" fill-rule="evenodd"/><text fill="#FFFFFF" font-family="Arial,Arial_MSFontService,sans-serif" font-weight="700" font-size="15" transform="matrix(1 0 0 0.999788 689.724 503)">Polylactic <tspan font-size="15" x="18.2533" y="18.0038">Acid</tspan></text><path d="M603 597.874C603 593.456 606.582 589.875 611 589.875L710 589.875C714.418 589.875 718 593.456 718 597.874L718 629.866C718 634.284 714.418 637.865 710 637.865L611 637.865C606.582 637.865 603 634.284 603 629.866Z" stroke="#000000" stroke-width="2" stroke-miterlimit="8" fill="#067F10" fill-rule="evenodd"/><text fill="#FFFFFF" font-family="Arial,Arial_MSFontService,sans-serif" font-weight="700" font-size="21" transform="matrix(1 0 0 0.999788 619.39 622)">1H NMR </text><path d="M730 597.874C730 593.456 733.582 589.875 738 589.875L837 589.875C841.418 589.875 845 593.456 845 597.874L845 629.866C845 634.284 841.418 637.865 837 637.865L738 637.865C733.582 637.865 730 634.284 730 629.866Z" stroke="#000000" stroke-width="2" stroke-miterlimit="8" fill="#067F10" fill-rule="evenodd"/><text fill="#FFFFFF" font-family="Arial,Arial_MSFontService,sans-serif" font-weight="700" font-size="21" transform="matrix(1 0 0 0.999788 765.724 622)">SEC</text><path d="M3.18254e-06-2.83273 79.2638-2.83264 79.2638 2.83282-3.18254e-06 2.83273ZM76.4311-8.49811 93.4275 0.000104965 76.431 8.49829Z" transform="matrix(-1.00021 0 0 1 666.447 506.893)"/><path d="M458 490.896C458 486.479 461.582 482.898 466 482.898L565 482.898C569.418 482.898 573 486.479 573 490.896L573 522.889C573 527.307 569.418 530.888 565 530.888L466 530.888C461.582 530.888 458 527.307 458 522.889Z" stroke="#000000" stroke-width="2" stroke-miterlimit="8" fill="#FFC000" fill-rule="evenodd"/><text fill="#FFFFFF" font-family="Arial,Arial_MSFontService,sans-serif" font-weight="700" font-size="19" transform="matrix(1 0 0 0.999788 494.993 513)">ROP</text><path d="M1.9265-2.07677 55.1958 47.3379 51.3428 51.4914-1.9265 2.07677ZM56.972 41.2578 63.6532 59.0471 45.413 53.7185Z" transform="matrix(-1.00021 0 0 1 723.667 530.888)"/><path d="M725.927 528.811 779.208 578.225 775.354 582.379 722.073 532.964ZM780.984 572.145 787.667 589.935 769.423 584.606Z"/><path d="M2.31115-1.63798 95.6658 130.083 91.0435 133.359-2.31115 1.63798ZM98.6501 124.496 101.545 143.276 84.7832 134.324Z" transform="matrix(-1.00021 0 0 1 457.566 506.893)"/><path d="M1.80093-2.18656 92.4128 72.4447 88.8109 76.8178-1.80093 2.18656ZM93.828 66.2706 101.545 83.6358 83.0224 79.3899Z" transform="matrix(-1.00021 0 0 1 457.566 506.893)"/><path d="M0.651433-2.75681 88.4119 17.9809 87.1091 23.4946-0.651433 2.75681ZM86.958 11.8159 101.545 23.9949 83.0494 28.3568Z" transform="matrix(-1.00021 0 0 1 457.566 506.893)"/><path d="M456.628 509.219 368.429 478.264 370.305 472.919 458.505 503.873ZM369.225 484.548 356 470.9 374.856 468.511Z"/><path d="M454.909 507.144 358.263 246.217 363.577 244.249 460.223 505.177ZM353.933 250.841 356 231.951 369.875 244.938Z"/><path d="M845 330.93C845 326.513 848.582 322.932 853 322.932L952 322.932C956.418 322.932 960 326.513 960 330.93L960 362.923C960 367.34 956.418 370.921 952 370.921L853 370.921C848.582 370.921 845 367.34 845 362.923Z" stroke="#000000" stroke-width="2" stroke-miterlimit="8" fill="#FFC000" fill-rule="evenodd"/><text fill="#FFFFFF" font-family="Arial,Arial_MSFontService,sans-serif" font-weight="700" font-size="19" transform="matrix(1 0 0 0.999788 874.757 353)">ROMP</text><path d="M843.272 349.198 732.064 238.937 736.054 234.914 847.262 345.175ZM730.086 244.954 724 226.952 742.056 232.886Z"/><path d="M2.1132-1.88647 113.922 123.36 109.696 127.133-2.1132 1.88647ZM116.262 117.474 121.241 135.812 103.583 128.793Z" transform="matrix(-1.00021 0 0 1 845.267 346.927)"/><path d="M844.435 349.111 369.147 237.935 370.438 232.419 845.725 343.595ZM370.617 244.098 356 231.951 374.489 227.548Z"/><path d="M592 334.929C592 330.512 595.582 326.931 600 326.931L699 326.931C703.418 326.931 707 330.512 707 334.929L707 366.922C707 371.34 703.418 374.921 699 374.921L600 374.921C595.582 374.921 592 371.34 592 366.922Z" stroke="#000000" stroke-width="2" stroke-miterlimit="8" fill="#0A24CC" fill-rule="evenodd"/><text fill="#FFFFFF" font-family="Arial,Arial_MSFontService,sans-serif" font-weight="700" font-size="16" transform="matrix(1 0 0 0.999788 608.391 347)">Ethyl Vinyl <tspan font-size="16" x="20.5867" y="19.004">Ether</tspan></text><path d="M592 395.916C592 391.499 595.582 387.918 600 387.918L700 387.918C704.418 387.918 708 391.499 708 395.916L708 427.909C708 432.327 704.418 435.908 700 435.908L600 435.908C595.582 435.908 592 432.327 592 427.909Z" stroke="#000000" stroke-width="2" stroke-miterlimit="8" fill="#0A24CC" fill-rule="evenodd"/><text fill="#FFFFFF" font-family="Arial,Arial_MSFontService,sans-serif" font-weight="700" font-size="16" transform="matrix(1 0 0 0.999788 621.482 409)">Grubbs <tspan font-size="16" x="6.75336" y="19.004">Cat. 3</tspan></text><path d="M0.0792361-2.83162 124.058 0.637621 123.9 6.30087-0.0792361 2.83162ZM121.385-5.10486 138.137 3.86543 120.91 11.8849Z" transform="matrix(-1.00021 0 0 1 845.166 346.927)"/><path d="M1.21625-2.55834 125.97 56.7502 123.538 61.8669-1.21625 2.55834ZM125.844 50.4172 137.546 65.3897 118.547 65.7673Z" transform="matrix(-1.00021 0 0 1 845.575 346.927)"/><path d="M3.85536e-06-2.83273 62.9592-2.83265 62.9592 2.83282-3.85536e-06 2.83273ZM60.1265-8.49812 77.1229 0.000104965 60.1265 8.49828Z" transform="matrix(-1.00021 0 0 1 1037.14 346.927)"/><path d="M1097.78 370.386 1104.83 407.019 1099.27 408.09 1092.22 371.457ZM1109.86 403.167 1104.73 421.463 1093.17 406.378Z"/><path d="M1.11866-2.60249 105.688 42.3456 103.45 47.5506-1.11866 2.60249ZM105.323 36.022 117.582 50.5414 98.6107 51.637Z" transform="matrix(-1.00021 0 0 1 1094.61 370.921)"/><path d="M1.50025-2.40284 245.438 149.903 242.437 154.709-1.50025 2.40284ZM246.035 143.597 255.952 159.807 237.034 158.014Z" fill="#566BF7" transform="matrix(-1.00021 0 0 1 1037.01 346.927)"/><path d="M1035.61 349.655 791.951 212.378 794.733 207.442 1038.4 344.719ZM791.638 218.705 781 202.957 799.983 203.897Z" fill="#566BF7"/><path d="M1.70132-2.26492 76.3896 53.8381 72.9869 58.3679-1.70132 2.26492ZM77.5273 47.6069 86.0129 64.6096 67.3194 61.1964Z" transform="matrix(-1.00021 0 0 1 1239.03 281.94)"/><path d="M0.00735623-2.83272 71.8566-2.64614 71.8419 3.01931-0.00735623 2.83272ZM69.0386-8.31894 86.0129 0.223365 68.9944 8.6774Z" transform="matrix(-1.00021 0 0 1 1239.03 346.927)"/><path d="M1238.29 348.939 369.691 236.578 370.418 230.96 1239.01 343.32ZM371.769 242.56 356 231.951 373.95 225.704Z"/><path d="M1237.37 411.725 1162.79 357.545 1166.13 352.961 1240.7 407.142ZM1161.76 363.793 1153 346.927 1171.75 350.044Z"/><path d="M1419 265.944C1419 261.526 1422.58 257.945 1427 257.945L1526 257.945C1530.42 257.945 1534 261.526 1534 265.944L1534 297.937C1534 302.354 1530.42 305.935 1526 305.935L1427 305.935C1422.58 305.935 1419 302.354 1419 297.937Z" stroke="#000000" stroke-width="2" stroke-miterlimit="8" fill="#0A24CC" fill-rule="evenodd"/><text fill="#FFFFFF" font-family="Arial,Arial_MSFontService,sans-serif" font-weight="700" font-size="16" transform="matrix(1 0 0 0.999788 1434.05 288)">Thin Film 1</text><path d="M4.57951e-06-2.83273 50.764-2.83265 50.764 2.83282-4.57951e-06 2.83273ZM47.9313-8.49812 64.9277 0.000104965 47.9313 8.49828Z" transform="matrix(-1.00021 0 0 1 1418.94 281.94)"/><path d="M1420 330.93C1420 326.513 1423.58 322.932 1428 322.932L1528 322.932C1532.42 322.932 1536 326.513 1536 330.93L1536 362.923C1536 367.34 1532.42 370.921 1528 370.921L1428 370.921C1423.58 370.921 1420 367.34 1420 362.923Z" stroke="#000000" stroke-width="2" stroke-miterlimit="8" fill="#0A24CC" fill-rule="evenodd"/><text fill="#FFFFFF" font-family="Arial,Arial_MSFontService,sans-serif" font-weight="700" font-size="16" transform="matrix(1 0 0 0.999788 1435.58 353)">Thin Film 2</text><path d="M1421.48 349.235 1367.95 345.69 1368.32 340.037 1421.86 343.582ZM1370.4 351.531 1354 341.928 1371.52 334.571Z"/><path d="M1420 392.917C1420 388.5 1423.58 384.918 1428 384.918L1528 384.918C1532.42 384.918 1536 388.5 1536 392.917L1536 424.91C1536 429.327 1532.42 432.908 1528 432.908L1428 432.908C1423.58 432.908 1420 429.327 1420 424.91Z" stroke="#000000" stroke-width="2" stroke-miterlimit="8" fill="#0A24CC" fill-rule="evenodd"/><text fill="#FFFFFF" font-family="Arial,Arial_MSFontService,sans-serif" font-weight="700" font-size="21" transform="matrix(1 0 0 0.999788 1452.58 417)">Puck</text><path d="M1419.14 411.744 1368.02 409.394 1368.28 403.735 1419.4 406.085ZM1370.59 415.184 1354 405.914 1371.37 398.205Z"/><path d="M0.668336-2.75276 253.021 58.5152 251.684 64.0207-0.668336 2.75276ZM251.605 52.3413 266.116 64.6096 247.595 68.8579Z" fill="#566BF7" transform="matrix(-1.00021 0 0 1 1419.17 281.94)"/><path d="M0.940955-2.67189 624.823 217.04 622.941 222.384-0.940955 2.67189ZM624.035 210.756 637.243 224.417 618.389 226.787Z" fill="#566BF7" transform="matrix(-1.00021 0 0 1 1418.38 281.94)"/><path d="M1418.03 285.388 794.707 207.524 795.409 201.902 1418.73 279.766ZM796.815 213.497 781 202.957 798.923 196.632Z" fill="#566BF7"/><path d="M1419.28 349.727 794.194 208.835 795.44 203.308 1420.53 344.2ZM795.714 214.985 781 202.957 799.453 198.405Z" fill="#566BF7"/><path d="M0.0023641-2.83273 253.481-2.62119 253.477 3.04428-0.0023641 2.83273ZM250.653-8.28902 267.643 0.223365 250.639 8.70738Z" fill="#566BF7" transform="matrix(-1.00021 0 0 1 1420.7 346.927)"/><path d="M0.688408-2.74781 625.72 153.841 624.343 159.337-0.688408 2.74781ZM624.348 147.657 638.77 160.031 620.218 164.144Z" fill="#566BF7" transform="matrix(-1.00021 0 0 1 1419.91 346.927)"/><path d="M0.426577-2.80043 625.194 92.3674 624.34 97.9683-0.426577 2.80043ZM623.247 86.3401 638.77 97.3009 620.688 103.143Z" fill="#566BF7" transform="matrix(-1.00021 0 0 1 1419.91 408.913)"/><path d="M1420.05 412.192 1166.15 352.906 1167.44 347.389 1421.34 406.675ZM1167.62 359.067 1153 346.927 1171.49 342.516Z" fill="#566BF7"/><path d="M1419.03 412.388 793.606 210.013 795.35 204.623 1420.78 406.998ZM794.557 216.276 781 202.957 799.791 200.105Z" fill="#566BF7"/><path d="M1239 265.944C1239 261.526 1242.58 257.945 1247 257.945L1346 257.945C1350.42 257.945 1354 261.526 1354 265.944L1354 297.937C1354 302.354 1350.42 305.935 1346 305.935L1247 305.935C1242.58 305.935 1239 302.354 1239 297.937Z" stroke="#000000" stroke-width="2" stroke-miterlimit="8" fill="#FFC000" fill-rule="evenodd"/><text fill="#FFFFFF" font-family="Arial,Arial_MSFontService,sans-serif" font-weight="700" font-size="19" transform="matrix(1 0 0 0.999788 1252.91 289)">Spin Coat</text><path d="M1239 330.93C1239 326.513 1242.58 322.932 1247 322.932L1346 322.932C1350.42 322.932 1354 326.513 1354 330.93L1354 362.923C1354 367.34 1350.42 370.921 1346 370.921L1247 370.921C1242.58 370.921 1239 367.34 1239 362.923Z" stroke="#000000" stroke-width="2" stroke-miterlimit="8" fill="#FFC000" fill-rule="evenodd"/><text fill="#FFFFFF" font-family="Arial,Arial_MSFontService,sans-serif" font-weight="700" font-size="19" transform="matrix(1 0 0 0.999788 1252.91 342)">Spin Coat <tspan font-size="19" x="4.41333" y="23.0049">+ Anneal</tspan></text><path d="M1239 392.917C1239 388.5 1242.58 384.918 1247 384.918L1346 384.918C1350.42 384.918 1354 388.5 1354 392.917L1354 424.91C1354 429.327 1350.42 432.908 1346 432.908L1247 432.908C1242.58 432.908 1239 429.327 1239 424.91Z" stroke="#000000" stroke-width="2" stroke-miterlimit="8" fill="#FFC000" fill-rule="evenodd"/><text fill="#FFFFFF" font-family="Arial,Arial_MSFontService,sans-serif" font-weight="700" font-size="19" transform="matrix(1 0 0 0.999788 1252.83 416)">Hot Press</text><path d="M920 428.909C920 424.492 923.582 420.911 928 420.911L1027 420.911C1031.42 420.911 1035 424.492 1035 428.909L1035 460.902C1035 465.32 1031.42 468.901 1027 468.901L928 468.901C923.582 468.901 920 465.32 920 460.902Z" stroke="#000000" stroke-width="2" stroke-miterlimit="8" fill="#067F10" fill-rule="evenodd"/><text fill="#FFFFFF" font-family="Arial,Arial_MSFontService,sans-serif" font-weight="700" font-size="21" transform="matrix(1 0 0 0.999788 936.656 453)">1H NMR </text><path d="M1047 428.909C1047 424.492 1050.58 420.911 1055 420.911L1154 420.911C1158.42 420.911 1162 424.492 1162 428.909L1162 460.902C1162 465.32 1158.42 468.901 1154 468.901L1055 468.901C1050.58 468.901 1047 465.32 1047 460.902Z" stroke="#000000" stroke-width="2" stroke-miterlimit="8" fill="#067F10" fill-rule="evenodd"/><text fill="#FFFFFF" font-family="Arial,Arial_MSFontService,sans-serif" font-weight="700" font-size="21" transform="matrix(1 0 0 0.999788 1082.99 453)">SEC</text><path d="M1037 330.93C1037 326.513 1040.58 322.932 1045 322.932L1145 322.932C1149.42 322.932 1153 326.513 1153 330.93L1153 362.923C1153 367.34 1149.42 370.921 1145 370.921L1045 370.921C1040.58 370.921 1037 367.34 1037 362.923Z" stroke="#000000" stroke-width="2" stroke-miterlimit="8" fill="#0A24CC" fill-rule="evenodd"/><text fill="#FFFFFF" font-family="Arial,Arial_MSFontService,sans-serif" font-weight="700" font-size="15" transform="matrix(1 0 0 0.999788 1060.93 343)">Polylactic <tspan font-size="15" x="18.2534" y="18.0038">Acid</tspan></text><path d="M1325 179.962C1325 175.545 1328.58 171.964 1333 171.964L1433 171.964C1437.42 171.964 1441 175.545 1441 179.962L1441 211.955C1441 216.372 1437.42 219.953 1433 219.953L1333 219.953C1328.58 219.953 1325 216.372 1325 211.955Z" stroke="#000000" stroke-width="2" stroke-miterlimit="8" fill="#067F10" fill-rule="evenodd"/><text fill="#FFFFFF" font-family="Arial,Arial_MSFontService,sans-serif" font-weight="700" font-size="21" transform="matrix(1 0 0 0.999788 1360.5 204)">TEM </text><path d="M1575 310.934C1575 306.517 1578.58 302.936 1583 302.936L1682 302.936C1686.42 302.936 1690 306.517 1690 310.934L1690 342.927C1690 347.345 1686.42 350.926 1682 350.926L1583 350.926C1578.58 350.926 1575 347.345 1575 342.927Z" stroke="#000000" stroke-width="2" stroke-miterlimit="8" fill="#067F10" fill-rule="evenodd"/><text fill="#FFFFFF" font-family="Arial,Arial_MSFontService,sans-serif" font-weight="700" font-size="21" transform="matrix(1 0 0 0.999788 1610.2 335)">TEM </text><path d="M1488 472.9C1488 468.483 1491.58 464.902 1496 464.902L1595 464.902C1599.42 464.902 1603 468.483 1603 472.9L1603 504.893C1603 509.31 1599.42 512.891 1595 512.891L1496 512.891C1491.58 512.891 1488 509.31 1488 504.893Z" stroke="#000000" stroke-width="2" stroke-miterlimit="8" fill="#067F10" fill-rule="evenodd"/><text fill="#FFFFFF" font-family="Arial,Arial_MSFontService,sans-serif" font-weight="700" font-size="21" transform="matrix(1 0 0 0.999788 1523.27 497)">SEC </text><path d="M1355 472.9C1355 468.483 1358.58 464.902 1363 464.902L1463 464.902C1467.42 464.902 1471 468.483 1471 472.9L1471 504.893C1471 509.31 1467.42 512.891 1463 512.891L1363 512.891C1358.58 512.891 1355 509.31 1355 504.893Z" stroke="#000000" stroke-width="2" stroke-miterlimit="8" fill="#067F10" fill-rule="evenodd"/><text fill="#FFFFFF" font-family="Arial,Arial_MSFontService,sans-serif" font-weight="400" font-size="19" transform="matrix(1 0 0 0.999788 1372.24 484)">frequency <tspan font-size="19" x="9.2533" y="23.0049">sweeps</tspan></text><path d="M1575 365.923C1575 361.505 1578.58 357.924 1583 357.924L1682 357.924C1686.42 357.924 1690 361.505 1690 365.923L1690 397.916C1690 402.333 1686.42 405.914 1682 405.914L1583 405.914C1578.58 405.914 1575 402.333 1575 397.916Z" stroke="#000000" stroke-width="2" stroke-miterlimit="8" fill="#067F10" fill-rule="evenodd"/><text fill="#FFFFFF" font-family="Arial,Arial_MSFontService,sans-serif" font-weight="700" font-size="21" transform="matrix(1 0 0 0.999788 1610.86 390)">SEC </text><path d="M1.23723-2.54826 53.4024 22.779 50.9279 27.8755-1.23723 2.54826ZM53.3286 16.4452 64.9065 31.5134 45.9052 31.7348Z" transform="matrix(-1.00021 0 0 1 1477.92 432.908)"/><path d="M1479.2 430.34 1533.46 455.592 1531.07 460.729 1476.8 435.477ZM1533.28 449.261 1545.11 464.137 1526.11 464.67Z"/><path d="M1537.9 344.823 1566.88 370.941 1563.08 375.149 1534.1 349.031ZM1568.57 364.837 1575.5 382.529 1557.18 377.461Z"/><path d="M1.27498-2.52959 28.1213 11.0017 25.5714 16.0608-1.27498 2.52959ZM28.1417 4.66751 39.4943 19.9061 20.4919 19.845Z" transform="matrix(1.00021 0 0 -1 1536 346.837)"/><path d="M1475.39 261.197 1395.01 227.982 1397.17 222.746 1477.56 255.961ZM1395.46 234.299 1383 219.953 1401.96 218.592Z"/><path d="M1513 179.962C1513 175.545 1516.58 171.964 1521 171.964L1620 171.964C1624.42 171.964 1628 175.545 1628 179.962L1628 211.955C1628 216.372 1624.42 219.953 1620 219.953L1521 219.953C1516.58 219.953 1513 216.372 1513 211.955Z" stroke="#000000" stroke-width="2" stroke-miterlimit="8" fill="#067F10" fill-rule="evenodd"/><text fill="#FFFFFF" font-family="Arial,Arial_MSFontService,sans-serif" font-weight="700" font-size="21" transform="matrix(1 0 0 0.999788 1536.06 204)">UV-<tspan font-size="21" x="36.6666" y="0">Vis </tspan></text><path d="M1.07756-2.61978 81.8856 30.6179 79.7305 35.8575-1.07756 2.61978ZM81.4209 24.3008 93.9069 38.6255 74.9556 40.0195Z" transform="matrix(1.00021 0 0 -1 1476 258.579)"/><path d="M1419 115.976C1419 111.558 1422.58 107.977 1427 107.977L1526 107.977C1530.42 107.977 1534 111.558 1534 115.976L1534 147.968C1534 152.386 1530.42 155.967 1526 155.967L1427 155.967C1422.58 155.967 1419 152.386 1419 147.968Z" stroke="#000000" stroke-width="2" stroke-miterlimit="8" fill="#067F10" fill-rule="evenodd"/><text fill="#FFFFFF" font-family="Arial,Arial_MSFontService,sans-serif" font-weight="700" font-size="21" transform="matrix(1 0 0 0.999788 1440.39 140)">Photos </text><path d="M2.83273-2.9192e-06 2.83282 87.6918-2.83264 87.6918-2.83273 2.9192e-06ZM8.49829 84.8591 0.000104965 101.855-8.49811 84.8591Z" transform="matrix(1.00021 0 0 -1 1476 257.822)"/><path d="M1092.03 323.812 1055.79 236.125 1061.03 233.961 1097.27 321.648ZM1051.64 240.907 1053 221.953 1067.35 234.415Z"/><path d="M1053.12 176.721 369.867 117.031 370.36 111.387 1053.61 171.077ZM372.195 122.922 356 112.976 373.675 105.99Z"/><path d="M2.23487-1.74062 73.3143 89.5221 68.8446 93.0033-2.23487 1.74062ZM76.0435 83.806 79.7826 102.437 62.6343 94.2497Z" transform="matrix(1.00021 0 0 -1 1095 322.391)"/><path d="M1174.61 175.064 369.922 116.824 370.331 111.173 1175.02 169.413ZM372.342 122.679 356 112.976 373.569 105.727Z"/><path d="M1206 481.898C1206 477.481 1209.58 473.9 1214 473.9L1313 473.9C1317.42 473.9 1321 477.481 1321 481.898L1321 513.891C1321 518.308 1317.42 521.889 1313 521.889L1214 521.889C1209.58 521.889 1206 518.308 1206 513.891Z" stroke="#000000" stroke-width="2" stroke-miterlimit="8" fill="#FFC000" fill-rule="evenodd"/><text fill="#FFFFFF" font-family="Arial,Arial_MSFontService,sans-serif" font-weight="700" font-size="19" transform="matrix(1 0 0 0.999788 1251.23 493)">3D <tspan font-size="19" x="-22.6666" y="23.0049">printing</tspan></text><path d="M1261.31 475.898 1160.15 359.477 1164.43 355.761 1265.59 472.182ZM1157.73 365.331 1153 346.927 1170.57 354.184Z"/><path d="M1330 565.88C1330 561.463 1333.58 557.882 1338 557.882L1437 557.882C1441.42 557.882 1445 561.463 1445 565.88L1445 597.873C1445 602.291 1441.42 605.872 1437 605.872L1338 605.872C1333.58 605.872 1330 602.291 1330 597.873Z" stroke="#000000" stroke-width="2" stroke-miterlimit="8" fill="#067F10" fill-rule="evenodd"/><text fill="#FFFFFF" font-family="Arial,Arial_MSFontService,sans-serif" font-weight="700" font-size="21" transform="matrix(1 0 0 0.999788 1351.02 590)">Photos </text><path d="M0.826663-2.70943 106.185 29.4359 104.531 34.8547-0.826663 2.70943ZM105.128 23.1904 118.905 36.2786 100.168 39.4469Z" transform="matrix(-1.00021 0 0 1 1262.93 521.889)"/><path d="M1265.83 521.693 1267.37 543.842 1261.71 544.235 1260.17 522.086ZM1272.82 540.623 1265.52 558.168 1255.86 541.802Z"/><path d="M1263.8 519.171 1374.15 551.47 1372.56 556.907 1262.2 524.608ZM1373.03 545.237 1386.95 558.168 1368.25 561.549Z"/><path d="M1208 565.88C1208 561.463 1211.58 557.882 1216 557.882L1315 557.882C1319.42 557.882 1323 561.463 1323 565.88L1323 597.873C1323 602.291 1319.42 605.872 1315 605.872L1216 605.872C1211.58 605.872 1208 602.291 1208 597.873Z" stroke="#000000" stroke-width="2" stroke-miterlimit="8" fill="#067F10" fill-rule="evenodd"/><text fill="#FFFFFF" font-family="Arial,Arial_MSFontService,sans-serif" font-weight="700" font-size="21" transform="matrix(1 0 0 0.999788 1231.34 590)">UV-<tspan font-size="21" x="36.6666" y="0">Vis </tspan></text><path d="M1087 565.88C1087 561.463 1090.58 557.882 1095 557.882L1194 557.882C1198.42 557.882 1202 561.463 1202 565.88L1202 597.873C1202 602.291 1198.42 605.872 1194 605.872L1095 605.872C1090.58 605.872 1087 602.291 1087 597.873Z" stroke="#000000" stroke-width="2" stroke-miterlimit="8" fill="#067F10" fill-rule="evenodd"/><text fill="#FFFFFF" font-family="Arial,Arial_MSFontService,sans-serif" font-weight="700" font-size="19" transform="matrix(1 0 0 0.999788 1111.13 578)">grazing<tspan font-size="19" x="7.57996" y="23.0049">SAXS </tspan></text><path d="M996 181.962C996 177.544 999.582 173.963 1004 173.963L1103 173.963C1107.42 173.963 1111 177.544 1111 181.962L1111 213.954C1111 218.372 1107.42 221.953 1103 221.953L1004 221.953C999.582 221.953 996 218.372 996 213.954Z" stroke="#000000" stroke-width="2" stroke-miterlimit="8" fill="#067F10" fill-rule="evenodd"/><text fill="#FFFFFF" font-family="Arial,Arial_MSFontService,sans-serif" font-weight="700" font-size="15" transform="matrix(1 0 0 0.999788 1009.86 194)">Sol. Neutron <tspan font-size="15" x="7.7467" y="18.0038">Scattering</tspan></text><path d="M1117 179.962C1117 175.545 1120.58 171.964 1125 171.964L1224 171.964C1228.42 171.964 1232 175.545 1232 179.962L1232 211.955C1232 216.372 1228.42 219.953 1224 219.953L1125 219.953C1120.58 219.953 1117 216.372 1117 211.955Z" stroke="#000000" stroke-width="2" stroke-miterlimit="8" fill="#067F10" fill-rule="evenodd"/><text fill="#FFFFFF" font-family="Arial,Arial_MSFontService,sans-serif" font-weight="400" font-size="19" transform="matrix(1 0 0 0.999788 1134.06 192)">frequency <tspan font-size="19" x="9.25342" y="23.0049">sweeps</tspan></text><path d="M273 728.846C273 724.428 276.582 720.847 281 720.847L380 720.847C384.418 720.847 388 724.428 388 728.846L388 760.839C388 765.256 384.418 768.837 380 768.837L281 768.837C276.582 768.837 273 765.256 273 760.839Z" stroke="#000000" stroke-width="2" stroke-miterlimit="8" fill="#0A24CC" fill-rule="evenodd"/><text fill="#FFFFFF" font-family="Arial,Arial_MSFontService,sans-serif" font-weight="700" font-size="21" transform="matrix(1 0 0 0.999788 289.711 753)">Material</text><path d="M772 728.846C772 724.428 775.582 720.847 780 720.847L879 720.847C883.418 720.847 887 724.428 887 728.846L887 760.839C887 765.256 883.418 768.837 879 768.837L780 768.837C775.582 768.837 772 765.256 772 760.839Z" stroke="#000000" stroke-width="2" stroke-miterlimit="8" fill="#FFC000" fill-rule="evenodd"/><text fill="#FFFFFF" font-family="Arial,Arial_MSFontService,sans-serif" font-weight="700" font-size="21" transform="matrix(1 0 0 0.999788 788.398 753)">Process </text><path d="M522 728.846C522 724.428 525.582 720.847 530 720.847L630 720.847C634.418 720.847 638 724.428 638 728.846L638 760.839C638 765.256 634.418 768.837 630 768.837L530 768.837C525.582 768.837 522 765.256 522 760.839Z" stroke="#000000" stroke-width="2" stroke-miterlimit="8" fill="#9A3333" fill-rule="evenodd"/><text fill="#FFFFFF" font-family="Arial,Arial_MSFontService,sans-serif" font-weight="700" font-size="21" transform="matrix(1 0 0 0.999788 542.055 753)">Sample </text><path d="M897 728.846C897 724.428 900.582 720.847 905 720.847L1004 720.847C1008.42 720.847 1012 724.428 1012 728.846L1012 760.839C1012 765.256 1008.42 768.837 1004 768.837L905 768.837C900.582 768.837 897 765.256 897 760.839Z" stroke="#000000" stroke-width="2" stroke-miterlimit="8" fill="#067F10" fill-rule="evenodd"/><text fill="#FFFFFF" font-family="Arial,Arial_MSFontService,sans-serif" font-weight="700" font-size="21" transform="matrix(1 0 0 0.999788 931.654 753)">Data </text><path d="M397 728.846C397 724.428 400.582 720.847 405 720.847L505 720.847C509.418 720.847 513 724.428 513 728.846L513 760.839C513 765.256 509.418 768.837 505 768.837L405 768.837C400.582 768.837 397 765.256 397 760.839Z" stroke="#000000" stroke-width="2" stroke-miterlimit="8" fill="#9100B8" fill-rule="evenodd"/><text fill="#FFFFFF" font-family="Arial,Arial_MSFontService,sans-serif" font-weight="700" font-size="21" transform="matrix(1 0 0 0.999788 431.383 753)">User</text><path d="M1022 728.846C1022 724.428 1025.58 720.847 1030 720.847L1129 720.847C1133.42 720.847 1137 724.428 1137 728.846L1137 760.839C1137 765.256 1133.42 768.837 1129 768.837L1030 768.837C1025.58 768.837 1022 765.256 1022 760.839Z" stroke="#000000" stroke-width="2" stroke-miterlimit="8" fill="#00B0F0" fill-rule="evenodd"/><text fill="#FFFFFF" font-family="Arial,Arial_MSFontService,sans-serif" font-weight="700" font-size="21" transform="matrix(1 0 0 0.999788 1056.49 753)">Coll.</text><path d="M647 728.846C647 724.428 650.582 720.847 655 720.847L754 720.847C758.418 720.847 762 724.428 762 728.846L762 760.839C762 765.256 758.418 768.837 754 768.837L655 768.837C650.582 768.837 647 765.256 647 760.839Z" stroke="#000000" stroke-width="2" stroke-miterlimit="8" fill="#FB7623" fill-rule="evenodd"/><text fill="#FFFFFF" font-family="Arial,Arial_MSFontService,sans-serif" font-weight="700" font-size="21" transform="matrix(1 0 0 0.999788 672.893 753)">Group </text><path d="M1147 728.846C1147 724.428 1150.58 720.847 1155 720.847L1254 720.847C1258.42 720.847 1262 724.428 1262 728.846L1262 760.839C1262 765.256 1258.42 768.837 1254 768.837L1155 768.837C1150.58 768.837 1147 765.256 1147 760.839Z" stroke="#000000" stroke-width="2" stroke-miterlimit="8" fill="#595959" fill-rule="evenodd"/><text fill="#FFFFFF" font-family="Arial,Arial_MSFontService,sans-serif" font-weight="700" font-size="21" transform="matrix(1 0 0 0.999788 1181.5 753)">Pub. </text><path d="M1272 728.846C1272 724.428 1275.58 720.847 1280 720.847L1379 720.847C1383.42 720.847 1387 724.428 1387 728.846L1387 760.839C1387 765.256 1383.42 768.837 1379 768.837L1280 768.837C1275.58 768.837 1272 765.256 1272 760.839Z" stroke="#000000" stroke-width="2" stroke-miterlimit="8" fill="#D9D9D9" fill-rule="evenodd"/><text font-family="Arial,Arial_MSFontService,sans-serif" font-weight="700" font-size="21" transform="matrix(1 0 0 0.999788 1303.42 753)">Expt. </text><path d="M1397 728.846C1397 724.428 1400.58 720.847 1405 720.847L1504 720.847C1508.42 720.847 1512 724.428 1512 728.846L1512 760.839C1512 765.256 1508.42 768.837 1504 768.837L1405 768.837C1400.58 768.837 1397 765.256 1397 760.839Z" stroke="#7F7F7F" stroke-width="2" stroke-miterlimit="8" fill-rule="evenodd"/><text fill="#FFFFFF" font-family="Arial,Arial_MSFontService,sans-serif" font-weight="700" font-size="21" transform="matrix(1 0 0 0.999788 1431.84 753)">Sim. </text></g></svg>