<svg width="1280" height="576" xmlns="http://www.w3.org/2000/svg" xmlns:xlink="http://www.w3.org/1999/xlink" overflow="hidden"><defs><clipPath id="clip0"><rect x="0" y="0" width="1280" height="576"/></clipPath></defs><g clip-path="url(#clip0)"><rect x="0" y="0" width="1280" height="576" fill="#FFFFFF"/><path d="M620.666 257.131 533.738 230.816 535.38 225.393 622.308 251.708ZM534.808 237.061 521 224 539.734 220.79Z"/><path d="M399 452C380.498 452 365.5 449.5 365.5 446.417L365.5 259.583C365.5 256.5 350.502 254 332 254 350.502 254 365.5 251.5 365.5 248.417L365.5 61.5831C365.5 58.4997 380.499 56 399 56" stroke="#000000" stroke-width="4" stroke-miterlimit="8" fill="none" fill-rule="evenodd"/><path d="M223 238C223 233.582 226.582 230 231 230L330 230C334.418 230 338 233.582 338 238L338 270C338 274.418 334.418 278 330 278L231 278C226.582 278 223 274.418 223 270Z" stroke="#000000" stroke-width="2" stroke-miterlimit="8" fill="#D9D9D9" fill-rule="evenodd"/><text font-family="Arial,Arial_MSFontService,sans-serif" font-weight="700" font-size="21" transform="translate(241.536 263)">Anionic </text><path d="M406 89.0002C406 84.5818 409.582 81 414 81L513 81C517.418 81 521 84.5818 521 89.0002L521 121C521 125.418 517.418 129 513 129L414 129C409.582 129 406 125.418 406 121Z" stroke="#000000" stroke-width="2" stroke-miterlimit="8" fill="#0A24CC" fill-rule="evenodd"/><text fill="#FFFFFF" font-family="Arial,Arial_MSFontService,sans-serif" font-weight="700" font-size="21" transform="translate(420.703 114)">SecBuLi</text><path d="M406 149C406 144.582 409.582 141 414 141L513 141C517.418 141 521 144.582 521 149L521 181C521 185.418 517.418 189 513 189L414 189C409.582 189 406 185.418 406 181Z" stroke="#000000" stroke-width="2" stroke-miterlimit="8" fill="#0A24CC" fill-rule="evenodd"/><text fill="#FFFFFF" font-family="Arial,Arial_MSFontService,sans-serif" font-weight="700" font-size="21" transform="translate(422.453 173)">Toluene</text><path d="M406 208C406 203.582 409.582 200 414 200L513 200C517.418 200 521 203.582 521 208L521 240C521 244.418 517.418 248 513 248L414 248C409.582 248 406 244.418 406 240Z" stroke="#000000" stroke-width="2" stroke-miterlimit="8" fill="#0A24CC" fill-rule="evenodd"/><text fill="#FFFFFF" font-family="Arial,Arial_MSFontService,sans-serif" font-weight="700" font-size="21" transform="translate(424.203 232)">Styrene</text><path d="M406 267C406 262.582 409.582 259 414 259L513 259C517.418 259 521 262.582 521 267L521 299C521 303.418 517.418 307 513 307L414 307C409.582 307 406 303.418 406 299Z" stroke="#000000" stroke-width="2" stroke-miterlimit="8" fill="#0A24CC" fill-rule="evenodd"/><text fill="#FFFFFF" font-family="Arial,Arial_MSFontService,sans-serif" font-weight="700" font-size="21" transform="translate(442.619 292)">THF</text><path d="M406 327C406 322.582 409.582 319 414 319L513 319C517.418 319 521 322.582 521 327L521 359C521 363.418 517.418 367 513 367L414 367C409.582 367 406 363.418 406 359Z" stroke="#000000" stroke-width="2" stroke-miterlimit="8" fill="#0A24CC" fill-rule="evenodd"/><text fill="#FFFFFF" font-family="Arial,Arial_MSFontService,sans-serif" font-weight="700" font-size="21" transform="translate(423.619 351)">Butanol</text><path d="M406 386C406 381.582 409.582 378 414 378L513 378C517.418 378 521 381.582 521 386L521 418C521 422.418 517.418 426 513 426L414 426C409.582 426 406 422.418 406 418Z" stroke="#000000" stroke-width="2" stroke-miterlimit="8" fill="#0A24CC" fill-rule="evenodd"/><text fill="#FFFFFF" font-family="Arial,Arial_MSFontService,sans-serif" font-weight="700" font-size="21" transform="translate(432.453 410)">MeOH</text><path d="M830 238C830 233.582 833.582 230 838 230L937 230C941.418 230 945 233.582 945 238L945 270C945 274.418 941.418 278 937 278L838 278C833.582 278 830 274.418 830 270Z" stroke="#000000" stroke-width="2" stroke-miterlimit="8" fill="#0A24CC" fill-rule="evenodd"/><text fill="#FFFFFF" font-family="Arial,Arial_MSFontService,sans-serif" font-weight="700" font-size="15" transform="translate(846.037 260)">Polystyrene</text><path d="M766 346C766 341.582 769.582 338 774 338L874 338C878.418 338 882 341.582 882 346L882 378C882 382.418 878.418 386 874 386L774 386C769.582 386 766 382.418 766 378Z" stroke="#000000" stroke-width="2" stroke-miterlimit="8" fill="#067F10" fill-rule="evenodd"/><text fill="#FFFFFF" font-family="Arial,Arial_MSFontService,sans-serif" font-weight="700" font-size="21" transform="translate(783.12 370)">1H NMR </text><path d="M894 346C894 341.582 897.582 338 902 338L1001 338C1005.42 338 1009 341.582 1009 346L1009 378C1009 382.418 1005.42 386 1001 386L902 386C897.582 386 894 382.418 894 378Z" stroke="#000000" stroke-width="2" stroke-miterlimit="8" fill="#067F10" fill-rule="evenodd"/><text fill="#FFFFFF" font-family="Arial,Arial_MSFontService,sans-serif" font-weight="700" font-size="21" transform="translate(929.454 370)">SEC</text><path d="M619.599 256.886 529.677 176.551 533.452 172.325 623.375 252.66ZM528.015 182.665 521 165 539.341 169.987Z"/><path d="M619.137 255.71 526.567 118.332 531.266 115.165 623.837 252.544ZM523.451 123.848 521 105 537.549 114.348Z"/><path d="M0.783975-2.72271 87.6575 22.2916 86.0896 27.737-0.783975 2.72271ZM86.5028 16.0622 100.487 28.9342 81.7989 32.3985Z" transform="matrix(-1 0 0 1 621.487 254)"/><path d="M1.8701-2.1285 91.7148 76.8089 87.9746 81.0659-1.8701 2.1285ZM93.3264 70.6818 100.487 88.2879 82.1058 83.4528Z" transform="matrix(-1 0 0 1 621.487 254)"/><path d="M2.34229-1.5942 94.8585 134.336 90.1739 137.524-2.34229 1.5942ZM97.9488 128.805 100.487 147.642 83.8951 138.37Z" transform="matrix(-1 0 0 1 621.487 254)"/><path d="M3.18322e-06-2.83333 79.2806-2.83324 79.2806 2.83342-3.18322e-06 2.83333ZM76.4473-8.49991 93.4472 0.000104987 76.4472 8.50009Z" transform="matrix(-1 0 0 1 830.447 254)"/><path d="M621 238C621 233.582 624.582 230 629 230L729 230C733.418 230 737 233.582 737 238L737 270C737 274.418 733.418 278 729 278L629 278C624.582 278 621 274.418 621 270Z" stroke="#000000" stroke-width="2" stroke-miterlimit="8" fill="#FFC000" fill-rule="evenodd"/><text fill="#FFFFFF" font-family="Arial,Arial_MSFontService,sans-serif" font-weight="700" font-size="19" transform="translate(644.89 250)">Anionic <tspan font-size="19" x="11.8334" y="23">Poly.</tspan></text><path d="M1.9269-2.07721 55.2075 47.3479 51.3537 51.5023-1.9269 2.07721ZM56.9841 41.2666 63.6667 59.0596 45.4227 53.7299Z" transform="matrix(-1 0 0 1 887.667 278)"/><path d="M889.927 275.923 943.208 325.348 939.354 329.502 886.073 280.077ZM944.984 319.267 951.667 337.06 933.423 331.73Z"/><path d="M18 503C18 498.582 21.5818 495 26.0002 495L125 495C129.418 495 133 498.582 133 503L133 535C133 539.418 129.418 543 125 543L26.0002 543C21.5818 543 18 539.418 18 535Z" stroke="#000000" stroke-width="2" stroke-miterlimit="8" fill="#0A24CC" fill-rule="evenodd"/><text fill="#FFFFFF" font-family="Arial,Arial_MSFontService,sans-serif" font-weight="700" font-size="21" transform="translate(35.2966 527)">Material</text><path d="M518 503C518 498.582 521.582 495 526 495L625 495C629.418 495 633 498.582 633 503L633 535C633 539.418 629.418 543 625 543L526 543C521.582 543 518 539.418 518 535Z" stroke="#000000" stroke-width="2" stroke-miterlimit="8" fill="#FFC000" fill-rule="evenodd"/><text fill="#FFFFFF" font-family="Arial,Arial_MSFontService,sans-serif" font-weight="700" font-size="21" transform="translate(533.984 527)">Process </text><path d="M268 503C268 498.582 271.582 495 276 495L375 495C379.418 495 383 498.582 383 503L383 535C383 539.418 379.418 543 375 543L276 543C271.582 543 268 539.418 268 535Z" stroke="#000000" stroke-width="2" stroke-miterlimit="8" fill="#9A3333" fill-rule="evenodd"/><text fill="#FFFFFF" font-family="Arial,Arial_MSFontService,sans-serif" font-weight="700" font-size="21" transform="translate(287.64 527)">Sample </text><path d="M643 503C643 498.582 646.582 495 651 495L750 495C754.418 495 758 498.582 758 503L758 535C758 539.418 754.418 543 750 543L651 543C646.582 543 643 539.418 643 535Z" stroke="#000000" stroke-width="2" stroke-miterlimit="8" fill="#067F10" fill-rule="evenodd"/><text fill="#FFFFFF" font-family="Arial,Arial_MSFontService,sans-serif" font-weight="700" font-size="21" transform="translate(677.239 527)">Data </text><path d="M143 503C143 498.582 146.582 495 151 495L250 495C254.418 495 258 498.582 258 503L258 535C258 539.418 254.418 543 250 543L151 543C146.582 543 143 539.418 143 535Z" stroke="#000000" stroke-width="2" stroke-miterlimit="8" fill="#9100B8" fill-rule="evenodd"/><text fill="#FFFFFF" font-family="Arial,Arial_MSFontService,sans-serif" font-weight="700" font-size="21" transform="translate(176.968 527)">User</text><path d="M768 503C768 498.582 771.582 495 776 495L875 495C879.418 495 883 498.582 883 503L883 535C883 539.418 879.418 543 875 543L776 543C771.582 543 768 539.418 768 535Z" stroke="#000000" stroke-width="2" stroke-miterlimit="8" fill="#00B0F0" fill-rule="evenodd"/><text fill="#FFFFFF" font-family="Arial,Arial_MSFontService,sans-serif" font-weight="700" font-size="21" transform="translate(802.077 527)">Coll.</text><path d="M393 503C393 498.582 396.582 495 401 495L500 495C504.418 495 508 498.582 508 503L508 535C508 539.418 504.418 543 500 543L401 543C396.582 543 393 539.418 393 535Z" stroke="#000000" stroke-width="2" stroke-miterlimit="8" fill="#FB7623" fill-rule="evenodd"/><text fill="#FFFFFF" font-family="Arial,Arial_MSFontService,sans-serif" font-weight="700" font-size="21" transform="translate(418.479 527)">Group </text><path d="M893 503C893 498.582 896.582 495 901 495L1000 495C1004.42 495 1008 498.582 1008 503L1008 535C1008 539.418 1004.42 543 1000 543L901 543C896.582 543 893 539.418 893 535Z" stroke="#000000" stroke-width="2" stroke-miterlimit="8" fill="#595959" fill-rule="evenodd"/><text fill="#FFFFFF" font-family="Arial,Arial_MSFontService,sans-serif" font-weight="700" font-size="21" transform="translate(927.082 527)">Pub. </text><path d="M1017 503C1017 498.582 1020.58 495 1025 495L1125 495C1129.42 495 1133 498.582 1133 503L1133 535C1133 539.418 1129.42 543 1125 543L1025 543C1020.58 543 1017 539.418 1017 535Z" stroke="#000000" stroke-width="2" stroke-miterlimit="8" fill="#D9D9D9" fill-rule="evenodd"/><text font-family="Arial,Arial_MSFontService,sans-serif" font-weight="700" font-size="21" transform="translate(1049 527)">Expt. </text><path d="M1142 503C1142 498.582 1145.58 495 1150 495L1250 495C1254.42 495 1258 498.582 1258 503L1258 535C1258 539.418 1254.42 543 1250 543L1150 543C1145.58 543 1142 539.418 1142 535Z" stroke="#7F7F7F" stroke-width="2" stroke-miterlimit="8" fill-rule="evenodd"/><text fill="#FFFFFF" font-family="Arial,Arial_MSFontService,sans-serif" font-weight="700" font-size="21" transform="translate(1177.43 527)">Sim. </text></g></svg>