<svg width="1152" height="480" xmlns="http://www.w3.org/2000/svg" xmlns:xlink="http://www.w3.org/1999/xlink" overflow="hidden"><defs><clipPath id="clip0"><rect x="0" y="0" width="1152" height="480"/></clipPath><clipPath id="clip1"><rect x="1011" y="152" width="101" height="93"/></clipPath><clipPath id="clip2"><rect x="1011" y="152" width="101" height="93"/></clipPath><clipPath id="clip3"><rect x="1011" y="152" width="101" height="93"/></clipPath><clipPath id="clip4"><rect x="1020" y="248" width="96" height="96"/></clipPath><clipPath id="clip5"><rect x="1020" y="248" width="96" height="96"/></clipPath><clipPath id="clip6"><rect x="1020" y="248" width="96" height="96"/></clipPath><clipPath id="clip7"><rect x="143" y="364" width="96" height="96"/></clipPath><clipPath id="clip8"><rect x="143" y="364" width="96" height="96"/></clipPath><clipPath id="clip9"><rect x="143" y="364" width="96" height="96"/></clipPath><clipPath id="clip10"><rect x="73" y="102" width="96" height="96"/></clipPath><clipPath id="clip11"><rect x="73" y="102" width="96" height="96"/></clipPath><clipPath id="clip12"><rect x="73" y="102" width="96" height="96"/></clipPath><clipPath id="clip13"><rect x="317" y="12" width="96" height="96"/></clipPath><clipPath id="clip14"><rect x="317" y="12" width="96" height="96"/></clipPath><clipPath id="clip15"><rect x="317" y="12" width="96" height="96"/></clipPath><clipPath id="clip16"><rect x="200" y="37" width="96" height="96"/></clipPath><clipPath id="clip17"><rect x="200" y="37" width="96" height="96"/></clipPath><clipPath id="clip18"><rect x="200" y="37" width="96" height="96"/></clipPath><clipPath id="clip19"><rect x="16" y="186" width="96" height="96"/></clipPath><clipPath id="clip20"><rect x="16" y="186" width="96" height="96"/></clipPath><clipPath id="clip21"><rect x="16" y="186" width="96" height="96"/></clipPath><clipPath id="clip22"><rect x="820" y="377" width="96" height="96"/></clipPath><clipPath id="clip23"><rect x="820" y="377" width="96" height="96"/></clipPath><clipPath id="clip24"><rect x="820" y="377" width="96" height="96"/></clipPath><clipPath id="clip25"><rect x="455" y="195" width="96" height="96"/></clipPath><clipPath id="clip26"><rect x="455" y="195" width="96" height="96"/></clipPath><clipPath id="clip27"><rect x="455" y="195" width="96" height="96"/></clipPath><clipPath id="clip28"><rect x="819" y="25" width="96" height="96"/></clipPath><clipPath id="clip29"><rect x="819" y="25" width="96" height="96"/></clipPath><clipPath id="clip30"><rect x="819" y="25" width="96" height="96"/></clipPath><clipPath id="clip31"><rect x="954" y="56" width="114" height="86"/></clipPath><clipPath id="clip32"><rect x="954" y="56" width="114" height="86"/></clipPath><clipPath id="clip33"><rect x="954" y="56" width="114" height="86"/></clipPath><clipPath id="clip34"><rect x="285" y="376" width="96" height="96"/></clipPath><clipPath id="clip35"><rect x="285" y="376" width="96" height="96"/></clipPath><clipPath id="clip36"><rect x="285" y="376" width="96" height="96"/></clipPath><clipPath id="clip37"><rect x="962" y="329" width="100" height="100"/></clipPath><clipPath id="clip38"><rect x="962" y="329" width="100" height="100"/></clipPath><clipPath id="clip39"><rect x="962" y="329" width="100" height="100"/></clipPath><clipPath id="clip40"><rect x="61" y="284" width="84" height="84"/></clipPath><clipPath id="clip41"><rect x="61" y="284" width="84" height="84"/></clipPath><clipPath id="clip42"><rect x="61" y="284" width="84" height="84"/></clipPath></defs><g clip-path="url(#clip0)"><rect x="0" y="0" width="1152" height="480" fill="#FFFFFF"/><path d="M386 244C386 153.978 461.216 81 554 81 646.784 81 722 153.978 722 244 722 334.022 646.784 407 554 407 461.216 407 386 334.022 386 244Z" fill="#6D212C" fill-rule="evenodd"/><path d="M407 243.5C407 162.038 473.038 96 554.5 96 635.962 96 702 162.038 702 243.5 702 324.962 635.962 391 554.5 391 473.038 391 407 324.962 407 243.5Z" fill="#A31F34" fill-rule="evenodd"/><path d="M429 243.5C429 174.188 484.964 118 554 118 623.036 118 679 174.188 679 243.5 679 312.812 623.036 369 554 369 484.964 369 429 312.812 429 243.5Z" fill="#D97D7D" fill-rule="evenodd"/><path d="M444 243.5C444 183.025 493.249 134 554 134 614.751 134 664 183.025 664 243.5 664 303.975 614.751 353 554 353 493.249 353 444 303.975 444 243.5Z" fill="#FCEEF0" fill-rule="evenodd"/><g clip-path="url(#clip1)"><g clip-path="url(#clip2)"><g clip-path="url(#clip3)"><path d="M15.5281 14.5312 13.5906 14.5312 13.5906 80.4062 79.4375 80.4062 79.4375 78.4688 15.5281 78.4688 15.5281 14.5312Z" stroke="#6D212C" stroke-width="3.1" fill="#6D212C" transform="matrix(1.08602 0 0 1 1011 152)"/><path d="M28.1228 69.75C30.2565 69.7543 31.9897 68.0281 31.9939 65.8944 31.9964 64.6753 31.4232 63.5266 30.4478 62.7953L38.8566 36.8048C39.4149 36.7916 39.9636 36.657 40.4647 36.4105L55.3156 47.7264C54.9171 49.8291 56.2985 51.8567 58.4011 52.2553 60.5038 52.6539 62.5315 51.2724 62.93 49.1698 62.9758 48.9285 62.9985 48.6832 62.9978 48.4375 62.9949 47.2602 62.4535 46.1488 61.5282 45.4208L68.541 25.1604C68.6321 25.1672 68.7183 25.1875 68.8103 25.1875 70.9579 25.195 72.7049 23.4601 72.7124 21.3125 72.7199 19.165 70.9851 17.4179 68.8374 17.4104 66.6899 17.4029 64.9429 19.1378 64.9353 21.2854 64.9308 22.6041 65.5948 23.8354 66.6994 24.5559L59.7525 44.6255C59.5446 44.5877 59.3341 44.5667 59.1228 44.5625 57.9854 44.5655 56.9076 45.0716 56.1788 45.9449L41.9759 35.124C43.1969 33.3618 42.7583 30.9434 40.9961 29.7224 39.2339 28.5014 36.8156 28.9401 35.5946 30.7023 34.3736 32.4645 34.8122 34.8828 36.5744 36.1039 36.7021 36.1923 36.835 36.273 36.9723 36.3456L28.6547 62.0533C26.5397 61.7555 24.5838 63.2286 24.286 65.3435 23.9882 67.4585 25.4613 69.4144 27.5762 69.7122 27.7573 69.7377 27.94 69.7504 28.1228 69.75Z" stroke="#6D212C" stroke-width="3.1" fill="#6D212C" transform="matrix(1.08602 0 0 1 1011 152)"/></g></g></g><path d="M-4.66666-4.66667 182.017-4.66657 182.017 4.66677-4.66667 4.66666ZM166.424-19.8453 189.104 0.0001061 166.424 19.8454C164.484 21.5426 161.536 21.3461 159.839 19.4064 158.142 17.4668 158.338 14.5186 160.278 12.8214L178.945-3.51193 178.945 3.51212 160.278-12.8212C158.338-14.5184 158.142-17.4666 159.839-19.4063 161.536-21.3459 164.484-21.5424 166.424-19.8453Z" fill="#D97D7D" transform="matrix(-1 0 0 1 432.611 244.5)"/><g clip-path="url(#clip4)"><g clip-path="url(#clip5)"><g clip-path="url(#clip6)"><path d="M1040 262 1034 262 1034 330 1102 330 1102 324 1040 324Z" fill="#A31F34"/><path d="M1046 283 1057 283 1057 318 1046 318Z" fill="#A31F34"/><path d="M1061 262 1072 262 1072 318 1061 318Z" fill="#A31F34"/><path d="M1076 283 1087 283 1087 318 1076 318Z" fill="#A31F34"/><path d="M1091 300 1102 300 1102 318 1091 318Z" fill="#A31F34"/></g></g></g><g clip-path="url(#clip7)"><g clip-path="url(#clip8)"><g clip-path="url(#clip9)"><path d="M166 446 166 378 191 378 191 399 216 399 216 446 166 446ZM197 380.5 209.5 393 197 393 197 380.5ZM197 372 160 372 160 452 222 452 222 394 197 372Z" fill="#6D212C"/><path d="M172 409 210 409 210 413 172 413Z" fill="#6D212C"/><path d="M172 401 185 401 185 405 172 405Z" fill="#6D212C"/><path d="M172 417 210 417 210 421 172 421Z" fill="#6D212C"/><path d="M172 425 210 425 210 429 172 429Z" fill="#6D212C"/><path d="M172 433 210 433 210 437 172 437Z" fill="#6D212C"/></g></g></g><path d="M673.833 239.833 860.828 239.833 860.828 249.167 673.833 249.167ZM845.235 224.655 867.915 244.5 845.235 264.345C843.295 266.043 840.347 265.846 838.65 263.906 836.952 261.967 837.149 259.019 839.089 257.321L857.755 240.988 857.755 248.012 839.089 231.679C837.149 229.982 836.952 227.033 838.65 225.094 840.347 223.154 843.295 222.958 845.235 224.655Z" fill="#D97D7D"/><path d="M-4.64758-4.68568 117.079-4.18871 117.041 5.14455-4.68568 4.64758ZM101.547-19.4309 124.146 0.50685 101.385 20.2594C99.4385 21.9487 96.4911 21.7401 94.8018 19.7936 93.1126 17.847 93.3212 14.8996 95.2677 13.2104L114.001-3.04662 113.972 3.97737 95.3724-12.432C93.4397-14.1371 93.2552-17.0861 94.9603-19.0188 96.6654-20.9515 99.6144-21.136 101.547-19.4309Z" fill="#6D212C" transform="matrix(-1 0 0 1 426.653 152.5)"/><path d="M663.833 148.833 797.655 148.833 797.655 158.167 663.833 158.167ZM782.061 133.655 804.742 153.5 782.061 173.345C780.122 175.043 777.174 174.846 775.476 172.906 773.779 170.967 773.976 168.019 775.915 166.321L794.582 149.988 794.582 157.012 775.915 140.679C773.976 138.982 773.779 136.033 775.476 134.094 777.174 132.154 780.122 131.958 782.061 133.655Z" fill="#A31F34"/><path d="M667.833 336.833 797.091 336.833 797.091 346.167 667.833 346.167ZM781.498 321.655 804.178 341.5 781.498 361.346C779.558 363.043 776.61 362.846 774.913 360.906 773.216 358.967 773.412 356.019 775.352 354.321L794.018 337.988 794.018 345.012 775.352 328.679C773.412 326.982 773.216 324.033 774.913 322.094 776.61 320.154 779.558 319.958 781.498 321.655Z" fill="#6D212C"/><path d="M-4.66666-4.66667 135.255-4.66657 135.255 4.66677-4.66667 4.66666ZM119.661-19.8453 142.342 0.000105368 119.661 19.8454C117.722 21.5426 114.773 21.3461 113.076 19.4064 111.379 17.4668 111.576 14.5186 113.515 12.8214L132.182-3.51193 132.182 3.51212 113.515-12.8212C111.576-14.5184 111.379-17.4666 113.076-19.4063 114.773-21.3459 117.722-21.5425 119.661-19.8453Z" fill="#A31F34" transform="matrix(-1 0 0 1 444.848 341.5)"/><text font-family="Calibri,Calibri_MSFontService,sans-serif" font-weight="700" font-size="32" transform="translate(175.565 160)">Archive<tspan font-size="32" x="644.997" y="0">Analyze </tspan><tspan font-size="32" x="4.45093" y="191">Publish </tspan><tspan font-size="32" x="-43.1237" y="93">Search </tspan><tspan font-size="32" x="706.697" y="97">Visualize </tspan><tspan font-size="32" x="634.764" y="199">Validate </tspan></text><g clip-path="url(#clip10)"><g clip-path="url(#clip11)"><g clip-path="url(#clip12)"><path d="M107 126 113 126 113 141 107 141Z" fill="#6D212C"/><path d="M139 145 103 145 103 122 139 122 139 145ZM121 171C115.5 171 111 166.5 111 161 111 155.5 115.5 151 121 151 126.5 151 131 155.5 131 161 131 166.5 126.5 171 121 171ZM151 116 139 116 103 116 97 116 87 126 87 180C87 182.2 88.8 184 91 184L151 184C153.2 184 155 182.2 155 180L155 120C155 117.8 153.2 116 151 116Z" fill="#6D212C"/><path d="M118 158 124 158 124 164 118 164Z" fill="#6D212C"/></g></g></g><g clip-path="url(#clip13)"><g clip-path="url(#clip14)"><g clip-path="url(#clip15)"><path d="M393 30C393 34.4183 380.464 38 365 38 349.536 38 337 34.4183 337 30 337 25.5817 349.536 22 365 22 380.464 22 393 25.5817 393 30Z" fill="#6D212C"/><path d="M385 50C383.8 50 383 49.2 383 48 383 46.8 383.8 46 385 46 386.2 46 387 46.8 387 48 387 49.2 386.2 50 385 50ZM365 42C349.6 42 337 38.4 337 34L337 50C337 54.4 349.6 58 365 58 380.4 58 393 54.4 393 50L393 34C393 38.4 380.4 42 365 42Z" fill="#6D212C"/><path d="M385 70C383.8 70 383 69.2 383 68 383 66.8 383.8 66 385 66 386.2 66 387 66.8 387 68 387 69.2 386.2 70 385 70ZM365 62C349.6 62 337 58.4 337 54L337 70C337 74.4 349.6 78 365 78 380.4 78 393 74.4 393 70L393 54C393 58.4 380.4 62 365 62Z" fill="#6D212C"/><path d="M385 90C383.8 90 383 89.2 383 88 383 86.8 383.8 86 385 86 386.2 86 387 86.8 387 88 387 89.2 386.2 90 385 90ZM365 82C349.6 82 337 78.4 337 74L337 90C337 94.4 349.6 98 365 98 380.4 98 393 94.4 393 90L393 74C393 78.4 380.4 82 365 82Z" fill="#6D212C"/></g></g></g><g clip-path="url(#clip16)"><g clip-path="url(#clip17)"><g clip-path="url(#clip18)"><path d="M278.2 84.9C277.9 84.9 277.5 84.9 277.2 84.9 277.2 84.9 277.2 84.9 277.2 84.9 277.2 80 274.8 75.5 270.9 72.7 266.9 69.9 261.8 69.2 257.2 70.8 253.4 63.4 245 59.6 237 61.5 229 63.4 223.2 70.6 223.2 78.9 223.2 78.9 223.2 79 223.2 79.1 217.7 78.2 212.2 80.5 208.8 84.9 205.5 89.4 204.9 95.3 207.2 100.3 209.6 105.3 214.6 108.6 220.1 108.9L220.1 109 278.1 109C284.7 109 290.1 103.6 290.1 97 290.1 90.4 284.8 84.9 278.2 84.9Z" fill="#D97D7D"/></g></g></g><g clip-path="url(#clip19)"><g clip-path="url(#clip20)"><g clip-path="url(#clip21)"><path d="M47.885 218.811 90.455 218.811 90.455 214.167C90.455 212.289 88.9328 210.767 87.055 210.767L61.577 210.767 52.234 204.567C51.6753 204.205 51.03 204 50.365 203.972L34.4 203.972C32.5222 203.972 31 205.494 31 207.372L31 249.766 31.034 249.766 42.284 222.435C43.2891 220.242 45.4728 218.829 47.885 218.811Z" fill="#D97D7D"/><path d="M72.959 236.947C78.3832 231.525 86.7671 230.41 93.42 234.225L96.91 226.725C97.1382 226.251 97.2546 225.73 97.25 225.204 97.2598 223.458 95.9453 221.988 94.209 221.804L47.9 221.804C46.6561 221.812 45.5298 222.541 45.012 223.672L33.548 251.538 68.19 251.538C67.367 246.193 69.1378 240.775 72.959 236.947Z" fill="#D97D7D"/><path d="M79.323 243.311C77.171 245.465 76.4301 248.656 77.412 251.538L85.359 251.538 89.595 242.438C86.4156 240.189 82.0789 240.557 79.323 243.308Z" fill="#D97D7D"/><path d="M94.879 239.068C89.418 233.599 80.5574 233.593 75.0885 239.054 70.0827 244.052 69.5945 252 73.951 257.574L71.758 259.767C70.5559 259.441 69.2715 259.782 68.389 260.661L62.025 267.025C60.6581 268.392 60.6581 270.608 62.025 271.975 63.3919 273.342 65.6081 273.342 66.975 271.975L73.339 265.611C74.2177 264.729 74.5586 263.444 74.233 262.242L76.433 260.042C82.5434 264.773 91.3325 263.656 96.0639 257.545 100.383 251.968 99.8747 244.048 94.879 239.068ZM92.758 256.746C88.4623 261.042 81.4975 261.042 77.2017 256.746 72.9058 252.451 72.9056 245.486 77.2013 241.19 81.497 236.894 88.4618 236.894 92.7577 241.19 92.7578 241.19 92.7579 241.19 92.758 241.19 97.0469 245.488 97.0469 252.448 92.758 256.746Z" fill="#D97D7D"/></g></g></g><g clip-path="url(#clip22)"><g clip-path="url(#clip23)"><g clip-path="url(#clip24)"><path d="M843 391 893 391 893 459 843 459 843 391ZM837 465 899 465 899 385 837 385 837 465Z" fill="#A31F34"/><path d="M870 400 887 400 887 404 870 404Z" fill="#A31F34"/><path d="M870 416 887 416 887 420 870 420Z" fill="#A31F34"/><path d="M870 448 887 448 887 452 870 452Z" fill="#A31F34"/><path d="M870 432 887 432 887 436 870 436Z" fill="#A31F34"/><path d="M863.8 397.8 861 395 854.4 401.6 851.8 399 849 401.8 854.4 407.2Z" fill="#A31F34"/><path d="M863.8 413.8 861 411 854.4 417.6 851.8 415 849 417.8 854.4 423.2Z" fill="#A31F34"/><path d="M863.8 429.8 861 427 854.4 433.6 851.8 431 849 433.8 854.4 439.2Z" fill="#A31F34"/><path d="M863.8 445.6 861 442.8 854.4 449.4 851.8 446.8 849 449.6 854.4 455Z" fill="#A31F34"/></g></g></g><g clip-path="url(#clip25)"><g clip-path="url(#clip26)"><g clip-path="url(#clip27)"><path d="M76 76 14 76 14 82 82 82 82 14 76 14Z" fill="#6D212C" transform="matrix(-1 0 0 1 551 195)"/><path d="M70 67C70 69.2091 68.2091 71 66 71 63.7909 71 62 69.2091 62 67 62 64.7909 63.7909 63 66 63 68.2091 63 70 64.7909 70 67Z" fill="#6D212C" transform="matrix(-1 0 0 1 551 195)"/><path d="M66 54C66 56.2091 64.2091 58 62 58 59.7909 58 58 56.2091 58 54 58 51.7909 59.7909 50 62 50 64.2091 50 66 51.7909 66 54Z" fill="#6D212C" transform="matrix(-1 0 0 1 551 195)"/><path d="M52 56C52 58.2091 50.2091 60 48 60 45.7909 60 44 58.2091 44 56 44 53.7909 45.7909 52 48 52 50.2091 52 52 53.7909 52 56Z" fill="#6D212C" transform="matrix(-1 0 0 1 551 195)"/><path d="M52 42C52 44.2091 50.2091 46 48 46 45.7909 46 44 44.2091 44 42 44 39.7909 45.7909 38 48 38 50.2091 38 52 39.7909 52 42Z" fill="#6D212C" transform="matrix(-1 0 0 1 551 195)"/><path d="M39 38C39 40.2091 37.2091 42 35 42 32.7909 42 31 40.2091 31 38 31 35.7909 32.7909 34 35 34 37.2091 34 39 35.7909 39 38Z" fill="#6D212C" transform="matrix(-1 0 0 1 551 195)"/><path d="M25 38C25 40.2091 23.2091 42 21 42 18.7909 42 17 40.2091 17 38 17 35.7909 18.7909 34 21 34 23.2091 34 25 35.7909 25 38Z" fill="#6D212C" transform="matrix(-1 0 0 1 551 195)"/><path d="M25 23C25 25.2091 23.2091 27 21 27 18.7909 27 17 25.2091 17 23 17 20.7909 18.7909 19 21 19 23.2091 19 25 20.7909 25 23Z" fill="#6D212C" transform="matrix(-1 0 0 1 551 195)"/></g></g></g><g clip-path="url(#clip28)"><g clip-path="url(#clip29)"><g clip-path="url(#clip30)"><path d="M901.013 105 835.043 105 835.043 39 833.043 39 833.043 107 901.013 107 901.013 105Z" stroke="#6D212C" stroke-width="3"/><path d="M870.042 87 872.042 87 872.042 91.834 870.042 91.834Z" stroke="#6D212C" stroke-width="3"/><path d="M870.042 78 872.042 78 872.042 82.834 870.042 82.834Z" stroke="#6D212C" stroke-width="3"/><path d="M870.042 69 872.042 69 872.042 73.834 870.042 73.834Z" stroke="#6D212C" stroke-width="3"/><path d="M870.042 60 872.042 60 872.042 64.834 870.042 64.834Z" stroke="#6D212C" stroke-width="3"/><path d="M883.209 69.315C881.26 50.582 876.21 48 871.042 48 865.874 48 860.824 50.582 858.877 69.315 857.17 85.708 851.651 93.309 840.977 93.96L841.099 95.96C852.941 95.237 859.037 87.084 860.864 69.525 862.9 50 868.2 50 871.042 50 873.884 50 879.189 50 881.219 69.522 883.043 87.043 889.137 95.193 900.979 95.949L901.106 93.949C890.431 93.272 884.911 85.673 883.209 69.315Z" stroke="#6D212C" stroke-width="3"/></g></g></g><g clip-path="url(#clip31)"><g clip-path="url(#clip32)"><g clip-path="url(#clip33)"><path d="M17.9167 11.6458 12.5417 11.6458 12.5417 74.3542 74.3542 74.3542 74.3542 68.9792 17.9167 68.9792 17.9167 11.6458Z" fill="#D97D7D" transform="matrix(1.32558 0 0 1 954 56)"/><path d="M60.9167 11.6458 74.3542 11.6458 74.3542 63.6042 60.9167 63.6042Z" fill="#D97D7D" transform="matrix(-1.32558 -1.22465e-16 1.62337e-16 -1 1133.31 131.25)"/><path d="M42.1042 29.5625 55.5417 29.5625 55.5417 63.6042 42.1042 63.6042Z" fill="#D97D7D" transform="matrix(-1.32558 -1.22465e-16 1.62337e-16 -1 1083.44 149.167)"/><path d="M23.2917 45.6875 36.7292 45.6875 36.7292 63.6042 23.2917 63.6042Z" fill="#D97D7D" transform="matrix(-1.32558 -1.22465e-16 1.62337e-16 -1 1033.56 165.292)"/><path d="M51.9583 23.9546 51.9583 11.6458 39.6496 11.6458 44.5408 16.5371 22.9244 38.1535 25.4506 40.6798 47.0671 19.0723 51.9583 23.9546Z" fill="#D97D7D" transform="matrix(1.32558 0 0 1 954 56)"/></g></g></g><g clip-path="url(#clip34)"><g clip-path="url(#clip35)"><g clip-path="url(#clip36)"><path d="M369 395C369.552 395 370 394.552 370 394 370 393.448 369.552 393 369 393L334 393 334 389C334 388.448 333.552 388 333 388 332.448 388 332 388.448 332 389L332 393 297 393C296.448 393 296 393.448 296 394 296 394.552 296.448 395 297 395L301 395 301 436 297 436C296.448 436 296 436.448 296 437 296 437.552 296.448 438 297 438L330.586 438 312.793 455.793C312.409 456.19 312.42 456.823 312.818 457.207 313.205 457.581 313.819 457.581 314.207 457.207L332 439.414 332 460C332 460.552 332.448 461 333 461 333.552 461 334 460.552 334 460L334 439.414 351.793 457.207C352.19 457.591 352.823 457.58 353.207 457.182 353.581 456.795 353.581 456.18 353.207 455.793L335.414 438 369 438C369.552 438 370 437.552 370 437 370 436.448 369.552 436 369 436L365 436 365 395ZM363 436 303 436 303 395 363 395Z" stroke="#6D212C" stroke-width="2" fill="#6D212C"/><path d="M349 402 341 402 341 430 349 430ZM347 428 343 428 343 404 347 404Z" stroke="#6D212C" stroke-width="2" fill="#6D212C"/><path d="M329 430 337 430 337 411 329 411ZM331 413 335 413 335 428 331 428Z" stroke="#6D212C" stroke-width="2" fill="#6D212C"/><path d="M317 430 325 430 325 418 317 418ZM319 420 323 420 323 428 319 428Z" stroke="#6D212C" stroke-width="2" fill="#6D212C"/></g></g></g><g clip-path="url(#clip37)"><g clip-path="url(#clip38)"><g clip-path="url(#clip39)"><path d="M1046.38 405.104C1046.38 410.857 1041.71 415.521 1035.96 415.521 1030.21 415.521 1025.54 410.857 1025.54 405.104 1025.54 399.351 1030.21 394.688 1035.96 394.688 1041.71 394.688 1046.38 399.351 1046.38 405.104Z" fill="#6D212C"/><path d="M997.417 354.062C997.417 359.815 992.753 364.479 987 364.479 981.247 364.479 976.583 359.815 976.583 354.062 976.583 348.31 981.247 343.646 987 343.646 992.753 343.646 997.417 348.31 997.417 354.062Z" fill="#6D212C"/><path d="M1035.96 365.5 1024.51 354.052 1035.96 342.979 1047.41 354.052 1035.96 365.5Z" fill="#6D212C"/><path d="M976.583 394.625 997.417 394.625 997.417 415.458 976.583 415.458Z" fill="#6D212C"/><path d="M1021.24 403.021 1005.75 403.021 1007.83 400.938C1008.55 400.224 1008.55 399.068 1007.83 398.354 1007.12 397.641 1005.96 397.641 1005.25 398.354L999.781 403.823C999.444 404.169 999.254 404.632 999.25 405.115 999.252 405.598 999.443 406.061 999.781 406.406L1005.25 411.875C1005.97 412.588 1007.13 412.586 1007.84 411.87 1008.55 411.154 1008.55 409.995 1007.83 409.281L1005.75 407.198 1021.24 407.198Z" fill="#6D212C"/><path d="M1021.95 352.719 1016.48 347.25C1015.77 346.539 1014.61 346.542 1013.9 347.255 1013.19 347.969 1013.19 349.123 1013.91 349.833L1015.99 351.917 1001.58 351.917 1001.58 356.083 1016 356.083 1013.92 358.167C1013.2 358.874 1013.19 360.031 1013.9 360.75 1014.6 361.469 1015.76 361.478 1016.48 360.771L1021.95 355.302C1022.66 354.587 1022.66 353.434 1021.95 352.719Z" fill="#6D212C"/><path d="M1042.75 384.062C1042.04 383.353 1040.88 383.353 1040.17 384.062L1038.08 386.146 1038.08 369.625 1033.88 369.625 1033.88 386.167 1031.79 384.083C1031.08 383.373 1029.92 383.375 1029.21 384.089 1028.5 384.802 1028.51 385.956 1029.22 386.667L1034.68 392.135C1035.39 392.845 1036.55 392.845 1037.26 392.135L1042.73 386.667C1043.45 385.96 1043.47 384.799 1042.76 384.074 1042.76 384.07 1042.75 384.066 1042.75 384.062Z" fill="#6D212C"/></g></g></g><text font-family="Calibri,Calibri_MSFontService,sans-serif" font-weight="700" font-size="37" transform="translate(519.866 324)">Data<tspan fill="#6D212C" font-family="Courier New,Courier New_MSFontService,sans-serif" font-size="19" x="40.8508" y="-117">101010</tspan><tspan fill="#6D212C" font-family="Courier New,Courier New_MSFontService,sans-serif" font-size="19" x="40.8508" y="-94">100100</tspan><tspan fill="#6D212C" font-family="Courier New,Courier New_MSFontService,sans-serif" font-size="19" x="40.8508" y="-72">000010</tspan><tspan fill="#6D212C" font-family="Courier New,Courier New_MSFontService,sans-serif" font-size="19" x="40.8508" y="-49">001000</tspan></text><g clip-path="url(#clip40)"><g clip-path="url(#clip41)"><g clip-path="url(#clip42)"><path d="M94.25 298 98.625 298 98.625 301.5 94.25 301.5Z" stroke="#A31F34" stroke-width="2.04166" fill="#A31F34"/><path d="M83.75 319 88.125 319 88.125 322.5 83.75 322.5Z" stroke="#A31F34" stroke-width="2.04166" fill="#A31F34"/><path d="M73.25 340 77.625 340 77.625 343.5 73.25 343.5Z" stroke="#A31F34" stroke-width="2.04166" fill="#A31F34"/><path d="M94.25 340 98.625 340 98.625 343.5 94.25 343.5Z" stroke="#A31F34" stroke-width="2.04166" fill="#A31F34"/><path d="M115.25 340 119.625 340 119.625 343.5 115.25 343.5Z" stroke="#A31F34" stroke-width="2.04166" fill="#A31F34"/><path d="M112.625 301.564C112.007 301.933 111.422 302.353 110.875 302.821L110.875 314.625 106.643 314.625C106.745 315.218 106.889 315.803 107.074 316.375L121.375 316.375 121.375 324.914C121.968 324.808 122.553 324.659 123.125 324.47L123.125 314.625 112.625 314.625Z" stroke="#A31F34" stroke-width="2.04166" fill="#A31F34"/><path d="M131.875 347.617 131.875 356.625 112.625 356.625 112.625 337.375 125.76 337.375 125.404 336.777C125.188 336.413 125.011 336.026 124.875 335.625L123.125 335.625 123.125 331.716C122.551 331.835 121.967 331.926 121.375 331.993L121.375 335.625 102.125 335.625 102.125 322.343C101.409 321.121 100.827 319.824 100.391 318.476 100.382 318.449 100.375 318.45 100.375 318.476L100.375 335.625 81.125 335.625 81.125 316.375 99.8369 316.375C99.7196 315.801 99.6304 315.216 99.5648 314.625L91.625 314.625 91.625 295.375 109.325 295.375C110.376 294.768 111.48 294.261 112.625 293.859L112.625 293.625 89.875 293.625 89.875 314.625 79.375 314.625 79.375 335.625 68.875 335.625 68.875 358.375 133.625 358.375 133.625 349.378C132.929 348.915 132.333 348.316 131.875 347.617ZM89.875 356.625 70.625 356.625 70.625 337.375 89.875 337.375ZM110.875 356.625 91.625 356.625 91.625 337.375 110.875 337.375Z" stroke="#A31F34" stroke-width="2.04166" fill="#A31F34"/><path d="M141.875 341.355 135.559 330.742C134.412 329.045 132.209 328.421 130.343 329.265L128.719 326.539C136.445 321.252 138.422 310.703 133.135 302.978 127.848 295.252 117.299 293.275 109.573 298.562 101.848 303.849 99.8706 314.398 105.157 322.123 110.062 329.29 119.591 331.591 127.225 327.452L128.837 330.156C128.176 330.708 127.676 331.427 127.388 332.239 126.995 333.291 127.095 334.464 127.66 335.435L133.975 346.05C134.712 347.224 136.017 347.919 137.403 347.875 138.31 347.87 139.198 347.62 139.975 347.153 140.983 346.569 141.752 345.647 142.146 344.55 142.538 343.498 142.439 342.326 141.875 341.355ZM103.894 314.005C103.029 305.593 109.147 298.072 117.56 297.207 125.973 296.342 133.493 302.46 134.359 310.873 135.224 319.285 129.105 326.806 120.693 327.671 119.651 327.778 118.602 327.778 117.56 327.671 110.345 326.923 104.643 321.22 103.894 314.005ZM140.493 343.978C140.233 344.682 139.733 345.273 139.081 345.646 137.731 346.446 136.116 346.226 135.479 345.155L129.163 334.541C128.866 334.012 128.821 333.378 129.04 332.813 129.3 332.108 129.8 331.518 130.451 331.146 130.962 330.837 131.546 330.67 132.143 330.664 132.907 330.625 133.635 330.995 134.054 331.636L140.369 342.25C140.666 342.779 140.712 343.412 140.493 343.978Z" stroke="#A31F34" stroke-width="2.04166" fill="#A31F34"/></g></g></g><text font-family="Calibri,Calibri_MSFontService,sans-serif" font-weight="700" font-size="37" transform="translate(491.703 180)">Polymer</text></g></svg>