<svg width="643" height="643" xmlns="http://www.w3.org/2000/svg" xmlns:xlink="http://www.w3.org/1999/xlink" overflow="hidden"><defs><clipPath id="clip0"><rect x="0" y="0" width="643" height="643"/></clipPath></defs><g clip-path="url(#clip0)"><rect x="0" y="0" width="643" height="643" fill="#FFFFFF"/><text fill="#898989" font-family="Arial,Arial_MSFontService,sans-serif" font-weight="400" font-size="15" transform="translate(557.591 595)">1</text><rect x="-1.49998" y="-9.5" width="653" height="653" stroke="#051795" stroke-width="1.33299" stroke-miterlimit="8" fill="#A31F34"/><path d="M583.242 357.254C581.004 357.254 578.021 357.254 575.783 357.254 575.783 357.254 575.783 357.254 575.783 357.254 575.783 320.708 557.883 287.146 528.796 266.263 498.963 245.379 460.925 240.158 426.617 252.092 398.275 196.9 335.625 168.558 275.958 182.729 216.292 196.9 173.033 250.6 173.033 312.504 173.033 312.504 173.033 313.25 173.033 313.996 132.013 307.283 90.9917 324.438 65.6333 357.254 41.0208 390.817 36.5458 434.821 53.7 472.113 71.6 509.404 108.892 534.017 149.913 536.254L149.913 537 582.496 537C631.721 537 671.996 496.725 671.996 447.5 671.996 398.275 632.467 357.254 583.242 357.254Z" stroke="#A31F34" stroke-width="7.45835" fill="#FFFFFF" transform="matrix(1.0014 0 0 1 -28 -66)"/><path d="M39.9568 448.522C33.9259 414.561 56.568 382.141 90.5293 376.11 124.491 370.079 156.911 392.721 162.942 426.682 168.973 460.643 146.33 493.063 112.369 499.094 78.4078 505.125 45.9877 482.483 39.9568 448.522Z" stroke="#A31F34" stroke-width="1.33299" stroke-miterlimit="8" fill="#A31F34" fill-rule="evenodd"/><path d="M141.441 305.611C137.206 281.762 153.106 258.996 176.955 254.761 200.803 250.526 223.569 266.426 227.804 290.274 232.039 314.123 216.139 336.889 192.291 341.124 168.443 345.359 145.676 329.459 141.441 305.611Z" stroke="#A31F34" stroke-width="1.33299" stroke-miterlimit="8" fill="#A31F34" fill-rule="evenodd"/><path d="M289.24 403.973C281.842 362.314 309.616 322.545 351.276 315.147 392.935 307.749 432.703 335.523 440.101 377.183 447.499 418.842 419.725 458.61 378.066 466.008 336.407 473.406 296.638 445.632 289.24 403.973Z" stroke="#A31F34" stroke-width="1.33299" stroke-miterlimit="8" fill="#A31F34" fill-rule="evenodd"/><path d="M462.876 256.987C458.12 230.203 475.977 204.634 502.761 199.878 529.546 195.121 555.114 212.979 559.871 239.763 564.627 266.547 546.77 292.116 519.986 296.872 493.201 301.629 467.633 283.772 462.876 256.987Z" stroke="#A31F34" stroke-width="1.33299" stroke-miterlimit="8" fill="#A31F34" fill-rule="evenodd"/><path d="M0 0 116.582 121.023" stroke="#A31F34" stroke-width="26.6598" stroke-miterlimit="8" fill="#A31F34" fill-rule="evenodd" transform="matrix(-0.984596 0.174846 0.174846 0.984596 186.263 297.651)"/><path d="M356.746 386.846 162.5 294.5" stroke="#A31F34" stroke-width="26.6598" stroke-miterlimit="8" fill="#A31F34" fill-rule="evenodd"/><path d="M0 0 114.628 121.045" stroke="#A31F34" stroke-width="26.6598" stroke-miterlimit="8" fill="#A31F34" fill-rule="evenodd" transform="matrix(1 0 0 -1 372.5 386.545)"/></g></svg>