<svg version="1.1" xmlns="http://www.w3.org/2000/svg" xmlns:xlink="http://www.w3.org/1999/xlink" width="800" height="400"><defs/><g transform="translate(46.59658344283838,-16.9119579500657) scale(0.8935611038107752,0.8935611038107752)"><path fill="rgb(128,128,128)" stroke="rgb(0,0,0)" paint-order="fill stroke markers" d=" M 524.260294117647 347.47794117647055 L 583.760294117647 347.47794117647055 L 583.760294117647 347.47794117647055 A 8 8 0 0 1 591.760294117647 355.47794117647055 L 591.760294117647 400.47794117647055 L 591.760294117647 400.47794117647055 A 8 8 0 0 1 583.760294117647 408.47794117647055 L 464.76029411764705 408.47794117647055 L 464.76029411764705 408.47794117647055 A 8 8 0 0 1 456.76029411764705 400.47794117647055 L 456.76029411764705 355.47794117647055 L 456.76029411764705 355.47794117647055 A 8 8 0 0 1 464.76029411764705 347.47794117647055 L 524.260294117647 347.47794117647055 Z" fill-opacity="1" stroke-opacity="1" stroke-miterlimit="10" stroke-width="3"/><text fill="rgb(0,0,0)" stroke="none" font-family="arial" font-size="16px" font-style="normal" font-weight="bold" text-decoration="normal" x="524.260294117647" y="347.47794117647055" text-anchor="middle" dominant-baseline="text-after-edge" fill-opacity="1">collections</text><path fill="rgb(128,128,128)" stroke="rgb(0,0,0)" paint-order="fill stroke markers" d=" M 200 169.5 L 262.5 169.5 L 262.5 169.5 A 8 8 0 0 1 270.5 177.5 L 270.5 422.5 L 270.5 422.5 A 8 8 0 0 1 262.5 430.5 L 137.5 430.5 L 137.5 430.5 A 8 8 0 0 1 129.5 422.5 L 129.5 177.5 L 129.5 177.5 A 8 8 0 0 1 137.5 169.5 L 200 169.5 Z" fill-opacity="1" stroke-opacity="1" stroke-miterlimit="10" stroke-width="3"/><text fill="rgb(0,0,0)" stroke="none" font-family="arial" font-size="16px" font-style="normal" font-weight="bold" text-decoration="normal" x="200" y="169.5" text-anchor="middle" dominant-baseline="text-after-edge" fill-opacity="1">experiments</text><path fill="rgb(128,128,128)" stroke="rgb(0,0,0)" paint-order="fill stroke markers" d=" M 600 169.5 L 653.5 169.5 L 653.5 169.5 A 8 8 0 0 1 661.5 177.5 L 661.5 272.5 L 661.5 272.5 A 8 8 0 0 1 653.5 280.5 L 546.5 280.5 L 546.5 280.5 A 8 8 0 0 1 538.5 272.5 L 538.5 177.5 L 538.5 177.5 A 8 8 0 0 1 546.5 169.5 L 600 169.5 Z" fill-opacity="1" stroke-opacity="1" stroke-miterlimit="10" stroke-width="3"/><text fill="rgb(0,0,0)" stroke="none" font-family="arial" font-size="16px" font-style="normal" font-weight="bold" text-decoration="normal" x="600" y="169.5" text-anchor="middle" dominant-baseline="text-after-edge" fill-opacity="1">publications</text><path fill="rgb(128,128,128)" stroke="rgb(0,0,0)" paint-order="fill stroke markers" d=" M 405 69.5 L 488.5 69.5 L 488.5 69.5 A 8 8 0 0 1 496.5 77.5 L 496.5 122.5 L 496.5 122.5 A 8 8 0 0 1 488.5 130.5 L 321.5 130.5 L 321.5 130.5 A 8 8 0 0 1 313.5 122.5 L 313.5 77.5 L 313.5 77.5 A 8 8 0 0 1 321.5 69.5 L 405 69.5 Z" fill-opacity="1" stroke-opacity="1" stroke-miterlimit="10" stroke-width="3"/><text fill="rgb(0,0,0)" stroke="none" font-family="arial" font-size="16px" font-style="normal" font-weight="bold" text-decoration="normal" x="405" y="69.5" text-anchor="middle" dominant-baseline="text-after-edge" fill-opacity="1">group</text><path fill="none" stroke="rgb(0,0,0)" paint-order="fill stroke markers" d=" M 400.975 180.5 L 403.4 132" stroke-opacity="1" stroke-linejoin="round" stroke-miterlimit="10" stroke-width="3"/><path fill="none" stroke="rgb(0,0,0)" paint-order="fill stroke markers" d=" M 362.0934003354314 218.9532998322843 L 272 264" stroke-opacity="1" stroke-linejoin="round" stroke-miterlimit="10" stroke-width="3"/><path fill="none" stroke="rgb(0,0,0)" paint-order="fill stroke markers" d=" M 443 205.375 L 537 217.125" stroke-opacity="1" stroke-linejoin="round" stroke-miterlimit="10" stroke-width="3"/><path fill="none" stroke="rgb(0,0,0)" paint-order="fill stroke markers" d=" M 413.61447221648416 219.5 L 501.9185961213653 345.97794117647055" stroke-opacity="1" stroke-linejoin="round" stroke-miterlimit="10" stroke-width="3"/><path fill="rgb(217,125,125)" stroke="rgb(0,0,0)" paint-order="fill stroke markers" d=" M 400 182 L 433.5 182 L 433.5 182 A 8 8 0 0 1 441.5 190 L 441.5 210 L 441.5 210 A 8 8 0 0 1 433.5 218 L 366.5 218 L 366.5 218 A 8 8 0 0 1 358.5 210 L 358.5 190 L 358.5 190 A 8 8 0 0 1 366.5 182 L 400 182 Z" fill-opacity="1" stroke-opacity="1" stroke-miterlimit="10" stroke-width="3"/><text fill="rgb(0,0,0)" stroke="none" font-family="arial" font-size="16px" font-style="normal" font-weight="bold" text-decoration="normal" x="400" y="208" text-anchor="middle" dominant-baseline="text-after-edge" fill-opacity="1">Dylan W</text><path fill="rgb(217,125,125)" stroke="rgb(0,0,0)" paint-order="fill stroke markers" d=" M 350 82 L 366 82 L 366 82 A 8 8 0 0 1 374 90 L 374 110 L 374 110 A 8 8 0 0 1 366 118 L 334 118 L 334 118 A 8 8 0 0 1 326 110 L 326 90 L 326 90 A 8 8 0 0 1 334 82 L 350 82 Z" fill-opacity="1" stroke-opacity="1" stroke-miterlimit="10" stroke-width="3"/><text fill="rgb(0,0,0)" stroke="none" font-family="arial" font-size="16px" font-style="normal" font-weight="bold" text-decoration="normal" x="350" y="108" text-anchor="middle" dominant-baseline="text-after-edge" fill-opacity="1">MIT</text><path fill="rgb(217,125,125)" stroke="rgb(0,0,0)" paint-order="fill stroke markers" d=" M 450 82 L 476 82 L 476 82 A 8 8 0 0 1 484 90 L 484 110 L 484 110 A 8 8 0 0 1 476 118 L 424 118 L 424 118 A 8 8 0 0 1 416 110 L 416 90 L 416 90 A 8 8 0 0 1 424 82 L 450 82 Z" fill-opacity="1" stroke-opacity="1" stroke-miterlimit="10" stroke-width="3"/><text fill="rgb(0,0,0)" stroke="none" font-family="arial" font-size="16px" font-style="normal" font-weight="bold" text-decoration="normal" x="450" y="108" text-anchor="middle" dominant-baseline="text-after-edge" fill-opacity="1">CRIPT</text><path fill="rgb(217,125,125)" stroke="rgb(0,0,0)" paint-order="fill stroke markers" d=" M 200 182 L 243.5 182 L 243.5 182 A 8 8 0 0 1 251.5 190 L 251.5 210 L 251.5 210 A 8 8 0 0 1 243.5 218 L 156.5 218 L 156.5 218 A 8 8 0 0 1 148.5 210 L 148.5 190 L 148.5 190 A 8 8 0 0 1 156.5 182 L 200 182 Z" fill-opacity="1" stroke-opacity="1" stroke-miterlimit="10" stroke-width="3"/><text fill="rgb(0,0,0)" stroke="none" font-family="arial" font-size="16px" font-style="normal" font-weight="bold" text-decoration="normal" x="200" y="208" text-anchor="middle" dominant-baseline="text-after-edge" fill-opacity="1">Anionic po</text><path fill="rgb(217,125,125)" stroke="rgb(0,0,0)" paint-order="fill stroke markers" d=" M 200 232 L 246.5 232 L 246.5 232 A 8 8 0 0 1 254.5 240 L 254.5 260 L 254.5 260 A 8 8 0 0 1 246.5 268 L 153.5 268 L 153.5 268 A 8 8 0 0 1 145.5 260 L 145.5 240 L 145.5 240 A 8 8 0 0 1 153.5 232 L 200 232 Z" fill-opacity="1" stroke-opacity="1" stroke-miterlimit="10" stroke-width="3"/><text fill="rgb(0,0,0)" stroke="none" font-family="arial" font-size="16px" font-style="normal" font-weight="bold" text-decoration="normal" x="200" y="258" text-anchor="middle" dominant-baseline="text-after-edge" fill-opacity="1">ATRP of sty</text><path fill="rgb(217,125,125)" stroke="rgb(0,0,0)" paint-order="fill stroke markers" d=" M 200 282 L 246.5 282 L 246.5 282 A 8 8 0 0 1 254.5 290 L 254.5 310 L 254.5 310 A 8 8 0 0 1 246.5 318 L 153.5 318 L 153.5 318 A 8 8 0 0 1 145.5 310 L 145.5 290 L 145.5 290 A 8 8 0 0 1 153.5 282 L 200 282 Z" fill-opacity="1" stroke-opacity="1" stroke-miterlimit="10" stroke-width="3"/><text fill="rgb(0,0,0)" stroke="none" font-family="arial" font-size="16px" font-style="normal" font-weight="bold" text-decoration="normal" x="200" y="308" text-anchor="middle" dominant-baseline="text-after-edge" fill-opacity="1">ROMP catal</text><path fill="rgb(217,125,125)" stroke="rgb(0,0,0)" paint-order="fill stroke markers" d=" M 200 332 L 246.5 332 L 246.5 332 A 8 8 0 0 1 254.5 340 L 254.5 360 L 254.5 360 A 8 8 0 0 1 246.5 368 L 153.5 368 L 153.5 368 A 8 8 0 0 1 145.5 360 L 145.5 340 L 145.5 340 A 8 8 0 0 1 153.5 332 L 200 332 Z" fill-opacity="1" stroke-opacity="1" stroke-miterlimit="10" stroke-width="3"/><text fill="rgb(0,0,0)" stroke="none" font-family="arial" font-size="16px" font-style="normal" font-weight="bold" text-decoration="normal" x="200" y="358" text-anchor="middle" dominant-baseline="text-after-edge" fill-opacity="1">ROMP catal</text><path fill="rgb(217,125,125)" stroke="rgb(0,0,0)" paint-order="fill stroke markers" d=" M 200 382 L 250 382 L 250 382 A 8 8 0 0 1 258 390 L 258 410 L 258 410 A 8 8 0 0 1 250 418 L 150 418 L 150 418 A 8 8 0 0 1 142 410 L 142 390 L 142 390 A 8 8 0 0 1 150 382 L 200 382 Z" fill-opacity="1" stroke-opacity="1" stroke-miterlimit="10" stroke-width="3"/><text fill="rgb(0,0,0)" stroke="none" font-family="arial" font-size="16px" font-style="normal" font-weight="bold" text-decoration="normal" x="200" y="408" text-anchor="middle" dominant-baseline="text-after-edge" fill-opacity="1">ROMP mono</text><path fill="rgb(217,125,125)" stroke="rgb(0,0,0)" paint-order="fill stroke markers" d=" M 600 182 L 641 182 L 641 182 A 8 8 0 0 1 649 190 L 649 210 L 649 210 A 8 8 0 0 1 641 218 L 559 218 L 559 218 A 8 8 0 0 1 551 210 L 551 190 L 551 190 A 8 8 0 0 1 559 182 L 600 182 Z" fill-opacity="1" stroke-opacity="1" stroke-miterlimit="10" stroke-width="3"/><text fill="rgb(0,0,0)" stroke="none" font-family="arial" font-size="16px" font-style="normal" font-weight="bold" text-decoration="normal" x="600" y="208" text-anchor="middle" dominant-baseline="text-after-edge" fill-opacity="1">Recent tre</text><path fill="rgb(217,125,125)" stroke="rgb(0,0,0)" paint-order="fill stroke markers" d=" M 600 232 L 638 232 L 638 232 A 8 8 0 0 1 646 240 L 646 260 L 646 260 A 8 8 0 0 1 638 268 L 562 268 L 562 268 A 8 8 0 0 1 554 260 L 554 240 L 554 240 A 8 8 0 0 1 562 232 L 600 232 Z" fill-opacity="1" stroke-opacity="1" stroke-miterlimit="10" stroke-width="3"/><text fill="rgb(0,0,0)" stroke="none" font-family="arial" font-size="16px" font-style="normal" font-weight="bold" text-decoration="normal" x="600" y="258" text-anchor="middle" dominant-baseline="text-after-edge" fill-opacity="1">Kinetic st</text><path fill="rgb(217,125,125)" stroke="rgb(0,0,0)" paint-order="fill stroke markers" d=" M 524.260294117647 359.97794117647055 L 571.260294117647 359.97794117647055 L 571.260294117647 359.97794117647055 A 8 8 0 0 1 579.260294117647 367.97794117647055 L 579.260294117647 387.97794117647055 L 579.260294117647 387.97794117647055 A 8 8 0 0 1 571.260294117647 395.97794117647055 L 477.26029411764705 395.97794117647055 L 477.26029411764705 395.97794117647055 A 8 8 0 0 1 469.26029411764705 387.97794117647055 L 469.26029411764705 367.97794117647055 L 469.26029411764705 367.97794117647055 A 8 8 0 0 1 477.26029411764705 359.97794117647055 L 524.260294117647 359.97794117647055 Z" fill-opacity="1" stroke-opacity="1" stroke-miterlimit="10" stroke-width="3"/><text fill="rgb(0,0,0)" stroke="none" font-family="arial" font-size="16px" font-style="normal" font-weight="bold" text-decoration="normal" x="524.260294117647" y="385.97794117647055" text-anchor="middle" dominant-baseline="text-after-edge" fill-opacity="1">ROMP kinet</text><g transform="scale(1.1191176470588236,1.1191176470588236) translate(-46.59658344283838,16.9119579500657)"/></g></svg>