<svg version="1.1" xmlns="http://www.w3.org/2000/svg" xmlns:xlink="http://www.w3.org/1999/xlink" width="800" height="400"><defs/><g transform="translate(-102.10831721470021,-39.05222437137331) scale(1.3152804642166345,1.3152804642166345)"><path fill="rgb(128,128,128)" stroke="rgb(0,0,0)" paint-order="fill stroke markers" d=" M 266.6666666666667 69.5 L 312.6666666666667 69.5 L 312.6666666666667 69.5 A 8 8 0 0 1 320.6666666666667 77.5 L 320.6666666666667 122.5 L 320.6666666666667 122.5 A 8 8 0 0 1 312.6666666666667 130.5 L 220.66666666666669 130.5 L 220.66666666666669 130.5 A 8 8 0 0 1 212.66666666666669 122.5 L 212.66666666666669 77.5 L 212.66666666666669 77.5 A 8 8 0 0 1 220.66666666666669 69.5 L 266.6666666666667 69.5 Z" fill-opacity="1" stroke-opacity="1" stroke-miterlimit="10" stroke-width="3"/><text fill="rgb(0,0,0)" stroke="none" font-family="arial" font-size="16px" font-style="normal" font-weight="bold" text-decoration="normal" x="266.6666666666667" y="69.5" text-anchor="middle" dominant-baseline="text-after-edge" fill-opacity="1">users</text><path fill="rgb(128,128,128)" stroke="rgb(0,0,0)" paint-order="fill stroke markers" d=" M 533.3333333333334 69.5 L 601.8333333333334 69.5 L 601.8333333333334 69.5 A 8 8 0 0 1 609.8333333333334 77.5 L 609.8333333333334 122.5 L 609.8333333333334 122.5 A 8 8 0 0 1 601.8333333333334 130.5 L 464.83333333333337 130.5 L 464.83333333333337 130.5 A 8 8 0 0 1 456.83333333333337 122.5 L 456.83333333333337 77.5 L 456.83333333333337 77.5 A 8 8 0 0 1 464.83333333333337 69.5 L 533.3333333333334 69.5 Z" fill-opacity="1" stroke-opacity="1" stroke-miterlimit="10" stroke-width="3"/><text fill="rgb(0,0,0)" stroke="none" font-family="arial" font-size="16px" font-style="normal" font-weight="bold" text-decoration="normal" x="533.3333333333334" y="69.5" text-anchor="middle" dominant-baseline="text-after-edge" fill-opacity="1">experiment</text><path fill="rgb(128,128,128)" stroke="rgb(0,0,0)" paint-order="fill stroke markers" d=" M 600 231.5 L 628 231.5 L 628 231.5 A 8 8 0 0 1 636 239.5 L 636 300.5 L 636 300.5 A 8 8 0 0 1 628 308.5 L 572 308.5 L 572 308.5 A 8 8 0 0 1 564 300.5 L 564 239.5 L 564 239.5 A 8 8 0 0 1 572 231.5 L 600 231.5 Z" fill-opacity="1" stroke-opacity="1" stroke-miterlimit="10" stroke-width="3"/><text fill="rgb(0,0,0)" stroke="none" font-family="arial" font-size="16px" font-style="normal" font-weight="bold" text-decoration="normal" x="600" y="231.5" text-anchor="middle" dominant-baseline="text-after-edge" fill-opacity="1">attribute</text><path fill="rgb(128,128,128)" stroke="rgb(0,0,0)" paint-order="fill stroke markers" d=" M 200 161.5 L 264.5 161.5 L 264.5 161.5 A 8 8 0 0 1 272.5 169.5 L 272.5 300.5 L 272.5 300.5 A 8 8 0 0 1 264.5 308.5 L 135.5 308.5 L 135.5 308.5 A 8 8 0 0 1 127.5 300.5 L 127.5 169.5 L 127.5 169.5 A 8 8 0 0 1 135.5 161.5 L 200 161.5 Z" fill-opacity="1" stroke-opacity="1" stroke-miterlimit="10" stroke-width="3"/><text fill="rgb(0,0,0)" stroke="none" font-family="arial" font-size="16px" font-style="normal" font-weight="bold" text-decoration="normal" x="200" y="161.5" text-anchor="middle" dominant-baseline="text-after-edge" fill-opacity="1">out</text><path fill="none" stroke="rgb(0,0,0)" paint-order="fill stroke markers" d=" M 375 204.375 L 274 222.05" stroke-opacity="1" stroke-linejoin="round" stroke-miterlimit="10" stroke-width="3"/><path fill="none" stroke="rgb(0,0,0)" paint-order="fill stroke markers" d=" M 377.250196853445 182.93764764008375 L 309.33333333333337 132" stroke-opacity="1" stroke-linejoin="round" stroke-miterlimit="10" stroke-width="3"/><path fill="none" stroke="rgb(0,0,0)" paint-order="fill stroke markers" d=" M 425 208.75 L 562.5 256.875" stroke-opacity="1" stroke-linejoin="round" stroke-miterlimit="10" stroke-width="3"/><path fill="none" stroke="rgb(0,0,0)" paint-order="fill stroke markers" d=" M 422.749803146555 182.93764764008375 L 490.6666666666667 132" stroke-opacity="1" stroke-linejoin="round" stroke-miterlimit="10" stroke-width="3"/><path fill="rgb(217,125,125)" stroke="rgb(0,0,0)" paint-order="fill stroke markers" d=" M 400 182 L 415.5 182 L 415.5 182 A 8 8 0 0 1 423.5 190 L 423.5 210 L 423.5 210 A 8 8 0 0 1 415.5 218 L 384.5 218 L 384.5 218 A 8 8 0 0 1 376.5 210 L 376.5 190 L 376.5 190 A 8 8 0 0 1 384.5 182 L 400 182 Z" fill-opacity="1" stroke-opacity="1" stroke-miterlimit="10" stroke-width="3"/><text fill="rgb(0,0,0)" stroke="none" font-family="arial" font-size="16px" font-style="normal" font-weight="bold" text-decoration="normal" x="400" y="208" text-anchor="middle" dominant-baseline="text-after-edge" fill-opacity="1">sec</text><path fill="rgb(217,125,125)" stroke="rgb(0,0,0)" paint-order="fill stroke markers" d=" M 266.6666666666667 82 L 300.1666666666667 82 L 300.1666666666667 82 A 8 8 0 0 1 308.1666666666667 90 L 308.1666666666667 110 L 308.1666666666667 110 A 8 8 0 0 1 300.1666666666667 118 L 233.16666666666669 118 L 233.16666666666669 118 A 8 8 0 0 1 225.16666666666669 110 L 225.16666666666669 90 L 225.16666666666669 90 A 8 8 0 0 1 233.16666666666669 82 L 266.6666666666667 82 Z" fill-opacity="1" stroke-opacity="1" stroke-miterlimit="10" stroke-width="3"/><text fill="rgb(0,0,0)" stroke="none" font-family="arial" font-size="16px" font-style="normal" font-weight="bold" text-decoration="normal" x="266.6666666666667" y="108" text-anchor="middle" dominant-baseline="text-after-edge" fill-opacity="1">Dylan W</text><path fill="rgb(217,125,125)" stroke="rgb(0,0,0)" paint-order="fill stroke markers" d=" M 533.3333333333334 82 L 589.3333333333334 82 L 589.3333333333334 82 A 8 8 0 0 1 597.3333333333334 90 L 597.3333333333334 110 L 597.3333333333334 110 A 8 8 0 0 1 589.3333333333334 118 L 477.33333333333337 118 L 477.33333333333337 118 A 8 8 0 0 1 469.33333333333337 110 L 469.33333333333337 90 L 469.33333333333337 90 A 8 8 0 0 1 477.33333333333337 82 L 533.3333333333334 82 Z" fill-opacity="1" stroke-opacity="1" stroke-miterlimit="10" stroke-width="3"/><text fill="rgb(0,0,0)" stroke="none" font-family="arial" font-size="16px" font-style="normal" font-weight="bold" text-decoration="normal" x="533.3333333333334" y="108" text-anchor="middle" dominant-baseline="text-after-edge" fill-opacity="1">anionic polym</text><path fill="rgb(217,125,125)" stroke="rgb(0,0,0)" paint-order="fill stroke markers" d=" M 200 174 L 252 174 L 252 174 A 8 8 0 0 1 260 182 L 260 218 L 260 218 A 8 8 0 0 1 252 226 L 148 226 L 148 226 A 8 8 0 0 1 140 218 L 140 182 L 140 182 A 8 8 0 0 1 148 174 L 200 174 Z" fill-opacity="1" stroke-opacity="1" stroke-miterlimit="10" stroke-width="3"/><text fill="rgb(0,0,0)" stroke="none" font-family="arial" font-size="16px" font-style="normal" font-weight="bold" text-decoration="normal" x="200" y="200" text-anchor="middle" dominant-baseline="text-after-edge" fill-opacity="1">poly(styrene)</text><text fill="rgb(0,0,0)" stroke="none" font-family="arial" font-size="16px" font-style="normal" font-weight="bold" text-decoration="normal" x="200" y="216" text-anchor="middle" dominant-baseline="text-after-edge" fill-opacity="1">m_n</text><path fill="rgb(217,125,125)" stroke="rgb(0,0,0)" paint-order="fill stroke markers" d=" M 200 244 L 252 244 L 252 244 A 8 8 0 0 1 260 252 L 260 288 L 260 288 A 8 8 0 0 1 252 296 L 148 296 L 148 296 A 8 8 0 0 1 140 288 L 140 252 L 140 252 A 8 8 0 0 1 148 244 L 200 244 Z" fill-opacity="1" stroke-opacity="1" stroke-miterlimit="10" stroke-width="3"/><text fill="rgb(0,0,0)" stroke="none" font-family="arial" font-size="16px" font-style="normal" font-weight="bold" text-decoration="normal" x="200" y="270" text-anchor="middle" dominant-baseline="text-after-edge" fill-opacity="1">poly(styrene)</text><text fill="rgb(0,0,0)" stroke="none" font-family="arial" font-size="16px" font-style="normal" font-weight="bold" text-decoration="normal" x="200" y="286" text-anchor="middle" dominant-baseline="text-after-edge" fill-opacity="1">d</text><path fill="rgb(217,125,125)" stroke="rgb(0,0,0)" paint-order="fill stroke markers" d=" M 600 244 L 615.5 244 L 615.5 244 A 8 8 0 0 1 623.5 252 L 623.5 288 L 623.5 288 A 8 8 0 0 1 615.5 296 L 584.5 296 L 584.5 296 A 8 8 0 0 1 576.5 288 L 576.5 252 L 576.5 252 A 8 8 0 0 1 584.5 244 L 600 244 Z" fill-opacity="1" stroke-opacity="1" stroke-miterlimit="10" stroke-width="3"/><text fill="rgb(0,0,0)" stroke="none" font-family="arial" font-size="16px" font-style="normal" font-weight="bold" text-decoration="normal" x="600" y="270" text-anchor="middle" dominant-baseline="text-after-edge" fill-opacity="1">file</text><text fill="rgb(0,0,0)" stroke="none" font-family="arial" font-size="16px" font-style="normal" font-weight="bold" text-decoration="normal" x="600" y="286" text-anchor="middle" dominant-baseline="text-after-edge" fill-opacity="1">csv</text><g transform="scale(0.7602941176470588,0.7602941176470588) translate(102.10831721470021,39.05222437137331)"/></g></svg>