<svg version="1.1" xmlns="http://www.w3.org/2000/svg" xmlns:xlink="http://www.w3.org/1999/xlink" width="800" height="400"><defs/><g transform="translate(-76.1764705882353,-30.588235294117652) scale(1.1764705882352942,1.1764705882352942)"><path fill="none" stroke="rgb(0,0,0)" paint-order="fill stroke markers" d=" M 617.1666666666666 240 L 562.3333333333334 240" stroke-opacity="1" stroke-linejoin="round" stroke-miterlimit="10" stroke-width="3"/><path fill="none" stroke="rgb(0,0,0)" paint-order="fill stroke markers" d=" M 533.3333333333334 300.5 L 533.3333333333334 259.5" stroke-opacity="1" stroke-linejoin="round" stroke-miterlimit="10" stroke-width="3"/><path fill="none" stroke="rgb(0,0,0)" paint-order="fill stroke markers" d=" M 533.3333333333334 179.5 L 533.3333333333334 220.5" stroke-opacity="1" stroke-linejoin="round" stroke-miterlimit="10" stroke-width="3"/><path fill="none" stroke="rgb(0,0,0)" paint-order="fill stroke markers" d=" M 173.33333333333334 160 L 233.16666666666669 160" stroke-opacity="1" stroke-linejoin="round" stroke-miterlimit="10" stroke-width="3"/><path fill="none" stroke="rgb(0,0,0)" paint-order="fill stroke markers" d=" M 165.80967662482325 179.48580597489394 L 234.16666666666669 220.5" stroke-opacity="1" stroke-linejoin="round" stroke-miterlimit="10" stroke-width="3"/><path fill="none" stroke="rgb(0,0,0)" paint-order="fill stroke markers" d=" M 266.6666666666667 220.5 L 266.6666666666667 179.5" stroke-opacity="1" stroke-linejoin="round" stroke-miterlimit="10" stroke-width="3"/><path fill="none" stroke="rgb(0,0,0)" paint-order="fill stroke markers" d=" M 340.5 160 L 300.1666666666667 160" stroke-opacity="1" stroke-linejoin="round" stroke-miterlimit="10" stroke-width="3"/><path fill="none" stroke="rgb(0,0,0)" paint-order="fill stroke markers" d=" M 367.5 179.5 L 299.1666666666667 220.5" stroke-opacity="1" stroke-linejoin="round" stroke-miterlimit="10" stroke-width="3"/><path fill="none" stroke="rgb(0,0,0)" paint-order="fill stroke markers" d=" M 367.5 140.5 L 299.1666666666667 99.5" stroke-opacity="1" stroke-linejoin="round" stroke-miterlimit="10" stroke-width="3"/><path fill="none" stroke="rgb(0,0,0)" paint-order="fill stroke markers" d=" M 266.6666666666667 99.5 L 266.6666666666667 140.5" stroke-opacity="1" stroke-linejoin="round" stroke-miterlimit="10" stroke-width="3"/><path fill="none" stroke="rgb(0,0,0)" paint-order="fill stroke markers" d=" M 234.16666666666669 99.5 L 165.80967662482325 140.51419402510606" stroke-opacity="1" stroke-linejoin="round" stroke-miterlimit="10" stroke-width="3"/><path fill="none" stroke="rgb(0,0,0)" paint-order="fill stroke markers" d=" M 432.5 140.5 L 487.6473342232771 107.41159946603378" stroke-opacity="1" stroke-linejoin="round" stroke-miterlimit="10" stroke-width="3"/><path fill="none" stroke="rgb(0,0,0)" paint-order="fill stroke markers" d=" M 533.3333333333334 140.5 L 533.3333333333334 107.5" stroke-opacity="1" stroke-linejoin="round" stroke-miterlimit="10" stroke-width="3"/><path fill="none" stroke="rgb(0,0,0)" paint-order="fill stroke markers" d=" M 490.83333333333337 160 L 459.5 160" stroke-opacity="1" stroke-linejoin="round" stroke-miterlimit="10" stroke-width="3"/><path fill="none" stroke="rgb(0,0,0)" paint-order="fill stroke markers" d=" M 506.0065332041514 223.60391992249086 L 432.5 179.5" stroke-opacity="1" stroke-linejoin="round" stroke-miterlimit="10" stroke-width="3"/><path fill="rgb(217,125,125)" stroke="rgb(0,0,0)" paint-order="fill stroke markers" d=" M 133.33333333333334 142 L 163.83333333333334 142 L 163.83333333333334 142 A 8 8 0 0 1 171.83333333333334 150 L 171.83333333333334 170 L 171.83333333333334 170 A 8 8 0 0 1 163.83333333333334 178 L 102.83333333333334 178 L 102.83333333333334 178 A 8 8 0 0 1 94.83333333333334 170 L 94.83333333333334 150 L 94.83333333333334 150 A 8 8 0 0 1 102.83333333333334 142 L 133.33333333333334 142 Z" fill-opacity="1" stroke-opacity="1" stroke-miterlimit="10" stroke-width="3"/><text fill="rgb(0,0,0)" stroke="none" font-family="arial" font-size="16px" font-style="normal" font-weight="bold" text-decoration="normal" x="133.33333333333334" y="168" text-anchor="middle" dominant-baseline="text-after-edge" fill-opacity="1">Groups</text><path fill="rgb(217,125,125)" stroke="rgb(0,0,0)" paint-order="fill stroke markers" d=" M 266.6666666666667 142 L 290.6666666666667 142 L 290.6666666666667 142 A 8 8 0 0 1 298.6666666666667 150 L 298.6666666666667 170 L 298.6666666666667 170 A 8 8 0 0 1 290.6666666666667 178 L 242.66666666666669 178 L 242.66666666666669 178 A 8 8 0 0 1 234.66666666666669 170 L 234.66666666666669 150 L 234.66666666666669 150 A 8 8 0 0 1 242.66666666666669 142 L 266.6666666666667 142 Z" fill-opacity="1" stroke-opacity="1" stroke-miterlimit="10" stroke-width="3"/><text fill="rgb(0,0,0)" stroke="none" font-family="arial" font-size="16px" font-style="normal" font-weight="bold" text-decoration="normal" x="266.6666666666667" y="168" text-anchor="middle" dominant-baseline="text-after-edge" fill-opacity="1">Users</text><path fill="rgb(217,125,125)" stroke="rgb(0,0,0)" paint-order="fill stroke markers" d=" M 400 142 L 450 142 L 450 142 A 8 8 0 0 1 458 150 L 458 170 L 458 170 A 8 8 0 0 1 450 178 L 350 178 L 350 178 A 8 8 0 0 1 342 170 L 342 150 L 342 150 A 8 8 0 0 1 350 142 L 400 142 Z" fill-opacity="1" stroke-opacity="1" stroke-miterlimit="10" stroke-width="3"/><text fill="rgb(0,0,0)" stroke="none" font-family="arial" font-size="16px" font-style="normal" font-weight="bold" text-decoration="normal" x="400" y="168" text-anchor="middle" dominant-baseline="text-after-edge" fill-opacity="1">Experiments</text><path fill="rgb(217,125,125)" stroke="rgb(0,0,0)" paint-order="fill stroke markers" d=" M 266.6666666666667 222 L 316.1666666666667 222 L 316.1666666666667 222 A 8 8 0 0 1 324.1666666666667 230 L 324.1666666666667 250 L 324.1666666666667 250 A 8 8 0 0 1 316.1666666666667 258 L 217.16666666666669 258 L 217.16666666666669 258 A 8 8 0 0 1 209.16666666666669 250 L 209.16666666666669 230 L 209.16666666666669 230 A 8 8 0 0 1 217.16666666666669 222 L 266.6666666666667 222 Z" fill-opacity="1" stroke-opacity="1" stroke-miterlimit="10" stroke-width="3"/><text fill="rgb(0,0,0)" stroke="none" font-family="arial" font-size="16px" font-style="normal" font-weight="bold" text-decoration="normal" x="266.6666666666667" y="248" text-anchor="middle" dominant-baseline="text-after-edge" fill-opacity="1">Publications</text><path fill="rgb(217,125,125)" stroke="rgb(0,0,0)" paint-order="fill stroke markers" d=" M 266.6666666666667 62 L 311.6666666666667 62 L 311.6666666666667 62 A 8 8 0 0 1 319.6666666666667 70 L 319.6666666666667 90 L 319.6666666666667 90 A 8 8 0 0 1 311.6666666666667 98 L 221.66666666666669 98 L 221.66666666666669 98 A 8 8 0 0 1 213.66666666666669 90 L 213.66666666666669 70 L 213.66666666666669 70 A 8 8 0 0 1 221.66666666666669 62 L 266.6666666666667 62 Z" fill-opacity="1" stroke-opacity="1" stroke-miterlimit="10" stroke-width="3"/><text fill="rgb(0,0,0)" stroke="none" font-family="arial" font-size="16px" font-style="normal" font-weight="bold" text-decoration="normal" x="266.6666666666667" y="88" text-anchor="middle" dominant-baseline="text-after-edge" fill-opacity="1">Collections</text><path fill="rgb(217,125,125)" stroke="rgb(0,0,0)" paint-order="fill stroke markers" d=" M 533.3333333333334 54 L 576.3333333333334 54 L 576.3333333333334 54 A 8 8 0 0 1 584.3333333333334 62 L 584.3333333333334 98 L 584.3333333333334 98 A 8 8 0 0 1 576.3333333333334 106 L 490.33333333333337 106 L 490.33333333333337 106 A 8 8 0 0 1 482.33333333333337 98 L 482.33333333333337 62 L 482.33333333333337 62 A 8 8 0 0 1 490.33333333333337 54 L 533.3333333333334 54 Z" fill-opacity="1" stroke-opacity="1" stroke-miterlimit="10" stroke-width="3"/><text fill="rgb(0,0,0)" stroke="none" font-family="arial" font-size="16px" font-style="normal" font-weight="bold" text-decoration="normal" x="533.3333333333334" y="80" text-anchor="middle" dominant-baseline="text-after-edge" fill-opacity="1">Materials</text><text fill="rgb(0,0,0)" stroke="none" font-family="arial" font-size="16px" font-style="normal" font-weight="bold" text-decoration="normal" x="533.3333333333334" y="96" text-anchor="middle" dominant-baseline="text-after-edge" fill-opacity="1">(polymers)</text><path fill="rgb(217,125,125)" stroke="rgb(0,0,0)" paint-order="fill stroke markers" d=" M 626.6666666666666 54 L 663.1666666666666 54 L 663.1666666666666 54 A 8 8 0 0 1 671.1666666666666 62 L 671.1666666666666 98 L 671.1666666666666 98 A 8 8 0 0 1 663.1666666666666 106 L 590.1666666666666 106 L 590.1666666666666 106 A 8 8 0 0 1 582.1666666666666 98 L 582.1666666666666 62 L 582.1666666666666 62 A 8 8 0 0 1 590.1666666666666 54 L 626.6666666666666 54 Z" fill-opacity="1" stroke-opacity="1" stroke-miterlimit="10" stroke-width="3"/><text fill="rgb(0,0,0)" stroke="none" font-family="arial" font-size="16px" font-style="normal" font-weight="bold" text-decoration="normal" x="626.6666666666666" y="80" text-anchor="middle" dominant-baseline="text-after-edge" fill-opacity="1">Materials</text><text fill="rgb(0,0,0)" stroke="none" font-family="arial" font-size="16px" font-style="normal" font-weight="bold" text-decoration="normal" x="626.6666666666666" y="96" text-anchor="middle" dominant-baseline="text-after-edge" fill-opacity="1">(other)</text><path fill="rgb(217,125,125)" stroke="rgb(0,0,0)" paint-order="fill stroke markers" d=" M 533.3333333333334 142 L 566.3333333333334 142 L 566.3333333333334 142 A 8 8 0 0 1 574.3333333333334 150 L 574.3333333333334 170 L 574.3333333333334 170 A 8 8 0 0 1 566.3333333333334 178 L 500.33333333333337 178 L 500.33333333333337 178 A 8 8 0 0 1 492.33333333333337 170 L 492.33333333333337 150 L 492.33333333333337 150 A 8 8 0 0 1 500.33333333333337 142 L 533.3333333333334 142 Z" fill-opacity="1" stroke-opacity="1" stroke-miterlimit="10" stroke-width="3"/><text fill="rgb(0,0,0)" stroke="none" font-family="arial" font-size="16px" font-style="normal" font-weight="bold" text-decoration="normal" x="533.3333333333334" y="168" text-anchor="middle" dominant-baseline="text-after-edge" fill-opacity="1">Process</text><path fill="rgb(217,125,125)" stroke="rgb(0,0,0)" paint-order="fill stroke markers" d=" M 533.3333333333334 222 L 552.8333333333334 222 L 552.8333333333334 222 A 8 8 0 0 1 560.8333333333334 230 L 560.8333333333334 250 L 560.8333333333334 250 A 8 8 0 0 1 552.8333333333334 258 L 513.8333333333334 258 L 513.8333333333334 258 A 8 8 0 0 1 505.83333333333337 250 L 505.83333333333337 230 L 505.83333333333337 230 A 8 8 0 0 1 513.8333333333334 222 L 533.3333333333334 222 Z" fill-opacity="1" stroke-opacity="1" stroke-miterlimit="10" stroke-width="3"/><text fill="rgb(0,0,0)" stroke="none" font-family="arial" font-size="16px" font-style="normal" font-weight="bold" text-decoration="normal" x="533.3333333333334" y="248" text-anchor="middle" dominant-baseline="text-after-edge" fill-opacity="1">Data</text><path fill="rgb(217,125,125)" stroke="rgb(0,0,0)" paint-order="fill stroke markers" d=" M 533.3333333333334 302 L 567.8333333333334 302 L 567.8333333333334 302 A 8 8 0 0 1 575.8333333333334 310 L 575.8333333333334 330 L 575.8333333333334 330 A 8 8 0 0 1 567.8333333333334 338 L 498.83333333333337 338 L 498.83333333333337 338 A 8 8 0 0 1 490.83333333333337 330 L 490.83333333333337 310 L 490.83333333333337 310 A 8 8 0 0 1 498.83333333333337 302 L 533.3333333333334 302 Z" fill-opacity="1" stroke-opacity="1" stroke-miterlimit="10" stroke-width="3"/><text fill="rgb(0,0,0)" stroke="none" font-family="arial" font-size="16px" font-style="normal" font-weight="bold" text-decoration="normal" x="533.3333333333334" y="328" text-anchor="middle" dominant-baseline="text-after-edge" fill-opacity="1">Modules</text><path fill="rgb(217,125,125)" stroke="rgb(0,0,0)" paint-order="fill stroke markers" d=" M 666.6666666666666 222 L 706.6666666666666 222 L 706.6666666666666 222 A 8 8 0 0 1 714.6666666666666 230 L 714.6666666666666 250 L 714.6666666666666 250 A 8 8 0 0 1 706.6666666666666 258 L 626.6666666666666 258 L 626.6666666666666 258 A 8 8 0 0 1 618.6666666666666 250 L 618.6666666666666 230 L 618.6666666666666 230 A 8 8 0 0 1 626.6666666666666 222 L 666.6666666666666 222 Z" fill-opacity="1" stroke-opacity="1" stroke-miterlimit="10" stroke-width="3"/><text fill="rgb(0,0,0)" stroke="none" font-family="arial" font-size="16px" font-style="normal" font-weight="bold" text-decoration="normal" x="666.6666666666666" y="248" text-anchor="middle" dominant-baseline="text-after-edge" fill-opacity="1">Date Lake</text><path fill="rgb(217,125,125)" stroke="rgb(0,0,0)" paint-order="fill stroke markers" d=" M 333.3333333333333 302 L 394.8333333333333 302 L 394.8333333333333 302 A 8 8 0 0 1 402.8333333333333 310 L 402.8333333333333 330 L 402.8333333333333 330 A 8 8 0 0 1 394.8333333333333 338 L 271.8333333333333 338 L 271.8333333333333 338 A 8 8 0 0 1 263.8333333333333 330 L 263.8333333333333 310 L 263.8333333333333 310 A 8 8 0 0 1 271.8333333333333 302 L 333.3333333333333 302 Z" fill-opacity="1" stroke-opacity="1" stroke-miterlimit="10" stroke-width="3"/><text fill="rgb(0,0,0)" stroke="none" font-family="arial" font-size="16px" font-style="normal" font-weight="bold" text-decoration="normal" x="333.3333333333333" y="328" text-anchor="middle" dominant-baseline="text-after-edge" fill-opacity="1">Version Control</text><g transform="scale(0.85,0.85) translate(76.1764705882353,30.588235294117652)"/></g></svg>