<svg version="1.1" xmlns="http://www.w3.org/2000/svg" xmlns:xlink="http://www.w3.org/1999/xlink" width="2000" height="1000"><defs/><g transform="translate(2.1180030257185933,-60.022692889561284) scale(2.5718608169440245,2.5718608169440245)"><path fill="rgb(128,128,128)" stroke="rgb(0,0,0)" paint-order="fill stroke markers" d=" M 200 69.5 L 246 69.5 L 246 69.5 A 8 8 0 0 1 254 77.5 L 254 122.5 L 254 122.5 A 8 8 0 0 1 246 130.5 L 154 130.5 L 154 130.5 A 8 8 0 0 1 146 122.5 L 146 77.5 L 146 77.5 A 8 8 0 0 1 154 69.5 L 200 69.5 Z" fill-opacity="1" stroke-opacity="1" stroke-miterlimit="10" stroke-width="3"/><text fill="rgb(0,0,0)" stroke="none" font-family="arial" font-size="16px" font-style="normal" font-weight="bold" text-decoration="normal" x="200" y="69.5" text-anchor="middle" dominant-baseline="text-after-edge" fill-opacity="1">users</text><path fill="rgb(128,128,128)" stroke="rgb(0,0,0)" paint-order="fill stroke markers" d=" M 600 69.5 L 668 69.5 L 668 69.5 A 8 8 0 0 1 676 77.5 L 676 122.5 L 676 122.5 A 8 8 0 0 1 668 130.5 L 532 130.5 L 532 130.5 A 8 8 0 0 1 524 122.5 L 524 77.5 L 524 77.5 A 8 8 0 0 1 532 69.5 L 600 69.5 Z" fill-opacity="1" stroke-opacity="1" stroke-miterlimit="10" stroke-width="3"/><text fill="rgb(0,0,0)" stroke="none" font-family="arial" font-size="16px" font-style="normal" font-weight="bold" text-decoration="normal" x="600" y="69.5" text-anchor="middle" dominant-baseline="text-after-edge" fill-opacity="1">experiment</text><path fill="rgb(128,128,128)" stroke="rgb(0,0,0)" paint-order="fill stroke markers" d=" M 133.33333333333334 169.5 L 199.83333333333334 169.5 L 199.83333333333334 169.5 A 8 8 0 0 1 207.83333333333334 177.5 L 207.83333333333334 372.5 L 207.83333333333334 372.5 A 8 8 0 0 1 199.83333333333334 380.5 L 66.83333333333334 380.5 L 66.83333333333334 380.5 A 8 8 0 0 1 58.83333333333334 372.5 L 58.83333333333334 177.5 L 58.83333333333334 177.5 A 8 8 0 0 1 66.83333333333334 169.5 L 133.33333333333334 169.5 Z" fill-opacity="1" stroke-opacity="1" stroke-miterlimit="10" stroke-width="3"/><text fill="rgb(0,0,0)" stroke="none" font-family="arial" font-size="16px" font-style="normal" font-weight="bold" text-decoration="normal" x="133.33333333333334" y="169.5" text-anchor="middle" dominant-baseline="text-after-edge" fill-opacity="1">identity</text><path fill="rgb(128,128,128)" stroke="rgb(0,0,0)" paint-order="fill stroke markers" d=" M 666.6666666666666 169.5 L 709.1666666666666 169.5 L 709.1666666666666 169.5 A 8 8 0 0 1 717.1666666666666 177.5 L 717.1666666666666 372.5 L 717.1666666666666 372.5 A 8 8 0 0 1 709.1666666666666 380.5 L 624.1666666666666 380.5 L 624.1666666666666 380.5 A 8 8 0 0 1 616.1666666666666 372.5 L 616.1666666666666 177.5 L 616.1666666666666 177.5 A 8 8 0 0 1 624.1666666666666 169.5 L 666.6666666666666 169.5 Z" fill-opacity="1" stroke-opacity="1" stroke-miterlimit="10" stroke-width="3"/><text fill="rgb(0,0,0)" stroke="none" font-family="arial" font-size="16px" font-style="normal" font-weight="bold" text-decoration="normal" x="666.6666666666666" y="169.5" text-anchor="middle" dominant-baseline="text-after-edge" fill-opacity="1">properties</text><path fill="rgb(128,128,128)" stroke="rgb(0,0,0)" paint-order="fill stroke markers" d=" M 330 319.5 L 398 319.5 L 398 319.5 A 8 8 0 0 1 406 327.5 L 406 372.5 L 406 372.5 A 8 8 0 0 1 398 380.5 L 262 380.5 L 262 380.5 A 8 8 0 0 1 254 372.5 L 254 327.5 L 254 327.5 A 8 8 0 0 1 262 319.5 L 330 319.5 Z" fill-opacity="1" stroke-opacity="1" stroke-miterlimit="10" stroke-width="3"/><text fill="rgb(0,0,0)" stroke="none" font-family="arial" font-size="16px" font-style="normal" font-weight="bold" text-decoration="normal" x="330" y="319.5" text-anchor="middle" dominant-baseline="text-after-edge" fill-opacity="1">process</text><path fill="rgb(128,128,128)" stroke="rgb(0,0,0)" paint-order="fill stroke markers" d=" M 470 319.5 L 504 319.5 L 504 319.5 A 8 8 0 0 1 512 327.5 L 512 372.5 L 512 372.5 A 8 8 0 0 1 504 380.5 L 436 380.5 L 436 380.5 A 8 8 0 0 1 428 372.5 L 428 327.5 L 428 327.5 A 8 8 0 0 1 436 319.5 L 470 319.5 Z" fill-opacity="1" stroke-opacity="1" stroke-miterlimit="10" stroke-width="3"/><text fill="rgb(0,0,0)" stroke="none" font-family="arial" font-size="16px" font-style="normal" font-weight="bold" text-decoration="normal" x="470" y="319.5" text-anchor="middle" dominant-baseline="text-after-edge" fill-opacity="1">attribute</text><path fill="none" stroke="rgb(0,0,0)" paint-order="fill stroke markers" d=" M 360 211.25 L 209.33333333333334 253.625" stroke-opacity="1" stroke-linejoin="round" stroke-miterlimit="10" stroke-width="3"/><path fill="none" stroke="rgb(0,0,0)" paint-order="fill stroke markers" d=" M 363.6161500665039 181.80807503325195 L 254.75262189689906 127.37631094844953" stroke-opacity="1" stroke-linejoin="round" stroke-miterlimit="10" stroke-width="3"/><path fill="none" stroke="rgb(0,0,0)" paint-order="fill stroke markers" d=" M 440 211.25 L 614.6666666666666 260.375" stroke-opacity="1" stroke-linejoin="round" stroke-miterlimit="10" stroke-width="3"/><path fill="none" stroke="rgb(0,0,0)" paint-order="fill stroke markers" d=" M 390.9 219.5 L 344.93333333333334 318" stroke-opacity="1" stroke-linejoin="round" stroke-miterlimit="10" stroke-width="3"/><path fill="none" stroke="rgb(0,0,0)" paint-order="fill stroke markers" d=" M 409.1 219.5 L 455.06666666666666 318" stroke-opacity="1" stroke-linejoin="round" stroke-miterlimit="10" stroke-width="3"/><path fill="none" stroke="rgb(0,0,0)" paint-order="fill stroke markers" d=" M 436.3838499334961 181.80807503325195 L 536 132" stroke-opacity="1" stroke-linejoin="round" stroke-miterlimit="10" stroke-width="3"/><path fill="rgb(217,125,125)" stroke="rgb(0,0,0)" paint-order="fill stroke markers" d=" M 400 182 L 430.5 182 L 430.5 182 A 8 8 0 0 1 438.5 190 L 438.5 210 L 438.5 210 A 8 8 0 0 1 430.5 218 L 369.5 218 L 369.5 218 A 8 8 0 0 1 361.5 210 L 361.5 190 L 361.5 190 A 8 8 0 0 1 369.5 182 L 400 182 Z" fill-opacity="1" stroke-opacity="1" stroke-miterlimit="10" stroke-width="3"/><text fill="rgb(0,0,0)" stroke="none" font-family="arial" font-size="16px" font-style="normal" font-weight="bold" text-decoration="normal" x="400" y="208" text-anchor="middle" dominant-baseline="text-after-edge" fill-opacity="1">styrene</text><path fill="rgb(217,125,125)" stroke="rgb(0,0,0)" paint-order="fill stroke markers" d=" M 200 82 L 233.5 82 L 233.5 82 A 8 8 0 0 1 241.5 90 L 241.5 110 L 241.5 110 A 8 8 0 0 1 233.5 118 L 166.5 118 L 166.5 118 A 8 8 0 0 1 158.5 110 L 158.5 90 L 158.5 90 A 8 8 0 0 1 166.5 82 L 200 82 Z" fill-opacity="1" stroke-opacity="1" stroke-miterlimit="10" stroke-width="3"/><text fill="rgb(0,0,0)" stroke="none" font-family="arial" font-size="16px" font-style="normal" font-weight="bold" text-decoration="normal" x="200" y="108" text-anchor="middle" dominant-baseline="text-after-edge" fill-opacity="1">Dylan W</text><path fill="rgb(217,125,125)" stroke="rgb(0,0,0)" paint-order="fill stroke markers" d=" M 600 82 L 655.5 82 L 655.5 82 A 8 8 0 0 1 663.5 90 L 663.5 110 L 663.5 110 A 8 8 0 0 1 655.5 118 L 544.5 118 L 544.5 118 A 8 8 0 0 1 536.5 110 L 536.5 90 L 536.5 90 A 8 8 0 0 1 544.5 82 L 600 82 Z" fill-opacity="1" stroke-opacity="1" stroke-miterlimit="10" stroke-width="3"/><text fill="rgb(0,0,0)" stroke="none" font-family="arial" font-size="16px" font-style="normal" font-weight="bold" text-decoration="normal" x="600" y="108" text-anchor="middle" dominant-baseline="text-after-edge" fill-opacity="1">anionic polym</text><path fill="rgb(217,125,125)" stroke="rgb(0,0,0)" paint-order="fill stroke markers" d=" M 133.33333333333334 182 L 185.33333333333334 182 L 185.33333333333334 182 A 8 8 0 0 1 193.33333333333334 190 L 193.33333333333334 210 L 193.33333333333334 210 A 8 8 0 0 1 185.33333333333334 218 L 81.33333333333334 218 L 81.33333333333334 218 A 8 8 0 0 1 73.33333333333334 210 L 73.33333333333334 190 L 73.33333333333334 190 A 8 8 0 0 1 81.33333333333334 182 L 133.33333333333334 182 Z" fill-opacity="1" stroke-opacity="1" stroke-miterlimit="10" stroke-width="3"/><text fill="rgb(0,0,0)" stroke="none" font-family="arial" font-size="16px" font-style="normal" font-weight="bold" text-decoration="normal" x="133.33333333333334" y="208" text-anchor="middle" dominant-baseline="text-after-edge" fill-opacity="1">vinylbenzene</text><path fill="rgb(217,125,125)" stroke="rgb(0,0,0)" paint-order="fill stroke markers" d=" M 133.33333333333334 232 L 167.33333333333334 232 L 167.33333333333334 232 A 8 8 0 0 1 175.33333333333334 240 L 175.33333333333334 260 L 175.33333333333334 260 A 8 8 0 0 1 167.33333333333334 268 L 99.33333333333334 268 L 99.33333333333334 268 A 8 8 0 0 1 91.33333333333334 260 L 91.33333333333334 240 L 91.33333333333334 240 A 8 8 0 0 1 99.33333333333334 232 L 133.33333333333334 232 Z" fill-opacity="1" stroke-opacity="1" stroke-miterlimit="10" stroke-width="3"/><text fill="rgb(0,0,0)" stroke="none" font-family="arial" font-size="16px" font-style="normal" font-weight="bold" text-decoration="normal" x="133.33333333333334" y="258" text-anchor="middle" dominant-baseline="text-after-edge" fill-opacity="1">100-42-5</text><path fill="rgb(217,125,125)" stroke="rgb(0,0,0)" paint-order="fill stroke markers" d=" M 133.33333333333334 282 L 187.33333333333334 282 L 187.33333333333334 282 A 8 8 0 0 1 195.33333333333334 290 L 195.33333333333334 310 L 195.33333333333334 310 A 8 8 0 0 1 187.33333333333334 318 L 79.33333333333334 318 L 79.33333333333334 318 A 8 8 0 0 1 71.33333333333334 310 L 71.33333333333334 290 L 71.33333333333334 290 A 8 8 0 0 1 79.33333333333334 282 L 133.33333333333334 282 Z" fill-opacity="1" stroke-opacity="1" stroke-miterlimit="10" stroke-width="3"/><text fill="rgb(0,0,0)" stroke="none" font-family="arial" font-size="16px" font-style="normal" font-weight="bold" text-decoration="normal" x="133.33333333333334" y="308" text-anchor="middle" dominant-baseline="text-after-edge" fill-opacity="1">C=Cc1ccccc1</text><path fill="rgb(217,125,125)" stroke="rgb(0,0,0)" paint-order="fill stroke markers" d=" M 133.33333333333334 332 L 155.83333333333334 332 L 155.83333333333334 332 A 8 8 0 0 1 163.83333333333334 340 L 163.83333333333334 360 L 163.83333333333334 360 A 8 8 0 0 1 155.83333333333334 368 L 110.83333333333334 368 L 110.83333333333334 368 A 8 8 0 0 1 102.83333333333334 360 L 102.83333333333334 340 L 102.83333333333334 340 A 8 8 0 0 1 110.83333333333334 332 L 133.33333333333334 332 Z" fill-opacity="1" stroke-opacity="1" stroke-miterlimit="10" stroke-width="3"/><text fill="rgb(0,0,0)" stroke="none" font-family="arial" font-size="16px" font-style="normal" font-weight="bold" text-decoration="normal" x="133.33333333333334" y="358" text-anchor="middle" dominant-baseline="text-after-edge" fill-opacity="1">C8H8</text><path fill="rgb(217,125,125)" stroke="rgb(0,0,0)" paint-order="fill stroke markers" d=" M 666.6666666666666 182 L 681.6666666666666 182 L 681.6666666666666 182 A 8 8 0 0 1 689.6666666666666 190 L 689.6666666666666 210 L 689.6666666666666 210 A 8 8 0 0 1 681.6666666666666 218 L 651.6666666666666 218 L 651.6666666666666 218 A 8 8 0 0 1 643.6666666666666 210 L 643.6666666666666 190 L 643.6666666666666 190 A 8 8 0 0 1 651.6666666666666 182 L 666.6666666666666 182 Z" fill-opacity="1" stroke-opacity="1" stroke-miterlimit="10" stroke-width="3"/><text fill="rgb(0,0,0)" stroke="none" font-family="arial" font-size="16px" font-style="normal" font-weight="bold" text-decoration="normal" x="666.6666666666666" y="208" text-anchor="middle" dominant-baseline="text-after-edge" fill-opacity="1">mw</text><path fill="rgb(217,125,125)" stroke="rgb(0,0,0)" paint-order="fill stroke markers" d=" M 666.6666666666666 232 L 696.6666666666666 232 L 696.6666666666666 232 A 8 8 0 0 1 704.6666666666666 240 L 704.6666666666666 260 L 704.6666666666666 260 A 8 8 0 0 1 696.6666666666666 268 L 636.6666666666666 268 L 636.6666666666666 268 A 8 8 0 0 1 628.6666666666666 260 L 628.6666666666666 240 L 628.6666666666666 240 A 8 8 0 0 1 636.6666666666666 232 L 666.6666666666666 232 Z" fill-opacity="1" stroke-opacity="1" stroke-miterlimit="10" stroke-width="3"/><text fill="rgb(0,0,0)" stroke="none" font-family="arial" font-size="16px" font-style="normal" font-weight="bold" text-decoration="normal" x="666.6666666666666" y="258" text-anchor="middle" dominant-baseline="text-after-edge" fill-opacity="1">density</text><path fill="rgb(217,125,125)" stroke="rgb(0,0,0)" paint-order="fill stroke markers" d=" M 666.6666666666666 282 L 678.1666666666666 282 L 678.1666666666666 282 A 8 8 0 0 1 686.1666666666666 290 L 686.1666666666666 310 L 686.1666666666666 310 A 8 8 0 0 1 678.1666666666666 318 L 655.1666666666666 318 L 655.1666666666666 318 A 8 8 0 0 1 647.1666666666666 310 L 647.1666666666666 290 L 647.1666666666666 290 A 8 8 0 0 1 655.1666666666666 282 L 666.6666666666666 282 Z" fill-opacity="1" stroke-opacity="1" stroke-miterlimit="10" stroke-width="3"/><text fill="rgb(0,0,0)" stroke="none" font-family="arial" font-size="16px" font-style="normal" font-weight="bold" text-decoration="normal" x="666.6666666666666" y="308" text-anchor="middle" dominant-baseline="text-after-edge" fill-opacity="1">bp</text><path fill="rgb(217,125,125)" stroke="rgb(0,0,0)" paint-order="fill stroke markers" d=" M 666.6666666666666 332 L 691.1666666666666 332 L 691.1666666666666 332 A 8 8 0 0 1 699.1666666666666 340 L 699.1666666666666 360 L 699.1666666666666 360 A 8 8 0 0 1 691.1666666666666 368 L 642.1666666666666 368 L 642.1666666666666 368 A 8 8 0 0 1 634.1666666666666 360 L 634.1666666666666 340 L 634.1666666666666 340 A 8 8 0 0 1 642.1666666666666 332 L 666.6666666666666 332 Z" fill-opacity="1" stroke-opacity="1" stroke-miterlimit="10" stroke-width="3"/><text fill="rgb(0,0,0)" stroke="none" font-family="arial" font-size="16px" font-style="normal" font-weight="bold" text-decoration="normal" x="666.6666666666666" y="358" text-anchor="middle" dominant-baseline="text-after-edge" fill-opacity="1">d_sec</text><path fill="rgb(217,125,125)" stroke="rgb(0,0,0)" paint-order="fill stroke markers" d=" M 330 332 L 385.5 332 L 385.5 332 A 8 8 0 0 1 393.5 340 L 393.5 360 L 393.5 360 A 8 8 0 0 1 385.5 368 L 274.5 368 L 274.5 368 A 8 8 0 0 1 266.5 360 L 266.5 340 L 266.5 340 A 8 8 0 0 1 274.5 332 L 330 332 Z" fill-opacity="1" stroke-opacity="1" stroke-miterlimit="10" stroke-width="3"/><text fill="rgb(0,0,0)" stroke="none" font-family="arial" font-size="16px" font-style="normal" font-weight="bold" text-decoration="normal" x="330" y="358" text-anchor="middle" dominant-baseline="text-after-edge" fill-opacity="1">anionic polym</text><path fill="rgb(217,125,125)" stroke="rgb(0,0,0)" paint-order="fill stroke markers" d=" M 470 332 L 491.5 332 L 491.5 332 A 8 8 0 0 1 499.5 340 L 499.5 360 L 499.5 360 A 8 8 0 0 1 491.5 368 L 448.5 368 L 448.5 368 A 8 8 0 0 1 440.5 360 L 440.5 340 L 440.5 340 A 8 8 0 0 1 448.5 332 L 470 332 Z" fill-opacity="1" stroke-opacity="1" stroke-miterlimit="10" stroke-width="3"/><text fill="rgb(0,0,0)" stroke="none" font-family="arial" font-size="16px" font-style="normal" font-weight="bold" text-decoration="normal" x="470" y="358" text-anchor="middle" dominant-baseline="text-after-edge" fill-opacity="1">store</text><g transform="scale(0.3888235294117647,0.3888235294117647) translate(-2.1180030257185933,60.022692889561284)"/></g></svg>