<svg version="1.1" xmlns="http://www.w3.org/2000/svg" xmlns:xlink="http://www.w3.org/1999/xlink" width="800" height="400"><defs/><g transform="translate(-28.63034241439641,-17.50562359410148) scale(1.1097225693576607,1.1097225693576607)"><path fill="rgb(158,149,144)" stroke="rgb(0,0,0)" paint-order="fill stroke markers" d=" M 666.6666666666666 129.5 L 697.6666666666666 129.5 L 697.6666666666666 129.5 A 8 8 0 0 1 705.6666666666666 137.5 L 705.6666666666666 262.5 L 705.6666666666666 262.5 A 8 8 0 0 1 697.6666666666666 270.5 L 635.6666666666666 270.5 L 635.6666666666666 270.5 A 8 8 0 0 1 627.6666666666666 262.5 L 627.6666666666666 137.5 L 627.6666666666666 137.5 A 8 8 0 0 1 635.6666666666666 129.5 L 666.6666666666666 129.5 Z" fill-opacity="1" stroke-opacity="1" stroke-miterlimit="10" stroke-width="3"/><text fill="rgb(0,0,0)" stroke="none" font-family="arial" font-size="16px" font-style="normal" font-weight="bold" text-decoration="normal" x="666.6666666666666" y="129.5" text-anchor="middle" dominant-baseline="text-after-edge" fill-opacity="1">material node</text><path fill="none" stroke="rgb(0,0,0)" paint-order="fill stroke markers" d=" M 198.5463588007682 242.02170911239142 L 149.83333333333334 160.83333333333334" stroke-opacity="1" stroke-linejoin="round" stroke-miterlimit="10" stroke-width="3"/><path fill="rgb(0,0,0)" stroke="none" paint-order="stroke fill markers" d=" M 193.4271260342643 241.9445347490773 L 201.63333333333333 247.16666666666669 L 200.8873144879634 237.46842167685782 Z" fill-opacity="1"/><path fill="none" stroke="rgb(0,0,0)" paint-order="fill stroke markers" d=" M 356.6175991727596 164.32076249564795 L 240.63333333333333 247.16666666666669" stroke-opacity="1" stroke-linejoin="round" stroke-miterlimit="10" stroke-width="3"/><path fill="rgb(0,0,0)" stroke="none" paint-order="stroke fill markers" d=" M 356.94890494317946 169.4298462184388 L 361.5 160.83333333333337 L 351.8921326578233 162.3503650189402 Z" fill-opacity="1"/><path fill="none" stroke="rgb(0,0,0)" paint-order="fill stroke markers" d=" M 454.2333850936669 241.8001035206672 L 413.75 160.83333333333337" stroke-opacity="1" stroke-linejoin="round" stroke-miterlimit="10" stroke-width="3"/><path fill="rgb(0,0,0)" stroke="none" paint-order="stroke fill markers" d=" M 449.1351501049674 241.33052924539223 L 456.9166666666667 247.16666666666669 L 456.9166666666667 237.4397709645426 Z" fill-opacity="1"/><path fill="none" stroke="rgb(0,0,0)" paint-order="fill stroke markers" d=" M 620.4745668783636 215.39736659610102 L 525.1666666666666 247.16666666666669" stroke-opacity="1" stroke-linejoin="round" stroke-miterlimit="10" stroke-width="3"/><path fill="rgb(0,0,0)" stroke="none" paint-order="stroke fill markers" d=" M 619.2887127558004 220.37795391086624 L 626.1666666666666 213.5 L 616.5375311914539 212.12440921782675 Z" fill-opacity="1"/><path fill="rgb(217,125,125)" stroke="rgb(0,0,0)" paint-order="fill stroke markers" d=" M 133.33333333333334 107.33333333333334 L 203.33333333333334 107.33333333333334 L 203.33333333333334 107.33333333333334 A 8 8 0 0 1 211.33333333333334 115.33333333333334 L 211.33333333333334 151.33333333333334 L 211.33333333333334 151.33333333333334 A 8 8 0 0 1 203.33333333333334 159.33333333333334 L 63.33333333333334 159.33333333333334 L 63.33333333333334 159.33333333333334 A 8 8 0 0 1 55.33333333333334 151.33333333333334 L 55.33333333333334 115.33333333333334 L 55.33333333333334 115.33333333333334 A 8 8 0 0 1 63.33333333333334 107.33333333333334 L 133.33333333333334 107.33333333333334 Z" fill-opacity="1" stroke-opacity="1" stroke-miterlimit="10" stroke-width="3"/><text fill="rgb(0,0,0)" stroke="none" font-family="arial" font-size="16px" font-style="normal" font-weight="bold" text-decoration="normal" x="133.33333333333334" y="133.33333333333334" text-anchor="middle" dominant-baseline="text-after-edge" fill-opacity="1">raw data from sec</text><text fill="rgb(0,0,0)" stroke="none" font-family="arial" font-size="16px" font-style="normal" font-weight="bold" text-decoration="normal" x="133.33333333333334" y="149.33333333333334" text-anchor="middle" dominant-baseline="text-after-edge" fill-opacity="1"> signal vs. time</text><path fill="rgb(158,149,144)" stroke="rgb(0,0,0)" paint-order="fill stroke markers" d=" M 213.33333333333334 248.66666666666669 L 297.33333333333337 248.66666666666669 L 297.33333333333337 248.66666666666669 A 8 8 0 0 1 305.33333333333337 256.6666666666667 L 305.33333333333337 276.6666666666667 L 305.33333333333337 276.6666666666667 A 8 8 0 0 1 297.33333333333337 284.6666666666667 L 129.33333333333334 284.6666666666667 L 129.33333333333334 284.6666666666667 A 8 8 0 0 1 121.33333333333334 276.6666666666667 L 121.33333333333334 256.6666666666667 L 121.33333333333334 256.6666666666667 A 8 8 0 0 1 129.33333333333334 248.66666666666669 L 213.33333333333334 248.66666666666669 Z" fill-opacity="1" stroke-opacity="1" stroke-miterlimit="10" stroke-width="3"/><text fill="rgb(0,0,0)" stroke="none" font-family="arial" font-size="16px" font-style="normal" font-weight="bold" text-decoration="normal" x="213.33333333333334" y="274.6666666666667" text-anchor="middle" dominant-baseline="text-after-edge" fill-opacity="1">sec raw data analysis</text><path fill="rgb(217,125,125)" stroke="rgb(0,0,0)" paint-order="fill stroke markers" d=" M 400 107.33333333333334 L 476.5 107.33333333333334 L 476.5 107.33333333333334 A 8 8 0 0 1 484.5 115.33333333333334 L 484.5 151.33333333333334 L 484.5 151.33333333333334 A 8 8 0 0 1 476.5 159.33333333333334 L 323.5 159.33333333333334 L 323.5 159.33333333333334 A 8 8 0 0 1 315.5 151.33333333333334 L 315.5 115.33333333333334 L 315.5 115.33333333333334 A 8 8 0 0 1 323.5 107.33333333333334 L 400 107.33333333333334 Z" fill-opacity="1" stroke-opacity="1" stroke-miterlimit="10" stroke-width="3"/><text fill="rgb(0,0,0)" stroke="none" font-family="arial" font-size="16px" font-style="normal" font-weight="bold" text-decoration="normal" x="400" y="133.33333333333334" text-anchor="middle" dominant-baseline="text-after-edge" fill-opacity="1">sec processed data</text><text fill="rgb(0,0,0)" stroke="none" font-family="arial" font-size="16px" font-style="normal" font-weight="bold" text-decoration="normal" x="400" y="149.33333333333334" text-anchor="middle" dominant-baseline="text-after-edge" fill-opacity="1">MW vs. population</text><path fill="rgb(158,149,144)" stroke="rgb(0,0,0)" paint-order="fill stroke markers" d=" M 466.6666666666667 248.66666666666669 L 560.6666666666667 248.66666666666669 L 560.6666666666667 248.66666666666669 A 8 8 0 0 1 568.6666666666667 256.6666666666667 L 568.6666666666667 276.6666666666667 L 568.6666666666667 276.6666666666667 A 8 8 0 0 1 560.6666666666667 284.6666666666667 L 372.6666666666667 284.6666666666667 L 372.6666666666667 284.6666666666667 A 8 8 0 0 1 364.6666666666667 276.6666666666667 L 364.6666666666667 256.6666666666667 L 364.6666666666667 256.6666666666667 A 8 8 0 0 1 372.6666666666667 248.66666666666669 L 466.6666666666667 248.66666666666669 Z" fill-opacity="1" stroke-opacity="1" stroke-miterlimit="10" stroke-width="3"/><text fill="rgb(0,0,0)" stroke="none" font-family="arial" font-size="16px" font-style="normal" font-weight="bold" text-decoration="normal" x="466.6666666666667" y="274.6666666666667" text-anchor="middle" dominant-baseline="text-after-edge" fill-opacity="1">sec property calculation</text><path fill="rgb(217,125,125)" stroke="rgb(0,0,0)" paint-order="fill stroke markers" d=" M 666.6666666666666 142 L 685.1666666666666 142 L 685.1666666666666 142 A 8 8 0 0 1 693.1666666666666 150 L 693.1666666666666 170 L 693.1666666666666 170 A 8 8 0 0 1 685.1666666666666 178 L 648.1666666666666 178 L 648.1666666666666 178 A 8 8 0 0 1 640.1666666666666 170 L 640.1666666666666 150 L 640.1666666666666 150 A 8 8 0 0 1 648.1666666666666 142 L 666.6666666666666 142 Z" fill-opacity="1" stroke-opacity="1" stroke-miterlimit="10" stroke-width="3"/><text fill="rgb(0,0,0)" stroke="none" font-family="arial" font-size="16px" font-style="normal" font-weight="bold" text-decoration="normal" x="666.6666666666666" y="168" text-anchor="middle" dominant-baseline="text-after-edge" fill-opacity="1">m_n</text><path fill="rgb(217,125,125)" stroke="rgb(0,0,0)" paint-order="fill stroke markers" d=" M 666.6666666666666 222 L 674.1666666666666 222 L 674.1666666666666 222 A 7.5 7.5 0 0 1 681.6666666666666 229.5 L 681.6666666666666 250.5 L 681.6666666666666 250.5 A 7.5 7.5 0 0 1 674.1666666666666 258 L 659.1666666666666 258 L 659.1666666666666 258 A 7.5 7.5 0 0 1 651.6666666666666 250.5 L 651.6666666666666 229.5 L 651.6666666666666 229.5 A 7.5 7.5 0 0 1 659.1666666666666 222 L 666.6666666666666 222 Z" fill-opacity="1" stroke-opacity="1" stroke-miterlimit="10" stroke-width="3"/><text fill="rgb(0,0,0)" stroke="none" font-family="arial" font-size="16px" font-style="normal" font-weight="bold" text-decoration="normal" x="666.6666666666666" y="248" text-anchor="middle" dominant-baseline="text-after-edge" fill-opacity="1">d</text><g transform="scale(0.9011261261261261,0.9011261261261261) translate(28.63034241439641,17.50562359410148)"/></g></svg>