<svg version="1.1" xmlns="http://www.w3.org/2000/svg" xmlns:xlink="http://www.w3.org/1999/xlink" width="800" height="400"><defs/><g transform="translate(-66.13879003558725,-41.9928825622776) scale(1.209964412811388,1.209964412811388)"><path fill="none" stroke="rgb(0,0,0)" paint-order="fill stroke markers" d=" M 289.2 176.89999999999998 L 186 99.5" stroke-opacity="1" stroke-linejoin="round" stroke-miterlimit="10" stroke-width="3"/><path fill="rgb(0,0,0)" stroke="none" paint-order="stroke fill markers" d=" M 284.43 178.76 L 294 180.5 L 289.65 171.8 Z" fill-opacity="1"/><path fill="none" stroke="rgb(0,0,0)" paint-order="fill stroke markers" d=" M 245.12978204382648 181.2824455109566 L 217.01144188707917 174.2528604717698" stroke-opacity="1" stroke-linejoin="round" stroke-miterlimit="10" stroke-width="3"/><path fill="rgb(0,0,0)" stroke="none" paint-order="stroke fill markers" d=" M 241.455367324526 184.84771919899072 L 250.95063704469845 182.7376592611746 L 243.5654272623421 176.40747944772633 Z" fill-opacity="1"/><path fill="none" stroke="rgb(0,0,0)" paint-order="fill stroke markers" d=" M 245.12978204382648 218.7175544890434 L 215.62921300383732 226.09269674904067" stroke-opacity="1" stroke-linejoin="round" stroke-miterlimit="10" stroke-width="3"/><path fill="rgb(0,0,0)" stroke="none" paint-order="stroke fill markers" d=" M 243.56542726234213 223.5925205522737 L 250.95063704469845 217.2623407388254 L 241.455367324526 215.1522808010093 Z" fill-opacity="1"/><path fill="none" stroke="rgb(0,0,0)" paint-order="fill stroke markers" d=" M 289.2 223.10000000000002 L 186 300.5" stroke-opacity="1" stroke-linejoin="round" stroke-miterlimit="10" stroke-width="3"/><path fill="rgb(0,0,0)" stroke="none" paint-order="stroke fill markers" d=" M 289.65 228.2 L 294 219.5 L 284.43 221.24 Z" fill-opacity="1"/><path fill="none" stroke="rgb(0,0,0)" paint-order="fill stroke markers" d=" M 484 200 L 391.5 200" stroke-opacity="1" stroke-linejoin="round" stroke-miterlimit="10" stroke-width="3"/><path fill="rgb(0,0,0)" stroke="none" paint-order="stroke fill markers" d=" M 481.3 204.35 L 490 200 L 481.3 195.65 Z" fill-opacity="1"/><path fill="none" stroke="rgb(0,0,0)" paint-order="fill stroke markers" d=" M 540.6518297146735 224.18521285665818 L 495.6 280.5" stroke-opacity="1" stroke-linejoin="round" stroke-miterlimit="10" stroke-width="3"/><path fill="rgb(0,0,0)" stroke="none" paint-order="stroke fill markers" d=" M 542.3619324073537 229.0109820990161 L 544.4 219.5 L 535.5683737651993 223.57613518529263 Z" fill-opacity="1"/><path fill="none" stroke="rgb(0,0,0)" paint-order="fill stroke markers" d=" M 579.3481702853265 224.18521285665818 L 624.4 280.5" stroke-opacity="1" stroke-linejoin="round" stroke-miterlimit="10" stroke-width="3"/><path fill="rgb(0,0,0)" stroke="none" paint-order="stroke fill markers" d=" M 584.4316262348007 223.57613518529263 L 575.6 219.5 L 577.6380675926463 229.0109820990161 Z" fill-opacity="1"/><path fill="rgb(255,0,0)" stroke="rgb(0,0,0)" paint-order="fill stroke markers" d=" M 160 62 L 206 62 L 206 62 A 8 8 0 0 1 214 70 L 214 90 L 214 90 A 8 8 0 0 1 206 98 L 114 98 L 114 98 A 8 8 0 0 1 106 90 L 106 70 L 106 70 A 8 8 0 0 1 114 62 L 160 62 Z" fill-opacity="1" stroke-opacity="1" stroke-miterlimit="10" stroke-width="3"/><text fill="rgb(255,255,255)" stroke="none" font-family="arial" font-size="16px" font-style="normal" font-weight="bold" text-decoration="normal" x="160" y="88" text-anchor="middle" dominant-baseline="text-after-edge" fill-opacity="1">G3 Catalyst</text><path fill="rgb(255,0,0)" stroke="rgb(0,0,0)" paint-order="fill stroke markers" d=" M 160 142 L 208 142 L 208 142 A 8 8 0 0 1 216 150 L 216 170 L 216 170 A 8 8 0 0 1 208 178 L 112 178 L 112 178 A 8 8 0 0 1 104 170 L 104 150 L 104 150 A 8 8 0 0 1 112 142 L 160 142 Z" fill-opacity="1" stroke-opacity="1" stroke-miterlimit="10" stroke-width="3"/><text fill="rgb(255,255,255)" stroke="none" font-family="arial" font-size="16px" font-style="normal" font-weight="bold" text-decoration="normal" x="160" y="168" text-anchor="middle" dominant-baseline="text-after-edge" fill-opacity="1">dichloromet</text><path fill="rgb(255,0,0)" stroke="rgb(0,0,0)" paint-order="fill stroke markers" d=" M 160 222 L 206.5 222 L 206.5 222 A 8 8 0 0 1 214.5 230 L 214.5 250 L 214.5 250 A 8 8 0 0 1 206.5 258 L 113.5 258 L 113.5 258 A 8 8 0 0 1 105.5 250 L 105.5 230 L 105.5 230 A 8 8 0 0 1 113.5 222 L 160 222 Z" fill-opacity="1" stroke-opacity="1" stroke-miterlimit="10" stroke-width="3"/><text fill="rgb(255,255,255)" stroke="none" font-family="arial" font-size="16px" font-style="normal" font-weight="bold" text-decoration="normal" x="160" y="248" text-anchor="middle" dominant-baseline="text-after-edge" fill-opacity="1">norbornene</text><path fill="rgb(255,0,0)" stroke="rgb(0,0,0)" paint-order="fill stroke markers" d=" M 160 302 L 201 302 L 201 302 A 8 8 0 0 1 209 310 L 209 330 L 209 330 A 8 8 0 0 1 201 338 L 119 338 L 119 338 A 8 8 0 0 1 111 330 L 111 310 L 111 310 A 8 8 0 0 1 119 302 L 160 302 Z" fill-opacity="1" stroke-opacity="1" stroke-miterlimit="10" stroke-width="3"/><text fill="rgb(255,255,255)" stroke="none" font-family="arial" font-size="16px" font-style="normal" font-weight="bold" text-decoration="normal" x="160" y="328" text-anchor="middle" dominant-baseline="text-after-edge" fill-opacity="1">ethyl vinyl</text><path fill="rgb(255,165,0)" stroke="rgb(0,0,0)" paint-order="fill stroke markers" d=" M 320 182 L 382 182 L 382 182 A 8 8 0 0 1 390 190 L 390 210 L 390 210 A 8 8 0 0 1 382 218 L 258 218 L 258 218 A 8 8 0 0 1 250 210 L 250 190 L 250 190 A 8 8 0 0 1 258 182 L 320 182 Z" fill-opacity="1" stroke-opacity="1" stroke-miterlimit="10" stroke-width="3"/><text fill="rgb(255,255,255)" stroke="none" font-family="arial" font-size="16px" font-style="normal" font-weight="bold" text-decoration="normal" x="320" y="208" text-anchor="middle" dominant-baseline="text-after-edge" fill-opacity="1">ROMP Polymeri</text><path fill="rgb(0,0,255)" stroke="rgb(0,0,0)" paint-order="fill stroke markers" d=" M 560 182 L 620.5 182 L 620.5 182 A 8 8 0 0 1 628.5 190 L 628.5 210 L 628.5 210 A 8 8 0 0 1 620.5 218 L 499.5 218 L 499.5 218 A 8 8 0 0 1 491.5 210 L 491.5 190 L 491.5 190 A 8 8 0 0 1 499.5 182 L 560 182 Z" fill-opacity="1" stroke-opacity="1" stroke-miterlimit="10" stroke-width="3"/><text fill="rgb(255,255,255)" stroke="none" font-family="arial" font-size="16px" font-style="normal" font-weight="bold" text-decoration="normal" x="560" y="208" text-anchor="middle" dominant-baseline="text-after-edge" fill-opacity="1">poly(norborene</text><path fill="rgb(0,128,0)" stroke="rgb(0,0,0)" paint-order="fill stroke markers" d=" M 480 282 L 512.5 282 L 512.5 282 A 8 8 0 0 1 520.5 290 L 520.5 310 L 520.5 310 A 8 8 0 0 1 512.5 318 L 447.5 318 L 447.5 318 A 8 8 0 0 1 439.5 310 L 439.5 290 L 439.5 290 A 8 8 0 0 1 447.5 282 L 480 282 Z" fill-opacity="1" stroke-opacity="1" stroke-miterlimit="10" stroke-width="3"/><text fill="rgb(255,255,255)" stroke="none" font-family="arial" font-size="16px" font-style="normal" font-weight="bold" text-decoration="normal" x="480" y="308" text-anchor="middle" dominant-baseline="text-after-edge" fill-opacity="1">1H NMR</text><path fill="rgb(0,128,0)" stroke="rgb(0,0,0)" paint-order="fill stroke markers" d=" M 640 282 L 658.5 282 L 658.5 282 A 8 8 0 0 1 666.5 290 L 666.5 310 L 666.5 310 A 8 8 0 0 1 658.5 318 L 621.5 318 L 621.5 318 A 8 8 0 0 1 613.5 310 L 613.5 290 L 613.5 290 A 8 8 0 0 1 621.5 282 L 640 282 Z" fill-opacity="1" stroke-opacity="1" stroke-miterlimit="10" stroke-width="3"/><text fill="rgb(255,255,255)" stroke="none" font-family="arial" font-size="16px" font-style="normal" font-weight="bold" text-decoration="normal" x="640" y="308" text-anchor="middle" dominant-baseline="text-after-edge" fill-opacity="1">SEC</text><g transform="scale(0.8264705882352941,0.8264705882352941) translate(66.13879003558725,41.9928825622776)"/></g></svg>