<svg version="1.1" xmlns="http://www.w3.org/2000/svg" xmlns:xlink="http://www.w3.org/1999/xlink" width="2000" height="1000"><defs/><g transform="translate(-94.96208017334808,-52.54604550379206) scale(2.7627302275189605,2.7627302275189605)"><path fill="none" stroke="rgb(0,0,0)" paint-order="fill stroke markers" d=" M 577.6666666666666 266.6666666666667 L 521.8333333333333 266.6666666666667" stroke-opacity="1" stroke-linejoin="round" stroke-miterlimit="10" stroke-width="3"/><path fill="none" stroke="rgb(0,0,0)" paint-order="fill stroke markers" d=" M 493.3333333333333 313.8333333333333 L 493.3333333333333 286.1666666666667" stroke-opacity="1" stroke-linejoin="round" stroke-miterlimit="10" stroke-width="3"/><path fill="none" stroke="rgb(0,0,0)" paint-order="fill stroke markers" d=" M 493.3333333333333 86.16666666666669 L 493.3333333333333 247.16666666666669" stroke-opacity="1" stroke-linejoin="round" stroke-miterlimit="10" stroke-width="3"/><path fill="none" stroke="rgb(0,0,0)" paint-order="fill stroke markers" d=" M 546.25 160.83333333333334 L 503.0833333333333 247.16666666666669" stroke-opacity="1" stroke-linejoin="round" stroke-miterlimit="10" stroke-width="3"/><path fill="none" stroke="rgb(0,0,0)" paint-order="fill stroke markers" d=" M 576.5 160.83333333333334 L 588.3 180.5" stroke-opacity="1" stroke-linejoin="round" stroke-miterlimit="10" stroke-width="3"/><path fill="none" stroke="rgb(0,0,0)" paint-order="fill stroke markers" d=" M 519.9614569531844 250.02408940425974 L 568.8 219.5" stroke-opacity="1" stroke-linejoin="round" stroke-miterlimit="10" stroke-width="3"/><path fill="none" stroke="rgb(0,0,0)" paint-order="fill stroke markers" d=" M 133.33333333333334 179.5 L 133.33333333333334 220.5" stroke-opacity="1" stroke-linejoin="round" stroke-miterlimit="10" stroke-width="3"/><path fill="none" stroke="rgb(0,0,0)" paint-order="fill stroke markers" d=" M 165.80967662482325 179.48580597489394 L 234.16666666666669 220.5" stroke-opacity="1" stroke-linejoin="round" stroke-miterlimit="10" stroke-width="3"/><path fill="none" stroke="rgb(0,0,0)" paint-order="fill stroke markers" d=" M 142.48287376147832 134.86184427528454 Q 152.4864613595708 107.37721323598913 133.33333333333334 107.37721323598913 Q 114.18020530709589 107.37721323598913 126.2359137651424 140.5" stroke-opacity="1" stroke-linejoin="round" stroke-miterlimit="10" stroke-width="3"/><path fill="rgb(0,0,0)" stroke="none" paint-order="stroke fill markers" d=" M 139.1674787535316 130.8554866153334 L 140.4307529015243 140.5 L 147.38839912046197 133.70267265080588 Z" fill-opacity="1"/><path fill="none" stroke="rgb(0,0,0)" paint-order="fill stroke markers" d=" M 207.66666666666669 240 L 166.83333333333334 240" stroke-opacity="1" stroke-linejoin="round" stroke-miterlimit="10" stroke-width="3"/><path fill="none" stroke="rgb(0,0,0)" paint-order="fill stroke markers" d=" M 367.5 179.5 L 299.1666666666667 220.5" stroke-opacity="1" stroke-linejoin="round" stroke-miterlimit="10" stroke-width="3"/><path fill="none" stroke="rgb(0,0,0)" paint-order="fill stroke markers" d=" M 340.5 160 L 321.1666666666667 160" stroke-opacity="1" stroke-linejoin="round" stroke-miterlimit="10" stroke-width="3"/><path fill="none" stroke="rgb(0,0,0)" paint-order="fill stroke markers" d=" M 266.6666666666667 220.5 L 266.6666666666667 179.5" stroke-opacity="1" stroke-linejoin="round" stroke-miterlimit="10" stroke-width="3"/><path fill="none" stroke="rgb(0,0,0)" paint-order="fill stroke markers" d=" M 459.49009269301234 171.89801853860246 L 560 192" stroke-opacity="1" stroke-linejoin="round" stroke-miterlimit="10" stroke-width="3"/><path fill="none" stroke="rgb(0,0,0)" paint-order="fill stroke markers" d=" M 275.81620709481166 134.86184427528454 Q 285.8197946929041 107.37721323598913 266.6666666666667 107.37721323598913 Q 247.51353864042923 107.37721323598913 259.5692470984757 140.5" stroke-opacity="1" stroke-linejoin="round" stroke-miterlimit="10" stroke-width="3"/><path fill="rgb(0,0,0)" stroke="none" paint-order="stroke fill markers" d=" M 272.500812086865 130.8554866153334 L 273.76408623485764 140.5 L 280.7217324537953 133.70267265080588 Z" fill-opacity="1"/><path fill="none" stroke="rgb(0,0,0)" paint-order="fill stroke markers" d=" M 234.16666666666669 179.5 L 163.42198286396302 221.9468102816222" stroke-opacity="1" stroke-linejoin="round" stroke-miterlimit="10" stroke-width="3"/><path fill="none" stroke="rgb(0,0,0)" paint-order="fill stroke markers" d=" M 212.16666666666669 160 L 173.33333333333334 160" stroke-opacity="1" stroke-linejoin="round" stroke-miterlimit="10" stroke-width="3"/><path fill="none" stroke="rgb(0,0,0)" paint-order="fill stroke markers" d=" M 459.5 150.08333333333334 L 507.5 142.08333333333334" stroke-opacity="1" stroke-linejoin="round" stroke-miterlimit="10" stroke-width="3"/><path fill="none" stroke="rgb(0,0,0)" paint-order="fill stroke markers" d=" M 512.8333333333334 86.16666666666667 L 532.5 105.83333333333334" stroke-opacity="1" stroke-linejoin="round" stroke-miterlimit="10" stroke-width="3"/><path fill="none" stroke="rgb(0,0,0)" paint-order="fill stroke markers" d=" M 473.8333333333333 86.16666666666667 L 419.5 140.5" stroke-opacity="1" stroke-linejoin="round" stroke-miterlimit="10" stroke-width="3"/><path fill="none" stroke="rgb(0,0,0)" paint-order="fill stroke markers" d=" M 476.2708333333333 247.16666666666669 L 417.0625 179.5" stroke-opacity="1" stroke-linejoin="round" stroke-miterlimit="10" stroke-width="3"/><path fill="rgb(217,125,125)" stroke="rgb(0,0,0)" paint-order="fill stroke markers" d=" M 133.33333333333334 142 L 163.83333333333334 142 L 163.83333333333334 142 A 8 8 0 0 1 171.83333333333334 150 L 171.83333333333334 170 L 171.83333333333334 170 A 8 8 0 0 1 163.83333333333334 178 L 102.83333333333334 178 L 102.83333333333334 178 A 8 8 0 0 1 94.83333333333334 170 L 94.83333333333334 150 L 94.83333333333334 150 A 8 8 0 0 1 102.83333333333334 142 L 133.33333333333334 142 Z" fill-opacity="1" stroke-opacity="1" stroke-miterlimit="10" stroke-width="3"/><text fill="rgb(0,0,0)" stroke="none" font-family="arial" font-size="16px" font-style="normal" font-weight="bold" text-decoration="normal" x="133.33333333333334" y="168" text-anchor="middle" dominant-baseline="text-after-edge" fill-opacity="1">Groups</text><path fill="rgb(217,125,125)" stroke="rgb(0,0,0)" paint-order="fill stroke markers" d=" M 133.33333333333334 222 L 157.33333333333334 222 L 157.33333333333334 222 A 8 8 0 0 1 165.33333333333334 230 L 165.33333333333334 250 L 165.33333333333334 250 A 8 8 0 0 1 157.33333333333334 258 L 109.33333333333334 258 L 109.33333333333334 258 A 8 8 0 0 1 101.33333333333334 250 L 101.33333333333334 230 L 101.33333333333334 230 A 8 8 0 0 1 109.33333333333334 222 L 133.33333333333334 222 Z" fill-opacity="1" stroke-opacity="1" stroke-miterlimit="10" stroke-width="3"/><text fill="rgb(0,0,0)" stroke="none" font-family="arial" font-size="16px" font-style="normal" font-weight="bold" text-decoration="normal" x="133.33333333333334" y="248" text-anchor="middle" dominant-baseline="text-after-edge" fill-opacity="1">Users</text><path fill="rgb(217,125,125)" stroke="rgb(0,0,0)" paint-order="fill stroke markers" d=" M 400 142 L 450 142 L 450 142 A 8 8 0 0 1 458 150 L 458 170 L 458 170 A 8 8 0 0 1 450 178 L 350 178 L 350 178 A 8 8 0 0 1 342 170 L 342 150 L 342 150 A 8 8 0 0 1 350 142 L 400 142 Z" fill-opacity="1" stroke-opacity="1" stroke-miterlimit="10" stroke-width="3"/><text fill="rgb(0,0,0)" stroke="none" font-family="arial" font-size="16px" font-style="normal" font-weight="bold" text-decoration="normal" x="400" y="168" text-anchor="middle" dominant-baseline="text-after-edge" fill-opacity="1">Experiments</text><path fill="rgb(217,125,125)" stroke="rgb(0,0,0)" paint-order="fill stroke markers" d=" M 266.6666666666667 222 L 316.1666666666667 222 L 316.1666666666667 222 A 8 8 0 0 1 324.1666666666667 230 L 324.1666666666667 250 L 324.1666666666667 250 A 8 8 0 0 1 316.1666666666667 258 L 217.16666666666669 258 L 217.16666666666669 258 A 8 8 0 0 1 209.16666666666669 250 L 209.16666666666669 230 L 209.16666666666669 230 A 8 8 0 0 1 217.16666666666669 222 L 266.6666666666667 222 Z" fill-opacity="1" stroke-opacity="1" stroke-miterlimit="10" stroke-width="3"/><text fill="rgb(0,0,0)" stroke="none" font-family="arial" font-size="16px" font-style="normal" font-weight="bold" text-decoration="normal" x="266.6666666666667" y="248" text-anchor="middle" dominant-baseline="text-after-edge" fill-opacity="1">Publications</text><path fill="rgb(217,125,125)" stroke="rgb(0,0,0)" paint-order="fill stroke markers" d=" M 266.6666666666667 142 L 311.6666666666667 142 L 311.6666666666667 142 A 8 8 0 0 1 319.6666666666667 150 L 319.6666666666667 170 L 319.6666666666667 170 A 8 8 0 0 1 311.6666666666667 178 L 221.66666666666669 178 L 221.66666666666669 178 A 8 8 0 0 1 213.66666666666669 170 L 213.66666666666669 150 L 213.66666666666669 150 A 8 8 0 0 1 221.66666666666669 142 L 266.6666666666667 142 Z" fill-opacity="1" stroke-opacity="1" stroke-miterlimit="10" stroke-width="3"/><text fill="rgb(0,0,0)" stroke="none" font-family="arial" font-size="16px" font-style="normal" font-weight="bold" text-decoration="normal" x="266.6666666666667" y="168" text-anchor="middle" dominant-baseline="text-after-edge" fill-opacity="1">Collections</text><path fill="rgb(10,36,204)" stroke="rgb(0,0,0)" paint-order="fill stroke markers" d=" M 560 107.33333333333334 L 603 107.33333333333334 L 603 107.33333333333334 A 8 8 0 0 1 611 115.33333333333334 L 611 151.33333333333334 L 611 151.33333333333334 A 8 8 0 0 1 603 159.33333333333334 L 517 159.33333333333334 L 517 159.33333333333334 A 8 8 0 0 1 509 151.33333333333334 L 509 115.33333333333334 L 509 115.33333333333334 A 8 8 0 0 1 517 107.33333333333334 L 560 107.33333333333334 Z" fill-opacity="1" stroke-opacity="1" stroke-miterlimit="10" stroke-width="3"/><text fill="rgb(255,255,255)" stroke="none" font-family="arial" font-size="16px" font-style="normal" font-weight="bold" text-decoration="normal" x="560" y="133.33333333333334" text-anchor="middle" dominant-baseline="text-after-edge" fill-opacity="1">Materials</text><text fill="rgb(255,255,255)" stroke="none" font-family="arial" font-size="16px" font-style="normal" font-weight="bold" text-decoration="normal" x="560" y="149.33333333333334" text-anchor="middle" dominant-baseline="text-after-edge" fill-opacity="1">(polymers)</text><path fill="rgb(10,36,204)" stroke="rgb(0,0,0)" paint-order="fill stroke markers" d=" M 653.3333333333334 107.33333333333334 L 689.8333333333334 107.33333333333334 L 689.8333333333334 107.33333333333334 A 8 8 0 0 1 697.8333333333334 115.33333333333334 L 697.8333333333334 151.33333333333334 L 697.8333333333334 151.33333333333334 A 8 8 0 0 1 689.8333333333334 159.33333333333334 L 616.8333333333334 159.33333333333334 L 616.8333333333334 159.33333333333334 A 8 8 0 0 1 608.8333333333334 151.33333333333334 L 608.8333333333334 115.33333333333334 L 608.8333333333334 115.33333333333334 A 8 8 0 0 1 616.8333333333334 107.33333333333334 L 653.3333333333334 107.33333333333334 Z" fill-opacity="1" stroke-opacity="1" stroke-miterlimit="10" stroke-width="3"/><text fill="rgb(255,255,255)" stroke="none" font-family="arial" font-size="16px" font-style="normal" font-weight="bold" text-decoration="normal" x="653.3333333333334" y="133.33333333333334" text-anchor="middle" dominant-baseline="text-after-edge" fill-opacity="1">Materials</text><text fill="rgb(255,255,255)" stroke="none" font-family="arial" font-size="16px" font-style="normal" font-weight="bold" text-decoration="normal" x="653.3333333333334" y="149.33333333333334" text-anchor="middle" dominant-baseline="text-after-edge" fill-opacity="1">(other)</text><path fill="rgb(255,192,0)" stroke="rgb(0,0,0)" paint-order="fill stroke markers" d=" M 493.3333333333333 48.66666666666667 L 526.3333333333333 48.66666666666667 L 526.3333333333333 48.66666666666667 A 8 8 0 0 1 534.3333333333333 56.66666666666667 L 534.3333333333333 76.66666666666667 L 534.3333333333333 76.66666666666667 A 8 8 0 0 1 526.3333333333333 84.66666666666667 L 460.3333333333333 84.66666666666667 L 460.3333333333333 84.66666666666667 A 8 8 0 0 1 452.3333333333333 76.66666666666667 L 452.3333333333333 56.66666666666667 L 452.3333333333333 56.66666666666667 A 8 8 0 0 1 460.3333333333333 48.66666666666667 L 493.3333333333333 48.66666666666667 Z" fill-opacity="1" stroke-opacity="1" stroke-miterlimit="10" stroke-width="3"/><text fill="rgb(255,255,255)" stroke="none" font-family="arial" font-size="16px" font-style="normal" font-weight="bold" text-decoration="normal" x="493.3333333333333" y="74.66666666666667" text-anchor="middle" dominant-baseline="text-after-edge" fill-opacity="1">Process</text><path fill="rgb(163,31,52)" stroke="rgb(0,0,0)" paint-order="fill stroke markers" d=" M 600 182 L 630.5 182 L 630.5 182 A 8 8 0 0 1 638.5 190 L 638.5 210 L 638.5 210 A 8 8 0 0 1 630.5 218 L 569.5 218 L 569.5 218 A 8 8 0 0 1 561.5 210 L 561.5 190 L 561.5 190 A 8 8 0 0 1 569.5 182 L 600 182 Z" fill-opacity="1" stroke-opacity="1" stroke-miterlimit="10" stroke-width="3"/><text fill="rgb(255,255,255)" stroke="none" font-family="arial" font-size="16px" font-style="normal" font-weight="bold" text-decoration="normal" x="600" y="208" text-anchor="middle" dominant-baseline="text-after-edge" fill-opacity="1">Sample</text><path fill="rgb(6,127,16)" stroke="rgb(0,0,0)" paint-order="fill stroke markers" d=" M 493.3333333333333 248.66666666666669 L 512.3333333333333 248.66666666666669 L 512.3333333333333 248.66666666666669 A 8 8 0 0 1 520.3333333333333 256.6666666666667 L 520.3333333333333 276.6666666666667 L 520.3333333333333 276.6666666666667 A 8 8 0 0 1 512.3333333333333 284.6666666666667 L 474.3333333333333 284.6666666666667 L 474.3333333333333 284.6666666666667 A 8 8 0 0 1 466.3333333333333 276.6666666666667 L 466.3333333333333 256.6666666666667 L 466.3333333333333 256.6666666666667 A 8 8 0 0 1 474.3333333333333 248.66666666666669 L 493.3333333333333 248.66666666666669 Z" fill-opacity="1" stroke-opacity="1" stroke-miterlimit="10" stroke-width="3"/><text fill="rgb(255,255,255)" stroke="none" font-family="arial" font-size="16px" font-style="normal" font-weight="bold" text-decoration="normal" x="493.3333333333333" y="274.6666666666667" text-anchor="middle" dominant-baseline="text-after-edge" fill-opacity="1">Data</text><path fill="rgb(0,0,0)" stroke="rgb(100,100,100)" paint-order="fill stroke markers" d=" M 493.3333333333333 315.3333333333333 L 538.8333333333333 315.3333333333333 L 538.8333333333333 315.3333333333333 A 8 8 0 0 1 546.8333333333333 323.3333333333333 L 546.8333333333333 343.3333333333333 L 546.8333333333333 343.3333333333333 A 8 8 0 0 1 538.8333333333333 351.3333333333333 L 447.8333333333333 351.3333333333333 L 447.8333333333333 351.3333333333333 A 8 8 0 0 1 439.8333333333333 343.3333333333333 L 439.8333333333333 323.3333333333333 L 439.8333333333333 323.3333333333333 A 8 8 0 0 1 447.8333333333333 315.3333333333333 L 493.3333333333333 315.3333333333333 Z" fill-opacity="1" stroke-opacity="1" stroke-miterlimit="10" stroke-width="3"/><text fill="rgb(255,255,255)" stroke="none" font-family="arial" font-size="16px" font-style="normal" font-weight="bold" text-decoration="normal" x="493.3333333333333" y="341.3333333333333" text-anchor="middle" dominant-baseline="text-after-edge" fill-opacity="1">Model Lake</text><path fill="rgb(217,125,125)" stroke="rgb(0,0,0)" paint-order="fill stroke markers" d=" M 626.6666666666666 248.66666666666669 L 666.1666666666666 248.66666666666669 L 666.1666666666666 248.66666666666669 A 8 8 0 0 1 674.1666666666666 256.6666666666667 L 674.1666666666666 276.6666666666667 L 674.1666666666666 276.6666666666667 A 8 8 0 0 1 666.1666666666666 284.6666666666667 L 587.1666666666666 284.6666666666667 L 587.1666666666666 284.6666666666667 A 8 8 0 0 1 579.1666666666666 276.6666666666667 L 579.1666666666666 256.6666666666667 L 579.1666666666666 256.6666666666667 A 8 8 0 0 1 587.1666666666666 248.66666666666669 L 626.6666666666666 248.66666666666669 Z" fill-opacity="1" stroke-opacity="1" stroke-miterlimit="10" stroke-width="3"/><text fill="rgb(0,0,0)" stroke="none" font-family="arial" font-size="16px" font-style="normal" font-weight="bold" text-decoration="normal" x="626.6666666666666" y="274.6666666666667" text-anchor="middle" dominant-baseline="text-after-edge" fill-opacity="1">Data Lake</text><path fill="rgb(217,125,125)" stroke="rgb(0,0,0)" paint-order="fill stroke markers" d=" M 333.3333333333333 302 L 394.8333333333333 302 L 394.8333333333333 302 A 8 8 0 0 1 402.8333333333333 310 L 402.8333333333333 330 L 402.8333333333333 330 A 8 8 0 0 1 394.8333333333333 338 L 271.8333333333333 338 L 271.8333333333333 338 A 8 8 0 0 1 263.8333333333333 330 L 263.8333333333333 310 L 263.8333333333333 310 A 8 8 0 0 1 271.8333333333333 302 L 333.3333333333333 302 Z" fill-opacity="1" stroke-opacity="1" stroke-miterlimit="10" stroke-width="3"/><text fill="rgb(0,0,0)" stroke="none" font-family="arial" font-size="16px" font-style="normal" font-weight="bold" text-decoration="normal" x="333.3333333333333" y="328" text-anchor="middle" dominant-baseline="text-after-edge" fill-opacity="1">Version Control</text><g transform="scale(0.3619607843137254,0.3619607843137254) translate(94.96208017334808,52.54604550379206)"/></g></svg>