<svg width="1728" height="787" xmlns="http://www.w3.org/2000/svg" xmlns:xlink="http://www.w3.org/1999/xlink" overflow="hidden"><defs><clipPath id="clip0"><rect x="0" y="0" width="1728" height="787"/></clipPath></defs><g clip-path="url(#clip0)"><rect x="0" y="0" width="1728" height="786.833" fill="#FFFFFF"/><path d="M273 728.846C273 724.428 276.582 720.847 281 720.847L380 720.847C384.418 720.847 388 724.428 388 728.846L388 760.839C388 765.256 384.418 768.837 380 768.837L281 768.837C276.582 768.837 273 765.256 273 760.839Z" stroke="#000000" stroke-width="2" stroke-miterlimit="8" fill="#0A24CC" fill-rule="evenodd"/><text fill="#FFFFFF" font-family="Arial,Arial_MSFontService,sans-serif" font-weight="700" font-size="21" transform="matrix(1 0 0 0.999788 289.711 753)">Material</text><path d="M772 728.846C772 724.428 775.582 720.847 780 720.847L879 720.847C883.418 720.847 887 724.428 887 728.846L887 760.839C887 765.256 883.418 768.837 879 768.837L780 768.837C775.582 768.837 772 765.256 772 760.839Z" stroke="#000000" stroke-width="2" stroke-miterlimit="8" fill="#FFC000" fill-rule="evenodd"/><text fill="#FFFFFF" font-family="Arial,Arial_MSFontService,sans-serif" font-weight="700" font-size="21" transform="matrix(1 0 0 0.999788 788.398 753)">Process </text><path d="M522 728.846C522 724.428 525.582 720.847 530 720.847L630 720.847C634.418 720.847 638 724.428 638 728.846L638 760.839C638 765.256 634.418 768.837 630 768.837L530 768.837C525.582 768.837 522 765.256 522 760.839Z" stroke="#000000" stroke-width="2" stroke-miterlimit="8" fill="#9A3333" fill-rule="evenodd"/><text fill="#FFFFFF" font-family="Arial,Arial_MSFontService,sans-serif" font-weight="700" font-size="21" transform="matrix(1 0 0 0.999788 542.055 753)">Sample </text><path d="M897 728.846C897 724.428 900.582 720.847 905 720.847L1004 720.847C1008.42 720.847 1012 724.428 1012 728.846L1012 760.839C1012 765.256 1008.42 768.837 1004 768.837L905 768.837C900.582 768.837 897 765.256 897 760.839Z" stroke="#000000" stroke-width="2" stroke-miterlimit="8" fill="#067F10" fill-rule="evenodd"/><text fill="#FFFFFF" font-family="Arial,Arial_MSFontService,sans-serif" font-weight="700" font-size="21" transform="matrix(1 0 0 0.999788 931.654 753)">Data </text><path d="M397 728.846C397 724.428 400.582 720.847 405 720.847L505 720.847C509.418 720.847 513 724.428 513 728.846L513 760.839C513 765.256 509.418 768.837 505 768.837L405 768.837C400.582 768.837 397 765.256 397 760.839Z" stroke="#000000" stroke-width="2" stroke-miterlimit="8" fill="#9100B8" fill-rule="evenodd"/><text fill="#FFFFFF" font-family="Arial,Arial_MSFontService,sans-serif" font-weight="700" font-size="21" transform="matrix(1 0 0 0.999788 431.383 753)">User</text><path d="M1022 728.846C1022 724.428 1025.58 720.847 1030 720.847L1129 720.847C1133.42 720.847 1137 724.428 1137 728.846L1137 760.839C1137 765.256 1133.42 768.837 1129 768.837L1030 768.837C1025.58 768.837 1022 765.256 1022 760.839Z" stroke="#000000" stroke-width="2" stroke-miterlimit="8" fill="#00B0F0" fill-rule="evenodd"/><text fill="#FFFFFF" font-family="Arial,Arial_MSFontService,sans-serif" font-weight="700" font-size="21" transform="matrix(1 0 0 0.999788 1056.49 753)">Coll.</text><path d="M647 728.846C647 724.428 650.582 720.847 655 720.847L754 720.847C758.418 720.847 762 724.428 762 728.846L762 760.839C762 765.256 758.418 768.837 754 768.837L655 768.837C650.582 768.837 647 765.256 647 760.839Z" stroke="#000000" stroke-width="2" stroke-miterlimit="8" fill="#FB7623" fill-rule="evenodd"/><text fill="#FFFFFF" font-family="Arial,Arial_MSFontService,sans-serif" font-weight="700" font-size="21" transform="matrix(1 0 0 0.999788 672.893 753)">Group </text><path d="M1147 728.846C1147 724.428 1150.58 720.847 1155 720.847L1254 720.847C1258.42 720.847 1262 724.428 1262 728.846L1262 760.839C1262 765.256 1258.42 768.837 1254 768.837L1155 768.837C1150.58 768.837 1147 765.256 1147 760.839Z" stroke="#000000" stroke-width="2" stroke-miterlimit="8" fill="#595959" fill-rule="evenodd"/><text fill="#FFFFFF" font-family="Arial,Arial_MSFontService,sans-serif" font-weight="700" font-size="21" transform="matrix(1 0 0 0.999788 1181.5 753)">Pub. </text><path d="M1272 728.846C1272 724.428 1275.58 720.847 1280 720.847L1379 720.847C1383.42 720.847 1387 724.428 1387 728.846L1387 760.839C1387 765.256 1383.42 768.837 1379 768.837L1280 768.837C1275.58 768.837 1272 765.256 1272 760.839Z" stroke="#000000" stroke-width="2" stroke-miterlimit="8" fill="#D9D9D9" fill-rule="evenodd"/><text font-family="Arial,Arial_MSFontService,sans-serif" font-weight="700" font-size="21" transform="matrix(1 0 0 0.999788 1303.42 753)">Expt. </text><path d="M1397 728.846C1397 724.428 1400.58 720.847 1405 720.847L1504 720.847C1508.42 720.847 1512 724.428 1512 728.846L1512 760.839C1512 765.256 1508.42 768.837 1504 768.837L1405 768.837C1400.58 768.837 1397 765.256 1397 760.839Z" stroke="#7F7F7F" stroke-width="2" stroke-miterlimit="8" fill-rule="evenodd"/><text fill="#FFFFFF" font-family="Arial,Arial_MSFontService,sans-serif" font-weight="700" font-size="21" transform="matrix(1 0 0 0.999788 1431.84 753)">Sim. </text><path d="M1256.34 478.203 362.959 240.332 364.417 234.858 1257.8 472.729ZM364.24 246.536 350 233.95 368.615 230.112Z"/><path d="M1232.49 286.571 363.988 237.577 364.307 231.92 1232.81 280.915ZM366.494 243.393 350 233.95 367.452 226.423Z"/><path d="M450.768 206.495 362.795 180.671 364.391 175.235 452.364 201.059ZM363.917 186.905 350 173.963 368.706 170.597Z"/><path d="M230 698.852C211.498 698.852 196.5 696.353 196.5 693.27L196.5 364.006C196.5 360.923 181.502 358.424 163 358.424 181.502 358.424 196.5 355.925 196.5 352.842L196.5 23.5784C196.5 20.4954 211.499 17.9962 230.001 17.9962" stroke="#000000" stroke-width="4" stroke-miterlimit="8" fill="none" fill-rule="evenodd"/><path d="M18 340.928C18 336.511 21.5818 332.93 26.0002 332.93L125 332.93C129.418 332.93 133 336.511 133 340.928L133 372.921C133 377.338 129.418 380.919 125 380.919L26.0002 380.919C21.5818 380.919 18 377.338 18 372.921Z" stroke="#000000" stroke-width="2" stroke-miterlimit="8" fill="#D9D9D9" fill-rule="evenodd"/><text font-family="Arial,Arial_MSFontService,sans-serif" font-weight="700" font-size="19" transform="matrix(1 0 0 0.999788 42.3083 352)">Diblock <tspan font-size="19" x="20.08" y="23.0049">BB </tspan></text><path d="M235 38.992C235 34.5745 238.582 30.9934 243 30.9934L342 30.9934C346.418 30.9934 350 34.5745 350 38.992L350 70.9848C350 75.4022 346.418 78.9833 342 78.9833L243 78.9833C238.582 78.9833 235 75.4022 235 70.9848Z" stroke="#000000" stroke-width="2" stroke-miterlimit="8" fill="#0A24CC" fill-rule="evenodd"/><text fill="#FFFFFF" font-family="Arial,Arial_MSFontService,sans-serif" font-weight="700" font-size="21" transform="matrix(1 0 0 0.999788 250.178 63)">SecBuLi</text><path d="M235 97.9795C235 93.562 238.582 89.9809 243 89.9809L342 89.9809C346.418 89.9809 350 93.562 350 97.9795L350 129.972C350 134.39 346.418 137.971 342 137.971L243 137.971C238.582 137.971 235 134.39 235 129.972Z" stroke="#000000" stroke-width="2" stroke-miterlimit="8" fill="#0A24CC" fill-rule="evenodd"/><text fill="#FFFFFF" font-family="Arial,Arial_MSFontService,sans-serif" font-weight="700" font-size="21" transform="matrix(1 0 0 0.999788 251.928 122)">Toluene</text><path d="M235 157.967C235 153.549 238.582 149.968 243 149.968L342 149.968C346.418 149.968 350 153.549 350 157.967L350 189.96C350 194.377 346.418 197.958 342 197.958L243 197.958C238.582 197.958 235 194.377 235 189.96Z" stroke="#000000" stroke-width="2" stroke-miterlimit="8" fill="#0A24CC" fill-rule="evenodd"/><text fill="#FFFFFF" font-family="Arial,Arial_MSFontService,sans-serif" font-weight="700" font-size="21" transform="matrix(1 0 0 0.999788 253.678 182)">Styrene</text><path d="M235 217.954C235 213.537 238.582 209.956 243 209.956L342 209.956C346.418 209.956 350 213.537 350 217.954L350 249.947C350 254.364 346.418 257.945 342 257.945L243 257.945C238.582 257.945 235 254.364 235 249.947Z" stroke="#000000" stroke-width="2" stroke-miterlimit="8" fill="#0A24CC" fill-rule="evenodd"/><text fill="#FFFFFF" font-family="Arial,Arial_MSFontService,sans-serif" font-weight="700" font-size="21" transform="matrix(1 0 0 0.999788 272.095 242)">THF</text><path d="M235 276.942C235 272.524 238.582 268.943 243 268.943L342 268.943C346.418 268.943 350 272.524 350 276.942L350 308.934C350 313.352 346.418 316.933 342 316.933L243 316.933C238.582 316.933 235 313.352 235 308.934Z" stroke="#000000" stroke-width="2" stroke-miterlimit="8" fill="#0A24CC" fill-rule="evenodd"/><text fill="#FFFFFF" font-family="Arial,Arial_MSFontService,sans-serif" font-weight="700" font-size="19" transform="matrix(1 0 0 0.999788 254.012 289)">Ethylene <tspan font-size="19" x="12.9133" y="23.0049">Oxide</tspan></text><path d="M235 336.929C235 332.511 238.582 328.93 243 328.93L342 328.93C346.418 328.93 350 332.511 350 336.929L350 368.922C350 373.339 346.418 376.92 342 376.92L243 376.92C238.582 376.92 235 373.339 235 368.922Z" stroke="#000000" stroke-width="2" stroke-miterlimit="8" fill="#0A24CC" fill-rule="evenodd"/><text fill="#FFFFFF" font-family="Arial,Arial_MSFontService,sans-serif" font-weight="700" font-size="21" transform="matrix(1 0 0 0.999788 261.928 361)">MeOH</text><path d="M661 187.96C661 183.543 664.582 179.962 669 179.962L768 179.962C772.418 179.962 776 183.543 776 187.96L776 219.953C776 224.371 772.418 227.952 768 227.952L669 227.952C664.582 227.952 661 224.371 661 219.953Z" stroke="#000000" stroke-width="2" stroke-miterlimit="8" fill="#0A24CC" fill-rule="evenodd"/><text fill="#FFFFFF" font-family="Arial,Arial_MSFontService,sans-serif" font-weight="700" font-size="15" transform="matrix(1 0 0 0.999788 676.592 209)">Polystyrene</text><path d="M597 92.9805C597 88.5631 600.582 84.982 605 84.982L704 84.982C708.418 84.982 712 88.5631 712 92.9805L712 124.973C712 129.391 708.418 132.972 704 132.972L605 132.972C600.582 132.972 597 129.391 597 124.973Z" stroke="#000000" stroke-width="2" stroke-miterlimit="8" fill="#067F10" fill-rule="evenodd"/><text fill="#FFFFFF" font-family="Arial,Arial_MSFontService,sans-serif" font-weight="700" font-size="21" transform="matrix(1 0 0 0.999788 613.675 117)">1H NMR </text><path d="M724 92.9805C724 88.5631 727.582 84.982 732 84.982L831 84.982C835.418 84.982 839 88.5631 839 92.9805L839 124.973C839 129.391 835.418 132.972 831 132.972L732 132.972C727.582 132.972 724 129.391 724 124.973Z" stroke="#000000" stroke-width="2" stroke-miterlimit="8" fill="#067F10" fill-rule="evenodd"/><text fill="#FFFFFF" font-family="Arial,Arial_MSFontService,sans-serif" font-weight="700" font-size="21" transform="matrix(1 0 0 0.999788 760.008 117)">SEC</text><path d="M449.693 205.556 358.757 125.464 362.503 121.213 453.439 201.305ZM357.138 131.588 350 113.976 368.375 118.834Z"/><path d="M449.224 205.678 355.633 68.2895 360.316 65.1003 453.908 202.489ZM352.544 73.8199 350 54.9884 366.595 64.2524Z"/><path d="M0.798349-2.71791 88.7534 23.1177 87.1567 28.5535-0.798349 2.71791ZM87.6322 16.8836 101.545 29.8274 82.8421 33.191Z" transform="matrix(-1.00021 0 0 1 451.566 203.957)"/><path d="M1.87267-2.12544 92.79 77.9795 89.0447 82.2303-1.87267 2.12544ZM94.41 71.856 101.545 89.4683 83.1739 84.6086Z" transform="matrix(-1.00021 0 0 1 451.566 203.957)"/><path d="M2.34136-1.59449 95.9135 135.808 91.2308 138.997-2.34136 1.59449ZM99.0017 130.278 101.545 149.109 84.9536 139.844Z" transform="matrix(-1.00021 0 0 1 451.566 203.957)"/><path d="M3.18254e-06-2.83273 79.2638-2.83264 79.2638 2.83282-3.18254e-06 2.83273ZM76.4311-8.49811 93.4275 0.000104965 76.431 8.49829Z" transform="matrix(-1.00021 0 0 1 660.447 203.957)"/><path d="M452 187.96C452 183.543 455.582 179.962 460 179.962L559 179.962C563.418 179.962 567 183.543 567 187.96L567 219.953C567 224.371 563.418 227.952 559 227.952L460 227.952C455.582 227.952 452 224.371 452 219.953Z" stroke="#000000" stroke-width="2" stroke-miterlimit="8" fill="#FFC000" fill-rule="evenodd"/><text fill="#FFFFFF" font-family="Arial,Arial_MSFontService,sans-serif" font-weight="700" font-size="19" transform="matrix(1 0 0 0.999788 475.445 199)">Anionic <tspan font-size="19" x="11.8333" y="23.0049">Poly.</tspan></text><path d="M716.984 182.219 664.717 143.661 668.082 139.102 720.349 177.66ZM663.633 149.901 655 132.972 673.726 136.225Z"/><path d="M1.68188-2.2794 53.9381 36.2786 50.5743 40.8373-1.68188 2.2794ZM55.0225 30.0379 63.6532 46.9674 44.9312 43.7143Z" transform="matrix(1.00021 0 0 -1 718 179.939)"/><path d="M235 395.916C235 391.499 238.582 387.918 243 387.918L342 387.918C346.418 387.918 350 391.499 350 395.916L350 427.909C350 432.327 346.418 435.908 342 435.908L243 435.908C238.582 435.908 235 432.327 235 427.909Z" stroke="#000000" stroke-width="2" stroke-miterlimit="8" fill="#0A24CC" fill-rule="evenodd"/><text fill="#FFFFFF" font-family="Arial,Arial_MSFontService,sans-serif" font-weight="700" font-size="16" transform="matrix(1 0 0 0.999788 247.428 409)">Norbornene<tspan font-size="16" x="22.6667" y="19.004">-</tspan><tspan font-size="16" x="28" y="19.004">COCl</tspan></text><path d="M2.54734-1.23913 97.8964 194.775 92.8017 197.253-2.54734 1.23913ZM101.752 189.749 101.545 208.75 86.4678 197.183Z" transform="matrix(-1.00021 0 0 1 451.566 203.957)"/><path d="M235 455.904C235 451.486 238.582 447.905 243 447.905L342 447.905C346.418 447.905 350 451.486 350 455.904L350 487.896C350 492.314 346.418 495.895 342 495.895L243 495.895C238.582 495.895 235 492.314 235 487.896Z" stroke="#000000" stroke-width="2" stroke-miterlimit="8" fill="#0A24CC" fill-rule="evenodd"/><text fill="#FFFFFF" font-family="Arial,Arial_MSFontService,sans-serif" font-weight="700" font-size="16" transform="matrix(1 0 0 0.999788 247.428 469)">Norbornene<tspan font-size="16" x="30.6667" y="19.004">-</tspan><tspan font-size="16" x="36" y="19.004">OH</tspan></text><path d="M235 515.891C235 511.474 238.582 507.892 243 507.892L342 507.892C346.418 507.892 350 511.474 350 515.891L350 547.884C350 552.301 346.418 555.882 342 555.882L243 555.882C238.582 555.882 235 552.301 235 547.884Z" stroke="#000000" stroke-width="2" stroke-miterlimit="8" fill="#0A24CC" fill-rule="evenodd"/><text fill="#FFFFFF" font-family="Arial,Arial_MSFontService,sans-serif" font-weight="700" font-size="21" transform="matrix(1 0 0 0.999788 255.428 540)">Lactide</text><path d="M235 574.878C235 570.461 238.582 566.88 243 566.88L342 566.88C346.418 566.88 350 570.461 350 574.878L350 606.871C350 611.289 346.418 614.87 342 614.87L243 614.87C238.582 614.87 235 611.289 235 606.871Z" stroke="#000000" stroke-width="2" stroke-miterlimit="8" fill="#0A24CC" fill-rule="evenodd"/><text fill="#FFFFFF" font-family="Arial,Arial_MSFontService,sans-serif" font-weight="700" font-size="21" transform="matrix(1 0 0 0.999788 269.762 599)">DBU</text><path d="M235 634.866C235 630.448 238.582 626.867 243 626.867L342 626.867C346.418 626.867 350 630.448 350 634.866L350 666.859C350 671.276 346.418 674.857 342 674.857L243 674.857C238.582 674.857 235 671.276 235 666.859Z" stroke="#000000" stroke-width="2" stroke-miterlimit="8" fill="#0A24CC" fill-rule="evenodd"/><text fill="#FFFFFF" font-family="Arial,Arial_MSFontService,sans-serif" font-weight="700" font-size="19" transform="matrix(1 0 0 0.999788 268.928 646)">Boric <tspan font-size="19" x="3.66666" y="23.0049">Acid</tspan></text><path d="M661 491.896C661 487.479 664.582 483.898 669 483.898L768 483.898C772.418 483.898 776 487.479 776 491.896L776 523.889C776 528.306 772.418 531.887 768 531.887L669 531.887C664.582 531.887 661 528.306 661 523.889Z" stroke="#000000" stroke-width="2" stroke-miterlimit="8" fill="#0A24CC" fill-rule="evenodd"/><text fill="#FFFFFF" font-family="Arial,Arial_MSFontService,sans-serif" font-weight="700" font-size="15" transform="matrix(1 0 0 0.999788 684.008 504)">Polylactic <tspan font-size="15" x="18.2534" y="18.0038">Acid</tspan></text><path d="M597 598.873C597 594.456 600.582 590.875 605 590.875L704 590.875C708.418 590.875 712 594.456 712 598.873L712 630.866C712 635.284 708.418 638.865 704 638.865L605 638.865C600.582 638.865 597 635.284 597 630.866Z" stroke="#000000" stroke-width="2" stroke-miterlimit="8" fill="#067F10" fill-rule="evenodd"/><text fill="#FFFFFF" font-family="Arial,Arial_MSFontService,sans-serif" font-weight="700" font-size="21" transform="matrix(1 0 0 0.999788 613.675 623)">1H NMR </text><path d="M724 598.873C724 594.456 727.582 590.875 732 590.875L831 590.875C835.418 590.875 839 594.456 839 598.873L839 630.866C839 635.284 835.418 638.865 831 638.865L732 638.865C727.582 638.865 724 635.284 724 630.866Z" stroke="#000000" stroke-width="2" stroke-miterlimit="8" fill="#067F10" fill-rule="evenodd"/><text fill="#FFFFFF" font-family="Arial,Arial_MSFontService,sans-serif" font-weight="700" font-size="21" transform="matrix(1 0 0 0.999788 760.008 623)">SEC</text><path d="M3.18254e-06-2.83273 79.2638-2.83264 79.2638 2.83282-3.18254e-06 2.83273ZM76.4311-8.49811 93.4275 0.000104965 76.431 8.49829Z" transform="matrix(-1.00021 0 0 1 660.447 507.892)"/><path d="M452 491.896C452 487.479 455.582 483.898 460 483.898L559 483.898C563.418 483.898 567 487.479 567 491.896L567 523.889C567 528.306 563.418 531.887 559 531.887L460 531.887C455.582 531.887 452 528.306 452 523.889Z" stroke="#000000" stroke-width="2" stroke-miterlimit="8" fill="#FFC000" fill-rule="evenodd"/><text fill="#FFFFFF" font-family="Arial,Arial_MSFontService,sans-serif" font-weight="700" font-size="19" transform="matrix(1 0 0 0.999788 489.278 514)">ROP</text><path d="M1.9265-2.07677 55.1958 47.3379 51.3428 51.4914-1.9265 2.07677ZM56.972 41.2578 63.6532 59.0471 45.413 53.7185Z" transform="matrix(-1.00021 0 0 1 718.667 531.887)"/><path d="M719.927 529.811 773.208 579.225 769.354 583.379 716.073 533.964ZM774.984 573.145 781.667 590.935 763.423 585.606Z"/><path d="M2.31115-1.63798 95.6658 130.083 91.0435 133.359-2.31115 1.63798ZM98.6501 124.496 101.545 143.276 84.7832 134.324Z" transform="matrix(-1.00021 0 0 1 451.566 507.892)"/><path d="M1.80093-2.18656 92.4128 72.4447 88.8109 76.8178-1.80093 2.18656ZM93.828 66.2706 101.545 83.6358 83.0224 79.3899Z" transform="matrix(-1.00021 0 0 1 451.566 507.892)"/><path d="M0.651433-2.75681 88.4119 17.9809 87.1091 23.4946-0.651433 2.75681ZM86.958 11.8159 101.545 23.9949 83.0494 28.3568Z" transform="matrix(-1.00021 0 0 1 451.566 507.892)"/><path d="M450.628 510.219 362.429 479.264 364.305 473.919 452.505 504.873ZM363.225 485.548 350 471.9 368.856 469.511Z"/><path d="M448.909 509.144 352.263 248.216 357.577 246.249 454.223 507.176ZM347.933 252.84 350 233.95 363.875 246.938Z"/><path d="M837.272 350.198 726.064 239.937 730.054 235.914 841.262 346.175ZM724.086 245.954 718 227.952 736.056 233.886Z"/><path d="M2.1132-1.88647 113.922 123.36 109.696 127.133-2.1132 1.88647ZM116.262 117.474 121.241 135.812 103.583 128.793Z" transform="matrix(-1.00021 0 0 1 839.267 347.926)"/><path d="M838.435 351.111 363.147 239.935 364.438 234.418 839.725 345.594ZM364.617 246.097 350 233.95 368.489 229.548Z"/><path d="M586 335.929C586 331.512 589.582 327.931 594 327.931L693 327.931C697.418 327.931 701 331.512 701 335.929L701 367.922C701 372.339 697.418 375.92 693 375.92L594 375.92C589.582 375.92 586 372.339 586 367.922Z" stroke="#000000" stroke-width="2" stroke-miterlimit="8" fill="#0A24CC" fill-rule="evenodd"/><text fill="#FFFFFF" font-family="Arial,Arial_MSFontService,sans-serif" font-weight="700" font-size="16" transform="matrix(1 0 0 0.999788 602.675 348)">Ethyl Vinyl <tspan font-size="16" x="20.5867" y="19.004">Ether</tspan></text><path d="M587 396.916C587 392.499 590.582 388.918 595 388.918L694 388.918C698.418 388.918 702 392.499 702 396.916L702 428.909C702 433.326 698.418 436.907 694 436.907L595 436.907C590.582 436.907 587 433.326 587 428.909Z" stroke="#000000" stroke-width="2" stroke-miterlimit="8" fill="#0A24CC" fill-rule="evenodd"/><text fill="#FFFFFF" font-family="Arial,Arial_MSFontService,sans-serif" font-weight="700" font-size="16" transform="matrix(1 0 0 0.999788 615.767 410)">Grubbs <tspan font-size="16" x="6.75336" y="19.004">Cat. 3</tspan></text><path d="M0.0792361-2.83162 124.058 0.637621 123.9 6.30087-0.0792361 2.83162ZM121.385-5.10486 138.137 3.86543 120.91 11.8849Z" transform="matrix(-1.00021 0 0 1 839.166 347.926)"/><path d="M1.21625-2.55834 125.97 56.7502 123.538 61.8669-1.21625 2.55834ZM125.844 50.4172 137.546 65.3897 118.547 65.7673Z" transform="matrix(-1.00021 0 0 1 839.575 347.926)"/><path d="M1.50025-2.40284 245.438 149.903 242.437 154.709-1.50025 2.40284ZM246.035 143.597 255.952 159.807 237.034 158.014Z" fill="#566BF7" transform="matrix(-1.00021 0 0 1 1032.01 347.926)"/><path d="M1030.61 350.654 786.951 213.378 789.733 208.442 1033.4 345.719ZM786.638 219.704 776 203.957 794.983 204.897Z" fill="#566BF7"/><path d="M1232.29 350.939 363.691 238.578 364.418 232.959 1233.01 345.32ZM365.769 244.559 350 233.95 367.95 227.703Z"/><path d="M1413 266.944C1413 262.526 1416.58 258.945 1421 258.945L1520 258.945C1524.42 258.945 1528 262.526 1528 266.944L1528 298.936C1528 303.354 1524.42 306.935 1520 306.935L1421 306.935C1416.58 306.935 1413 303.354 1413 298.936Z" stroke="#000000" stroke-width="2" stroke-miterlimit="8" fill="#0A24CC" fill-rule="evenodd"/><text fill="#FFFFFF" font-family="Arial,Arial_MSFontService,sans-serif" font-weight="700" font-size="16" transform="matrix(1 0 0 0.999788 1428.34 290)">Thin Film 1</text><path d="M1415 331.93C1415 327.512 1418.58 323.931 1423 323.931L1522 323.931C1526.42 323.931 1530 327.512 1530 331.93L1530 363.923C1530 368.34 1526.42 371.921 1522 371.921L1423 371.921C1418.58 371.921 1415 368.34 1415 363.923Z" stroke="#000000" stroke-width="2" stroke-miterlimit="8" fill="#0A24CC" fill-rule="evenodd"/><text fill="#FFFFFF" font-family="Arial,Arial_MSFontService,sans-serif" font-weight="700" font-size="16" transform="matrix(1 0 0 0.999788 1429.86 354)">Thin Film 2</text><path d="M1415 393.917C1415 389.499 1418.58 385.918 1423 385.918L1522 385.918C1526.42 385.918 1530 389.499 1530 393.917L1530 425.91C1530 430.327 1526.42 433.908 1522 433.908L1423 433.908C1418.58 433.908 1415 430.327 1415 425.91Z" stroke="#000000" stroke-width="2" stroke-miterlimit="8" fill="#0A24CC" fill-rule="evenodd"/><text fill="#FFFFFF" font-family="Arial,Arial_MSFontService,sans-serif" font-weight="700" font-size="21" transform="matrix(1 0 0 0.999788 1446.86 418)">Puck</text><path d="M0.940955-2.67189 624.823 217.04 622.941 222.384-0.940955 2.67189ZM624.035 210.756 637.243 224.417 618.389 226.787Z" fill="#566BF7" transform="matrix(-1.00021 0 0 1 1413.38 282.94)"/><path d="M1413.03 286.388 789.707 208.524 790.409 202.902 1413.73 280.766ZM791.815 214.497 776 203.957 793.923 197.631Z" fill="#566BF7"/><path d="M1414.28 350.726 789.194 209.835 790.44 204.308 1415.53 345.2ZM790.714 215.985 776 203.957 794.453 199.405Z" fill="#566BF7"/><path d="M0.688408-2.74781 625.72 153.841 624.343 159.337-0.688408 2.74781ZM624.348 147.657 638.77 160.031 620.218 164.144Z" fill="#566BF7" transform="matrix(-1.00021 0 0 1 1414.91 347.926)"/><path d="M0.426577-2.80043 625.194 92.3674 624.34 97.9683-0.426577 2.80043ZM623.247 86.3401 638.77 97.3009 620.688 103.143Z" fill="#566BF7" transform="matrix(-1.00021 0 0 1 1414.91 409.913)"/><path d="M1414.03 413.388 788.606 211.013 790.35 205.623 1415.78 407.998ZM789.557 217.276 776 203.957 794.791 201.105Z" fill="#566BF7"/><path d="M1569 311.934C1569 307.517 1572.58 303.936 1577 303.936L1677 303.936C1681.42 303.936 1685 307.517 1685 311.934L1685 343.927C1685 348.344 1681.42 351.925 1677 351.925L1577 351.925C1572.58 351.925 1569 348.344 1569 343.927Z" stroke="#000000" stroke-width="2" stroke-miterlimit="8" fill="#067F10" fill-rule="evenodd"/><text fill="#FFFFFF" font-family="Arial,Arial_MSFontService,sans-serif" font-weight="700" font-size="21" transform="matrix(1 0 0 0.999788 1604.48 336)">TEM </text><path d="M1482 473.9C1482 469.482 1485.58 465.901 1490 465.901L1589 465.901C1593.42 465.901 1597 469.482 1597 473.9L1597 505.893C1597 510.31 1593.42 513.891 1589 513.891L1490 513.891C1485.58 513.891 1482 510.31 1482 505.893Z" stroke="#000000" stroke-width="2" stroke-miterlimit="8" fill="#067F10" fill-rule="evenodd"/><text fill="#FFFFFF" font-family="Arial,Arial_MSFontService,sans-serif" font-weight="700" font-size="21" transform="matrix(1 0 0 0.999788 1517.56 498)">SEC </text><path d="M1569 366.922C1569 362.505 1572.58 358.924 1577 358.924L1677 358.924C1681.42 358.924 1685 362.505 1685 366.922L1685 398.915C1685 403.333 1681.42 406.914 1677 406.914L1577 406.914C1572.58 406.914 1569 403.333 1569 398.915Z" stroke="#000000" stroke-width="2" stroke-miterlimit="8" fill="#067F10" fill-rule="evenodd"/><text fill="#FFFFFF" font-family="Arial,Arial_MSFontService,sans-serif" font-weight="700" font-size="21" transform="matrix(1 0 0 0.999788 1605.15 391)">SEC </text><path d="M1473.2 431.34 1527.46 456.592 1525.07 461.729 1470.8 436.476ZM1527.28 450.261 1539.11 465.137 1520.11 465.67Z"/><path d="M1531.9 345.822 1560.88 371.941 1557.08 376.149 1528.1 350.03ZM1562.57 365.836 1569.5 383.529 1551.18 378.461Z"/><path d="M1.27498-2.52959 28.1213 11.0017 25.5714 16.0608-1.27498 2.52959ZM28.1417 4.66751 39.4943 19.9061 20.4919 19.845Z" transform="matrix(1.00021 0 0 -1 1530 347.837)"/><path d="M1507 180.962C1507 176.544 1510.58 172.963 1515 172.963L1614 172.963C1618.42 172.963 1622 176.544 1622 180.962L1622 212.955C1622 217.372 1618.42 220.953 1614 220.953L1515 220.953C1510.58 220.953 1507 217.372 1507 212.955Z" stroke="#000000" stroke-width="2" stroke-miterlimit="8" fill="#067F10" fill-rule="evenodd"/><text fill="#FFFFFF" font-family="Arial,Arial_MSFontService,sans-serif" font-weight="700" font-size="21" transform="matrix(1 0 0 0.999788 1530.35 205)">UV-<tspan font-size="21" x="36.6666" y="0">Vis </tspan></text><path d="M1.07756-2.61978 81.8856 30.6179 79.7305 35.8575-1.07756 2.61978ZM81.4209 24.3008 93.9069 38.6255 74.9556 40.0195Z" transform="matrix(1.00021 0 0 -1 1471 259.579)"/><path d="M1413 116.975C1413 112.558 1416.58 108.977 1421 108.977L1520 108.977C1524.42 108.977 1528 112.558 1528 116.975L1528 148.968C1528 153.386 1524.42 156.967 1520 156.967L1421 156.967C1416.58 156.967 1413 153.386 1413 148.968Z" stroke="#000000" stroke-width="2" stroke-miterlimit="8" fill="#067F10" fill-rule="evenodd"/><text fill="#FFFFFF" font-family="Arial,Arial_MSFontService,sans-serif" font-weight="700" font-size="21" transform="matrix(1 0 0 0.999788 1434.67 142)">Photos </text><path d="M1047.12 177.72 363.867 118.031 364.36 112.387 1047.61 172.076ZM366.195 123.921 350 113.976 367.675 106.989Z"/><path d="M1168.61 176.063 363.922 117.824 364.331 112.173 1169.02 170.413ZM366.342 123.679 350 113.976 367.569 106.727Z"/><path d="M0.826663-2.70943 106.185 29.4359 104.531 34.8547-0.826663 2.70943ZM105.128 23.1904 118.905 36.2786 100.168 39.4469Z" transform="matrix(-1.00021 0 0 1 1255.93 616.869)"/><path d="M1258.83 616.673 1260.37 638.822 1254.71 639.215 1253.17 617.066ZM1265.82 635.603 1258.52 653.148 1248.86 636.782Z"/><path d="M1256.8 614.151 1367.15 646.45 1365.56 651.887 1255.2 619.588ZM1366.03 640.217 1379.95 653.148 1361.25 656.529Z"/><path d="M1323 660.86C1323 656.443 1326.58 652.862 1331 652.862L1430 652.862C1434.42 652.862 1438 656.443 1438 660.86L1438 692.853C1438 697.271 1434.42 700.852 1430 700.852L1331 700.852C1326.58 700.852 1323 697.271 1323 692.853Z" stroke="#000000" stroke-width="2" stroke-miterlimit="8" fill="#067F10" fill-rule="evenodd"/><text fill="#FFFFFF" font-family="Arial,Arial_MSFontService,sans-serif" font-weight="700" font-size="21" transform="matrix(1 0 0 0.999788 1344.06 685)">Photos </text><path d="M1201 660.86C1201 656.443 1204.58 652.862 1209 652.862L1308 652.862C1312.42 652.862 1316 656.443 1316 660.86L1316 692.853C1316 697.271 1312.42 700.852 1308 700.852L1209 700.852C1204.58 700.852 1201 697.271 1201 692.853Z" stroke="#000000" stroke-width="2" stroke-miterlimit="8" fill="#067F10" fill-rule="evenodd"/><text fill="#FFFFFF" font-family="Arial,Arial_MSFontService,sans-serif" font-weight="700" font-size="21" transform="matrix(1 0 0 0.999788 1224.38 685)">UV-<tspan font-size="21" x="36.6667" y="0">Vis </tspan></text><path d="M1080 660.86C1080 656.443 1083.58 652.862 1088 652.862L1187 652.862C1191.42 652.862 1195 656.443 1195 660.86L1195 692.853C1195 697.271 1191.42 700.852 1187 700.852L1088 700.852C1083.58 700.852 1080 697.271 1080 692.853Z" stroke="#000000" stroke-width="2" stroke-miterlimit="8" fill="#067F10" fill-rule="evenodd"/><text fill="#FFFFFF" font-family="Arial,Arial_MSFontService,sans-serif" font-weight="700" font-size="19" transform="matrix(1 0 0 0.999788 1104.18 673)">grazing<tspan font-size="19" x="7.58008" y="23.0049">SAXS </tspan></text><path d="M1257.3 572.408 789.692 512.502 790.412 506.883 1258.02 566.788ZM791.782 518.482 776 507.892 793.942 501.623Z" fill="#566BF7"/><path d="M1255.94 571.955 785.567 214.779 788.995 210.267 1259.37 567.444ZM784.397 221.004 776 203.957 794.679 207.469Z" fill="#566BF7"/><path d="M839 331.93C839 327.512 842.582 323.931 847 323.931L947 323.931C951.418 323.931 955 327.512 955 331.93L955 363.923C955 368.34 951.418 371.921 947 371.921L847 371.921C842.582 371.921 839 368.34 839 363.923Z" stroke="#000000" stroke-width="2" stroke-miterlimit="8" fill="#FFC000" fill-rule="evenodd"/><text fill="#FFFFFF" font-family="Arial,Arial_MSFontService,sans-serif" font-weight="700" font-size="19" transform="matrix(1 0 0 0.999788 869.042 355)">ROMP</text><path d="M3.85536e-06-2.83273 62.9592-2.83265 62.9592 2.83282-3.85536e-06 2.83273ZM60.1265-8.49812 77.1229 0.000104965 60.1265 8.49828Z" transform="matrix(-1.00021 0 0 1 1032.14 347.926)"/><path d="M1091.78 371.386 1098.83 408.019 1093.27 409.089 1086.22 372.456ZM1103.86 404.167 1098.73 422.463 1087.17 407.378Z"/><path d="M1.11866-2.60249 105.688 42.3456 103.45 47.5506-1.11866 2.60249ZM105.323 36.022 117.582 50.5414 98.6107 51.637Z" transform="matrix(-1.00021 0 0 1 1089.61 371.921)"/><path d="M0.668336-2.75276 253.021 58.5152 251.684 64.0207-0.668336 2.75276ZM251.605 52.3413 266.116 64.6096 247.595 68.8579Z" fill="#566BF7" transform="matrix(-1.00021 0 0 1 1413.17 282.94)"/><path d="M0.0023641-2.83273 253.481-2.62119 253.477 3.04428-0.0023641 2.83273ZM250.653-8.28902 267.643 0.223365 250.639 8.70738Z" fill="#566BF7" transform="matrix(-1.00021 0 0 1 1414.7 347.926)"/><path d="M1414.05 413.191 1160.15 353.906 1161.44 348.389 1415.34 407.674ZM1161.62 360.067 1147 347.926 1165.49 343.516Z" fill="#566BF7"/><path d="M914 429.909C914 425.492 917.582 421.911 922 421.911L1021 421.911C1025.42 421.911 1029 425.492 1029 429.909L1029 461.902C1029 466.319 1025.42 469.9 1021 469.9L922 469.9C917.582 469.9 914 466.319 914 461.902Z" stroke="#000000" stroke-width="2" stroke-miterlimit="8" fill="#067F10" fill-rule="evenodd"/><text fill="#FFFFFF" font-family="Arial,Arial_MSFontService,sans-serif" font-weight="700" font-size="21" transform="matrix(1 0 0 0.999788 930.941 454)">1H NMR </text><path d="M1042 429.909C1042 425.492 1045.58 421.911 1050 421.911L1149 421.911C1153.42 421.911 1157 425.492 1157 429.909L1157 461.902C1157 466.319 1153.42 469.9 1149 469.9L1050 469.9C1045.58 469.9 1042 466.319 1042 461.902Z" stroke="#000000" stroke-width="2" stroke-miterlimit="8" fill="#067F10" fill-rule="evenodd"/><text fill="#FFFFFF" font-family="Arial,Arial_MSFontService,sans-serif" font-weight="700" font-size="21" transform="matrix(1 0 0 0.999788 1077.27 454)">SEC</text><path d="M1032 331.93C1032 327.512 1035.58 323.931 1040 323.931L1139 323.931C1143.42 323.931 1147 327.512 1147 331.93L1147 363.923C1147 368.34 1143.42 371.921 1139 371.921L1040 371.921C1035.58 371.921 1032 368.34 1032 363.923Z" stroke="#000000" stroke-width="2" stroke-miterlimit="8" fill="#0A24CC" fill-rule="evenodd"/><text fill="#FFFFFF" font-family="Arial,Arial_MSFontService,sans-serif" font-weight="700" font-size="15" transform="matrix(1 0 0 0.999788 1050.21 353)">Diblock BB</text><path d="M1320 180.962C1320 176.544 1323.58 172.963 1328 172.963L1427 172.963C1431.42 172.963 1435 176.544 1435 180.962L1435 212.955C1435 217.372 1431.42 220.953 1427 220.953L1328 220.953C1323.58 220.953 1320 217.372 1320 212.955Z" stroke="#000000" stroke-width="2" stroke-miterlimit="8" fill="#067F10" fill-rule="evenodd"/><text fill="#FFFFFF" font-family="Arial,Arial_MSFontService,sans-serif" font-weight="700" font-size="21" transform="matrix(1 0 0 0.999788 1354.78 205)">TEM </text><path d="M1350 473.9C1350 469.482 1353.58 465.901 1358 465.901L1457 465.901C1461.42 465.901 1465 469.482 1465 473.9L1465 505.893C1465 510.31 1461.42 513.891 1457 513.891L1358 513.891C1353.58 513.891 1350 510.31 1350 505.893Z" stroke="#000000" stroke-width="2" stroke-miterlimit="8" fill="#067F10" fill-rule="evenodd"/><text fill="#FFFFFF" font-family="Arial,Arial_MSFontService,sans-serif" font-weight="400" font-size="19" transform="matrix(1 0 0 0.999788 1366.53 485)">frequency <tspan font-size="19" x="9.25342" y="23.0049">sweeps</tspan></text><path d="M1.23723-2.54826 53.4024 22.779 50.9279 27.8755-1.23723 2.54826ZM53.3286 16.4452 64.9065 31.5134 45.9052 31.7348Z" transform="matrix(-1.00021 0 0 1 1471.92 433.908)"/><path d="M2.83273-2.9192e-06 2.83282 87.6918-2.83264 87.6918-2.83273 2.9192e-06ZM8.49829 84.8591 0.000104965 101.855-8.49811 84.8591Z" transform="matrix(1.00021 0 0 -1 1471 258.822)"/><path d="M1087.03 324.811 1050.79 237.125 1056.03 234.961 1092.27 322.648ZM1046.64 241.906 1048 222.953 1062.35 235.415Z"/><path d="M2.23487-1.74062 73.3143 89.5221 68.8446 93.0033-2.23487 1.74062ZM76.0435 83.806 79.7826 102.437 62.6343 94.2497Z" transform="matrix(1.00021 0 0 -1 1089 323.39)"/><path d="M1255.31 476.898 1154.15 360.476 1158.43 356.761 1259.59 473.182ZM1151.73 366.33 1147 347.926 1164.57 355.184Z"/><path d="M990 182.961C990 178.544 993.582 174.963 998 174.963L1097 174.963C1101.42 174.963 1105 178.544 1105 182.961L1105 214.954C1105 219.372 1101.42 222.953 1097 222.953L998 222.953C993.582 222.953 990 219.372 990 214.954Z" stroke="#000000" stroke-width="2" stroke-miterlimit="8" fill="#067F10" fill-rule="evenodd"/><text fill="#FFFFFF" font-family="Arial,Arial_MSFontService,sans-serif" font-weight="700" font-size="15" transform="matrix(1 0 0 0.999788 1004.14 195)">Sol. Neutron <tspan font-size="15" x="7.7467" y="18.0038">Scattering</tspan></text><path d="M1112 180.962C1112 176.544 1115.58 172.963 1120 172.963L1219 172.963C1223.42 172.963 1227 176.544 1227 180.962L1227 212.955C1227 217.372 1223.42 220.953 1219 220.953L1120 220.953C1115.58 220.953 1112 217.372 1112 212.955Z" stroke="#000000" stroke-width="2" stroke-miterlimit="8" fill="#067F10" fill-rule="evenodd"/><text fill="#FFFFFF" font-family="Arial,Arial_MSFontService,sans-serif" font-weight="400" font-size="19" transform="matrix(1 0 0 0.999788 1128.35 193)">frequency <tspan font-size="19" x="9.2533" y="23.0049">sweeps</tspan></text><path d="M1254.92 570.703 1150.78 361.866 1155.86 359.338 1259.99 568.175ZM1146.98 366.929 1147 347.926 1162.19 359.346Z" fill="#566BF7"/><path d="M4.57951e-06-2.83273 50.764-2.83265 50.764 2.83282-4.57951e-06 2.83273ZM47.9313-8.49812 64.9277 0.000104965 47.9313 8.49828Z" transform="matrix(-1.00021 0 0 1 1412.94 282.94)"/><path d="M1415.48 350.235 1361.95 346.69 1362.32 341.037 1415.86 344.582ZM1364.4 352.53 1348 342.927 1365.52 335.571Z"/><path d="M1413.14 412.744 1362.02 410.394 1362.28 404.735 1413.4 407.084ZM1364.59 416.184 1348 406.914 1365.37 399.205Z"/><path d="M1233 266.944C1233 262.526 1236.58 258.945 1241 258.945L1340 258.945C1344.42 258.945 1348 262.526 1348 266.944L1348 298.936C1348 303.354 1344.42 306.935 1340 306.935L1241 306.935C1236.58 306.935 1233 303.354 1233 298.936Z" stroke="#000000" stroke-width="2" stroke-miterlimit="8" fill="#FFC000" fill-rule="evenodd"/><text fill="#FFFFFF" font-family="Arial,Arial_MSFontService,sans-serif" font-weight="700" font-size="19" transform="matrix(1 0 0 0.999788 1247.2 290)">Spin Coat</text><path d="M1233 331.93C1233 327.512 1236.58 323.931 1241 323.931L1340 323.931C1344.42 323.931 1348 327.512 1348 331.93L1348 363.923C1348 368.34 1344.42 371.921 1340 371.921L1241 371.921C1236.58 371.921 1233 368.34 1233 363.923Z" stroke="#000000" stroke-width="2" stroke-miterlimit="8" fill="#FFC000" fill-rule="evenodd"/><text fill="#FFFFFF" font-family="Arial,Arial_MSFontService,sans-serif" font-weight="700" font-size="19" transform="matrix(1 0 0 0.999788 1247.2 343)">Spin Coat <tspan font-size="19" x="4.41333" y="23.0049">+ Anneal</tspan></text><path d="M1233 393.917C1233 389.499 1236.58 385.918 1241 385.918L1340 385.918C1344.42 385.918 1348 389.499 1348 393.917L1348 425.91C1348 430.327 1344.42 433.908 1340 433.908L1241 433.908C1236.58 433.908 1233 430.327 1233 425.91Z" stroke="#000000" stroke-width="2" stroke-miterlimit="8" fill="#FFC000" fill-rule="evenodd"/><text fill="#FFFFFF" font-family="Arial,Arial_MSFontService,sans-serif" font-weight="700" font-size="19" transform="matrix(1 0 0 0.999788 1247.11 417)">Hot Press</text><path d="M1469.39 262.197 1389.01 228.981 1391.17 223.745 1471.56 256.961ZM1389.46 235.299 1377 220.953 1395.96 219.592Z"/><text fill="#898989" font-family="Arial,Arial_MSFontService,sans-serif" font-weight="400" font-size="12" transform="matrix(1 0 0 0.999788 1279.72 515)">1</text><path d="M1200 482.898C1200 478.48 1203.58 474.899 1208 474.899L1307 474.899C1311.42 474.899 1315 478.48 1315 482.898L1315 514.891C1315 519.308 1311.42 522.889 1307 522.889L1208 522.889C1203.58 522.889 1200 519.308 1200 514.891Z" stroke="#000000" stroke-width="2" stroke-miterlimit="8" fill="#FFC000" fill-rule="evenodd"/><text fill="#FFFFFF" font-family="Arial,Arial_MSFontService,sans-serif" font-weight="700" font-size="19" transform="matrix(1 0 0 0.999788 1245.52 494)">3D <tspan font-size="19" x="-22.6667" y="23.0049">printing</tspan></text><path d="M2.83273-6.63225e-06 2.83281 30.6683-2.83266 30.6683-2.83273 6.63225e-06ZM8.49827 27.8356 0.000104965 44.832-8.49814 27.8356Z" transform="matrix(1.00021 0 0 -1 1257 569.721)"/><path d="M1.70132-2.26492 76.3896 53.8381 72.9869 58.3679-1.70132 2.26492ZM77.5273 47.6069 86.0129 64.6096 67.3194 61.1964Z" transform="matrix(-1.00021 0 0 1 1233.03 282.94)"/><path d="M0.00735623-2.83272 71.8566-2.64614 71.8419 3.01931-0.00735623 2.83272ZM69.0386-8.31894 86.0129 0.223365 68.9944 8.6774Z" transform="matrix(-1.00021 0 0 1 1233.03 347.926)"/><path d="M1231.37 412.724 1156.79 358.544 1160.13 353.961 1234.7 408.141ZM1155.76 364.793 1147 347.926 1165.75 351.043Z"/><path d="M1200 576.878C1200 572.461 1203.58 568.88 1208 568.88L1307 568.88C1311.42 568.88 1315 572.461 1315 576.878L1315 608.871C1315 613.288 1311.42 616.869 1307 616.869L1208 616.869C1203.58 616.869 1200 613.288 1200 608.871Z" stroke="#000000" stroke-width="2" stroke-miterlimit="8" fill="#0A24CC" fill-rule="evenodd"/><text fill="#FFFFFF" font-family="Arial,Arial_MSFontService,sans-serif" font-weight="700" font-size="16" transform="matrix(1 0 0 0.999788 1239.19 590)">Print <tspan font-size="16" x="-11.9199" y="19.004">Material</tspan></text></g></svg>