<svg width="1280" height="576" xmlns="http://www.w3.org/2000/svg" xmlns:xlink="http://www.w3.org/1999/xlink" overflow="hidden"><defs><clipPath id="clip0"><rect x="0" y="0" width="1280" height="576"/></clipPath></defs><g clip-path="url(#clip0)"><rect x="0" y="0" width="1280" height="576" fill="#FFFFFF"/><path d="M18 503C18 498.582 21.5818 495 26.0002 495L125 495C129.418 495 133 498.582 133 503L133 535C133 539.418 129.418 543 125 543L26.0002 543C21.5818 543 18 539.418 18 535Z" stroke="#000000" stroke-width="2" stroke-miterlimit="8" fill="#0A24CC" fill-rule="evenodd"/><text fill="#FFFFFF" font-family="Arial,Arial_MSFontService,sans-serif" font-weight="700" font-size="21" transform="translate(35.2966 527)">Material</text><path d="M518 503C518 498.582 521.582 495 526 495L625 495C629.418 495 633 498.582 633 503L633 535C633 539.418 629.418 543 625 543L526 543C521.582 543 518 539.418 518 535Z" stroke="#000000" stroke-width="2" stroke-miterlimit="8" fill="#FFC000" fill-rule="evenodd"/><text fill="#FFFFFF" font-family="Arial,Arial_MSFontService,sans-serif" font-weight="700" font-size="21" transform="translate(533.984 527)">Process </text><path d="M268 503C268 498.582 271.582 495 276 495L375 495C379.418 495 383 498.582 383 503L383 535C383 539.418 379.418 543 375 543L276 543C271.582 543 268 539.418 268 535Z" stroke="#000000" stroke-width="2" stroke-miterlimit="8" fill="#9A3333" fill-rule="evenodd"/><text fill="#FFFFFF" font-family="Arial,Arial_MSFontService,sans-serif" font-weight="700" font-size="21" transform="translate(287.64 527)">Sample </text><path d="M643 503C643 498.582 646.582 495 651 495L750 495C754.418 495 758 498.582 758 503L758 535C758 539.418 754.418 543 750 543L651 543C646.582 543 643 539.418 643 535Z" stroke="#000000" stroke-width="2" stroke-miterlimit="8" fill="#067F10" fill-rule="evenodd"/><text fill="#FFFFFF" font-family="Arial,Arial_MSFontService,sans-serif" font-weight="700" font-size="21" transform="translate(677.239 527)">Data </text><path d="M143 503C143 498.582 146.582 495 151 495L250 495C254.418 495 258 498.582 258 503L258 535C258 539.418 254.418 543 250 543L151 543C146.582 543 143 539.418 143 535Z" stroke="#000000" stroke-width="2" stroke-miterlimit="8" fill="#9100B8" fill-rule="evenodd"/><text fill="#FFFFFF" font-family="Arial,Arial_MSFontService,sans-serif" font-weight="700" font-size="21" transform="translate(176.968 527)">User</text><path d="M768 503C768 498.582 771.582 495 776 495L875 495C879.418 495 883 498.582 883 503L883 535C883 539.418 879.418 543 875 543L776 543C771.582 543 768 539.418 768 535Z" stroke="#000000" stroke-width="2" stroke-miterlimit="8" fill="#00B0F0" fill-rule="evenodd"/><text fill="#FFFFFF" font-family="Arial,Arial_MSFontService,sans-serif" font-weight="700" font-size="21" transform="translate(802.077 527)">Coll.</text><path d="M393 503C393 498.582 396.582 495 401 495L500 495C504.418 495 508 498.582 508 503L508 535C508 539.418 504.418 543 500 543L401 543C396.582 543 393 539.418 393 535Z" stroke="#000000" stroke-width="2" stroke-miterlimit="8" fill="#FB7623" fill-rule="evenodd"/><text fill="#FFFFFF" font-family="Arial,Arial_MSFontService,sans-serif" font-weight="700" font-size="21" transform="translate(418.479 527)">Group </text><path d="M893 503C893 498.582 896.582 495 901 495L1000 495C1004.42 495 1008 498.582 1008 503L1008 535C1008 539.418 1004.42 543 1000 543L901 543C896.582 543 893 539.418 893 535Z" stroke="#000000" stroke-width="2" stroke-miterlimit="8" fill="#595959" fill-rule="evenodd"/><text fill="#FFFFFF" font-family="Arial,Arial_MSFontService,sans-serif" font-weight="700" font-size="21" transform="translate(927.082 527)">Pub. </text><path d="M1017 503C1017 498.582 1020.58 495 1025 495L1125 495C1129.42 495 1133 498.582 1133 503L1133 535C1133 539.418 1129.42 543 1125 543L1025 543C1020.58 543 1017 539.418 1017 535Z" stroke="#000000" stroke-width="2" stroke-miterlimit="8" fill="#D9D9D9" fill-rule="evenodd"/><text font-family="Arial,Arial_MSFontService,sans-serif" font-weight="700" font-size="21" transform="translate(1049 527)">Expt. </text><path d="M1142 503C1142 498.582 1145.58 495 1150 495L1250 495C1254.42 495 1258 498.582 1258 503L1258 535C1258 539.418 1254.42 543 1250 543L1150 543C1145.58 543 1142 539.418 1142 535Z" stroke="#7F7F7F" stroke-width="2" stroke-miterlimit="8" fill-rule="evenodd"/><text fill="#FFFFFF" font-family="Arial,Arial_MSFontService,sans-serif" font-weight="700" font-size="21" transform="translate(1177.43 527)">Sim. </text><path d="M809.085 252 1133 251.68 1133 98 809 98 809.085 252Z" stroke="#000000" stroke-width="4" stroke-miterlimit="8" fill="#FFF2CC" fill-rule="evenodd" fill-opacity="0.501961"/><path d="M419.799 105 419 297.769 648.216 298.301C648.127 331.534 648.038 364.767 647.95 398L1046 398 1046 191.141 627.319 191.141 627.319 106.213 600.621 106.82 419.799 105Z" stroke="#000000" stroke-width="4" stroke-miterlimit="8" fill="#99FF99" fill-rule="evenodd" fill-opacity="0.501961"/><path d="M74.8009 127 231.771 127 333.481 225.561 565.732 225.561 565.732 308.601 629 308.601 629 380 74 380 74.8009 127Z" stroke="#000000" stroke-width="4" stroke-linecap="round" stroke-miterlimit="8" fill="#7F7F7F" fill-rule="evenodd" fill-opacity="0.501961"/><path d="M90 147C90 142.582 93.5818 139 98.0002 139L197 139C201.418 139 205 142.582 205 147L205 179C205 183.418 201.418 187 197 187L98.0002 187C93.5818 187 90 183.418 90 179Z" stroke="#000000" stroke-width="2" stroke-miterlimit="8" fill="#0A24CC" fill-rule="evenodd"/><text fill="#FFFFFF" font-family="Arial,Arial_MSFontService,sans-serif" font-weight="700" font-size="21" transform="translate(106.816 171)">Material</text><path d="M658 237C658 232.582 661.582 229 666 229L766 229C770.418 229 774 232.582 774 237L774 269C774 273.418 770.418 277 766 277L666 277C661.582 277 658 273.418 658 269Z" stroke="#000000" stroke-width="2" stroke-miterlimit="8" fill="#FFC000" fill-rule="evenodd"/><text fill="#FFFFFF" font-family="Arial,Arial_MSFontService,sans-serif" font-weight="700" font-size="21" transform="translate(674.658 262)">Process </text><path d="M779 347C779 342.582 782.582 339 787 339L887 339C891.418 339 895 342.582 895 347L895 379C895 383.418 891.418 387 887 387L787 387C782.582 387 779 383.418 779 379Z" stroke="#000000" stroke-width="2" stroke-miterlimit="8" fill="#067F10" fill-rule="evenodd"/><text fill="#FFFFFF" font-family="Arial,Arial_MSFontService,sans-serif" font-weight="700" font-size="21" transform="translate(813.875 371)">Data </text><path d="M837 120C837 115.582 840.582 112 845 112L944 112C948.418 112 952 115.582 952 120L952 152C952 156.418 948.418 160 944 160L845 160C840.582 160 837 156.418 837 152Z" stroke="#000000" stroke-width="2" stroke-miterlimit="8" fill="#9A3333" fill-rule="evenodd"/><text fill="#FFFFFF" font-family="Arial,Arial_MSFontService,sans-serif" font-weight="700" font-size="21" transform="translate(856.5 144)">Sample </text><path d="M650 436C650 431.582 653.582 428 658 428L786 428C790.418 428 794 431.582 794 436L794 468C794 472.418 790.418 476 786 476L658 476C653.582 476 650 472.418 650 468Z" stroke="#AC1819" stroke-width="2" stroke-miterlimit="8" fill="#F09191" fill-rule="evenodd"/><text font-family="Arial,Arial_MSFontService,sans-serif" font-weight="700" font-size="21" transform="translate(672.111 460)">Data Lake </text><path d="M501 436C501 431.582 504.582 428 509 428L637 428C641.418 428 645 431.582 645 436L645 468C645 472.418 641.418 476 637 476L509 476C504.582 476 501 472.418 501 468Z" stroke="#0A24CC" stroke-width="2" stroke-miterlimit="8" fill="#8E9DF9" fill-rule="evenodd"/><text font-family="Arial,Arial_MSFontService,sans-serif" font-weight="700" font-size="21" transform="translate(515.229 460)">Model Lake </text><path d="M215.932 172.445 277.674 251.858 273.2 255.337 211.459 175.923ZM208.724 181.638 205 163 222.145 171.204Z"/><path d="M432 237C432 232.582 435.582 229 440 229L539 229C543.418 229 547 232.582 547 237L547 269C547 273.418 543.418 277 539 277L440 277C435.582 277 432 273.418 432 269Z" stroke="#000000" stroke-width="2" stroke-miterlimit="8" fill="#0A24CC" fill-rule="evenodd"/><text fill="#FFFFFF" font-family="Arial,Arial_MSFontService,sans-serif" font-weight="700" font-size="21" transform="translate(448.837 262)">Material</text><path d="M90 208C90 203.582 93.5818 200 98.0002 200L197 200C201.418 200 205 203.582 205 208L205 240C205 244.418 201.418 248 197 248L98.0002 248C93.5818 248 90 244.418 90 240Z" stroke="#000000" stroke-width="2" stroke-miterlimit="8" fill="#0A24CC" fill-rule="evenodd"/><text fill="#FFFFFF" font-family="Arial,Arial_MSFontService,sans-serif" font-weight="700" font-size="21" transform="translate(106.816 233)">Material</text><path d="M90 270C90 265.582 93.5818 262 98.0002 262L197 262C201.418 262 205 265.582 205 270L205 302C205 306.418 201.418 310 197 310L98.0002 310C93.5818 310 90 306.418 90 302Z" stroke="#000000" stroke-width="2" stroke-miterlimit="8" fill="#0A24CC" fill-rule="evenodd"/><text fill="#FFFFFF" font-family="Arial,Arial_MSFontService,sans-serif" font-weight="700" font-size="21" transform="translate(106.816 294)">Material</text><path d="M90 332C90 327.582 93.5818 324 98.0002 324L197 324C201.418 324 205 327.582 205 332L205 364C205 368.418 201.418 372 197 372L98.0002 372C93.5818 372 90 368.418 90 364Z" stroke="#000000" stroke-width="2" stroke-miterlimit="8" fill="#0A24CC" fill-rule="evenodd"/><text fill="#FFFFFF" font-family="Arial,Arial_MSFontService,sans-serif" font-weight="700" font-size="21" transform="translate(106.816 356)">Material</text><path d="M275 237C275 232.582 278.582 229 283 229L382 229C386.418 229 390 232.582 390 237L390 269C390 273.418 386.418 277 382 277L283 277C278.582 277 275 273.418 275 269Z" stroke="#000000" stroke-width="2" stroke-miterlimit="8" fill="#FFC000" fill-rule="evenodd"/><text fill="#FFFFFF" font-family="Arial,Arial_MSFontService,sans-serif" font-weight="700" font-size="21" transform="translate(291.453 262)">Process </text><path d="M432 181C432 176.582 435.582 173 440 173L539 173C543.418 173 547 176.582 547 181L547 213C547 217.418 543.418 221 539 221L440 221C435.582 221 432 217.418 432 213Z" stroke="#000000" stroke-width="2" stroke-miterlimit="8" fill="#0A24CC" fill-rule="evenodd"/><text fill="#FFFFFF" font-family="Arial,Arial_MSFontService,sans-serif" font-weight="700" font-size="21" transform="translate(448.837 205)">Material</text><path d="M377 328C377 323.582 380.582 320 385 320L484 320C488.418 320 492 323.582 492 328L492 360C492 364.418 488.418 368 484 368L385 368C380.582 368 377 364.418 377 360Z" stroke="#000000" stroke-width="2" stroke-miterlimit="8" fill="#067F10" fill-rule="evenodd"/><text fill="#FFFFFF" font-family="Arial,Arial_MSFontService,sans-serif" font-weight="700" font-size="21" transform="translate(411.201 352)">Data </text><path d="M506 327C506 322.582 509.582 319 514 319L613 319C617.418 319 621 322.582 621 327L621 359C621 363.418 617.418 367 613 367L514 367C509.582 367 506 363.418 506 359Z" stroke="#000000" stroke-width="2" stroke-miterlimit="8" fill="#067F10" fill-rule="evenodd"/><text fill="#FFFFFF" font-family="Arial,Arial_MSFontService,sans-serif" font-weight="700" font-size="21" transform="translate(540.42 351)">Data </text><path d="M837 208C837 203.582 840.582 200 845 200L944 200C948.418 200 952 203.582 952 208L952 240C952 244.418 948.418 248 944 248L845 248C840.582 248 837 244.418 837 240Z" stroke="#000000" stroke-width="2" stroke-miterlimit="8" fill="#0A24CC" fill-rule="evenodd"/><text fill="#FFFFFF" font-family="Arial,Arial_MSFontService,sans-serif" font-weight="700" font-size="21" transform="translate(854 232)">Material</text><path d="M994 120C994 115.582 997.582 112 1002 112L1101 112C1105.42 112 1109 115.582 1109 120L1109 152C1109 156.418 1105.42 160 1101 160L1002 160C997.582 160 994 156.418 994 152Z" stroke="#000000" stroke-width="2" stroke-miterlimit="8" fill="#067F10" fill-rule="evenodd"/><text fill="#FFFFFF" font-family="Arial,Arial_MSFontService,sans-serif" font-weight="700" font-size="21" transform="translate(1028.31 144)">Data </text><path d="M432 126C432 121.582 435.582 118 440 118L539 118C543.418 118 547 121.582 547 126L547 158C547 162.418 543.418 166 539 166L440 166C435.582 166 432 162.418 432 158Z" stroke="#000000" stroke-width="2" stroke-miterlimit="8" fill="#0A24CC" fill-rule="evenodd"/><text fill="#FFFFFF" font-family="Arial,Arial_MSFontService,sans-serif" font-weight="700" font-size="21" transform="translate(448.837 150)">Material</text><path d="M837 263C837 258.582 840.582 255 845 255L944 255C948.418 255 952 258.582 952 263L952 295C952 299.418 948.418 303 944 303L845 303C840.582 303 837 299.418 837 295Z" stroke="#000000" stroke-width="2" stroke-miterlimit="8" fill="#0A24CC" fill-rule="evenodd"/><text fill="#FFFFFF" font-family="Arial,Arial_MSFontService,sans-serif" font-weight="700" font-size="21" transform="translate(854 287)">Material</text><path d="M907 347C907 342.582 910.582 339 915 339L1014 339C1018.42 339 1022 342.582 1022 347L1022 379C1022 383.418 1018.42 387 1014 387L915 387C910.582 387 907 383.418 907 379Z" stroke="#000000" stroke-width="2" stroke-miterlimit="8" fill="#067F10" fill-rule="evenodd"/><text fill="#FFFFFF" font-family="Arial,Arial_MSFontService,sans-serif" font-weight="700" font-size="21" transform="translate(941.386 371)">Data </text><path d="M219.181 226.763 276.514 250.316 274.36 255.558 217.027 232.004ZM217.495 238.322 205 224 223.955 222.598Z"/><path d="M10.7436 9.65897 72.7078 92.6897 68.1663 96.0788 6.20222 13.0481ZM3.35539 18.7081 0 0 16.9797 8.54052Z" transform="matrix(1 0 0 -1 205 347.384)"/><path d="M14.0416 3.39929 71.6308 30.1541 69.2433 35.2932 11.6541 8.53843ZM11.8361 14.8713 0 0 18.9987-0.54608Z" transform="matrix(1 0 0 -1 205 285.724)"/><path d="M404.167 250.167 431.184 250.167 431.184 255.833 404.167 255.833ZM407 261.5 390 253 407 244.5Z"/><path d="M561.167 250.167 658.621 250.167 658.621 255.833 561.167 255.833ZM564 261.5 547 253 564 244.5Z"/><path d="M560.915 200.884 659.903 251.117 657.339 256.17 558.351 205.937ZM558.313 212.273 547 197 566.006 197.113Z"/><path d="M559.015 150.023 660.626 251.782 656.616 255.786 555.005 154.027ZM552.997 160.036 547 142 565.027 148.024Z"/><path d="M788.201 255.657 838.199 275.765 836.085 281.023 786.086 260.915ZM786.601 267.229 774 253 792.944 251.457Z"/><path d="M14.0246 3.46894 64.3487 27.1529 61.9356 32.2801 11.6115 8.59616ZM11.7621 14.9299 0 0 19.0012-0.451774Z" transform="matrix(1 0 0 -1 774 253.717)"/><path d="M12.937 6.4308 56.704 40.3081 53.2355 44.7892 9.46849 10.9119ZM8.2405 17.1273 0 0 18.6461 3.68397Z" transform="matrix(1 0 0 -1 434 319.549)"/><path d="M549.5 314.04 487.618 279.474 490.382 274.526 552.263 309.093ZM552.553 302.764 563.249 318.475 544.263 317.605Z"/><path d="M950.15 334.912 892.709 305.522 895.291 300.478 952.731 329.867ZM952.79 323.532 964.052 338.843 945.047 338.666Z"/><path d="M13.5194 5.09398 58.9582 33.4387 55.959 38.2466 10.5202 9.9019ZM9.92499 16.2094 0 0 18.9225 1.78565Z" transform="matrix(1 0 0 -1 837 338.843)"/><path d="M896.833 174.167 896.833 199.413 891.167 199.413 891.167 174.167ZM885.5 177 894 160 902.5 177Z"/><path d="M14.1667-2.8333 41.7757-2.83323 41.7756 2.83344 14.1667 2.83337ZM17 8.50004 0 0 17-8.49996Z" transform="matrix(-1 0 0 1 993.776 136)"/><path d="M566.88 427.219 557.09 422.984 558.149 420.537 567.938 424.772ZM549.747 419.808 539.958 415.573 541.016 413.125 550.806 417.361ZM532.615 412.397 522.825 408.162 523.884 405.714 533.674 409.949ZM515.483 404.985 505.693 400.75 506.752 398.303 516.542 402.538ZM498.35 397.574 488.561 393.339 489.619 390.892 499.409 395.127ZM481.218 390.163 471.428 385.928 472.487 383.48 482.277 387.715ZM464.086 382.751 454.296 378.516 455.355 376.069 465.145 380.304ZM446.953 375.34 437.164 371.105 438.222 368.658 448.012 372.893ZM567.774 421.795 573.528 428.643 564.597 429.137Z" fill="#0A24CC"/><path d="M571.937 422.345 570.25 411.812 572.883 411.39 574.57 421.923ZM568.984 403.913 567.297 393.381 569.93 392.959 571.617 403.491ZM566.031 385.482 564.343 374.949 566.976 374.527 568.664 385.06ZM576.993 420.184 574.309 428.716 569.093 421.45Z" fill="#0A24CC"/><path d="M6.79127-0.29899 17.3326 1.33111 16.9251 3.96645 6.38375 2.33635ZM25.2387 2.55369 35.78 4.18379 35.3725 6.81913 24.8312 5.18903ZM43.6861 5.40637 54.2274 7.03647 53.8199 9.67181 43.2786 8.04171ZM62.1335 8.25904 72.6749 9.88915 72.2673 12.5245 61.726 10.8944ZM80.5809 11.1117 91.1222 12.7418 90.7147 15.3772 80.1734 13.7471ZM99.0283 13.9644 109.57 15.5945 109.162 18.2298 98.6208 16.5997ZM117.476 16.8171 128.017 18.4472 127.61 21.0825 117.068 19.4524ZM135.923 19.6698 146.464 21.2999 146.057 23.9352 135.516 22.3051ZM154.37 22.5224 164.912 24.1525 164.504 26.7879 153.963 25.1578ZM172.818 25.3751 183.359 27.0052 182.952 29.6406 172.41 28.0105ZM191.265 28.2278 201.807 29.8579 201.399 32.4932 190.858 30.8631ZM209.713 31.0805 220.254 32.7106 219.847 35.3459 209.305 33.7158ZM228.16 33.9332 238.701 35.5633 238.294 38.1986 227.753 36.5685ZM246.607 36.7858 257.149 38.4159 256.741 41.0513 246.2 39.4212ZM7.29474 5.17559 0 0 8.51732-2.73044Z" fill="#0A24CC" transform="matrix(1 0 0 -1 573.5 428.27)"/><path d="M715.861 428.586 705.42 426.406 705.965 423.796 716.406 425.975ZM697.589 424.772 687.147 422.592 687.692 419.982 698.133 422.161ZM679.316 420.958 668.874 418.779 669.419 416.168 679.86 418.348ZM661.043 417.144 650.601 414.965 651.146 412.354 661.587 414.534ZM642.77 413.33 632.328 411.151 632.873 408.541 643.315 410.72ZM624.497 409.517 614.055 407.337 614.6 404.727 625.042 406.906ZM606.224 405.703 595.782 403.524 596.327 400.913 606.769 403.092ZM587.951 401.889 577.509 399.71 578.054 397.099 588.496 399.279ZM569.678 398.075 559.236 395.896 559.781 393.286 570.223 395.465ZM551.405 394.262 540.964 392.082 541.508 389.472 551.95 391.651ZM533.132 390.448 522.691 388.269 523.235 385.658 533.677 387.837ZM514.859 386.634 504.418 384.455 504.962 381.844 515.404 384.024ZM496.586 382.82 486.145 380.641 486.69 378.031 497.131 380.21ZM478.313 379.007 467.872 376.827 468.417 374.217 478.858 376.396ZM460.041 375.193 449.599 373.013 450.144 370.403 460.585 372.582ZM441.768 371.379 434.228 369.805 434.772 367.195 442.312 368.769ZM715.646 423.092 722.66 428.643 714.012 430.924Z" fill="#AC1819"/><path d="M6.7276 0.979886 16.7764 4.55752 15.882 7.06972 5.83319 3.49208ZM24.313 7.24075 34.3618 10.8184 33.4674 13.3306 23.4186 9.75294ZM41.8984 13.5016 51.9472 17.0792 51.0528 19.5914 41.004 16.0138ZM59.4838 19.7625 69.5326 23.3401 68.6382 25.8523 58.5894 22.2747ZM77.0692 26.0233 87.118 29.601 86.2236 32.1132 76.1748 28.5355ZM94.6546 32.2842 104.703 35.8618 103.809 38.374 93.7602 34.7964ZM112.24 38.545 114.961 39.5138 114.066 42.026 111.346 41.0572ZM6.19498 6.45152 0 0 8.87821-1.08507Z" fill="#AC1819" transform="matrix(1 0 0 -1 722.5 428.27)"/><path d="M716.741 427.565 706.787 423.731 707.746 421.242 717.699 425.076ZM699.322 420.855 689.368 417.022 690.326 414.533 700.28 418.367ZM681.902 414.146 671.948 410.313 672.907 407.824 682.861 411.658ZM664.483 407.437 654.529 403.604 655.488 401.115 665.441 404.949ZM647.064 400.728 637.11 396.895 638.068 394.406 648.022 398.24ZM629.644 394.019 619.69 390.185 620.649 387.697 630.603 391.531ZM612.225 387.31 602.271 383.476 603.23 380.988 613.183 384.822ZM594.806 380.601 584.852 376.767 585.81 374.279 595.764 378.113ZM577.386 373.892 567.432 370.058 568.391 367.57 578.345 371.404ZM717.414 422.108 723.441 428.716 714.538 429.574Z" fill="#AC1819"/><path d="M6.795-0.207479 17.3135 1.56439 16.8705 4.19401 6.35203 2.42214ZM25.2023 2.8933 35.7208 4.66517 35.2778 7.29479 24.7594 5.52291ZM43.6096 5.99407 54.1281 7.76594 53.6852 10.3956 43.1667 8.62369ZM62.017 9.09484 72.5354 10.8667 72.0925 13.4963 61.574 11.7245ZM80.4243 12.1956 90.9428 13.9675 90.4998 16.5971 79.9813 14.8252ZM98.8316 15.2964 109.35 17.0683 108.907 19.6979 98.3886 17.926ZM117.239 18.3972 127.757 20.169 127.314 22.7987 116.796 21.0268ZM135.646 21.4979 146.165 23.2698 145.722 25.8994 135.203 24.1276ZM154.054 24.5987 164.572 26.3706 164.129 29.0002 153.611 27.2283ZM172.461 27.6995 182.979 29.4714 182.536 32.101 172.018 30.3291ZM190.868 30.8003 201.387 32.5721 200.944 35.2018 190.425 33.4299ZM209.276 33.901 219.794 35.6729 219.351 38.3025 208.833 36.5307ZM227.683 37.0018 238.201 38.7737 237.758 41.4033 227.24 39.6314ZM7.2244 5.27333 0 0 8.55331-2.61552Z" fill="#AC1819" transform="matrix(1 0 0 -1 722.5 428.27)"/><path d="M658 321C658 316.582 661.582 313 666 313L766 313C770.418 313 774 316.582 774 321L774 353C774 357.418 770.418 361 766 361L666 361C661.582 361 658 357.418 658 353Z" stroke="#000000" stroke-width="2" stroke-miterlimit="8" fill="#067F10" fill-rule="evenodd"/><text fill="#FFFFFF" font-family="Arial,Arial_MSFontService,sans-serif" font-weight="700" font-size="21" transform="translate(692.991 345)">Data </text><path d="M2.83338 14.1667 2.83344 35.1845-2.83323 35.1845-2.83329 14.1667ZM-8.49995 17 0 0 8.50005 17Z" transform="matrix(1 0 0 -1 716 312.184)"/><path d="M720.91 421.812 719.898 411.194 722.552 410.941 723.565 421.559ZM719.139 403.23 718.126 392.611 720.781 392.358 721.793 402.977ZM717.367 384.647 716.355 374.029 719.01 373.776 720.022 384.394ZM715.596 366.065 715.173 361.627 717.827 361.374 718.25 365.812ZM726.093 419.979 722.87 428.322 718.129 420.738Z" fill="#AC1819"/><path d="M6.60312 1.61852 16.2639 6.14039 15.1334 8.55558 5.47265 4.03372ZM23.5095 9.53178 33.1702 14.0536 32.0398 16.4688 22.379 11.947ZM40.4158 17.445 50.0766 21.9669 48.9461 24.3821 39.2854 19.8602ZM57.3222 25.3583 66.9829 29.8802 65.8525 32.2954 56.1917 27.7735ZM74.2285 33.2716 83.8893 37.7934 82.7588 40.2086 73.0981 35.6868ZM91.1349 41.1848 100.796 45.7067 99.6652 48.1219 90.0044 43.6ZM108.041 49.0981 117.702 53.62 116.572 56.0351 106.911 51.5133ZM124.948 57.0113 134.608 61.5332 133.478 63.9484 123.817 59.4265ZM141.854 64.9246 143.328 65.6146 142.197 68.0297 140.723 67.3398ZM5.54988 7.01419 0 0 8.94128-0.231388Z" fill="#0A24CC" transform="matrix(1 0 0 -1 573.5 428.322)"/><text font-family="Arial,Arial_MSFontService,sans-serif" font-weight="700" font-size="24" transform="translate(486.687 93)">User 2<tspan font-size="24" x="-370.468" y="21">User 1</tspan><tspan font-size="24" x="447.262" y="-8">User 3</tspan></text><path d="M836.594 224.764 828.77 217.513 830.583 215.557 838.406 222.808ZM822.903 212.075 815.784 205.478 816.69 205.833 815.729 205.833 815.729 203.167 817.213 203.167 824.715 210.119ZM807.729 205.833 797.063 205.833 797.063 203.167 807.729 203.167ZM789.063 205.833 778.396 205.833 778.396 203.167 789.063 203.167ZM770.396 205.833 759.729 205.833 759.729 203.167 770.396 203.167ZM751.729 205.833 741.063 205.833 741.063 203.167 751.729 203.167ZM733.063 205.833 722.396 205.833 722.396 203.167 733.063 203.167ZM714.396 205.833 703.729 205.833 703.729 203.167 714.396 203.167ZM695.729 205.833 685.063 205.833 685.063 203.167 695.729 203.167ZM677.063 205.833 666.396 205.833 666.396 203.167 677.063 203.167ZM658.396 205.833 647.729 205.833 647.729 203.167 658.396 203.167ZM639.729 205.833 629.063 205.833 629.063 203.167 639.729 203.167ZM621.063 205.833 610.396 205.833 610.396 203.167 621.063 203.167ZM602.396 205.833 599.056 205.833 599.962 205.478 594.589 210.458 592.776 208.502 598.533 203.167 602.396 203.167ZM588.721 215.896 580.897 223.147 579.085 221.191 586.908 213.94ZM575.03 228.585 567.206 235.835 565.394 233.879 573.217 226.629ZM561.339 241.273 556.296 245.946 554.483 243.991 559.526 239.317ZM559.087 246.996 550.5 249.5 553.649 241.128Z" fill="#0A24CC"/><path d="M295.367 12.7451 285.978 7.68295 287.244 5.33571 296.633 10.3978ZM278.937 3.88638 273.905 1.17362 274.538 1.33333 269.587 1.33333 269.587-1.33333 274.874-1.33333 280.202 1.53913ZM261.587 1.33333 250.921 1.33333 250.921-1.33333 261.587-1.33333ZM242.921 1.33333 232.254 1.33333 232.254-1.33333 242.921-1.33333ZM224.254 1.33333 213.587 1.33333 213.587-1.33333 224.254-1.33333ZM205.587 1.33333 194.921 1.33333 194.921-1.33333 205.587-1.33333ZM186.921 1.33333 176.254 1.33333 176.254-1.33333 186.921-1.33333ZM168.254 1.33333 157.587 1.33333 157.587-1.33333 168.254-1.33333ZM149.587 1.33333 138.921 1.33333 138.921-1.33333 149.587-1.33333ZM130.921 1.33333 120.254 1.33333 120.254-1.33333 130.921-1.33333ZM112.254 1.33333 101.587 1.33333 101.587-1.33333 112.254-1.33333ZM93.5873 1.33333 82.9207 1.33333 82.9207-1.33333 93.5873-1.33333ZM74.9207 1.33333 64.254 1.33333 64.254-1.33333 74.9207-1.33333ZM56.254 1.33333 50.0785 1.33333 50.7113 1.17362 46.758 3.30503 45.4925 0.957789 49.742-1.33333 56.254-1.33333ZM39.7163 7.10161 30.3273 12.1637 29.0618 9.81646 38.4508 4.75436ZM23.2856 15.9603 13.8966 21.0224 12.6311 18.6751 22.0201 13.613ZM6.85488 24.8189 6.50089 25.0098 5.23537 22.6626 5.58936 22.4717ZM8.94002 26.7243 0 27 5.14345 19.6826Z" fill="#0A24CC" transform="matrix(1 0 0 -1 549.5 286.5)"/></g></svg>