<svg width="2496" height="1248" xmlns="http://www.w3.org/2000/svg" xmlns:xlink="http://www.w3.org/1999/xlink" overflow="hidden"><defs><clipPath id="clip0"><rect x="0" y="0" width="2496" height="1248"/></clipPath></defs><g clip-path="url(#clip0)"><rect x="0" y="0" width="2496" height="1248" fill="#FFFFFF"/><path d="M628 1184C628 1179.58 631.582 1176 636 1176L735 1176C739.418 1176 743 1179.58 743 1184L743 1216C743 1220.42 739.418 1224 735 1224L636 1224C631.582 1224 628 1220.42 628 1216Z" stroke="#000000" stroke-width="2" stroke-miterlimit="8" fill="#0A24CC" fill-rule="evenodd"/><text fill="#FFFFFF" font-family="Arial,Arial_MSFontService,sans-serif" font-weight="700" font-size="21" transform="translate(645.435 1209)">Material</text><path d="M1128 1184C1128 1179.58 1131.58 1176 1136 1176L1235 1176C1239.42 1176 1243 1179.58 1243 1184L1243 1216C1243 1220.42 1239.42 1224 1235 1224L1136 1224C1131.58 1224 1128 1220.42 1128 1216Z" stroke="#000000" stroke-width="2" stroke-miterlimit="8" fill="#FFC000" fill-rule="evenodd"/><text fill="#FFFFFF" font-family="Arial,Arial_MSFontService,sans-serif" font-weight="700" font-size="21" transform="translate(1144.12 1209)">Process </text><path d="M878 1184C878 1179.58 881.582 1176 886 1176L985 1176C989.418 1176 993 1179.58 993 1184L993 1216C993 1220.42 989.418 1224 985 1224L886 1224C881.582 1224 878 1220.42 878 1216Z" stroke="#000000" stroke-width="2" stroke-miterlimit="8" fill="#9A3333" fill-rule="evenodd"/><text fill="#FFFFFF" font-family="Arial,Arial_MSFontService,sans-serif" font-weight="700" font-size="21" transform="translate(897.779 1209)">Sample </text><path d="M1253 1184C1253 1179.58 1256.58 1176 1261 1176L1360 1176C1364.42 1176 1368 1179.58 1368 1184L1368 1216C1368 1220.42 1364.42 1224 1360 1224L1261 1224C1256.58 1224 1253 1220.42 1253 1216Z" stroke="#000000" stroke-width="2" stroke-miterlimit="8" fill="#067F10" fill-rule="evenodd"/><text fill="#FFFFFF" font-family="Arial,Arial_MSFontService,sans-serif" font-weight="700" font-size="21" transform="translate(1287.38 1209)">Data </text><path d="M753 1184C753 1179.58 756.582 1176 761 1176L860 1176C864.418 1176 868 1179.58 868 1184L868 1216C868 1220.42 864.418 1224 860 1224L761 1224C756.582 1224 753 1220.42 753 1216Z" stroke="#000000" stroke-width="2" stroke-miterlimit="8" fill="#9100B8" fill-rule="evenodd"/><text fill="#FFFFFF" font-family="Arial,Arial_MSFontService,sans-serif" font-weight="700" font-size="21" transform="translate(787.107 1209)">User</text><path d="M1378 1184C1378 1179.58 1381.58 1176 1386 1176L1485 1176C1489.42 1176 1493 1179.58 1493 1184L1493 1216C1493 1220.42 1489.42 1224 1485 1224L1386 1224C1381.58 1224 1378 1220.42 1378 1216Z" stroke="#000000" stroke-width="2" stroke-miterlimit="8" fill="#00B0F0" fill-rule="evenodd"/><text fill="#FFFFFF" font-family="Arial,Arial_MSFontService,sans-serif" font-weight="700" font-size="21" transform="translate(1412.22 1209)">Coll.</text><path d="M1003 1184C1003 1179.58 1006.58 1176 1011 1176L1110 1176C1114.42 1176 1118 1179.58 1118 1184L1118 1216C1118 1220.42 1114.42 1224 1110 1224L1011 1224C1006.58 1224 1003 1220.42 1003 1216Z" stroke="#000000" stroke-width="2" stroke-miterlimit="8" fill="#FB7623" fill-rule="evenodd"/><text fill="#FFFFFF" font-family="Arial,Arial_MSFontService,sans-serif" font-weight="700" font-size="21" transform="translate(1028.62 1209)">Group </text><path d="M1503 1184C1503 1179.58 1506.58 1176 1511 1176L1610 1176C1614.42 1176 1618 1179.58 1618 1184L1618 1216C1618 1220.42 1614.42 1224 1610 1224L1511 1224C1506.58 1224 1503 1220.42 1503 1216Z" stroke="#000000" stroke-width="2" stroke-miterlimit="8" fill="#595959" fill-rule="evenodd"/><text fill="#FFFFFF" font-family="Arial,Arial_MSFontService,sans-serif" font-weight="700" font-size="21" transform="translate(1537.22 1209)">Pub. </text><path d="M1628 1184C1628 1179.58 1631.58 1176 1636 1176L1735 1176C1739.42 1176 1743 1179.58 1743 1184L1743 1216C1743 1220.42 1739.42 1224 1735 1224L1636 1224C1631.58 1224 1628 1220.42 1628 1216Z" stroke="#000000" stroke-width="2" stroke-miterlimit="8" fill="#D9D9D9" fill-rule="evenodd"/><text font-family="Arial,Arial_MSFontService,sans-serif" font-weight="700" font-size="21" transform="translate(1659.14 1209)">Expt. </text><path d="M1753 1184C1753 1179.58 1756.58 1176 1761 1176L1860 1176C1864.42 1176 1868 1179.58 1868 1184L1868 1216C1868 1220.42 1864.42 1224 1860 1224L1761 1224C1756.58 1224 1753 1220.42 1753 1216Z" stroke="#7F7F7F" stroke-width="2" stroke-miterlimit="8" fill-rule="evenodd"/><text fill="#FFFFFF" font-family="Arial,Arial_MSFontService,sans-serif" font-weight="700" font-size="21" transform="translate(1787.56 1209)">Sim. </text><path d="M0.826838-2.71 106.207 29.4421 104.553 34.8621-0.826838 2.71ZM105.151 23.1953 118.93 36.2863 100.19 39.4553Z" transform="matrix(-1 0 0 1 1992.93 850)"/><path d="M1994.83 849.804 1996.37 871.957 1990.71 872.35 1989.17 850.196ZM2001.82 868.738 1994.52 886.286 1984.86 869.917Z"/><path d="M1992.8 847.281 2103.15 879.587 2101.56 885.025 1991.2 852.719ZM2102.03 873.353 2115.95 886.286 2097.25 889.668Z"/><path d="M0.022446-2.83324 125.135-1.84206 125.09 3.82443-0.022446 2.83324ZM122.346-7.531 139.278 1.10341 122.212 9.46847Z" fill="#A6A6A6" transform="matrix(1 0 0 -1 152 512.103)"/><path d="M407.125 393.169 451.106 395.112 450.855 400.773 406.875 398.831ZM448.525 389.326 465.133 398.568 447.775 406.309Z" fill="#A6A6A6"/><path d="M1.86655-2.13162 49.808 39.8483 46.0749 44.1115-1.86655 2.13162ZM51.4095 33.7185 58.5996 51.3126 40.2103 46.5082Z" fill="#A6A6A6" transform="matrix(1 0 0 -1 407 396.313)"/><path d="M1.26748-2.53402 36.5796 15.1286 34.0447 20.1966-1.26748 2.53402ZM36.5806 8.79305 47.9823 24 28.9757 23.9972Z" fill="#A6A6A6" transform="matrix(1 0 0 -1 153 363)"/><path d="M154.647 301.695 191.104 327.749 187.809 332.359 151.353 306.305ZM192.094 321.491 200.982 338.291 182.209 335.322Z" fill="#A6A6A6"/><path d="M1.94606-2.05928 19.7633 14.7784 15.8711 18.8969-1.94606 2.05928ZM21.5961 8.71377 28.1136 26.568 9.91975 21.0694Z" fill="#A6A6A6" transform="matrix(1 0 0 -1 316 338.568)"/><path d="M153.593 645.229 277.712 671.797 276.526 677.339 152.407 650.771ZM276.128 665.663 290.972 677.533 272.57 682.287Z" fill="#A6A6A6"/><path d="M0.507891-2.78744 124.543 19.8126 123.527 25.3875-0.507891 2.78744ZM122.771 13.7299 137.972 25.1395 119.724 30.4545Z" fill="#A6A6A6" transform="matrix(1 0 0 -1 153 648.14)"/><path d="M153.031 448.167 369.164 450.547 369.102 456.214 152.969 453.833ZM366.393 444.85 383.299 453.537 366.206 461.849Z"/><path d="M499.047 450.167 533.069 450.732 532.975 456.398 498.953 455.833ZM530.33 445.019 547.187 453.8 530.048 462.017Z"/><path d="M155.211 449.228 284.326 610.379 279.903 613.923 150.789 452.772ZM286.976 604.625 290.972 623.207 273.709 615.255Z"/><path d="M38 435C38 430.582 41.5818 427 46.0002 427L145 427C149.418 427 153 430.582 153 435L153 467C153 471.418 149.418 475 145 475L46.0002 475C41.5818 475 38 471.418 38 467Z" stroke="#000000" stroke-width="2" stroke-miterlimit="8" fill="#9100B8" fill-rule="evenodd"/><text fill="#FFFFFF" font-family="Arial,Arial_MSFontService,sans-serif" font-weight="700" font-size="21" transform="translate(53.5059 459)">Dylan W</text><path d="M383 437C383 432.582 386.582 429 391 429L491 429C495.418 429 499 432.582 499 437L499 469C499 473.418 495.418 477 491 477L391 477C386.582 477 383 473.418 383 469Z" stroke="#000000" stroke-width="2" stroke-miterlimit="8" fill="#FB7623" fill-rule="evenodd"/><text fill="#FFFFFF" font-family="Arial,Arial_MSFontService,sans-serif" font-weight="700" font-size="19" transform="translate(413.088 449)">CRIPT <tspan font-size="19" x="3.66666" y="23">Team </tspan></text><path d="M547 438C547 433.582 550.582 430 555 430L654 430C658.418 430 662 433.582 662 438L662 470C662 474.418 658.418 478 654 478L555 478C550.582 478 547 474.418 547 470Z" stroke="#000000" stroke-width="2" stroke-miterlimit="8" fill="#00B0F0" fill-rule="evenodd"/><text fill="#FFFFFF" font-family="Arial,Arial_MSFontService,sans-serif" font-weight="700" font-size="19" transform="translate(576.474 450)">CRIPT <tspan font-size="19" x="2.08667" y="23">Demo</tspan></text><path d="M291 607C291 602.582 294.582 599 299 599L398 599C402.418 599 406 602.582 406 607L406 639C406 643.418 402.418 647 398 647L299 647C294.582 647 291 643.418 291 639Z" stroke="#000000" stroke-width="2" stroke-miterlimit="8" fill="#595959" fill-rule="evenodd"/><text fill="#FFFFFF" font-family="Arial,Arial_MSFontService,sans-serif" font-weight="700" font-size="21" transform="translate(313.262 631)">Recent</text><path d="M201 323C201 318.582 204.582 315 209 315L308 315C312.418 315 316 318.582 316 323L316 355C316 359.418 312.418 363 308 363L209 363C204.582 363 201 359.418 201 355Z" stroke="#000000" stroke-width="2" stroke-miterlimit="8" fill="#FB7623" fill-rule="evenodd"/><text fill="#FFFFFF" font-family="Arial,Arial_MSFontService,sans-serif" font-weight="700" font-size="19" transform="translate(242.771 345)">MIT</text><path d="M292 380C292 375.582 295.582 372 300 372L399 372C403.418 372 407 375.582 407 380L407 412C407 416.418 403.418 420 399 420L300 420C295.582 420 292 416.418 292 412Z" stroke="#000000" stroke-width="2" stroke-miterlimit="8" fill="#FB7623" fill-rule="evenodd"/><text fill="#FFFFFF" font-family="Arial,Arial_MSFontService,sans-serif" font-weight="700" font-size="19" transform="translate(304.45 403)">Olsen Lab</text><path d="M291 662C291 657.582 294.582 654 299 654L398 654C402.418 654 406 657.582 406 662L406 694C406 698.418 402.418 702 398 702L299 702C294.582 702 291 698.418 291 694Z" stroke="#000000" stroke-width="2" stroke-miterlimit="8" fill="#595959" fill-rule="evenodd"/><text fill="#FFFFFF" font-family="Arial,Arial_MSFontService,sans-serif" font-weight="700" font-size="21" transform="translate(313.178 686)">Kinetic</text><path d="M2.60553-1.11311 45.0223 98.1745 39.8112 100.401-2.60553 1.11311ZM49.1202 93.3427 47.9823 112.315 33.487 100.021Z" transform="matrix(1 0 0 -1 153 451.315)"/><path d="M1.03956-2.63573 126.439 46.8232 124.359 52.0946-1.03956 2.63573ZM125.882 40.5121 138.578 54.6567 119.645 56.3265Z" transform="matrix(1 0 0 -1 153 450.657)"/><path d="M155.421 449.528 286.032 664.303 281.19 667.247 150.579 452.472ZM289.402 658.938 290.972 677.879 274.877 667.771Z"/><path d="M406 675.167 422.722 675.167 422.722 680.833 406 680.833ZM419.889 669.5 436.889 678 419.889 686.5Z" fill="#A6A6A6"/><path d="M437 607C437 602.582 440.582 599 445 599L544 599C548.418 599 552 602.582 552 607L552 639C552 643.418 548.418 647 544 647L445 647C440.582 647 437 643.418 437 639Z" stroke="#000000" stroke-width="2" stroke-miterlimit="8" fill="#00B0F0" fill-rule="evenodd"/><text fill="#FFFFFF" font-family="Arial,Arial_MSFontService,sans-serif" font-weight="700" font-size="21" transform="translate(471.684 631)">Coll.</text><path d="M437 662C437 657.582 440.582 654 445 654L544 654C548.418 654 552 657.582 552 662L552 694C552 698.418 548.418 702 544 702L445 702C440.582 702 437 698.418 437 694Z" stroke="#000000" stroke-width="2" stroke-miterlimit="8" fill="#00B0F0" fill-rule="evenodd"/><text fill="#FFFFFF" font-family="Arial,Arial_MSFontService,sans-serif" font-weight="700" font-size="21" transform="translate(471.684 686)">Coll.</text><path d="M406 620.167 422.722 620.167 422.722 625.833 406 625.833ZM419.889 614.5 436.889 623 419.889 631.5Z" fill="#A6A6A6"/><path d="M606.793 477.523 662.256 802.156 656.67 803.11 601.207 478.477ZM667.364 798.409 661.849 816.597 650.607 801.272Z"/><path d="M2.57066-1.19143 113.408 237.954 108.267 240.337-2.57066 1.19143ZM117.358 233.001 116.795 251.999 101.934 240.15Z" transform="matrix(1 0 0 -1 662 453.999)"/><path d="M0.00726388-2.83332 147.228-2.45589 147.213 3.21076-0.00726388 2.83332ZM144.409-8.1298 161.387 0.413753 144.365 8.87014Z" transform="matrix(1 0 0 -1 662 454.414)"/><path d="M318.023 337.017 341.101 360.559 337.055 364.525 313.977 340.983ZM343.165 354.568 348.995 372.658 331.025 366.469Z"/><path d="M408.976 393.969 432.942 417.284 428.991 421.346 405.024 398.031ZM434.863 411.247 441.121 429.193 423.009 423.432Z"/><path d="M465 383C465 378.582 468.582 375 473 375L572 375C576.418 375 580 378.582 580 383L580 415C580 419.418 576.418 423 572 423L473 423C468.582 423 465 419.418 465 415Z" stroke="#000000" stroke-width="2" stroke-miterlimit="8" fill="#00B0F0" fill-rule="evenodd"/><text fill="#FFFFFF" font-family="Arial,Arial_MSFontService,sans-serif" font-weight="700" font-size="21" transform="translate(499.534 407)">Coll.</text><path d="M466 329C466 324.582 469.582 321 474 321L573 321C577.418 321 581 324.582 581 329L581 361C581 365.418 577.418 369 573 369L474 369C469.582 369 466 365.418 466 361Z" stroke="#000000" stroke-width="2" stroke-miterlimit="8" fill="#00B0F0" fill-rule="evenodd"/><text fill="#FFFFFF" font-family="Arial,Arial_MSFontService,sans-serif" font-weight="700" font-size="21" transform="translate(500 353)">Coll.</text><path d="M38 632C38 627.582 41.5818 624 46.0002 624L145 624C149.418 624 153 627.582 153 632L153 664C153 668.418 149.418 672 145 672L46.0002 672C41.5818 672 38 668.418 38 664Z" stroke="#000000" stroke-width="2" stroke-miterlimit="8" fill="#9100B8" fill-rule="evenodd"/><text fill="#FFFFFF" font-family="Arial,Arial_MSFontService,sans-serif" font-weight="700" font-size="21" transform="translate(71.9226 656)">User</text><path d="M38 288C38 283.582 41.5818 280 46.0002 280L145 280C149.418 280 153 283.582 153 288L153 320C153 324.418 149.418 328 145 328L46.0002 328C41.5818 328 38 324.418 38 320Z" stroke="#000000" stroke-width="2" stroke-miterlimit="8" fill="#9100B8" fill-rule="evenodd"/><text fill="#FFFFFF" font-family="Arial,Arial_MSFontService,sans-serif" font-weight="700" font-size="21" transform="translate(71.9226 312)">User</text><path d="M38 347C38 342.582 41.5818 339 46.0002 339L145 339C149.418 339 153 342.582 153 347L153 379C153 383.418 149.418 387 145 387L46.0002 387C41.5818 387 38 383.418 38 379Z" stroke="#000000" stroke-width="2" stroke-miterlimit="8" fill="#9100B8" fill-rule="evenodd"/><text fill="#FFFFFF" font-family="Arial,Arial_MSFontService,sans-serif" font-weight="700" font-size="21" transform="translate(71.9226 371)">User</text><path d="M344 296C344 291.582 347.582 288 352 288L452 288C456.418 288 460 291.582 460 296L460 328C460 332.418 456.418 336 452 336L352 336C347.582 336 344 332.418 344 328Z" stroke="#000000" stroke-width="2" stroke-miterlimit="8" fill="#00B0F0" fill-rule="evenodd"/><text fill="#FFFFFF" font-family="Arial,Arial_MSFontService,sans-serif" font-weight="700" font-size="21" transform="translate(378.918 320)">Coll.</text><path d="M434 611.5C434 600.178 443.178 591 454.5 591L538.5 591C549.822 591 559 600.178 559 611.5L559 693.5C559 704.822 549.822 714 538.5 714L454.5 714C443.178 714 434 704.822 434 693.5Z" fill="#FFFFFF" fill-rule="evenodd" fill-opacity="0.8"/><path d="M34 630.5C34 625.253 38.2534 621 43.5002 621L145.5 621C150.747 621 155 625.253 155 630.5L155 668.5C155 673.747 150.747 678 145.5 678L43.5002 678C38.2534 678 34 673.747 34 668.5Z" fill="#FFFFFF" fill-rule="evenodd" fill-opacity="0.8"/><path d="M344 287.5C344 281.701 348.701 277 354.5 277L452.5 277C458.299 277 463 281.701 463 287.5L463 329.5C463 335.299 458.299 340 452.5 340L354.5 340C348.701 340 344 335.299 344 329.5Z" fill="#FFFFFF" fill-rule="evenodd" fill-opacity="0.8"/><path d="M464 330.362C464 321.326 471.326 314 480.362 314L566.638 314C575.674 314 583 321.326 583 330.362L583 412.638C583 421.674 575.674 429 566.638 429L480.362 429C471.326 429 464 421.674 464 412.638Z" fill="#FFFFFF" fill-rule="evenodd" fill-opacity="0.8"/><path d="M32 292.362C32 283.326 39.3256 276 48.3622 276L139.638 276C148.674 276 156 283.326 156 292.362L156 374.638C156 383.674 148.674 391 139.638 391L48.3622 391C39.3256 391 32 383.674 32 374.638Z" fill="#FFFFFF" fill-rule="evenodd" fill-opacity="0.8"/><path d="M291 495C291 490.582 294.582 487 299 487L398 487C402.418 487 406 490.582 406 495L406 527C406 531.418 402.418 535 398 535L299 535C294.582 535 291 531.418 291 527Z" stroke="#000000" stroke-width="2" stroke-miterlimit="8" fill="#FB7623" fill-rule="evenodd"/><text fill="#FFFFFF" font-family="Arial,Arial_MSFontService,sans-serif" font-weight="700" font-size="19" transform="translate(319.123 518)">Citrine</text><path d="M292 380C292 375.582 295.582 372 300 372L399 372C403.418 372 407 375.582 407 380L407 412C407 416.418 403.418 420 399 420L300 420C295.582 420 292 416.418 292 412Z" stroke="#000000" stroke-width="2" stroke-miterlimit="8" fill="#FB7623" fill-rule="evenodd"/><text fill="#FFFFFF" font-family="Arial,Arial_MSFontService,sans-serif" font-weight="700" font-size="19" transform="translate(304.291 403)">Olsen Lab</text><path d="M292 495C292 490.582 295.582 487 300 487L399 487C403.418 487 407 490.582 407 495L407 527C407 531.418 403.418 535 399 535L300 535C295.582 535 292 531.418 292 527Z" stroke="#000000" stroke-width="2" stroke-miterlimit="8" fill="#FB7623" fill-rule="evenodd"/><text fill="#FFFFFF" font-family="Arial,Arial_MSFontService,sans-serif" font-weight="700" font-size="19" transform="translate(319.707 518)">Citrine</text><path d="M1.99092-2.01594 26.1917 21.8845 22.2098 25.9163-1.99092 2.01594ZM28.1576 15.8617 34.2804 33.855 16.212 27.9573Z" transform="matrix(1 0 0 -1 407 510.855)"/><path d="M36 495C36 490.582 39.5818 487 44.0002 487L143 487C147.418 487 151 490.582 151 495L151 527C151 531.418 147.418 535 143 535L44.0002 535C39.5818 535 36 531.418 36 527Z" stroke="#000000" stroke-width="2" stroke-miterlimit="8" fill="#9100B8" fill-rule="evenodd"/><text fill="#FFFFFF" font-family="Arial,Arial_MSFontService,sans-serif" font-weight="700" font-size="21" transform="translate(69.5561 519)">User</text><path d="M32 493.5C32 488.253 36.2534 484 41.5001 484L142.5 484C147.747 484 152 488.253 152 493.5L152 531.5C152 536.747 147.747 541 142.5 541L41.5001 541C36.2534 541 32 536.747 32 531.5Z" fill="#FFFFFF" fill-rule="evenodd" fill-opacity="0.8"/><path d="M438 548C438 543.582 441.582 540 446 540L545 540C549.418 540 553 543.582 553 548L553 580C553 584.418 549.418 588 545 588L446 588C441.582 588 438 584.418 438 580Z" stroke="#000000" stroke-width="2" stroke-miterlimit="8" fill="#595959" fill-rule="evenodd"/><text fill="#FFFFFF" font-family="Arial,Arial_MSFontService,sans-serif" font-weight="700" font-size="19" transform="translate(451.187 571)">Synthesis</text><path d="M553.024 561.167 643.677 561.933 643.629 567.6 552.976 566.833ZM640.892 556.243 657.82 564.886 640.748 573.242Z" fill="#A6A6A6"/><path d="M658 549C658 544.582 661.582 541 666 541L765 541C769.418 541 773 544.582 773 549L773 581C773 585.418 769.418 589 765 589L666 589C661.582 589 658 585.418 658 581Z" stroke="#000000" stroke-width="2" stroke-miterlimit="8" fill="#00B0F0" fill-rule="evenodd"/><text fill="#FFFFFF" font-family="Arial,Arial_MSFontService,sans-serif" font-weight="700" font-size="21" transform="translate(691.957 574)">Coll.</text><path d="M443.152 475.157 487.951 527.45 483.647 531.137 438.848 478.843ZM490.411 521.612 495.016 540.052 477.501 532.672Z"/><path d="M653 546.5C653 541.253 657.253 537 662.5 537L773.5 537C778.747 537 783 541.253 783 546.5L783 584.5C783 589.747 778.747 594 773.5 594L662.5 594C657.253 594 653 589.747 653 584.5Z" fill="#FFFFFF" fill-rule="evenodd" fill-opacity="0.8"/><path d="M1190 206.141 1098.82 179.67 1100.39 174.228 1191.58 200.699ZM1099.96 185.902 1086 173 1104.7 169.576Z"/><path d="M969 381C950.498 381 935.5 378.5 935.5 375.417L935.5 208.083C935.5 205 920.502 202.5 902 202.5 920.502 202.5 935.5 200 935.5 196.917L935.5 29.583C935.5 26.4996 950.498 24 969 24" stroke="#000000" stroke-width="4" stroke-miterlimit="8" fill="none" fill-rule="evenodd"/><path d="M971 98.0002C971 93.5818 974.582 90 979 90L1078 90C1082.42 90 1086 93.5818 1086 98.0002L1086 130C1086 134.418 1082.42 138 1078 138L979 138C974.582 138 971 134.418 971 130Z" stroke="#000000" stroke-width="2" stroke-miterlimit="8" fill="#0A24CC" fill-rule="evenodd"/><text fill="#FFFFFF" font-family="Arial,Arial_MSFontService,sans-serif" font-weight="700" font-size="21" transform="translate(989.143 122)">Butanol</text><path d="M1400 187C1400 182.582 1403.58 179 1408 179L1507 179C1511.42 179 1515 182.582 1515 187L1515 219C1515 223.418 1511.42 227 1507 227L1408 227C1403.58 227 1400 223.418 1400 219Z" stroke="#000000" stroke-width="2" stroke-miterlimit="8" fill="#0A24CC" fill-rule="evenodd"/><text fill="#FFFFFF" font-family="Arial,Arial_MSFontService,sans-serif" font-weight="700" font-size="15" transform="translate(1415.86 209)">Polystyrene</text><path d="M1339 106C1339 101.582 1342.58 98 1347 98L1446 98C1450.42 98 1454 101.582 1454 106L1454 138C1454 142.418 1450.42 146 1446 146L1347 146C1342.58 146 1339 142.418 1339 138Z" stroke="#000000" stroke-width="2" stroke-miterlimit="8" fill="#067F10" fill-rule="evenodd"/><text fill="#FFFFFF" font-family="Arial,Arial_MSFontService,sans-serif" font-weight="700" font-size="21" transform="translate(1355.99 130)">1H NMR </text><path d="M1467 106C1467 101.582 1470.58 98 1475 98L1574 98C1578.42 98 1582 101.582 1582 106L1582 138C1582 142.418 1578.42 146 1574 146L1475 146C1470.58 146 1467 142.418 1467 138Z" stroke="#000000" stroke-width="2" stroke-miterlimit="8" fill="#067F10" fill-rule="evenodd"/><text fill="#FFFFFF" font-family="Arial,Arial_MSFontService,sans-serif" font-weight="700" font-size="21" transform="translate(1502.32 130)">SEC</text><path d="M1188.94 205.925 1094.91 125.368 1098.6 121.065 1192.63 201.622ZM1093.38 131.515 1086 114 1104.44 118.605Z"/><path d="M1188.47 204.756 1091.83 67.2203 1096.46 63.9623 1193.11 201.498ZM1088.82 72.7963 1086 54 1102.73 63.0225Z"/><path d="M2.34958-1.58343 99.2206 142.159 94.5214 145.326-2.34958 1.58343ZM102.336 136.643 104.788 155.49 88.2388 146.143Z" transform="matrix(-1 0 0 1 1190.79 203)"/><path d="M0.839844-2.706 92.098 25.6172 90.4183 31.0292-0.839844 2.706ZM91.0717 19.3653 104.788 32.5224 86.0326 35.6013Z" transform="matrix(-1 0 0 1 1190.79 203)"/><path d="M1.86791-2.13042 96.0039 80.4061 92.2681 84.667-1.86791 2.13042ZM97.6093 74.2774 104.788 91.8761 86.4019 87.0599Z" transform="matrix(-1 0 0 1 1190.79 203)"/><path d="M3.18322e-06-2.83333 79.2806-2.83324 79.2806 2.83342-3.18322e-06 2.83333ZM76.4473-8.49991 93.4472 0.000104987 76.4472 8.50009Z" transform="matrix(-1 0 0 1 1399.45 203)"/><path d="M1191 187C1191 182.582 1194.58 179 1199 179L1298 179C1302.42 179 1306 182.582 1306 187L1306 219C1306 223.418 1302.42 227 1298 227L1199 227C1194.58 227 1191 223.418 1191 219Z" stroke="#000000" stroke-width="2" stroke-miterlimit="8" fill="#FFC000" fill-rule="evenodd"/><text fill="#FFFFFF" font-family="Arial,Arial_MSFontService,sans-serif" font-weight="700" font-size="19" transform="translate(1214.71 199)">Anionic <tspan font-size="19" x="11.8334" y="23">Poly.</tspan></text><path d="M1456.26 181.661 1408.07 155.286 1410.79 150.315 1458.98 176.69ZM1407.83 161.618 1397 146 1415.99 146.705Z"/><path d="M1.26163-2.53694 55.2873 24.3303 52.764 29.4042-1.26163 2.53694ZM55.2736 17.9948 66.7103 33.1754 47.7038 33.2164Z" transform="matrix(1 0 0 -1 1457 179.175)"/><path d="M971 407C971 402.582 974.582 399 979 399L1078 399C1082.42 399 1086 402.582 1086 407L1086 439C1086 443.418 1082.42 447 1078 447L979 447C974.582 447 971 443.418 971 439Z" stroke="#000000" stroke-width="2" stroke-miterlimit="8" fill="#0A24CC" fill-rule="evenodd"/><text fill="#FFFFFF" font-family="Arial,Arial_MSFontService,sans-serif" font-weight="700" font-size="19" transform="translate(990.059 419)">Ethylene <tspan font-size="19" x="12.9133" y="23">Oxide</tspan></text><path d="M1187.35 440.782 1099.6 427.866 1100.43 422.26 1188.18 435.175ZM1101.58 433.885 1086 423 1104.06 417.066Z"/><path d="M3.18322e-06-2.83333 79.2806-2.83324 79.2806 2.83342-3.18322e-06 2.83333ZM76.4473-8.49991 93.4472 0.000104987 76.4472 8.50009Z" transform="matrix(-1 0 0 1 1396.45 438)"/><path d="M1452.98 416.257 1400.72 377.691 1404.08 373.131 1456.35 411.697ZM1399.63 383.933 1391 367 1409.73 370.254Z"/><path d="M971 466C971 461.582 974.582 458 979 458L1078 458C1082.42 458 1086 461.582 1086 466L1086 498C1086 502.418 1082.42 506 1078 506L979 506C974.582 506 971 502.418 971 498Z" stroke="#000000" stroke-width="2" stroke-miterlimit="8" fill="#0A24CC" fill-rule="evenodd"/><text fill="#FFFFFF" font-family="Arial,Arial_MSFontService,sans-serif" font-weight="700" font-size="16" transform="translate(983.476 478)">Norbornene<tspan font-size="16" x="22.6666" y="19">-</tspan><tspan font-size="16" x="28" y="19">COCl</tspan></text><path d="M1.11427-2.60503 89.8542 35.3522 87.6257 40.5623-1.11427 2.60503ZM89.4778 29.0279 101.765 43.5286 82.7922 44.6581Z" transform="matrix(-1 0 0 1 1187.77 438)"/><path d="M971 525C971 520.582 974.582 517 979 517L1078 517C1082.42 517 1086 520.582 1086 525L1086 557C1086 561.418 1082.42 565 1078 565L979 565C974.582 565 971 561.418 971 557Z" stroke="#000000" stroke-width="2" stroke-miterlimit="8" fill="#0A24CC" fill-rule="evenodd"/><text fill="#FFFFFF" font-family="Arial,Arial_MSFontService,sans-serif" font-weight="700" font-size="16" transform="translate(983.476 538)">Norbornene<tspan font-size="16" x="30.6666" y="19">-</tspan><tspan font-size="16" x="36" y="19">OH</tspan></text><path d="M971 585C971 580.582 974.582 577 979 577L1078 577C1082.42 577 1086 580.582 1086 585L1086 617C1086 621.418 1082.42 625 1078 625L979 625C974.582 625 971 621.418 971 617Z" stroke="#000000" stroke-width="2" stroke-miterlimit="8" fill="#0A24CC" fill-rule="evenodd"/><text fill="#FFFFFF" font-family="Arial,Arial_MSFontService,sans-serif" font-weight="700" font-size="21" transform="translate(991.476 609)">Lactide</text><path d="M971 644C971 639.582 974.582 636 979 636L1078 636C1082.42 636 1086 639.582 1086 644L1086 676C1086 680.418 1082.42 684 1078 684L979 684C974.582 684 971 680.418 971 676Z" stroke="#000000" stroke-width="2" stroke-miterlimit="8" fill="#0A24CC" fill-rule="evenodd"/><text fill="#FFFFFF" font-family="Arial,Arial_MSFontService,sans-serif" font-weight="700" font-size="21" transform="translate(1005.81 669)">DBU</text><path d="M971 704C971 699.582 974.582 696 979 696L1078 696C1082.42 696 1086 699.582 1086 704L1086 736C1086 740.418 1082.42 744 1078 744L979 744C974.582 744 971 740.418 971 736Z" stroke="#000000" stroke-width="2" stroke-miterlimit="8" fill="#0A24CC" fill-rule="evenodd"/><text fill="#FFFFFF" font-family="Arial,Arial_MSFontService,sans-serif" font-weight="700" font-size="19" transform="translate(1004.98 716)">Boric <tspan font-size="19" x="3.66663" y="23">Acid</tspan></text><path d="M0.0912711-2.83186 53.797-1.10092 53.6145 4.5628-0.0912711 2.83186ZM51.1477-6.85592 67.8651 2.1873 50.6001 10.1353Z" transform="matrix(-1 0 0 1 1374.87 652)"/><path d="M1431.54 630.685 1323.35 591.49 1325.28 586.162 1433.47 625.357ZM1324.09 597.782 1311 584 1329.88 581.799Z"/><path d="M1.50479-2.40071 95.3823 56.4428 92.3727 61.2442-1.50479 2.40071ZM95.9912 50.1366 105.881 66.3675 86.9624 64.5408Z" transform="matrix(-1 0 0 1 1191.88 654)"/><path d="M0.17931-2.82765 91.9221 2.99002 91.5635 8.64533-0.17931 2.82765ZM89.4531-2.84459 105.881 6.71423 88.3772 14.1213Z" transform="matrix(-1 0 0 1 1191.88 654)"/><path d="M1190.61 656.474 1097.4 609.87 1099.94 604.801 1193.15 651.405ZM1097.4 616.205 1086 601 1105.01 601Z"/><path d="M1189.82 655.534 1093.64 553.261 1097.77 549.379 1193.95 651.652ZM1091.45 559.207 1086 541 1103.84 547.561Z"/><path d="M0.668478-2.75335 253.074 58.5275 251.737 64.0342-0.668478 2.75335ZM251.658 52.3524 266.172 64.6233 247.647 68.8725Z" fill="#566BF7" transform="matrix(-1 0 0 1 2149.17 518)"/><path d="M0.564501-2.77653 645.531 128.353 644.402 133.906-0.564501 2.77653ZM643.879 122.234 658.845 133.951 640.492 138.893Z" fill="#566BF7" transform="matrix(-1 0 0 1 2149.84 518)"/><path d="M2149.03 520.448 1525.71 442.568 1526.41 436.945 2149.73 514.825ZM1527.82 448.542 1512 438 1529.92 431.673Z" fill="#566BF7"/><path d="M2150.28 584.801 1525.19 443.879 1526.44 438.351 2151.53 579.273ZM1526.71 450.031 1512 438 1530.45 433.447Z" fill="#566BF7"/><path d="M0.0023646-2.83333 253.535-2.62174 253.53 3.04492-0.0023646 2.83333ZM250.706-8.29077 267.699 0.223412 250.692 8.70922Z" fill="#566BF7" transform="matrix(-1 0 0 1 2150.7 582)"/><path d="M0.296768-2.81775 646.579 65.2493 645.985 70.8848-0.296768 2.81775ZM644.355 59.3171 660.371 69.551 642.575 76.2236Z" fill="#566BF7" transform="matrix(-1 0 0 1 2151.37 582)"/><path d="M0.0292073-2.83318 646.233 3.82853 646.174 9.49489-0.0292073 2.83318ZM643.46-1.86702 660.371 6.80777 643.285 15.1321Z" fill="#566BF7" transform="matrix(-1 0 0 1 2151.37 645)"/><path d="M2150.05 647.279 1896.15 587.981 1897.44 582.463 2151.34 641.761ZM1897.62 594.143 1883 582 1901.49 577.589Z" fill="#566BF7"/><path d="M2150.03 647.476 1524.61 445.058 1526.35 439.667 2151.78 642.084ZM1525.56 451.322 1512 438 1530.79 435.148Z" fill="#566BF7"/><path d="M2056 415C2056 410.582 2059.58 407 2064 407L2163 407C2167.42 407 2171 410.582 2171 415L2171 447C2171 451.418 2167.42 455 2163 455L2064 455C2059.58 455 2056 451.418 2056 447Z" stroke="#000000" stroke-width="2" stroke-miterlimit="8" fill="#067F10" fill-rule="evenodd"/><text fill="#FFFFFF" font-family="Arial,Arial_MSFontService,sans-serif" font-weight="700" font-size="21" transform="translate(2091.03 439)">TEM </text><path d="M2306 546C2306 541.582 2309.58 538 2314 538L2413 538C2417.42 538 2421 541.582 2421 546L2421 578C2421 582.418 2417.42 586 2413 586L2314 586C2309.58 586 2306 582.418 2306 578Z" stroke="#000000" stroke-width="2" stroke-miterlimit="8" fill="#067F10" fill-rule="evenodd"/><text fill="#FFFFFF" font-family="Arial,Arial_MSFontService,sans-serif" font-weight="700" font-size="21" transform="translate(2340.73 570)">TEM </text><path d="M2218 708C2218 703.582 2221.58 700 2226 700L2325 700C2329.42 700 2333 703.582 2333 708L2333 740C2333 744.418 2329.42 748 2325 748L2226 748C2221.58 748 2218 744.418 2218 740Z" stroke="#000000" stroke-width="2" stroke-miterlimit="8" fill="#067F10" fill-rule="evenodd"/><text fill="#FFFFFF" font-family="Arial,Arial_MSFontService,sans-serif" font-weight="700" font-size="21" transform="translate(2253.8 732)">SEC </text><path d="M2086 708C2086 703.582 2089.58 700 2094 700L2193 700C2197.42 700 2201 703.582 2201 708L2201 740C2201 744.418 2197.42 748 2193 748L2094 748C2089.58 748 2086 744.418 2086 740Z" stroke="#000000" stroke-width="2" stroke-miterlimit="8" fill="#067F10" fill-rule="evenodd"/><text fill="#FFFFFF" font-family="Arial,Arial_MSFontService,sans-serif" font-weight="400" font-size="19" transform="translate(2102.77 720)">frequency <tspan font-size="19" x="9.25342" y="23">sweeps</tspan></text><path d="M2306 602C2306 597.582 2309.58 594 2314 594L2413 594C2417.42 594 2421 597.582 2421 602L2421 634C2421 638.418 2417.42 642 2413 642L2314 642C2309.58 642 2306 638.418 2306 634Z" stroke="#000000" stroke-width="2" stroke-miterlimit="8" fill="#067F10" fill-rule="evenodd"/><text fill="#FFFFFF" font-family="Arial,Arial_MSFontService,sans-serif" font-weight="700" font-size="21" transform="translate(2341.4 626)">SEC </text><path d="M1.2375-2.5488 53.4137 22.7838 50.9387 27.8814-1.2375 2.5488ZM53.3399 16.4487 64.9202 31.5201 45.9149 31.7415Z" transform="matrix(-1 0 0 1 2208.92 669)"/><path d="M2210.2 666.431 2264.46 691.689 2262.07 696.826 2207.8 671.569ZM2264.28 685.356 2276.11 700.236 2257.11 700.768Z"/><path d="M2267.9 579.896 2296.88 606.02 2293.08 610.229 2264.1 584.104ZM2298.57 599.914 2305.5 617.61 2287.18 612.541Z"/><path d="M1.27525-2.53012 28.1273 11.004 25.5768 16.0642-1.27525 2.53012ZM28.1477 4.6685 39.5027 19.9103 20.4962 19.8492Z" transform="matrix(1 0 0 -1 2266 581.91)"/><path d="M2206.39 496.252 2126.01 463.03 2128.17 457.793 2208.56 491.015ZM2126.46 469.349 2114 455 2132.96 453.638Z"/><path d="M2243 415C2243 410.582 2246.58 407 2251 407L2351 407C2355.42 407 2359 410.582 2359 415L2359 447C2359 451.418 2355.42 455 2351 455L2251 455C2246.58 455 2243 451.418 2243 447Z" stroke="#000000" stroke-width="2" stroke-miterlimit="8" fill="#067F10" fill-rule="evenodd"/><text fill="#FFFFFF" font-family="Arial,Arial_MSFontService,sans-serif" font-weight="700" font-size="21" transform="translate(2266.59 439)">UV-<tspan font-size="21" x="36.6665" y="0">Vis </tspan></text><path d="M1.07779-2.62033 81.903 30.6244 79.7474 35.8651-1.07779 2.62033ZM81.4382 24.306 93.9268 38.6337 74.9715 40.028Z" transform="matrix(1 0 0 -1 2207 493.634)"/><path d="M2149 352C2149 347.582 2152.58 344 2157 344L2257 344C2261.42 344 2265 347.582 2265 352L2265 384C2265 388.418 2261.42 392 2257 392L2157 392C2152.58 392 2149 388.418 2149 384Z" stroke="#000000" stroke-width="2" stroke-miterlimit="8" fill="#067F10" fill-rule="evenodd"/><text fill="#FFFFFF" font-family="Arial,Arial_MSFontService,sans-serif" font-weight="700" font-size="21" transform="translate(2170.92 376)">Photos </text><path d="M2.83333-2.91982e-06 2.83342 87.7104-2.83324 87.7104-2.83333 2.91982e-06ZM8.50009 84.8771 0.000104987 101.877-8.49991 84.8771Z" transform="matrix(1 0 0 -1 2207 493.877)"/><path d="M980 1055C953.49 1055 932 1051.42 932 1047L932 857.509C932 853.091 910.51 849.509 884 849.509 910.51 849.509 932 845.928 932 841.51L932 756C932 751.582 953.49 748 980 748" stroke="#000000" stroke-width="4" stroke-miterlimit="8" fill="none" fill-rule="evenodd"/><path d="M995 1055C968.214 1055 946.5 1051.38 946.5 1046.92L946.5 909.583C946.5 905.119 924.786 901.5 898 901.5 924.786 901.5 946.5 897.881 946.5 893.417L946.5 756.083C946.5 751.619 968.214 748 995 748" stroke="#000000" stroke-width="4" stroke-miterlimit="8" fill="none" fill-rule="evenodd"/><path d="M971 995C971 990.582 974.582 987 979 987L1078 987C1082.42 987 1086 990.582 1086 995L1086 1027C1086 1031.42 1082.42 1035 1078 1035L979 1035C974.582 1035 971 1031.42 971 1027Z" stroke="#000000" stroke-width="2" stroke-miterlimit="8" fill="#0A24CC" fill-rule="evenodd"/><text fill="#FFFFFF" font-family="Arial,Arial_MSFontService,sans-serif" font-weight="700" font-size="21" transform="translate(990.976 1019)">Hexane</text><path d="M1421 823C1421 818.582 1424.58 815 1429 815L1528 815C1532.42 815 1536 818.582 1536 823L1536 855C1536 859.418 1532.42 863 1528 863L1429 863C1424.58 863 1421 859.418 1421 855Z" stroke="#000000" stroke-width="2" stroke-miterlimit="8" fill="#0A24CC" fill-rule="evenodd"/><text fill="#FFFFFF" font-family="Arial,Arial_MSFontService,sans-serif" font-weight="700" font-size="15" transform="translate(1460.54 836)">Poly-<tspan font-size="15" x="-22.92" y="18">norbornene </tspan></text><path d="M1332 762C1332 757.582 1335.58 754 1340 754L1439 754C1443.42 754 1447 757.582 1447 762L1447 794C1447 798.418 1443.42 802 1439 802L1340 802C1335.58 802 1332 798.418 1332 794Z" stroke="#000000" stroke-width="2" stroke-miterlimit="8" fill="#067F10" fill-rule="evenodd"/><text fill="#FFFFFF" font-family="Arial,Arial_MSFontService,sans-serif" font-weight="700" font-size="19" transform="translate(1353.95 774)">1H NMR <tspan font-size="19" x="11.3334" y="23">Array</tspan></text><path d="M1585 1024C1585 1019.58 1588.58 1016 1593 1016L1692 1016C1696.42 1016 1700 1019.58 1700 1024L1700 1056C1700 1060.42 1696.42 1064 1692 1064L1593 1064C1588.58 1064 1585 1060.42 1585 1056Z" stroke="#000000" stroke-width="2" stroke-miterlimit="8" fill="#067F10" fill-rule="evenodd"/><text fill="#FFFFFF" font-family="Arial,Arial_MSFontService,sans-serif" font-weight="700" font-size="21" transform="translate(1620.42 1048)">SEC</text><path d="M1.5848-2.34865 45.5872 27.3429 42.4175 32.0402-1.5848 2.34865ZM46.4081 21.0608 55.7456 37.6155 36.8993 35.1527Z" transform="matrix(1 0 0 -1 1276 815.616)"/><path d="M0.0132178-2.8333 72.7367-2.49404 72.7102 3.17257-0.0132178 2.8333ZM69.9298-8.17386 86.89 0.405354 69.8505 8.82595Z" transform="matrix(-1 0 0 1 1420.89 839)"/><path d="M1219 824C1219 819.582 1222.58 816 1227 816L1326 816C1330.42 816 1334 819.582 1334 824L1334 856C1334 860.418 1330.42 864 1326 864L1227 864C1222.58 864 1219 860.418 1219 856Z" stroke="#000000" stroke-width="2" stroke-miterlimit="8" fill="#FFC000" fill-rule="evenodd"/><text fill="#FFFFFF" font-family="Arial,Arial_MSFontService,sans-serif" font-weight="700" font-size="19" transform="translate(1255.11 835)">NMR <tspan font-size="19" x="-14.5" y="23">ROMP 1</tspan></text><path d="M971 936C971 931.582 974.582 928 979 928L1078 928C1082.42 928 1086 931.582 1086 936L1086 968C1086 972.418 1082.42 976 1078 976L979 976C974.582 976 971 972.418 971 968Z" stroke="#000000" stroke-width="2" stroke-miterlimit="8" fill="#0A24CC" fill-rule="evenodd"/><text fill="#FFFFFF" font-family="Arial,Arial_MSFontService,sans-serif" font-weight="700" font-size="16" transform="translate(983.476 949)">Norbornene<tspan font-size="16" x="24.42" y="19">imide</tspan></text><path d="M971 826C971 821.582 974.582 818 979 818L1078 818C1082.42 818 1086 821.582 1086 826L1086 858C1086 862.418 1082.42 866 1078 866L979 866C974.582 866 971 862.418 971 858Z" stroke="#000000" stroke-width="2" stroke-miterlimit="8" fill="#0A24CC" fill-rule="evenodd"/><text fill="#FFFFFF" font-family="Arial,Arial_MSFontService,sans-serif" font-weight="700" font-size="16" transform="translate(987.809 839)">Ethyl Vinyl <tspan font-size="16" x="20.5867" y="19">Ether</tspan></text><path d="M971 774C971 769.582 974.582 766 979 766L1078 766C1082.42 766 1086 769.582 1086 774L1086 806C1086 810.418 1082.42 814 1078 814L979 814C974.582 814 971 810.418 971 806Z" stroke="#000000" stroke-width="2" stroke-miterlimit="8" fill="#0A24CC" fill-rule="evenodd"/><text fill="#FFFFFF" font-family="Arial,Arial_MSFontService,sans-serif" font-weight="700" font-size="16" transform="translate(1000.31 787)">Grubbs <tspan font-size="16" x="6.75336" y="19">Cat. 3</tspan></text><path d="M971 881C971 876.582 974.582 873 979 873L1078 873C1082.42 873 1086 876.582 1086 881L1086 913C1086 917.418 1082.42 921 1078 921L979 921C974.582 921 971 917.418 971 913Z" stroke="#000000" stroke-width="2" stroke-miterlimit="8" fill="#0A24CC" fill-rule="evenodd"/><text fill="#FFFFFF" font-family="Arial,Arial_MSFontService,sans-serif" font-weight="700" font-size="16" transform="translate(1004.89 904)">CDCl3</text><path d="M1219 882C1219 877.582 1222.58 874 1227 874L1326 874C1330.42 874 1334 877.582 1334 882L1334 914C1334 918.418 1330.42 922 1326 922L1227 922C1222.58 922 1219 918.418 1219 914Z" stroke="#000000" stroke-width="2" stroke-miterlimit="8" fill="#FFC000" fill-rule="evenodd"/><text fill="#FFFFFF" font-family="Arial,Arial_MSFontService,sans-serif" font-weight="700" font-size="19" transform="translate(1255.11 894)">NMR <tspan font-size="19" x="-14.5" y="23">ROMP 2</tspan></text><path d="M1219 997C1219 992.582 1222.58 989 1227 989L1326 989C1330.42 989 1334 992.582 1334 997L1334 1029C1334 1033.42 1330.42 1037 1326 1037L1227 1037C1222.58 1037 1219 1033.42 1219 1029Z" stroke="#000000" stroke-width="2" stroke-miterlimit="8" fill="#FFC000" fill-rule="evenodd"/><text fill="#FFFFFF" font-family="Arial,Arial_MSFontService,sans-serif" font-weight="700" font-size="19" transform="translate(1255.11 1009)">NMR <tspan font-size="19" x="-14.5" y="23">ROMP 3</tspan></text><path d="M1422 883C1422 878.582 1425.58 875 1430 875L1529 875C1533.42 875 1537 878.582 1537 883L1537 915C1537 919.418 1533.42 923 1529 923L1430 923C1425.58 923 1422 919.418 1422 915Z" stroke="#000000" stroke-width="2" stroke-miterlimit="8" fill="#0A24CC" fill-rule="evenodd"/><text fill="#FFFFFF" font-family="Arial,Arial_MSFontService,sans-serif" font-weight="700" font-size="15" transform="translate(1461.71 896)">Poly-<tspan font-size="15" x="-22.92" y="18">norbornene </tspan></text><path d="M1403 1024C1403 1019.58 1406.58 1016 1411 1016L1510 1016C1514.42 1016 1518 1019.58 1518 1024L1518 1056C1518 1060.42 1514.42 1064 1510 1064L1411 1064C1406.58 1064 1403 1060.42 1403 1056Z" stroke="#000000" stroke-width="2" stroke-miterlimit="8" fill="#0A24CC" fill-rule="evenodd"/><text fill="#FFFFFF" font-family="Arial,Arial_MSFontService,sans-serif" font-weight="700" font-size="15" transform="translate(1442.26 1036)">Poly-<tspan font-size="15" x="-22.92" y="18">norbornene </tspan></text><path d="M1422.02 902.145 1348.12 901.044 1348.21 895.378 1422.1 896.479ZM1350.87 906.752 1334 898 1351.12 889.754Z"/><path d="M1401.6 1042.08 1346.2 1020.74 1348.24 1015.45 1403.64 1036.79ZM1346.81 1027.04 1334 1013 1352.92 1011.18Z"/><path d="M1597 885C1597 880.582 1600.58 877 1605 877L1704 877C1708.42 877 1712 880.582 1712 885L1712 917C1712 921.418 1708.42 925 1704 925L1605 925C1600.58 925 1597 921.418 1597 917Z" stroke="#000000" stroke-width="2" stroke-miterlimit="8" fill="#067F10" fill-rule="evenodd"/><text fill="#FFFFFF" font-family="Arial,Arial_MSFontService,sans-serif" font-weight="700" font-size="21" transform="translate(1632.78 909)">SEC</text><path d="M1595 823C1595 818.582 1598.58 815 1603 815L1702 815C1706.42 815 1710 818.582 1710 823L1710 855C1710 859.418 1706.42 863 1702 863L1603 863C1598.58 863 1595 859.418 1595 855Z" stroke="#000000" stroke-width="2" stroke-miterlimit="8" fill="#067F10" fill-rule="evenodd"/><text fill="#FFFFFF" font-family="Arial,Arial_MSFontService,sans-serif" font-weight="700" font-size="21" transform="translate(1630.59 848)">SEC</text><path d="M1345 949C1345 944.582 1348.58 941 1353 941L1452 941C1456.42 941 1460 944.582 1460 949L1460 981C1460 985.418 1456.42 989 1452 989L1353 989C1348.58 989 1345 985.418 1345 981Z" stroke="#000000" stroke-width="2" stroke-miterlimit="8" fill="#067F10" fill-rule="evenodd"/><text fill="#FFFFFF" font-family="Arial,Arial_MSFontService,sans-serif" font-weight="700" font-size="19" transform="translate(1366.69 961)">1H NMR <tspan font-size="19" x="11.3334" y="23">Array</tspan></text><path d="M1220 1093C1220 1088.58 1223.58 1085 1228 1085L1327 1085C1331.42 1085 1335 1088.58 1335 1093L1335 1125C1335 1129.42 1331.42 1133 1327 1133L1228 1133C1223.58 1133 1220 1129.42 1220 1125Z" stroke="#000000" stroke-width="2" stroke-miterlimit="8" fill="#067F10" fill-rule="evenodd"/><text fill="#FFFFFF" font-family="Arial,Arial_MSFontService,sans-serif" font-weight="700" font-size="19" transform="translate(1241.57 1105)">1H NMR <tspan font-size="19" x="11.3334" y="23">Array</tspan></text><path d="M1218.29 1016.41 1100.11 1014.11 1100.22 1008.44 1218.4 1010.75ZM1102.83 1019.83 1086 1011 1103.16 1002.83Z"/><path d="M1216.11 1015.19 1092.41 854.946 1096.9 851.483 1220.59 1011.72ZM1089.66 860.651 1086 842 1103.12 850.263Z"/><path d="M1215.91 1014.87 1090.78 803.633 1095.66 800.745 1220.79 1011.98ZM1087.35 808.958 1086 790 1101.98 800.294Z"/><path d="M1216.48 1014.9 1094.8 908.46 1098.53 904.195 1220.21 1010.64ZM1093.2 914.59 1086 897 1104.39 901.795Z"/><path d="M1217.17 1015.35 1097.69 960.487 1100.06 955.337 1219.53 1010.2ZM1097.9 966.819 1086 952 1105 951.37Z"/><path d="M1.83539-2.1585 123.392 101.203 119.721 105.52-1.83539 2.1585ZM124.904 95.0503 132.349 112.538 113.892 108.001Z" transform="matrix(-1 0 0 1 1218.35 898)"/><path d="M1217.24 900.946 1097.92 850.156 1100.14 844.942 1219.46 895.732ZM1098.31 856.479 1086 842 1104.97 840.838Z"/><path d="M1218.34 900.488 1100.15 899.903 1100.18 894.237 1218.36 894.821ZM1102.96 905.584 1086 897 1103.04 888.584Z"/><path d="M1216.55 900.501 1095.17 801.165 1098.76 796.779 1220.14 896.116ZM1093.77 807.344 1086 790 1104.54 794.188Z"/><path d="M1.07617-2.621 120.321 46.3401 118.168 51.5821-1.07617 2.621ZM119.852 40.0219 132.349 54.3419 113.395 55.7479Z" transform="matrix(-1 0 0 1 1218.35 898)"/><path d="M1.83622-2.1578 123.397 101.286 119.724 105.602-1.83622 2.1578ZM124.911 95.1343 132.349 112.625 113.894 108.081Z" transform="matrix(-1 0 0 1 1218.35 840)"/><path d="M1217.35 842.676 1098.25 797.659 1100.25 792.359 1219.35 837.375ZM1098.9 803.962 1086 790 1104.91 788.06Z"/><path d="M1.13113-2.59775 120.492 49.3749 118.229 54.5704-1.13113 2.59775ZM120.156 43.0482 132.349 57.6282 113.369 58.6347Z" transform="matrix(-1 0 0 1 1218.35 840)"/><path d="M0.041618-2.83303 118.226-1.09686 118.143 4.56919-0.041618 2.83303ZM115.476-6.80454 132.349 1.94425 115.226 10.1936Z" transform="matrix(-1 0 0 1 1218.35 840)"/><path d="M2.23975-1.73532 125.912 157.887 121.433 161.358-2.23975 1.73532ZM128.657 152.177 132.349 170.821 115.218 162.589Z" transform="matrix(-1 0 0 1 1218.35 840)"/><path d="M1277.51 919.603 1334.01 955.186 1330.99 959.98 1274.49 924.397ZM1334.63 948.881 1344.48 965.133 1325.57 963.265Z"/><path d="M1278.83 1036.94 1279.51 1070.76 1273.84 1070.88 1273.17 1037.06ZM1285.12 1067.82 1276.96 1084.98 1268.12 1068.16Z"/><path d="M1518 1037.17 1570.71 1037.17 1570.71 1042.83 1518 1042.83ZM1567.88 1031.5 1584.88 1040 1567.88 1048.5Z"/><path d="M1537.09 896.168 1582.72 897.554 1582.55 903.218 1536.91 901.832ZM1580.06 891.804 1596.79 900.816 1579.54 908.796Z"/><path d="M1536 836.167 1580.61 836.167 1580.61 841.833 1536 841.833ZM1577.77 830.5 1594.77 839 1577.77 847.5Z"/><path d="M1005 1055C978.49 1055 957 1051.42 957 1047L957 963.888C957 959.47 935.51 955.888 909 955.888 935.51 955.888 957 952.307 957 947.888L957 756C957 751.582 978.49 748 1005 748" stroke="#000000" stroke-width="4" stroke-miterlimit="8" fill="none" fill-rule="evenodd"/><path d="M782 830C782 825.582 785.582 822 790 822L890 822C894.418 822 898 825.582 898 830L898 862C898 866.418 894.418 870 890 870L790 870C785.582 870 782 866.418 782 862Z" stroke="#000000" stroke-width="2" stroke-miterlimit="8" fill="#D9D9D9" fill-rule="evenodd"/><text font-family="Arial,Arial_MSFontService,sans-serif" font-weight="700" font-size="21" transform="translate(799.127 854)">ROMP 1 </text><path d="M782 884C782 879.582 785.582 876 790 876L890 876C894.418 876 898 879.582 898 884L898 916C898 920.418 894.418 924 890 924L790 924C785.582 924 782 920.418 782 916Z" stroke="#000000" stroke-width="2" stroke-miterlimit="8" fill="#D9D9D9" fill-rule="evenodd"/><text font-family="Arial,Arial_MSFontService,sans-serif" font-weight="700" font-size="21" transform="translate(799.127 909)">ROMP 2 </text><path d="M782 941C782 936.582 785.582 933 790 933L890 933C894.418 933 898 936.582 898 941L898 973C898 977.418 894.418 981 890 981L790 981C785.582 981 782 977.418 782 973Z" stroke="#000000" stroke-width="2" stroke-miterlimit="8" fill="#D9D9D9" fill-rule="evenodd"/><text font-family="Arial,Arial_MSFontService,sans-serif" font-weight="700" font-size="21" transform="translate(799.127 965)">ROMP 3 </text><path d="M605 825C605 820.582 608.582 817 613 817L712 817C716.418 817 720 820.582 720 825L720 857C720 861.418 716.418 865 712 865L613 865C608.582 865 605 861.418 605 857Z" stroke="#000000" stroke-width="2" stroke-miterlimit="8" fill="#00B0F0" fill-rule="evenodd"/><text fill="#FFFFFF" font-family="Arial,Arial_MSFontService,sans-serif" font-weight="700" font-size="19" transform="translate(631.323 848)">Kinetic</text><path d="M721.954 838.949 774.218 888.738 770.309 892.841 718.046 843.051ZM776.075 882.681 782.521 900.561 764.349 894.99Z"/><path d="M720.247 838.177 768.655 842.409 768.161 848.054 719.753 843.823ZM766.325 836.517 782.521 846.465 764.845 853.453Z"/><path d="M722.494 839.655 778.288 943.078 773.301 945.769 717.506 842.345ZM781.93 937.894 782.521 956.892 766.968 945.966Z"/><path d="M779 186C779 181.582 782.582 178 787 178L886 178C890.418 178 894 181.582 894 186L894 218C894 222.418 890.418 226 886 226L787 226C782.582 226 779 222.418 779 218Z" stroke="#000000" stroke-width="2" stroke-miterlimit="8" fill="#D9D9D9" fill-rule="evenodd"/><text font-family="Arial,Arial_MSFontService,sans-serif" font-weight="700" font-size="21" transform="translate(797.386 210)">Anionic </text><path d="M1186.03 440.306 1095.45 369.929 1098.93 365.455 1189.5 435.832ZM1094.21 376.142 1086 359 1104.64 362.718Z" fill="#F09191"/><path d="M1185.46 439.328 1091.92 308.179 1096.53 304.889 1190.07 436.038ZM1088.95 313.776 1086 295 1102.79 303.905Z" fill="#F09191"/><path d="M1185.23 439.311 1089.84 249.927 1094.9 247.378 1190.3 436.762ZM1086.06 255.007 1086 236 1101.24 247.359Z" fill="#F09191"/><path d="M1185.12 438.995 1088.43 187.241 1093.72 185.209 1190.41 436.963ZM1084.16 191.917 1086 173 1100.03 185.822Z" fill="#F09191"/><path d="M1185.03 438.413 1086.89 68.4196 1092.37 66.9668 1190.5 436.96ZM1082.14 72.611 1086 54 1098.57 68.2527Z" fill="#F09191"/><path d="M1.10655-2.60832 477.343 199.431 475.13 204.647-1.10655 2.60832ZM476.949 193.108 489.279 207.572 470.309 208.758Z" fill="#F09191" transform="matrix(-1 0 0 1 1575.28 582)"/><path d="M1.32773-2.50298 478.092 250.4 475.436 255.406-1.32773 2.50298ZM478.244 244.066 489.279 259.542 470.278 259.084Z" fill="#F09191" transform="matrix(-1 0 0 1 1575.28 582)"/><path d="M1574.1 584.907 1097.71 367.461 1100.07 362.306 1576.46 579.752ZM1097.94 373.792 1086 359 1104.99 358.326Z" fill="#F09191"/><path d="M1189.21 654.801 1088.12 373.291 1093.45 371.375 1194.55 652.886ZM1083.75 377.872 1086 359 1099.75 372.127Z" fill="#F09191"/><path d="M1783.11 411.941 1099.52 300.083 1100.44 294.491 1784.02 406.349ZM1101.4 306.134 1086 295 1104.15 289.357Z" fill="#F09191"/><path d="M1904.63 410.292 1099.65 299.735 1100.42 294.121 1905.4 404.678ZM1101.69 305.734 1086 295 1104 288.892Z" fill="#F09191"/><path d="M2008.86 722.4 1097.69 303.492 1100.06 298.344 2011.22 717.252ZM1097.9 309.824 1086 295 1105 294.378Z" fill="#F09191"/><path d="M1192 638C1192 633.582 1195.58 630 1200 630L1299 630C1303.42 630 1307 633.582 1307 638L1307 670C1307 674.418 1303.42 678 1299 678L1200 678C1195.58 678 1192 674.418 1192 670Z" stroke="#000000" stroke-width="2" stroke-miterlimit="8" fill="#FFC000" fill-rule="evenodd"/><text fill="#FFFFFF" font-family="Arial,Arial_MSFontService,sans-serif" font-weight="700" font-size="19" transform="translate(1229.64 661)">ROP</text><path d="M1188 422C1188 417.582 1191.58 414 1196 414L1295 414C1299.42 414 1303 417.582 1303 422L1303 454C1303 458.418 1299.42 462 1295 462L1196 462C1191.58 462 1188 458.418 1188 454Z" stroke="#000000" stroke-width="2" stroke-miterlimit="8" fill="#FFC000" fill-rule="evenodd"/><text fill="#FFFFFF" font-family="Arial,Arial_MSFontService,sans-serif" font-weight="700" font-size="19" transform="translate(1211.69 434)">Anionic <tspan font-size="19" x="11.8333" y="23">Poly.</tspan></text><path d="M1333 327C1333 322.582 1336.58 319 1341 319L1440 319C1444.42 319 1448 322.582 1448 327L1448 359C1448 363.418 1444.42 367 1440 367L1341 367C1336.58 367 1333 363.418 1333 359Z" stroke="#000000" stroke-width="2" stroke-miterlimit="8" fill="#067F10" fill-rule="evenodd"/><text fill="#FFFFFF" font-family="Arial,Arial_MSFontService,sans-serif" font-weight="700" font-size="21" transform="translate(1349.92 351)">1H NMR </text><path d="M1460 327C1460 322.582 1463.58 319 1468 319L1568 319C1572.42 319 1576 322.582 1576 327L1576 359C1576 363.418 1572.42 367 1568 367L1468 367C1463.58 367 1460 363.418 1460 359Z" stroke="#000000" stroke-width="2" stroke-miterlimit="8" fill="#067F10" fill-rule="evenodd"/><text fill="#FFFFFF" font-family="Arial,Arial_MSFontService,sans-serif" font-weight="700" font-size="21" transform="translate(1496.26 351)">SEC</text><path d="M985 873C970.364 873 958.5 871.023 958.5 868.583L958.5 452.917C958.5 450.477 946.636 448.5 932 448.5 946.636 448.5 958.5 446.523 958.5 444.083L958.5 28.4168C958.5 25.9775 970.364 24 985 24" stroke="#000000" stroke-width="4" stroke-miterlimit="8" fill="none" fill-rule="evenodd"/><path d="M823 438C823 433.582 826.582 430 831 430L931 430C935.418 430 939 433.582 939 438L939 470C939 474.418 935.418 478 931 478L831 478C826.582 478 823 474.418 823 470Z" stroke="#000000" stroke-width="2" stroke-miterlimit="8" fill="#D9D9D9" fill-rule="evenodd"/><text font-family="Arial,Arial_MSFontService,sans-serif" font-weight="700" font-size="21" transform="translate(842.562 462)">Diblock</text><path d="M971 38.0002C971 33.5818 974.582 30 979 30L1078 30C1082.42 30 1086 33.5818 1086 38.0002L1086 69.9998C1086 74.4182 1082.42 78 1078 78L979 78C974.582 78 971 74.4182 971 69.9998Z" stroke="#000000" stroke-width="2" stroke-miterlimit="8" fill="#0A24CC" fill-rule="evenodd"/><text fill="#FFFFFF" font-family="Arial,Arial_MSFontService,sans-serif" font-weight="700" font-size="21" transform="translate(986.226 63)">SecBuLi</text><path d="M971 157C971 152.582 974.582 149 979 149L1078 149C1082.42 149 1086 152.582 1086 157L1086 189C1086 193.418 1082.42 197 1078 197L979 197C974.582 197 971 193.418 971 189Z" stroke="#000000" stroke-width="2" stroke-miterlimit="8" fill="#0A24CC" fill-rule="evenodd"/><text fill="#FFFFFF" font-family="Arial,Arial_MSFontService,sans-serif" font-weight="700" font-size="21" transform="translate(989.726 181)">Styrene</text><path d="M971 343C971 338.582 974.582 335 979 335L1078 335C1082.42 335 1086 338.582 1086 343L1086 375C1086 379.418 1082.42 383 1078 383L979 383C974.582 383 971 379.418 971 375Z" stroke="#000000" stroke-width="2" stroke-miterlimit="8" fill="#0A24CC" fill-rule="evenodd"/><text fill="#FFFFFF" font-family="Arial,Arial_MSFontService,sans-serif" font-weight="700" font-size="21" transform="translate(1008.14 367)">THF</text><path d="M971 220C971 215.582 974.582 212 979 212L1078 212C1082.42 212 1086 215.582 1086 220L1086 252C1086 256.418 1082.42 260 1078 260L979 260C974.582 260 971 256.418 971 252Z" stroke="#000000" stroke-width="2" stroke-miterlimit="8" fill="#0A24CC" fill-rule="evenodd"/><text fill="#FFFFFF" font-family="Arial,Arial_MSFontService,sans-serif" font-weight="700" font-size="21" transform="translate(997.976 244)">MeOH</text><path d="M971 279C971 274.582 974.582 271 979 271L1078 271C1082.42 271 1086 274.582 1086 279L1086 311C1086 315.418 1082.42 319 1078 319L979 319C974.582 319 971 315.418 971 311Z" stroke="#000000" stroke-width="2" stroke-miterlimit="8" fill="#0A24CC" fill-rule="evenodd"/><text fill="#FFFFFF" font-family="Arial,Arial_MSFontService,sans-serif" font-weight="700" font-size="21" transform="translate(987.976 304)">Toluene</text><path d="M1.14797-2.59036 302.242 130.845 299.946 136.026-1.14797 2.59036ZM301.947 124.517 314.046 139.175 295.06 140.059Z" fill="#566BF7" transform="matrix(-1 0 0 1 2149.05 518)"/><path d="M0.852051-2.70218 428.72 132.213 427.016 137.617-0.852051 2.70218ZM427.722 125.957 441.379 139.175 422.61 142.17Z" fill="#566BF7" transform="matrix(-1 0 0 1 2149.38 518)"/><path d="M1254 544C1254 539.582 1257.58 536 1262 536L1361 536C1365.42 536 1369 539.582 1369 544L1369 576C1369 580.418 1365.42 584 1361 584L1262 584C1257.58 584 1254 580.418 1254 576Z" stroke="#000000" stroke-width="2" stroke-miterlimit="8" fill="#067F10" fill-rule="evenodd"/><text fill="#FFFFFF" font-family="Arial,Arial_MSFontService,sans-serif" font-weight="700" font-size="21" transform="translate(1270.62 568)">1H NMR </text><path d="M1381 544C1381 539.582 1384.58 536 1389 536L1488 536C1492.42 536 1496 539.582 1496 544L1496 576C1496 580.418 1492.42 584 1488 584L1389 584C1384.58 584 1381 580.418 1381 576Z" stroke="#000000" stroke-width="2" stroke-miterlimit="8" fill="#067F10" fill-rule="evenodd"/><text fill="#FFFFFF" font-family="Arial,Arial_MSFontService,sans-serif" font-weight="700" font-size="21" transform="translate(1416.95 568)">SEC</text><path d="M2149 502C2149 497.582 2152.58 494 2157 494L2257 494C2261.42 494 2265 497.582 2265 502L2265 534C2265 538.418 2261.42 542 2257 542L2157 542C2152.58 542 2149 538.418 2149 534Z" stroke="#000000" stroke-width="2" stroke-miterlimit="8" fill="#0A24CC" fill-rule="evenodd"/><text fill="#FFFFFF" font-family="Arial,Arial_MSFontService,sans-serif" font-weight="700" font-size="16" transform="translate(2164.58 524)">Thin Film 1</text><path d="M4.58048e-06-2.83333 50.7748-2.83325 50.7747 2.83342-4.58048e-06 2.83333ZM47.9414-8.49992 64.9414 0.000104987 47.9414 8.50008Z" transform="matrix(-1 0 0 1 2148.94 518)"/><path d="M2151 566C2151 561.582 2154.58 558 2159 558L2258 558C2262.42 558 2266 561.582 2266 566L2266 598C2266 602.418 2262.42 606 2258 606L2159 606C2154.58 606 2151 602.418 2151 598Z" stroke="#000000" stroke-width="2" stroke-miterlimit="8" fill="#0A24CC" fill-rule="evenodd"/><text fill="#FFFFFF" font-family="Arial,Arial_MSFontService,sans-serif" font-weight="700" font-size="16" transform="translate(2166.11 588)">Thin Film 2</text><path d="M2151.48 585.309 2097.95 581.763 2098.32 576.109 2151.86 579.655ZM2100.4 587.605 2084 578 2101.52 570.642Z"/><path d="M2151 629C2151 624.582 2154.58 621 2159 621L2258 621C2262.42 621 2266 624.582 2266 629L2266 661C2266 665.418 2262.42 669 2258 669L2159 669C2154.58 669 2151 665.418 2151 661Z" stroke="#000000" stroke-width="2" stroke-miterlimit="8" fill="#0A24CC" fill-rule="evenodd"/><text fill="#FFFFFF" font-family="Arial,Arial_MSFontService,sans-serif" font-weight="700" font-size="21" transform="translate(2183.11 653)">Puck</text><path d="M2149.14 647.831 2098.02 645.481 2098.28 639.82 2149.4 642.171ZM2100.59 651.272 2084 642 2101.37 634.29Z"/><path d="M1991.95 804.502 1521.59 448.805 1525.01 444.285 1995.37 799.982ZM1520.43 455.034 1512 438 1530.69 441.474Z" fill="#566BF7"/><path d="M1.68224-2.27988 53.9495 36.2862 50.585 40.846-1.68224 2.27988ZM55.0341 30.0442 63.6667 46.9773 44.9407 43.7235Z" transform="matrix(1 0 0 -1 1454 413.977)"/><path d="M2.8088-0.372045 6.77944 29.6048 1.16184 30.3489-2.8088 0.372045ZM12.025 26.052 5.83087 44.0209-4.8278 28.2842Z" transform="matrix(1 0 0 -1 1433 628.021)"/><path d="M1573.27 584.272 1462.06 473.987 1466.05 469.964 1577.26 580.248ZM1460.09 480.006 1454 462 1472.06 467.935Z"/><path d="M0.857574-2.70043 130.088 38.3393 128.373 43.7401-0.857574 2.70043ZM129.103 32.0808 142.733 45.3276 123.958 48.2834Z" transform="matrix(-1 0 0 1 1575.73 582)"/><path d="M0.686807-2.74883 264.415 63.1448 263.041 68.6424-0.686807 2.74883ZM263.04 56.9602 277.472 69.3276 258.919 73.4532Z" fill="#566BF7" transform="matrix(-1 0 0 1 1768.47 582)"/><path d="M1766.61 584.729 1522.95 447.423 1525.73 442.486 1769.4 579.792ZM1522.64 453.751 1512 438 1530.98 438.94Z" fill="#566BF7"/><path d="M1397 422C1397 417.582 1400.58 414 1405 414L1504 414C1508.42 414 1512 417.582 1512 422L1512 454C1512 458.418 1508.42 462 1504 462L1405 462C1400.58 462 1397 458.418 1397 454Z" stroke="#000000" stroke-width="2" stroke-miterlimit="8" fill="#0A24CC" fill-rule="evenodd"/><text fill="#FFFFFF" font-family="Arial,Arial_MSFontService,sans-serif" font-weight="700" font-size="15" transform="translate(1412.84 443)">Polystyrene</text><path d="M1375 636C1375 631.582 1378.58 628 1383 628L1483 628C1487.42 628 1491 631.582 1491 636L1491 668C1491 672.418 1487.42 676 1483 676L1383 676C1378.58 676 1375 672.418 1375 668Z" stroke="#000000" stroke-width="2" stroke-miterlimit="8" fill="#0A24CC" fill-rule="evenodd"/><text fill="#FFFFFF" font-family="Arial,Arial_MSFontService,sans-serif" font-weight="700" font-size="15" transform="translate(1398.79 648)">Polylactic <tspan font-size="15" x="18.2533" y="18">Acid</tspan></text><path d="M2059 894C2059 889.582 2062.58 886 2067 886L2166 886C2170.42 886 2174 889.582 2174 894L2174 926C2174 930.418 2170.42 934 2166 934L2067 934C2062.58 934 2059 930.418 2059 926Z" stroke="#000000" stroke-width="2" stroke-miterlimit="8" fill="#067F10" fill-rule="evenodd"/><text fill="#FFFFFF" font-family="Arial,Arial_MSFontService,sans-serif" font-weight="700" font-size="21" transform="translate(2080.31 918)">Photos </text><path d="M1937 894C1937 889.582 1940.58 886 1945 886L2045 886C2049.42 886 2053 889.582 2053 894L2053 926C2053 930.418 2049.42 934 2045 934L1945 934C1940.58 934 1937 930.418 1937 926Z" stroke="#000000" stroke-width="2" stroke-miterlimit="8" fill="#067F10" fill-rule="evenodd"/><text fill="#FFFFFF" font-family="Arial,Arial_MSFontService,sans-serif" font-weight="700" font-size="21" transform="translate(1960.62 918)">UV-<tspan font-size="21" x="36.6666" y="0">Vis </tspan></text><path d="M1816 894C1816 889.582 1819.58 886 1824 886L1923 886C1927.42 886 1931 889.582 1931 894L1931 926C1931 930.418 1927.42 934 1923 934L1824 934C1819.58 934 1816 930.418 1816 926Z" stroke="#000000" stroke-width="2" stroke-miterlimit="8" fill="#067F10" fill-rule="evenodd"/><text fill="#FFFFFF" font-family="Arial,Arial_MSFontService,sans-serif" font-weight="700" font-size="19" transform="translate(1840.42 906)">grazing<tspan font-size="19" x="7.58008" y="23">SAXS </tspan></text><path d="M1990.92 803.253 1886.82 595.932 1891.89 593.389 1995.98 800.71ZM1883.03 601.007 1883 582 1898.22 593.378Z" fill="#566BF7"/><path d="M1991.95 804.502 1521.59 448.805 1525.01 444.285 1995.37 799.982ZM1520.43 455.034 1512 438 1530.69 441.474Z" fill="#566BF7"/><text fill="#898989" font-family="Arial,Arial_MSFontService,sans-serif" font-weight="400" font-size="12" transform="translate(2015.97 749)">1</text><path d="M1936 717C1936 712.582 1939.58 709 1944 709L2043 709C2047.42 709 2051 712.582 2051 717L2051 749C2051 753.418 2047.42 757 2043 757L1944 757C1939.58 757 1936 753.418 1936 749Z" stroke="#000000" stroke-width="2" stroke-miterlimit="8" fill="#FFC000" fill-rule="evenodd"/><text fill="#FFFFFF" font-family="Arial,Arial_MSFontService,sans-serif" font-weight="700" font-size="19" transform="translate(1981.76 729)">3D <tspan font-size="19" x="-22.6667" y="23">printing</tspan></text><path d="M1969 502C1969 497.582 1972.58 494 1977 494L2076 494C2080.42 494 2084 497.582 2084 502L2084 534C2084 538.418 2080.42 542 2076 542L1977 542C1972.58 542 1969 538.418 1969 534Z" stroke="#000000" stroke-width="2" stroke-miterlimit="8" fill="#FFC000" fill-rule="evenodd"/><text fill="#FFFFFF" font-family="Arial,Arial_MSFontService,sans-serif" font-weight="700" font-size="19" transform="translate(1983.44 524)">Spin Coat</text><path d="M1969 566C1969 561.582 1972.58 558 1977 558L2076 558C2080.42 558 2084 561.582 2084 566L2084 598C2084 602.418 2080.42 606 2076 606L1977 606C1972.58 606 1969 602.418 1969 598Z" stroke="#000000" stroke-width="2" stroke-miterlimit="8" fill="#FFC000" fill-rule="evenodd"/><text fill="#FFFFFF" font-family="Arial,Arial_MSFontService,sans-serif" font-weight="700" font-size="19" transform="translate(1983.44 578)">Spin Coat <tspan font-size="19" x="4.41333" y="23">+ Anneal</tspan></text><path d="M1969 629C1969 624.582 1972.58 621 1977 621L2076 621C2080.42 621 2084 624.582 2084 629L2084 661C2084 665.418 2080.42 669 2076 669L1977 669C1972.58 669 1969 665.418 1969 661Z" stroke="#000000" stroke-width="2" stroke-miterlimit="8" fill="#FFC000" fill-rule="evenodd"/><text fill="#FFFFFF" font-family="Arial,Arial_MSFontService,sans-serif" font-weight="700" font-size="19" transform="translate(1983.36 652)">Hot Press</text><path d="M1991.31 710.999 1890.15 594.553 1894.43 590.836 1995.59 707.282ZM1887.73 600.408 1883 582 1900.57 589.259Z"/><path d="M1576 566C1576 561.582 1579.58 558 1584 558L1683 558C1687.42 558 1691 561.582 1691 566L1691 598C1691 602.418 1687.42 606 1683 606L1584 606C1579.58 606 1576 602.418 1576 598Z" stroke="#000000" stroke-width="2" stroke-miterlimit="8" fill="#FFC000" fill-rule="evenodd"/><text fill="#FFFFFF" font-family="Arial,Arial_MSFontService,sans-serif" font-weight="700" font-size="19" transform="translate(1605.29 589)">ROMP</text><path d="M3.85618e-06-2.83333 62.9725-2.83325 62.9725 2.83342-3.85618e-06 2.83333ZM60.1392-8.49992 77.1392 0.000104987 60.1392 8.50008Z" transform="matrix(-1 0 0 1 1768.14 582)"/><path d="M1828.78 605.465 1835.83 642.105 1830.27 643.176 1823.22 606.535ZM1840.86 638.252 1835.73 656.552 1824.17 641.464Z"/><path d="M1.1189-2.60305 105.71 42.3546 103.472 47.5607-1.1189 2.60305ZM105.345 36.0296 117.607 50.5521 98.6315 51.6479Z" transform="matrix(-1 0 0 1 1825.61 606)"/><path d="M1.70168-2.2654 76.4058 53.8495 73.0024 58.3803-1.70168 2.2654ZM77.5437 47.617 86.0311 64.6233 67.3336 61.2094Z" transform="matrix(-1 0 0 1 1969.03 518)"/><path d="M0.00735779-2.83332 71.8718-2.6467 71.8571 3.01995-0.00735779 2.83332ZM69.0532-8.32071 86.0311 0.223412 69.0091 8.67924Z" transform="matrix(-1 0 0 1 1969.03 582)"/><path d="M1967.37 646.812 1892.79 592.62 1896.13 588.036 1970.7 642.228ZM1891.76 598.87 1883 582 1901.75 585.118Z"/><path d="M1768 566C1768 561.582 1771.58 558 1776 558L1875 558C1879.42 558 1883 561.582 1883 566L1883 598C1883 602.418 1879.42 606 1875 606L1776 606C1771.58 606 1768 602.418 1768 598Z" stroke="#000000" stroke-width="2" stroke-miterlimit="8" fill="#0A24CC" fill-rule="evenodd"/><text fill="#FFFFFF" font-family="Arial,Arial_MSFontService,sans-serif" font-weight="700" font-size="15" transform="translate(1786.46 587)">Diblock BB</text><path d="M1823.03 558.88 1786.79 471.175 1792.03 469.011 1828.27 556.716ZM1782.64 475.958 1784 457 1798.35 469.465Z"/><path d="M2.23534-1.74098 73.3299 89.5411 68.8592 93.023-2.23534 1.74098ZM76.0596 83.8238 79.7995 102.459 62.6475 94.2697Z" transform="matrix(1 0 0 -1 1826 558.459)"/><path d="M1726 417C1726 412.582 1729.58 409 1734 409L1834 409C1838.42 409 1842 412.582 1842 417L1842 449C1842 453.418 1838.42 457 1834 457L1734 457C1729.58 457 1726 453.418 1726 449Z" stroke="#000000" stroke-width="2" stroke-miterlimit="8" fill="#067F10" fill-rule="evenodd"/><text fill="#FFFFFF" font-family="Arial,Arial_MSFontService,sans-serif" font-weight="700" font-size="15" transform="translate(1740.39 430)">Sol. Neutron <tspan font-size="15" x="7.7467" y="18">Scattering</tspan></text><path d="M1848 416C1848 411.582 1851.58 408 1856 408L1955 408C1959.42 408 1963 411.582 1963 416L1963 448C1963 452.418 1959.42 456 1955 456L1856 456C1851.58 456 1848 452.418 1848 448Z" stroke="#000000" stroke-width="2" stroke-miterlimit="8" fill="#067F10" fill-rule="evenodd"/><text fill="#FFFFFF" font-family="Arial,Arial_MSFontService,sans-serif" font-weight="400" font-size="19" transform="translate(1864.59 427)">frequency <tspan font-size="19" x="9.2533" y="23">sweeps</tspan></text><path d="M2.83333-6.63365e-06 2.83341 30.6748-2.83326 30.6748-2.83333 6.63365e-06ZM8.50006 27.8414 0.000104987 44.8415-8.49994 27.8415Z" transform="matrix(1 0 0 -1 1994 801.841)"/><path d="M1993.31 805.369 1503.76 658.779 1505.39 653.35 1994.94 799.94ZM1504.85 665.019 1491 652 1509.72 648.734Z" fill="#566BF7"/><path d="M1650 665C1650 660.582 1653.58 657 1658 657L1758 657C1762.42 657 1766 660.582 1766 665L1766 697C1766 701.418 1762.42 705 1758 705L1658 705C1653.58 705 1650 701.418 1650 697Z" stroke="#000000" stroke-width="2" stroke-miterlimit="8" fill="#067F10" fill-rule="evenodd"/><text fill="#FFFFFF" font-family="Arial,Arial_MSFontService,sans-serif" font-weight="700" font-size="21" transform="translate(1667.19 689)">1H NMR </text><path d="M1778 665C1778 660.582 1781.58 657 1786 657L1885 657C1889.42 657 1893 660.582 1893 665L1893 697C1893 701.418 1889.42 705 1885 705L1786 705C1781.58 705 1778 701.418 1778 697Z" stroke="#000000" stroke-width="2" stroke-miterlimit="8" fill="#067F10" fill-rule="evenodd"/><text fill="#FFFFFF" font-family="Arial,Arial_MSFontService,sans-serif" font-weight="700" font-size="21" transform="translate(1813.52 689)">SEC</text><path d="M1936 810C1936 805.582 1939.58 802 1944 802L2043 802C2047.42 802 2051 805.582 2051 810L2051 842C2051 846.418 2047.42 850 2043 850L1944 850C1939.58 850 1936 846.418 1936 842Z" stroke="#000000" stroke-width="2" stroke-miterlimit="8" fill="#0A24CC" fill-rule="evenodd"/><text fill="#FFFFFF" font-family="Arial,Arial_MSFontService,sans-serif" font-weight="700" font-size="16" transform="translate(1975.43 823)">Print <tspan font-size="16" x="-11.92" y="19">Material</tspan></text></g></svg>