<svg width="1280" height="576" xmlns="http://www.w3.org/2000/svg" xmlns:xlink="http://www.w3.org/1999/xlink" overflow="hidden"><defs><clipPath id="clip0"><rect x="0" y="0" width="1280" height="576"/></clipPath></defs><g clip-path="url(#clip0)"><rect x="0" y="0" width="1280" height="576" fill="#FFFFFF"/><path d="M0.022446-2.83324 125.135-1.84206 125.09 3.82443-0.022446 2.83324ZM122.346-7.531 139.278 1.10341 122.212 9.46847Z" fill="#A6A6A6" transform="matrix(1 0 0 -1 318 289.103)"/><path d="M572.125 170.169 616.106 172.112 615.855 177.773 571.875 175.831ZM613.525 166.326 630.133 175.568 612.775 183.309Z" fill="#A6A6A6"/><path d="M1.86655-2.13162 49.808 39.8483 46.0749 44.1115-1.86655 2.13162ZM51.4095 33.7185 58.5996 51.3126 40.2103 46.5082Z" fill="#A6A6A6" transform="matrix(1 0 0 -1 572 173.313)"/><path d="M1.26748-2.53402 36.5796 15.1286 34.0447 20.1966-1.26748 2.53402ZM36.5806 8.79305 47.9823 24 28.9757 23.9972Z" fill="#A6A6A6" transform="matrix(1 0 0 -1 318 139)"/><path d="M319.647 78.6948 356.104 104.749 352.809 109.359 316.353 83.3052ZM357.094 98.4911 365.982 115.291 347.209 112.322Z" fill="#A6A6A6"/><path d="M1.94606-2.05928 19.7633 14.7784 15.8711 18.8969-1.94606 2.05928ZM21.5961 8.71377 28.1136 26.568 9.91975 21.0694Z" fill="#A6A6A6" transform="matrix(1 0 0 -1 482 115.568)"/><path d="M318.593 422.229 442.712 448.797 441.526 454.338 317.407 427.771ZM441.128 442.663 455.972 454.533 437.57 459.287Z" fill="#A6A6A6"/><path d="M0.507891-2.78744 124.543 19.8126 123.527 25.3875-0.507891 2.78744ZM122.771 13.7299 137.972 25.1395 119.724 30.4545Z" fill="#A6A6A6" transform="matrix(1 0 0 -1 318 425.14)"/><path d="M318.031 225.167 534.164 227.547 534.102 233.214 317.969 230.833ZM531.393 221.85 548.299 230.537 531.206 238.849Z"/><path d="M664.047 227.167 698.069 227.732 697.975 233.398 663.953 232.833ZM695.33 222.019 712.187 230.8 695.048 239.017Z"/><path d="M320.211 226.228 449.326 387.379 444.903 390.923 315.789 229.772ZM451.976 381.625 455.972 400.207 438.709 392.255Z"/><path d="M203 212C203 207.582 206.582 204 211 204L310 204C314.418 204 318 207.582 318 212L318 244C318 248.418 314.418 252 310 252L211 252C206.582 252 203 248.418 203 244Z" stroke="#000000" stroke-width="2" stroke-miterlimit="8" fill="#9100B8" fill-rule="evenodd"/><text fill="#FFFFFF" font-family="Arial,Arial_MSFontService,sans-serif" font-weight="700" font-size="21" transform="translate(218.815 236)">Dylan W</text><path d="M549 214C549 209.582 552.582 206 557 206L656 206C660.418 206 664 209.582 664 214L664 246C664 250.418 660.418 254 656 254L557 254C552.582 254 549 250.418 549 246Z" stroke="#000000" stroke-width="2" stroke-miterlimit="8" fill="#FB7623" fill-rule="evenodd"/><text fill="#FFFFFF" font-family="Arial,Arial_MSFontService,sans-serif" font-weight="700" font-size="19" transform="translate(578.396 226)">CRIPT <tspan font-size="19" x="3.66669" y="23">Team </tspan></text><path d="M712 215C712 210.582 715.582 207 720 207L819 207C823.418 207 827 210.582 827 215L827 247C827 251.418 823.418 255 819 255L720 255C715.582 255 712 251.418 712 247Z" stroke="#000000" stroke-width="2" stroke-miterlimit="8" fill="#00B0F0" fill-rule="evenodd"/><text fill="#FFFFFF" font-family="Arial,Arial_MSFontService,sans-serif" font-weight="700" font-size="19" transform="translate(741.783 227)">CRIPT <tspan font-size="19" x="2.08667" y="23">Demo</tspan></text><path d="M456 384C456 379.582 459.582 376 464 376L564 376C568.418 376 572 379.582 572 384L572 416C572 420.418 568.418 424 564 424L464 424C459.582 424 456 420.418 456 416Z" stroke="#000000" stroke-width="2" stroke-miterlimit="8" fill="#595959" fill-rule="evenodd"/><text fill="#FFFFFF" font-family="Arial,Arial_MSFontService,sans-serif" font-weight="700" font-size="21" transform="translate(478.57 408)">Recent</text><path d="M366 99.0001C366 94.5818 369.582 91 374 91L474 91C478.418 91 482 94.5818 482 99.0001L482 131C482 135.418 478.418 139 474 139L374 139C369.582 139 366 135.418 366 131Z" stroke="#000000" stroke-width="2" stroke-miterlimit="8" fill="#FB7623" fill-rule="evenodd"/><text fill="#FFFFFF" font-family="Arial,Arial_MSFontService,sans-serif" font-weight="700" font-size="19" transform="translate(408.08 122)">MIT</text><path d="M457 157C457 152.582 460.582 149 465 149L564 149C568.418 149 572 152.582 572 157L572 189C572 193.418 568.418 197 564 197L465 197C460.582 197 457 193.418 457 189Z" stroke="#000000" stroke-width="2" stroke-miterlimit="8" fill="#FB7623" fill-rule="evenodd"/><text fill="#FFFFFF" font-family="Arial,Arial_MSFontService,sans-serif" font-weight="700" font-size="19" transform="translate(469.759 180)">Olsen Lab</text><path d="M996 178C996 173.582 999.582 170 1004 170L1103 170C1107.42 170 1111 173.582 1111 178L1111 210C1111 214.418 1107.42 218 1103 218L1004 218C999.582 218 996 214.418 996 210Z" stroke="#000000" stroke-width="2" stroke-miterlimit="8" fill="#D9D9D9" fill-rule="evenodd"/><text font-family="Arial,Arial_MSFontService,sans-serif" font-weight="700" font-size="21" transform="translate(1015 202)">Diblock</text><path d="M996 123C996 118.582 999.582 115 1004 115L1103 115C1107.42 115 1111 118.582 1111 123L1111 155C1111 159.418 1107.42 163 1103 163L1004 163C999.582 163 996 159.418 996 155Z" stroke="#000000" stroke-width="2" stroke-miterlimit="8" fill="#D9D9D9" fill-rule="evenodd"/><text font-family="Arial,Arial_MSFontService,sans-serif" font-weight="700" font-size="21" transform="translate(1014.42 147)">Anionic </text><path d="M996 233C996 228.582 999.582 225 1004 225L1103 225C1107.42 225 1111 228.582 1111 233L1111 265C1111 269.418 1107.42 273 1103 273L1004 273C999.582 273 996 269.418 996 265Z" stroke="#000000" stroke-width="2" stroke-miterlimit="8" fill="#D9D9D9" fill-rule="evenodd"/><text font-family="Arial,Arial_MSFontService,sans-serif" font-weight="700" font-size="21" transform="translate(1012.59 257)">ROMP 1 </text><path d="M996 288C996 283.582 999.582 280 1004 280L1103 280C1107.42 280 1111 283.582 1111 288L1111 320C1111 324.418 1107.42 328 1103 328L1004 328C999.582 328 996 324.418 996 320Z" stroke="#000000" stroke-width="2" stroke-miterlimit="8" fill="#D9D9D9" fill-rule="evenodd"/><text font-family="Arial,Arial_MSFontService,sans-serif" font-weight="700" font-size="21" transform="translate(1012.59 312)">ROMP 2 </text><path d="M996 343C996 338.582 999.582 335 1004 335L1103 335C1107.42 335 1111 338.582 1111 343L1111 375C1111 379.418 1107.42 383 1103 383L1004 383C999.582 383 996 379.418 996 375Z" stroke="#000000" stroke-width="2" stroke-miterlimit="8" fill="#D9D9D9" fill-rule="evenodd"/><text font-family="Arial,Arial_MSFontService,sans-serif" font-weight="700" font-size="21" transform="translate(1012.59 368)">ROMP 3 </text><path d="M456 439C456 434.582 459.582 431 464 431L564 431C568.418 431 572 434.582 572 439L572 471C572 475.418 568.418 479 564 479L464 479C459.582 479 456 475.418 456 471Z" stroke="#000000" stroke-width="2" stroke-miterlimit="8" fill="#595959" fill-rule="evenodd"/><text fill="#FFFFFF" font-family="Arial,Arial_MSFontService,sans-serif" font-weight="700" font-size="21" transform="translate(478.487 463)">Kinetic</text><path d="M2.60553-1.11311 45.0223 98.1745 39.8112 100.401-2.60553 1.11311ZM49.1202 93.3427 47.9823 112.315 33.487 100.021Z" transform="matrix(1 0 0 -1 318 227.315)"/><path d="M1.03956-2.63573 126.439 46.8232 124.359 52.0946-1.03956 2.63573ZM125.882 40.5121 138.578 54.6567 119.645 56.3265Z" transform="matrix(1 0 0 -1 318 227.657)"/><path d="M320.421 226.528 451.032 441.303 446.19 444.247 315.579 229.472ZM454.402 435.938 455.972 454.879 439.877 444.771Z"/><path d="M572 452.167 588.722 452.167 588.722 457.833 572 457.833ZM585.889 446.5 602.889 455 585.889 463.5Z" fill="#A6A6A6"/><path d="M603 384C603 379.582 606.582 376 611 376L710 376C714.418 376 718 379.582 718 384L718 416C718 420.418 714.418 424 710 424L611 424C606.582 424 603 420.418 603 416Z" stroke="#000000" stroke-width="2" stroke-miterlimit="8" fill="#00B0F0" fill-rule="evenodd"/><text fill="#FFFFFF" font-family="Arial,Arial_MSFontService,sans-serif" font-weight="700" font-size="21" transform="translate(636.992 408)">Coll.</text><path d="M603 439C603 434.582 606.582 431 611 431L710 431C714.418 431 718 434.582 718 439L718 471C718 475.418 714.418 479 710 479L611 479C606.582 479 603 475.418 603 471Z" stroke="#000000" stroke-width="2" stroke-miterlimit="8" fill="#00B0F0" fill-rule="evenodd"/><text fill="#FFFFFF" font-family="Arial,Arial_MSFontService,sans-serif" font-weight="700" font-size="21" transform="translate(636.992 463)">Coll.</text><path d="M572 397.167 588.722 397.167 588.722 402.833 572 402.833ZM585.889 391.5 602.889 400 585.889 408.5Z" fill="#A6A6A6"/><path d="M825 263C825 258.582 828.582 255 833 255L932 255C936.418 255 940 258.582 940 263L940 295C940 299.418 936.418 303 932 303L833 303C828.582 303 825 299.418 825 295Z" stroke="#000000" stroke-width="2" stroke-miterlimit="8" fill="#00B0F0" fill-rule="evenodd"/><text fill="#FFFFFF" font-family="Arial,Arial_MSFontService,sans-serif" font-weight="700" font-size="19" transform="translate(851.844 286)">Kinetic</text><path d="M771.125 252.4 813.584 270.773 811.334 275.974 768.875 257.6ZM813.235 264.448 825.461 279 806.483 280.049Z"/><path d="M1.36291-2.484 157.464 83.1651 154.739 88.1331-1.36291 2.484ZM157.706 76.8343 168.522 92.4637 149.529 91.7383Z" transform="matrix(1 0 0 -1 827 231.464)"/><path d="M941.171 276.42 983.732 295.74 981.39 300.9 938.829 281.58ZM983.494 289.409 995.461 304.176 976.468 304.889Z"/><path d="M1.34934-2.4914 44.3531 20.7994 41.6544 25.7822-1.34934 2.4914ZM44.5604 14.4673 55.4608 30.0375 36.4644 29.4156Z" transform="matrix(1 0 0 -1 940 279.037)"/><path d="M942.332 277.391 989.748 346.119 985.084 349.337 937.668 280.609ZM992.803 340.569 995.461 359.389 978.81 350.223Z"/><path d="M0.611528-2.76655 155.3 31.4264 154.077 36.9595-0.611528 2.76655ZM153.757 25.2818 168.522 37.2506 150.088 41.8811Z" transform="matrix(1 0 0 -1 827 231.251)"/><path d="M484.023 113.017 507.101 136.559 503.055 140.525 479.977 116.983ZM509.165 130.568 514.995 148.658 497.025 142.469Z"/><path d="M573.976 170.969 597.942 194.284 593.991 198.346 570.024 175.031ZM599.863 188.247 606.121 206.193 588.009 200.432Z"/><path d="M630 160C630 155.582 633.582 152 638 152L738 152C742.418 152 746 155.582 746 160L746 192C746 196.418 742.418 200 738 200L638 200C633.582 200 630 196.418 630 192Z" stroke="#000000" stroke-width="2" stroke-miterlimit="8" fill="#00B0F0" fill-rule="evenodd"/><text fill="#FFFFFF" font-family="Arial,Arial_MSFontService,sans-serif" font-weight="700" font-size="21" transform="translate(664.842 184)">Coll.</text><path d="M631 106C631 101.582 634.582 98 639 98L738 98C742.418 98 746 101.582 746 106L746 138C746 142.418 742.418 146 738 146L639 146C634.582 146 631 142.418 631 138Z" stroke="#000000" stroke-width="2" stroke-miterlimit="8" fill="#00B0F0" fill-rule="evenodd"/><text fill="#FFFFFF" font-family="Arial,Arial_MSFontService,sans-serif" font-weight="700" font-size="21" transform="translate(665.309 130)">Coll.</text><path d="M203 409C203 404.582 206.582 401 211 401L310 401C314.418 401 318 404.582 318 409L318 441C318 445.418 314.418 449 310 449L211 449C206.582 449 203 445.418 203 441Z" stroke="#000000" stroke-width="2" stroke-miterlimit="8" fill="#9100B8" fill-rule="evenodd"/><text fill="#FFFFFF" font-family="Arial,Arial_MSFontService,sans-serif" font-weight="700" font-size="21" transform="translate(237.231 433)">User</text><path d="M203 65.0002C203 60.5818 206.582 57 211 57L310 57C314.418 57 318 60.5818 318 65.0002L318 96.9998C318 101.418 314.418 105 310 105L211 105C206.582 105 203 101.418 203 96.9998Z" stroke="#000000" stroke-width="2" stroke-miterlimit="8" fill="#9100B8" fill-rule="evenodd"/><text fill="#FFFFFF" font-family="Arial,Arial_MSFontService,sans-serif" font-weight="700" font-size="21" transform="translate(237.231 89)">User</text><path d="M203 123C203 118.582 206.582 115 211 115L310 115C314.418 115 318 118.582 318 123L318 155C318 159.418 314.418 163 310 163L211 163C206.582 163 203 159.418 203 155Z" stroke="#000000" stroke-width="2" stroke-miterlimit="8" fill="#9100B8" fill-rule="evenodd"/><text fill="#FFFFFF" font-family="Arial,Arial_MSFontService,sans-serif" font-weight="700" font-size="21" transform="translate(237.231 148)">User</text><path d="M510 73.0002C510 68.5818 513.582 65 518 65L617 65C621.418 65 625 68.5818 625 73.0002L625 105C625 109.418 621.418 113 617 113L518 113C513.582 113 510 109.418 510 105Z" stroke="#000000" stroke-width="2" stroke-miterlimit="8" fill="#00B0F0" fill-rule="evenodd"/><text fill="#FFFFFF" font-family="Arial,Arial_MSFontService,sans-serif" font-weight="700" font-size="21" transform="translate(544.227 97)">Coll.</text><path d="M599 388.5C599 377.178 608.178 368 619.5 368L703.5 368C714.822 368 724 377.178 724 388.5L724 470.5C724 481.822 714.822 491 703.5 491L619.5 491C608.178 491 599 481.822 599 470.5Z" fill="#FFFFFF" fill-rule="evenodd" fill-opacity="0.8"/><path d="M199 407.5C199 402.253 203.253 398 208.5 398L310.5 398C315.747 398 320 402.253 320 407.5L320 445.5C320 450.747 315.747 455 310.5 455L208.5 455C203.253 455 199 450.747 199 445.5Z" fill="#FFFFFF" fill-rule="evenodd" fill-opacity="0.8"/><path d="M509 64.5002C509 58.7011 513.701 54 519.5 54L617.5 54C623.299 54 628 58.7011 628 64.5002L628 106.5C628 112.299 623.299 117 617.5 117L519.5 117C513.701 117 509 112.299 509 106.5Z" fill="#FFFFFF" fill-rule="evenodd" fill-opacity="0.8"/><path d="M629 107.22C629 98.2619 636.262 91 645.22 91L731.78 91C740.738 91 748 98.2619 748 107.22L748 188.78C748 197.738 740.738 205 731.78 205L645.22 205C636.262 205 629 197.738 629 188.78Z" fill="#FFFFFF" fill-rule="evenodd" fill-opacity="0.8"/><path d="M197 69.2199C197 60.2619 204.262 53 213.22 53L305.78 53C314.738 53 322 60.2619 322 69.2199L322 150.78C322 159.738 314.738 167 305.78 167L213.22 167C204.262 167 197 159.738 197 150.78Z" fill="#FFFFFF" fill-rule="evenodd" fill-opacity="0.8"/><path d="M456 272C456 267.582 459.582 264 464 264L564 264C568.418 264 572 267.582 572 272L572 304C572 308.418 568.418 312 564 312L464 312C459.582 312 456 308.418 456 304Z" stroke="#000000" stroke-width="2" stroke-miterlimit="8" fill="#FB7623" fill-rule="evenodd"/><text fill="#FFFFFF" font-family="Arial,Arial_MSFontService,sans-serif" font-weight="700" font-size="19" transform="translate(484.432 295)">Citrine</text><path d="M457 157C457 152.582 460.582 149 465 149L564 149C568.418 149 572 152.582 572 157L572 189C572 193.418 568.418 197 564 197L465 197C460.582 197 457 193.418 457 189Z" stroke="#000000" stroke-width="2" stroke-miterlimit="8" fill="#FB7623" fill-rule="evenodd"/><text fill="#FFFFFF" font-family="Arial,Arial_MSFontService,sans-serif" font-weight="700" font-size="19" transform="translate(469.599 180)">Olsen Lab</text><path d="M457 272C457 267.582 460.582 264 465 264L564 264C568.418 264 572 267.582 572 272L572 304C572 308.418 568.418 312 564 312L465 312C460.582 312 457 308.418 457 304Z" stroke="#000000" stroke-width="2" stroke-miterlimit="8" fill="#FB7623" fill-rule="evenodd"/><text fill="#FFFFFF" font-family="Arial,Arial_MSFontService,sans-serif" font-weight="700" font-size="19" transform="translate(485.016 295)">Citrine</text><path d="M1.99092-2.01594 26.1917 21.8845 22.2098 25.9163-1.99092 2.01594ZM28.1576 15.8617 34.2804 33.855 16.212 27.9573Z" transform="matrix(1 0 0 -1 572 287.855)"/><path d="M201 272C201 267.582 204.582 264 209 264L308 264C312.418 264 316 267.582 316 272L316 304C316 308.418 312.418 312 308 312L209 312C204.582 312 201 308.418 201 304Z" stroke="#000000" stroke-width="2" stroke-miterlimit="8" fill="#9100B8" fill-rule="evenodd"/><text fill="#FFFFFF" font-family="Arial,Arial_MSFontService,sans-serif" font-weight="700" font-size="21" transform="translate(234.865 296)">User</text><path d="M197 270.5C197 265.253 201.253 261 206.5 261L308.5 261C313.747 261 318 265.253 318 270.5L318 308.5C318 313.747 313.747 318 308.5 318L206.5 318C201.253 318 197 313.747 197 308.5Z" fill="#FFFFFF" fill-rule="evenodd" fill-opacity="0.8"/><path d="M603 325C603 320.582 606.582 317 611 317L710 317C714.418 317 718 320.582 718 325L718 357C718 361.418 714.418 365 710 365L611 365C606.582 365 603 361.418 603 357Z" stroke="#000000" stroke-width="2" stroke-miterlimit="8" fill="#595959" fill-rule="evenodd"/><text fill="#FFFFFF" font-family="Arial,Arial_MSFontService,sans-serif" font-weight="700" font-size="19" transform="translate(616.496 348)">Synthesis</text><path d="M718 338.167 734.722 338.167 734.722 343.833 718 343.833ZM731.889 332.5 748.889 341 731.889 349.5Z" fill="#A6A6A6"/><path d="M749 325C749 320.582 752.582 317 757 317L856 317C860.418 317 864 320.582 864 325L864 357C864 361.418 860.418 365 856 365L757 365C752.582 365 749 361.418 749 357Z" stroke="#000000" stroke-width="2" stroke-miterlimit="8" fill="#00B0F0" fill-rule="evenodd"/><text fill="#FFFFFF" font-family="Arial,Arial_MSFontService,sans-serif" font-weight="700" font-size="21" transform="translate(783.334 350)">Coll.</text><path d="M608.152 252.157 652.951 304.45 648.647 308.137 603.848 255.843ZM655.411 298.612 660.016 317.052 642.501 309.672Z"/><path d="M744 322.5C744 317.253 748.253 313 753.5 313L864.5 313C869.747 313 874 317.253 874 322.5L874 360.5C874 365.747 869.747 370 864.5 370L753.5 370C748.253 370 744 365.747 744 360.5Z" fill="#FFFFFF" fill-rule="evenodd" fill-opacity="0.8"/><path d="M18 503C18 498.582 21.5818 495 26.0002 495L125 495C129.418 495 133 498.582 133 503L133 535C133 539.418 129.418 543 125 543L26.0002 543C21.5818 543 18 539.418 18 535Z" stroke="#000000" stroke-width="2" stroke-miterlimit="8" fill="#0A24CC" fill-rule="evenodd"/><text fill="#FFFFFF" font-family="Arial,Arial_MSFontService,sans-serif" font-weight="700" font-size="21" transform="translate(35.2966 527)">Material</text><path d="M518 503C518 498.582 521.582 495 526 495L625 495C629.418 495 633 498.582 633 503L633 535C633 539.418 629.418 543 625 543L526 543C521.582 543 518 539.418 518 535Z" stroke="#000000" stroke-width="2" stroke-miterlimit="8" fill="#FFC000" fill-rule="evenodd"/><text fill="#FFFFFF" font-family="Arial,Arial_MSFontService,sans-serif" font-weight="700" font-size="21" transform="translate(533.984 527)">Process </text><path d="M268 503C268 498.582 271.582 495 276 495L375 495C379.418 495 383 498.582 383 503L383 535C383 539.418 379.418 543 375 543L276 543C271.582 543 268 539.418 268 535Z" stroke="#000000" stroke-width="2" stroke-miterlimit="8" fill="#9A3333" fill-rule="evenodd"/><text fill="#FFFFFF" font-family="Arial,Arial_MSFontService,sans-serif" font-weight="700" font-size="21" transform="translate(287.64 527)">Sample </text><path d="M643 503C643 498.582 646.582 495 651 495L750 495C754.418 495 758 498.582 758 503L758 535C758 539.418 754.418 543 750 543L651 543C646.582 543 643 539.418 643 535Z" stroke="#000000" stroke-width="2" stroke-miterlimit="8" fill="#067F10" fill-rule="evenodd"/><text fill="#FFFFFF" font-family="Arial,Arial_MSFontService,sans-serif" font-weight="700" font-size="21" transform="translate(677.239 527)">Data </text><path d="M143 503C143 498.582 146.582 495 151 495L250 495C254.418 495 258 498.582 258 503L258 535C258 539.418 254.418 543 250 543L151 543C146.582 543 143 539.418 143 535Z" stroke="#000000" stroke-width="2" stroke-miterlimit="8" fill="#9100B8" fill-rule="evenodd"/><text fill="#FFFFFF" font-family="Arial,Arial_MSFontService,sans-serif" font-weight="700" font-size="21" transform="translate(176.968 527)">User</text><path d="M768 503C768 498.582 771.582 495 776 495L875 495C879.418 495 883 498.582 883 503L883 535C883 539.418 879.418 543 875 543L776 543C771.582 543 768 539.418 768 535Z" stroke="#000000" stroke-width="2" stroke-miterlimit="8" fill="#00B0F0" fill-rule="evenodd"/><text fill="#FFFFFF" font-family="Arial,Arial_MSFontService,sans-serif" font-weight="700" font-size="21" transform="translate(802.077 527)">Coll.</text><path d="M393 503C393 498.582 396.582 495 401 495L500 495C504.418 495 508 498.582 508 503L508 535C508 539.418 504.418 543 500 543L401 543C396.582 543 393 539.418 393 535Z" stroke="#000000" stroke-width="2" stroke-miterlimit="8" fill="#FB7623" fill-rule="evenodd"/><text fill="#FFFFFF" font-family="Arial,Arial_MSFontService,sans-serif" font-weight="700" font-size="21" transform="translate(418.479 527)">Group </text><path d="M893 503C893 498.582 896.582 495 901 495L1000 495C1004.42 495 1008 498.582 1008 503L1008 535C1008 539.418 1004.42 543 1000 543L901 543C896.582 543 893 539.418 893 535Z" stroke="#000000" stroke-width="2" stroke-miterlimit="8" fill="#595959" fill-rule="evenodd"/><text fill="#FFFFFF" font-family="Arial,Arial_MSFontService,sans-serif" font-weight="700" font-size="21" transform="translate(927.082 527)">Pub. </text><path d="M1017 503C1017 498.582 1020.58 495 1025 495L1125 495C1129.42 495 1133 498.582 1133 503L1133 535C1133 539.418 1129.42 543 1125 543L1025 543C1020.58 543 1017 539.418 1017 535Z" stroke="#000000" stroke-width="2" stroke-miterlimit="8" fill="#D9D9D9" fill-rule="evenodd"/><text font-family="Arial,Arial_MSFontService,sans-serif" font-weight="700" font-size="21" transform="translate(1049 527)">Expt. </text><path d="M1142 503C1142 498.582 1145.58 495 1150 495L1250 495C1254.42 495 1258 498.582 1258 503L1258 535C1258 539.418 1254.42 543 1250 543L1150 543C1145.58 543 1142 539.418 1142 535Z" stroke="#7F7F7F" stroke-width="2" stroke-miterlimit="8" fill-rule="evenodd"/><text fill="#FFFFFF" font-family="Arial,Arial_MSFontService,sans-serif" font-weight="700" font-size="21" transform="translate(1177.43 527)">Sim. </text></g></svg>