<svg width="1280" height="576" xmlns="http://www.w3.org/2000/svg" xmlns:xlink="http://www.w3.org/1999/xlink" overflow="hidden"><defs><clipPath id="clip0"><rect x="0" y="0" width="1280" height="576"/></clipPath></defs><g clip-path="url(#clip0)"><rect x="0" y="0" width="1280" height="576" fill="#FFFFFF"/><path d="M443.99 363C417.207 363 395.495 359.381 395.495 354.918L395.495 165.592C395.495 161.128 373.783 157.509 347 157.509 373.783 157.509 395.495 153.891 395.495 149.427L395.495 64.0823C395.495 59.6185 417.207 56 443.99 56" stroke="#000000" stroke-width="4" stroke-miterlimit="8" fill="none" fill-rule="evenodd"/><path d="M458 363C431.214 363 409.5 359.381 409.5 354.917L409.5 217.583C409.5 213.119 387.786 209.5 361 209.5 387.786 209.5 409.5 205.881 409.5 201.417L409.5 64.0829C409.5 59.6188 431.214 56 458 56" stroke="#000000" stroke-width="4" stroke-miterlimit="8" fill="none" fill-rule="evenodd"/><path d="M431 308C431 303.582 434.582 300 439 300L539 300C543.418 300 547 303.582 547 308L547 340C547 344.418 543.418 348 539 348L439 348C434.582 348 431 344.418 431 340Z" stroke="#000000" stroke-width="2" stroke-miterlimit="8" fill="#0A24CC" fill-rule="evenodd"/><text fill="#FFFFFF" font-family="Arial,Arial_MSFontService,sans-serif" font-weight="700" font-size="21" transform="translate(451.151 332)">Hexane</text><path d="M883 137C883 132.582 886.582 129 891 129L990 129C994.418 129 998 132.582 998 137L998 169C998 173.418 994.418 177 990 177L891 177C886.582 177 883 173.418 883 169Z" stroke="#000000" stroke-width="2" stroke-miterlimit="8" fill="#0A24CC" fill-rule="evenodd"/><text fill="#FFFFFF" font-family="Arial,Arial_MSFontService,sans-serif" font-weight="700" font-size="15" transform="translate(922.714 149)">Poly-<tspan font-size="15" x="-22.92" y="18">norbornene </tspan></text><path d="M681 43.0002C681 38.5818 684.582 35 689 35L788 35C792.418 35 796 38.5818 796 43.0002L796 74.9998C796 79.4182 792.418 83 788 83L689 83C684.582 83 681 79.4182 681 74.9998Z" stroke="#000000" stroke-width="2" stroke-miterlimit="8" fill="#067F10" fill-rule="evenodd"/><text fill="#FFFFFF" font-family="Arial,Arial_MSFontService,sans-serif" font-weight="700" font-size="19" transform="translate(702.682 55)">1H NMR <tspan font-size="19" x="11.3334" y="23">Array</tspan></text><path d="M1047 337C1047 332.582 1050.58 329 1055 329L1154 329C1158.42 329 1162 332.582 1162 337L1162 369C1162 373.418 1158.42 377 1154 377L1055 377C1050.58 377 1047 373.418 1047 369Z" stroke="#000000" stroke-width="2" stroke-miterlimit="8" fill="#067F10" fill-rule="evenodd"/><text fill="#FFFFFF" font-family="Arial,Arial_MSFontService,sans-serif" font-weight="700" font-size="21" transform="translate(1082.6 361)">SEC</text><path d="M735.272 129.371 735.199 97.1731 740.865 97.1602 740.939 129.359ZM729.539 100.019 738 83 746.539 99.9807Z"/><path d="M0.0132178-2.8333 72.7367-2.49404 72.7102 3.17257-0.0132178 2.8333ZM69.9298-8.17386 86.89 0.405354 69.8505 8.82595Z" transform="matrix(-1 0 0 1 882.89 153)"/><path d="M681 137C681 132.582 684.582 129 689 129L788 129C792.418 129 796 132.582 796 137L796 169C796 173.418 792.418 177 788 177L689 177C684.582 177 681 173.418 681 169Z" stroke="#000000" stroke-width="2" stroke-miterlimit="8" fill="#FFC000" fill-rule="evenodd"/><text fill="#FFFFFF" font-family="Arial,Arial_MSFontService,sans-serif" font-weight="700" font-size="19" transform="translate(717.287 149)">NMR <tspan font-size="19" x="-14.5" y="23">ROMP 1</tspan></text><path d="M431 82.0001C431 77.5818 434.582 74 439 74L539 74C543.418 74 547 77.5818 547 82.0001L547 114C547 118.418 543.418 122 539 122L439 122C434.582 122 431 118.418 431 114Z" stroke="#000000" stroke-width="2" stroke-miterlimit="8" fill="#0A24CC" fill-rule="evenodd"/><text fill="#FFFFFF" font-family="Arial,Arial_MSFontService,sans-serif" font-weight="700" font-size="16" transform="translate(443.651 95)">Norbornene<tspan font-size="16" x="24.42" y="19">imide</tspan></text><path d="M431 252C431 247.582 434.582 244 439 244L539 244C543.418 244 547 247.582 547 252L547 284C547 288.418 543.418 292 539 292L439 292C434.582 292 431 288.418 431 284Z" stroke="#000000" stroke-width="2" stroke-miterlimit="8" fill="#0A24CC" fill-rule="evenodd"/><text fill="#FFFFFF" font-family="Arial,Arial_MSFontService,sans-serif" font-weight="700" font-size="16" transform="translate(447.985 264)">Ethyl Vinyl <tspan font-size="16" x="20.5866" y="19">Ether</tspan></text><path d="M431 138C431 133.582 434.582 130 439 130L539 130C543.418 130 547 133.582 547 138L547 170C547 174.418 543.418 178 539 178L439 178C434.582 178 431 174.418 431 170Z" stroke="#000000" stroke-width="2" stroke-miterlimit="8" fill="#0A24CC" fill-rule="evenodd"/><text fill="#FFFFFF" font-family="Arial,Arial_MSFontService,sans-serif" font-weight="700" font-size="16" transform="translate(460.485 151)">Grubbs <tspan font-size="16" x="6.75336" y="19">Cat. 3</tspan></text><path d="M431 195C431 190.582 434.582 187 439 187L539 187C543.418 187 547 190.582 547 195L547 227C547 231.418 543.418 235 539 235L439 235C434.582 235 431 231.418 431 227Z" stroke="#000000" stroke-width="2" stroke-miterlimit="8" fill="#0A24CC" fill-rule="evenodd"/><text fill="#FFFFFF" font-family="Arial,Arial_MSFontService,sans-serif" font-weight="700" font-size="16" transform="translate(465.068 217)">CDCl3</text><path d="M681 196C681 191.582 684.582 188 689 188L788 188C792.418 188 796 191.582 796 196L796 228C796 232.418 792.418 236 788 236L689 236C684.582 236 681 232.418 681 228Z" stroke="#000000" stroke-width="2" stroke-miterlimit="8" fill="#FFC000" fill-rule="evenodd"/><text fill="#FFFFFF" font-family="Arial,Arial_MSFontService,sans-serif" font-weight="700" font-size="19" transform="translate(717.287 207)">NMR <tspan font-size="19" x="-14.5" y="23">ROMP 2</tspan></text><path d="M681 311C681 306.582 684.582 303 689 303L788 303C792.418 303 796 306.582 796 311L796 343C796 347.418 792.418 351 788 351L689 351C684.582 351 681 347.418 681 343Z" stroke="#000000" stroke-width="2" stroke-miterlimit="8" fill="#FFC000" fill-rule="evenodd"/><text fill="#FFFFFF" font-family="Arial,Arial_MSFontService,sans-serif" font-weight="700" font-size="19" transform="translate(717.287 322)">NMR <tspan font-size="19" x="-14.5" y="23">ROMP 3</tspan></text><path d="M884 197C884 192.582 887.582 189 892 189L991 189C995.418 189 999 192.582 999 197L999 229C999 233.418 995.418 237 991 237L892 237C887.582 237 884 233.418 884 229Z" stroke="#000000" stroke-width="2" stroke-miterlimit="8" fill="#0A24CC" fill-rule="evenodd"/><text fill="#FFFFFF" font-family="Arial,Arial_MSFontService,sans-serif" font-weight="700" font-size="15" transform="translate(923.886 209)">Poly-<tspan font-size="15" x="-22.92" y="18">norbornene </tspan></text><path d="M865 337C865 332.582 868.582 329 873 329L972 329C976.418 329 980 332.582 980 337L980 369C980 373.418 976.418 377 972 377L873 377C868.582 377 865 373.418 865 369Z" stroke="#000000" stroke-width="2" stroke-miterlimit="8" fill="#0A24CC" fill-rule="evenodd"/><text fill="#FFFFFF" font-family="Arial,Arial_MSFontService,sans-serif" font-weight="700" font-size="15" transform="translate(904.442 350)">Poly-<tspan font-size="15" x="-22.92" y="18">norbornene </tspan></text><path d="M884.02 216.145 810.123 215.044 810.207 209.378 884.104 210.479ZM812.872 220.752 796 212 813.125 203.754Z"/><path d="M863.6 356.081 808.201 334.737 810.238 329.449 865.637 350.793ZM808.807 341.043 796 327 814.919 325.18Z"/><path d="M1059 199C1059 194.582 1062.58 191 1067 191L1166 191C1170.42 191 1174 194.582 1174 199L1174 231C1174 235.418 1170.42 239 1166 239L1067 239C1062.58 239 1059 235.418 1059 231Z" stroke="#000000" stroke-width="2" stroke-miterlimit="8" fill="#067F10" fill-rule="evenodd"/><text fill="#FFFFFF" font-family="Arial,Arial_MSFontService,sans-serif" font-weight="700" font-size="21" transform="translate(1094.96 223)">SEC</text><path d="M1057 137C1057 132.582 1060.58 129 1065 129L1164 129C1168.42 129 1172 132.582 1172 137L1172 169C1172 173.418 1168.42 177 1164 177L1065 177C1060.58 177 1057 173.418 1057 169Z" stroke="#000000" stroke-width="2" stroke-miterlimit="8" fill="#067F10" fill-rule="evenodd"/><text fill="#FFFFFF" font-family="Arial,Arial_MSFontService,sans-serif" font-weight="700" font-size="21" transform="translate(1092.77 161)">SEC</text><path d="M807 263C807 258.582 810.582 255 815 255L914 255C918.418 255 922 258.582 922 263L922 295C922 299.418 918.418 303 914 303L815 303C810.582 303 807 299.418 807 295Z" stroke="#000000" stroke-width="2" stroke-miterlimit="8" fill="#067F10" fill-rule="evenodd"/><text fill="#FFFFFF" font-family="Arial,Arial_MSFontService,sans-serif" font-weight="700" font-size="19" transform="translate(828.87 274)">1H NMR <tspan font-size="19" x="11.3333" y="23">Array</tspan></text><path d="M682 407C682 402.582 685.582 399 690 399L789 399C793.418 399 797 402.582 797 407L797 439C797 443.418 793.418 447 789 447L690 447C685.582 447 682 443.418 682 439Z" stroke="#000000" stroke-width="2" stroke-miterlimit="8" fill="#067F10" fill-rule="evenodd"/><text fill="#FFFFFF" font-family="Arial,Arial_MSFontService,sans-serif" font-weight="700" font-size="19" transform="translate(703.749 418)">1H NMR <tspan font-size="19" x="11.3333" y="23">Array</tspan></text><path d="M681.298 329.411 561.11 327.105 561.218 321.439 681.407 323.745ZM563.834 332.825 547 324 564.16 315.828Z"/><path d="M680.211 329.768 558.823 276.303 561.107 271.117 682.495 324.582ZM559.132 282.631 547 268 565.984 267.073Z"/><path d="M679.118 328.109 553.475 166.915 557.944 163.432 683.588 324.626ZM550.747 172.634 547 154 564.155 162.183Z"/><path d="M679.503 328.917 555.883 222.394 559.582 218.101 683.202 324.625ZM554.33 228.536 547 211 565.427 215.658Z"/><path d="M678.909 328.398 551.726 111.652 556.613 108.785 683.797 325.53ZM548.272 116.964 547 98 562.935 108.36Z"/><path d="M1.81936-2.17203 125.312 101.269 121.673 105.613-1.81936 2.17203ZM126.779 95.1059 134.353 112.538 115.863 108.138Z" transform="matrix(-1 0 0 1 681.353 212)"/><path d="M1.0891-2.61565 122.364 47.8805 120.186 53.1118-1.0891 2.61565ZM121.926 41.5601 134.353 55.9416 115.392 57.254Z" transform="matrix(-1 0 0 1 681.353 212)"/><path d="M681.339 214.488 561.153 213.902 561.18 208.236 681.367 208.822ZM563.958 219.583 547 211 564.041 202.583Z"/><path d="M680.242 213.858 558.922 162.16 561.143 156.947 682.464 208.645ZM559.307 168.484 547 154 565.971 152.845Z"/><path d="M679.521 214.009 555.976 109.32 559.64 104.997 683.185 209.686ZM554.475 115.475 547 98 565.465 102.505Z"/><path d="M680.27 156.183 559.008 106.032 561.174 100.796 682.436 150.946ZM559.461 112.352 547 98 565.958 96.6423Z"/><path d="M0.021759-2.83325 120.208-1.91023 120.165 3.75627-0.021759 2.83325ZM117.419-7.59849 134.353 1.03181 117.288 9.40101Z" transform="matrix(-1 0 0 1 681.353 153)"/><path d="M1.1169-2.6039 122.45 49.4399 120.216 54.6477-1.1169 2.6039ZM122.08 43.1151 134.353 57.6282 115.379 58.7386Z" transform="matrix(-1 0 0 1 681.353 153)"/><path d="M1.83523-2.15863 125.395 102.89 121.725 107.207-1.83523 2.15863ZM126.907 96.7374 134.353 114.225 115.895 109.689Z" transform="matrix(-1 0 0 1 681.353 153)"/><path d="M2.22704-1.75159 127.822 157.935 123.368 161.438-2.22704 1.75159ZM130.524 152.204 134.353 170.821 117.162 162.714Z" transform="matrix(-1 0 0 1 681.353 153)"/><path d="M740.51 233.603 797.005 269.186 793.985 273.98 737.49 238.397ZM797.628 262.881 807.483 279.133 788.568 277.265Z"/><path d="M741.833 350.943 742.51 384.763 736.845 384.876 736.167 351.057ZM748.119 381.816 739.961 398.983 731.123 382.157Z"/><path d="M980 350.167 1032.71 350.167 1032.71 355.833 980 355.833ZM1029.88 344.5 1046.88 353 1029.88 361.5Z"/><path d="M999.086 210.168 1044.72 211.554 1044.55 217.218 998.914 215.832ZM1042.06 205.804 1058.79 214.816 1041.54 222.796Z"/><path d="M998 150.167 1042.61 150.167 1042.61 155.833 998 155.833ZM1039.77 144.5 1056.77 153 1039.77 161.5Z"/><path d="M468.99 363C442.207 363 420.495 359.381 420.495 354.918L420.495 271.97C420.495 267.507 398.783 263.888 372 263.888 398.783 263.888 420.495 260.27 420.495 255.806L420.495 64.0823C420.495 59.6185 442.207 56 468.99 56" stroke="#000000" stroke-width="4" stroke-miterlimit="8" fill="none" fill-rule="evenodd"/><path d="M245 138C245 133.582 248.582 130 253 130L353 130C357.418 130 361 133.582 361 138L361 170C361 174.418 357.418 178 353 178L253 178C248.582 178 245 174.418 245 170Z" stroke="#000000" stroke-width="2" stroke-miterlimit="8" fill="#D9D9D9" fill-rule="evenodd"/><text font-family="Arial,Arial_MSFontService,sans-serif" font-weight="700" font-size="21" transform="translate(262.11 162)">ROMP 1 </text><path d="M245 192C245 187.582 248.582 184 253 184L353 184C357.418 184 361 187.582 361 192L361 224C361 228.418 357.418 232 353 232L253 232C248.582 232 245 228.418 245 224Z" stroke="#000000" stroke-width="2" stroke-miterlimit="8" fill="#D9D9D9" fill-rule="evenodd"/><text font-family="Arial,Arial_MSFontService,sans-serif" font-weight="700" font-size="21" transform="translate(262.11 216)">ROMP 2 </text><path d="M245 248C245 243.582 248.582 240 253 240L353 240C357.418 240 361 243.582 361 248L361 280C361 284.418 357.418 288 353 288L253 288C248.582 288 245 284.418 245 280Z" stroke="#000000" stroke-width="2" stroke-miterlimit="8" fill="#D9D9D9" fill-rule="evenodd"/><text font-family="Arial,Arial_MSFontService,sans-serif" font-weight="700" font-size="21" transform="translate(262.11 273)">ROMP 3 </text><path d="M67 192C67 187.582 70.5818 184 75.0002 184L174 184C178.418 184 182 187.582 182 192L182 224C182 228.418 178.418 232 174 232L75.0002 232C70.5818 232 67 228.418 67 224Z" stroke="#000000" stroke-width="2" stroke-miterlimit="8" fill="#00B0F0" fill-rule="evenodd"/><text fill="#FFFFFF" font-family="Arial,Arial_MSFontService,sans-serif" font-weight="700" font-size="19" transform="translate(93.16 215)">Kinetic</text><path d="M182 205.167 231.5 205.167 231.5 210.833 182 210.833ZM228.667 199.5 245.667 208 228.667 216.5Z"/><path d="M1.8346-2.15917 54.7054 42.7639 51.0362 47.0822-1.8346 2.15917ZM56.2154 36.611 63.6667 54.0961 45.2078 49.566Z" transform="matrix(1 0 0 -1 182 208.096)"/><path d="M183.877 205.878 236.934 252.821 233.179 257.065 180.123 210.122ZM238.567 246.699 245.667 264.33 227.302 259.431Z"/><path d="M18 503C18 498.582 21.5818 495 26.0002 495L125 495C129.418 495 133 498.582 133 503L133 535C133 539.418 129.418 543 125 543L26.0002 543C21.5818 543 18 539.418 18 535Z" stroke="#000000" stroke-width="2" stroke-miterlimit="8" fill="#0A24CC" fill-rule="evenodd"/><text fill="#FFFFFF" font-family="Arial,Arial_MSFontService,sans-serif" font-weight="700" font-size="21" transform="translate(35.2966 527)">Material</text><path d="M518 503C518 498.582 521.582 495 526 495L625 495C629.418 495 633 498.582 633 503L633 535C633 539.418 629.418 543 625 543L526 543C521.582 543 518 539.418 518 535Z" stroke="#000000" stroke-width="2" stroke-miterlimit="8" fill="#FFC000" fill-rule="evenodd"/><text fill="#FFFFFF" font-family="Arial,Arial_MSFontService,sans-serif" font-weight="700" font-size="21" transform="translate(533.984 527)">Process </text><path d="M268 503C268 498.582 271.582 495 276 495L375 495C379.418 495 383 498.582 383 503L383 535C383 539.418 379.418 543 375 543L276 543C271.582 543 268 539.418 268 535Z" stroke="#000000" stroke-width="2" stroke-miterlimit="8" fill="#9A3333" fill-rule="evenodd"/><text fill="#FFFFFF" font-family="Arial,Arial_MSFontService,sans-serif" font-weight="700" font-size="21" transform="translate(287.64 527)">Sample </text><path d="M643 503C643 498.582 646.582 495 651 495L750 495C754.418 495 758 498.582 758 503L758 535C758 539.418 754.418 543 750 543L651 543C646.582 543 643 539.418 643 535Z" stroke="#000000" stroke-width="2" stroke-miterlimit="8" fill="#067F10" fill-rule="evenodd"/><text fill="#FFFFFF" font-family="Arial,Arial_MSFontService,sans-serif" font-weight="700" font-size="21" transform="translate(677.239 527)">Data </text><path d="M143 503C143 498.582 146.582 495 151 495L250 495C254.418 495 258 498.582 258 503L258 535C258 539.418 254.418 543 250 543L151 543C146.582 543 143 539.418 143 535Z" stroke="#000000" stroke-width="2" stroke-miterlimit="8" fill="#9100B8" fill-rule="evenodd"/><text fill="#FFFFFF" font-family="Arial,Arial_MSFontService,sans-serif" font-weight="700" font-size="21" transform="translate(176.968 527)">User</text><path d="M768 503C768 498.582 771.582 495 776 495L875 495C879.418 495 883 498.582 883 503L883 535C883 539.418 879.418 543 875 543L776 543C771.582 543 768 539.418 768 535Z" stroke="#000000" stroke-width="2" stroke-miterlimit="8" fill="#00B0F0" fill-rule="evenodd"/><text fill="#FFFFFF" font-family="Arial,Arial_MSFontService,sans-serif" font-weight="700" font-size="21" transform="translate(802.077 527)">Coll.</text><path d="M393 503C393 498.582 396.582 495 401 495L500 495C504.418 495 508 498.582 508 503L508 535C508 539.418 504.418 543 500 543L401 543C396.582 543 393 539.418 393 535Z" stroke="#000000" stroke-width="2" stroke-miterlimit="8" fill="#FB7623" fill-rule="evenodd"/><text fill="#FFFFFF" font-family="Arial,Arial_MSFontService,sans-serif" font-weight="700" font-size="21" transform="translate(418.479 527)">Group </text><path d="M893 503C893 498.582 896.582 495 901 495L1000 495C1004.42 495 1008 498.582 1008 503L1008 535C1008 539.418 1004.42 543 1000 543L901 543C896.582 543 893 539.418 893 535Z" stroke="#000000" stroke-width="2" stroke-miterlimit="8" fill="#595959" fill-rule="evenodd"/><text fill="#FFFFFF" font-family="Arial,Arial_MSFontService,sans-serif" font-weight="700" font-size="21" transform="translate(927.082 527)">Pub. </text><path d="M1017 503C1017 498.582 1020.58 495 1025 495L1125 495C1129.42 495 1133 498.582 1133 503L1133 535C1133 539.418 1129.42 543 1125 543L1025 543C1020.58 543 1017 539.418 1017 535Z" stroke="#000000" stroke-width="2" stroke-miterlimit="8" fill="#D9D9D9" fill-rule="evenodd"/><text font-family="Arial,Arial_MSFontService,sans-serif" font-weight="700" font-size="21" transform="translate(1049 527)">Expt. </text><path d="M1142 503C1142 498.582 1145.58 495 1150 495L1250 495C1254.42 495 1258 498.582 1258 503L1258 535C1258 539.418 1254.42 543 1250 543L1150 543C1145.58 543 1142 539.418 1142 535Z" stroke="#7F7F7F" stroke-width="2" stroke-miterlimit="8" fill-rule="evenodd"/><text fill="#FFFFFF" font-family="Arial,Arial_MSFontService,sans-serif" font-weight="700" font-size="21" transform="translate(1177.43 527)">Sim. </text></g></svg>