<svg width="1280" height="576" xmlns="http://www.w3.org/2000/svg" xmlns:xlink="http://www.w3.org/1999/xlink" overflow="hidden"><defs><clipPath id="clip0"><rect x="0" y="0" width="1280" height="576"/></clipPath></defs><g clip-path="url(#clip0)"><rect x="0" y="0" width="1280" height="576" fill="#FFFFFF"/><path d="M18 503C18 498.582 21.5818 495 26.0002 495L125 495C129.418 495 133 498.582 133 503L133 535C133 539.418 129.418 543 125 543L26.0002 543C21.5818 543 18 539.418 18 535Z" stroke="#000000" stroke-width="2" stroke-miterlimit="8" fill="#0A24CC" fill-rule="evenodd"/><text fill="#FFFFFF" font-family="Arial,Arial_MSFontService,sans-serif" font-weight="700" font-size="21" transform="translate(35.2966 527)">Material</text><path d="M518 503C518 498.582 521.582 495 526 495L625 495C629.418 495 633 498.582 633 503L633 535C633 539.418 629.418 543 625 543L526 543C521.582 543 518 539.418 518 535Z" stroke="#000000" stroke-width="2" stroke-miterlimit="8" fill="#FFC000" fill-rule="evenodd"/><text fill="#FFFFFF" font-family="Arial,Arial_MSFontService,sans-serif" font-weight="700" font-size="21" transform="translate(533.984 527)">Process </text><path d="M268 503C268 498.582 271.582 495 276 495L375 495C379.418 495 383 498.582 383 503L383 535C383 539.418 379.418 543 375 543L276 543C271.582 543 268 539.418 268 535Z" stroke="#000000" stroke-width="2" stroke-miterlimit="8" fill="#9A3333" fill-rule="evenodd"/><text fill="#FFFFFF" font-family="Arial,Arial_MSFontService,sans-serif" font-weight="700" font-size="21" transform="translate(287.64 527)">Sample </text><path d="M643 503C643 498.582 646.582 495 651 495L750 495C754.418 495 758 498.582 758 503L758 535C758 539.418 754.418 543 750 543L651 543C646.582 543 643 539.418 643 535Z" stroke="#000000" stroke-width="2" stroke-miterlimit="8" fill="#067F10" fill-rule="evenodd"/><text fill="#FFFFFF" font-family="Arial,Arial_MSFontService,sans-serif" font-weight="700" font-size="21" transform="translate(677.239 527)">Data </text><path d="M143 503C143 498.582 146.582 495 151 495L250 495C254.418 495 258 498.582 258 503L258 535C258 539.418 254.418 543 250 543L151 543C146.582 543 143 539.418 143 535Z" stroke="#000000" stroke-width="2" stroke-miterlimit="8" fill="#9100B8" fill-rule="evenodd"/><text fill="#FFFFFF" font-family="Arial,Arial_MSFontService,sans-serif" font-weight="700" font-size="21" transform="translate(176.968 527)">User</text><path d="M768 503C768 498.582 771.582 495 776 495L875 495C879.418 495 883 498.582 883 503L883 535C883 539.418 879.418 543 875 543L776 543C771.582 543 768 539.418 768 535Z" stroke="#000000" stroke-width="2" stroke-miterlimit="8" fill="#00B0F0" fill-rule="evenodd"/><text fill="#FFFFFF" font-family="Arial,Arial_MSFontService,sans-serif" font-weight="700" font-size="21" transform="translate(802.077 527)">Coll.</text><path d="M393 503C393 498.582 396.582 495 401 495L500 495C504.418 495 508 498.582 508 503L508 535C508 539.418 504.418 543 500 543L401 543C396.582 543 393 539.418 393 535Z" stroke="#000000" stroke-width="2" stroke-miterlimit="8" fill="#FB7623" fill-rule="evenodd"/><text fill="#FFFFFF" font-family="Arial,Arial_MSFontService,sans-serif" font-weight="700" font-size="21" transform="translate(418.479 527)">Group </text><path d="M893 503C893 498.582 896.582 495 901 495L1000 495C1004.42 495 1008 498.582 1008 503L1008 535C1008 539.418 1004.42 543 1000 543L901 543C896.582 543 893 539.418 893 535Z" stroke="#000000" stroke-width="2" stroke-miterlimit="8" fill="#595959" fill-rule="evenodd"/><text fill="#FFFFFF" font-family="Arial,Arial_MSFontService,sans-serif" font-weight="700" font-size="21" transform="translate(927.082 527)">Pub. </text><path d="M1017 503C1017 498.582 1020.58 495 1025 495L1125 495C1129.42 495 1133 498.582 1133 503L1133 535C1133 539.418 1129.42 543 1125 543L1025 543C1020.58 543 1017 539.418 1017 535Z" stroke="#000000" stroke-width="2" stroke-miterlimit="8" fill="#D9D9D9" fill-rule="evenodd"/><text font-family="Arial,Arial_MSFontService,sans-serif" font-weight="700" font-size="21" transform="translate(1049 527)">Expt. </text><path d="M1142 503C1142 498.582 1145.58 495 1150 495L1250 495C1254.42 495 1258 498.582 1258 503L1258 535C1258 539.418 1254.42 543 1250 543L1150 543C1145.58 543 1142 539.418 1142 535Z" stroke="#7F7F7F" stroke-width="2" stroke-miterlimit="8" fill-rule="evenodd"/><text fill="#FFFFFF" font-family="Arial,Arial_MSFontService,sans-serif" font-weight="700" font-size="21" transform="translate(1177.43 527)">Sim. </text><path d="M110 58.0437C110 49.183 117.183 42 126.044 42L1153.96 42C1162.82 42 1170 49.183 1170 58.0437L1170 379.956C1170 388.817 1162.82 396 1153.96 396L126.044 396C117.183 396 110 388.817 110 379.956Z" stroke="#000000" stroke-width="2" stroke-miterlimit="8" fill="#D9D9D9" fill-rule="evenodd"/><text font-family="Arial,Arial_MSFontService,sans-serif" font-weight="700" font-size="37" transform="translate(123.904 87)">Experiment </text><path d="M123.904 91.1042 327.904 91.1042 327.904 95.1042 123.904 95.1042Z" fill-rule="evenodd"/><path d="M120 129C120 124.582 123.582 121 128 121L227 121C231.418 121 235 124.582 235 129L235 161C235 165.418 231.418 169 227 169L128 169C123.582 169 120 165.418 120 161Z" stroke="#000000" stroke-width="2" stroke-miterlimit="8" fill="#0A24CC" fill-rule="evenodd"/><text fill="#FFFFFF" font-family="Arial,Arial_MSFontService,sans-serif" font-weight="700" font-size="21" transform="translate(137.44 153)">Material</text><path d="M689 220C689 215.582 692.582 212 697 212L796 212C800.418 212 804 215.582 804 220L804 252C804 256.418 800.418 260 796 260L697 260C692.582 260 689 256.418 689 252Z" stroke="#000000" stroke-width="2" stroke-miterlimit="8" fill="#FFC000" fill-rule="evenodd"/><text fill="#FFFFFF" font-family="Arial,Arial_MSFontService,sans-serif" font-weight="700" font-size="21" transform="translate(705.282 244)">Process </text><path d="M810 329.167C810 324.656 813.656 321 818.167 321L916.833 321C921.344 321 925 324.656 925 329.167L925 361.833C925 366.344 921.344 370 916.833 370L818.167 370C813.656 370 810 366.344 810 361.833Z" stroke="#000000" stroke-width="2" stroke-miterlimit="8" fill="#067F10" fill-rule="evenodd"/><text fill="#FFFFFF" font-family="Arial,Arial_MSFontService,sans-serif" font-weight="700" font-size="21" transform="translate(844.499 354)">Data </text><path d="M867 103C867 98.5818 870.582 95 875 95L975 95C979.418 95 983 98.5818 983 103L983 135C983 139.418 979.418 143 975 143L875 143C870.582 143 867 139.418 867 135Z" stroke="#000000" stroke-width="2" stroke-miterlimit="8" fill="#9A3333" fill-rule="evenodd"/><text fill="#FFFFFF" font-family="Arial,Arial_MSFontService,sans-serif" font-weight="700" font-size="21" transform="translate(887.124 127)">Sample </text><path d="M681 433C681 428.582 684.582 425 689 425L817 425C821.418 425 825 428.582 825 433L825 465C825 469.418 821.418 473 817 473L689 473C684.582 473 681 469.418 681 465Z" stroke="#AC1819" stroke-width="2" stroke-miterlimit="8" fill="#F09191" fill-rule="evenodd"/><text font-family="Arial,Arial_MSFontService,sans-serif" font-weight="700" font-size="21" transform="translate(702.735 457)">Data Lake </text><path d="M532 433C532 428.582 535.582 425 540 425L668 425C672.418 425 676 428.582 676 433L676 465C676 469.418 672.418 473 668 473L540 473C535.582 473 532 469.418 532 465Z" stroke="#0A24CC" stroke-width="2" stroke-miterlimit="8" fill="#8E9DF9" fill-rule="evenodd"/><text font-family="Arial,Arial_MSFontService,sans-serif" font-weight="700" font-size="21" transform="translate(545.852 457)">Model Lake </text><path d="M245.932 154.445 307.674 233.858 303.2 237.337 241.459 157.923ZM238.724 163.638 235 145 252.145 153.204Z"/><path d="M462 220C462 215.582 465.582 212 470 212L569 212C573.418 212 577 215.582 577 220L577 252C577 256.418 573.418 260 569 260L470 260C465.582 260 462 256.418 462 252Z" stroke="#000000" stroke-width="2" stroke-miterlimit="8" fill="#0A24CC" fill-rule="evenodd"/><text fill="#FFFFFF" font-family="Arial,Arial_MSFontService,sans-serif" font-weight="700" font-size="21" transform="translate(479.461 244)">Material</text><path d="M120 191C120 186.582 123.582 183 128 183L227 183C231.418 183 235 186.582 235 191L235 223C235 227.418 231.418 231 227 231L128 231C123.582 231 120 227.418 120 223Z" stroke="#000000" stroke-width="2" stroke-miterlimit="8" fill="#0A24CC" fill-rule="evenodd"/><text fill="#FFFFFF" font-family="Arial,Arial_MSFontService,sans-serif" font-weight="700" font-size="21" transform="translate(137.44 215)">Material</text><path d="M120 252C120 247.582 123.582 244 128 244L227 244C231.418 244 235 247.582 235 252L235 284C235 288.418 231.418 292 227 292L128 292C123.582 292 120 288.418 120 284Z" stroke="#000000" stroke-width="2" stroke-miterlimit="8" fill="#0A24CC" fill-rule="evenodd"/><text fill="#FFFFFF" font-family="Arial,Arial_MSFontService,sans-serif" font-weight="700" font-size="21" transform="translate(137.44 277)">Material</text><path d="M120 314C120 309.582 123.582 306 128 306L227 306C231.418 306 235 309.582 235 314L235 346C235 350.418 231.418 354 227 354L128 354C123.582 354 120 350.418 120 346Z" stroke="#000000" stroke-width="2" stroke-miterlimit="8" fill="#0A24CC" fill-rule="evenodd"/><text fill="#FFFFFF" font-family="Arial,Arial_MSFontService,sans-serif" font-weight="700" font-size="21" transform="translate(137.44 338)">Material</text><path d="M306 220C306 215.582 309.582 212 314 212L413 212C417.418 212 421 215.582 421 220L421 252C421 256.418 417.418 260 413 260L314 260C309.582 260 306 256.418 306 252Z" stroke="#000000" stroke-width="2" stroke-miterlimit="8" fill="#FFC000" fill-rule="evenodd"/><text fill="#FFFFFF" font-family="Arial,Arial_MSFontService,sans-serif" font-weight="700" font-size="21" transform="translate(322.077 244)">Process </text><path d="M462 163C462 158.582 465.582 155 470 155L569 155C573.418 155 577 158.582 577 163L577 195C577 199.418 573.418 203 569 203L470 203C465.582 203 462 199.418 462 195Z" stroke="#000000" stroke-width="2" stroke-miterlimit="8" fill="#0A24CC" fill-rule="evenodd"/><text fill="#FFFFFF" font-family="Arial,Arial_MSFontService,sans-serif" font-weight="700" font-size="21" transform="translate(479.461 187)">Material</text><path d="M407 310C407 305.582 410.582 302 415 302L515 302C519.418 302 523 305.582 523 310L523 342C523 346.418 519.418 350 515 350L415 350C410.582 350 407 346.418 407 342Z" stroke="#000000" stroke-width="2" stroke-miterlimit="8" fill="#067F10" fill-rule="evenodd"/><text fill="#FFFFFF" font-family="Arial,Arial_MSFontService,sans-serif" font-weight="700" font-size="21" transform="translate(441.825 335)">Data </text><path d="M537 309C537 304.582 540.582 301 545 301L644 301C648.418 301 652 304.582 652 309L652 341C652 345.418 648.418 349 644 349L545 349C540.582 349 537 345.418 537 341Z" stroke="#000000" stroke-width="2" stroke-miterlimit="8" fill="#067F10" fill-rule="evenodd"/><text fill="#FFFFFF" font-family="Arial,Arial_MSFontService,sans-serif" font-weight="700" font-size="21" transform="translate(571.044 333)">Data </text><path d="M867 190C867 185.582 870.582 182 875 182L975 182C979.418 182 983 185.582 983 190L983 222C983 226.418 979.418 230 975 230L875 230C870.582 230 867 226.418 867 222Z" stroke="#000000" stroke-width="2" stroke-miterlimit="8" fill="#0A24CC" fill-rule="evenodd"/><text fill="#FFFFFF" font-family="Arial,Arial_MSFontService,sans-serif" font-weight="700" font-size="21" transform="translate(884.624 214)">Material</text><path d="M1024 103C1024 98.5818 1027.58 95 1032 95L1132 95C1136.42 95 1140 98.5818 1140 103L1140 135C1140 139.418 1136.42 143 1132 143L1032 143C1027.58 143 1024 139.418 1024 135Z" stroke="#000000" stroke-width="2" stroke-miterlimit="8" fill="#067F10" fill-rule="evenodd"/><text fill="#FFFFFF" font-family="Arial,Arial_MSFontService,sans-serif" font-weight="700" font-size="21" transform="translate(1058.93 127)">Data </text><path d="M462 108C462 103.582 465.582 100 470 100L569 100C573.418 100 577 103.582 577 108L577 140C577 144.418 573.418 148 569 148L470 148C465.582 148 462 144.418 462 140Z" stroke="#000000" stroke-width="2" stroke-miterlimit="8" fill="#0A24CC" fill-rule="evenodd"/><text fill="#FFFFFF" font-family="Arial,Arial_MSFontService,sans-serif" font-weight="700" font-size="21" transform="translate(479.461 132)">Material</text><path d="M867 245C867 240.582 870.582 237 875 237L975 237C979.418 237 983 240.582 983 245L983 277C983 281.418 979.418 285 975 285L875 285C870.582 285 867 281.418 867 277Z" stroke="#000000" stroke-width="2" stroke-miterlimit="8" fill="#0A24CC" fill-rule="evenodd"/><text fill="#FFFFFF" font-family="Arial,Arial_MSFontService,sans-serif" font-weight="700" font-size="21" transform="translate(884.624 269)">Material</text><path d="M937 329.167C937 324.656 940.656 321 945.167 321L1044.83 321C1049.34 321 1053 324.656 1053 329.167L1053 361.833C1053 366.344 1049.34 370 1044.83 370L945.167 370C940.656 370 937 366.344 937 361.833Z" stroke="#000000" stroke-width="2" stroke-miterlimit="8" fill="#067F10" fill-rule="evenodd"/><text fill="#FFFFFF" font-family="Arial,Arial_MSFontService,sans-serif" font-weight="700" font-size="21" transform="translate(972.01 354)">Data </text><path d="M249.181 209.763 306.514 233.316 304.36 238.558 247.027 215.004ZM247.495 221.322 235 207 253.955 205.598Z"/><path d="M10.7436 9.65897 72.7078 92.6897 68.1663 96.0788 6.20222 13.0481ZM3.35539 18.7081 0 0 16.9797 8.54052Z" transform="matrix(1 0 0 -1 235 330.384)"/><path d="M14.0416 3.39929 71.6308 30.1541 69.2433 35.2932 11.6541 8.53843ZM11.8361 14.8713 0 0 18.9987-0.54608Z" transform="matrix(1 0 0 -1 235 268.724)"/><path d="M435.167 233.167 462.184 233.167 462.184 238.833 435.167 238.833ZM438 244.5 421 236 438 227.5Z"/><path d="M591.167 233.167 688.621 233.167 688.621 238.833 591.167 238.833ZM594 244.5 577 236 594 227.5Z"/><path d="M590.915 182.884 689.903 233.117 687.339 238.17 588.351 187.937ZM588.313 194.273 577 179 596.006 179.113Z"/><path d="M589.015 132.023 690.626 233.782 686.616 237.786 585.005 136.027ZM582.997 142.036 577 124 595.027 130.024Z"/><path d="M818.201 238.657 868.199 258.765 866.085 264.023 816.086 243.915ZM816.601 250.229 804 236 822.944 234.457Z"/><path d="M14.0246 3.46894 64.3487 27.1529 61.9356 32.2801 11.6115 8.59616ZM11.7621 14.9299 0 0 19.0012-0.451774Z" transform="matrix(1 0 0 -1 804 235.717)"/><path d="M12.937 6.4308 56.704 40.3081 53.2355 44.7892 9.46849 10.9119ZM8.2405 17.1273 0 0 18.6461 3.68397Z" transform="matrix(1 0 0 -1 465 302.549)"/><path d="M580.5 297.04 518.618 262.474 521.382 257.526 583.263 292.093ZM583.553 285.764 594.249 301.475 575.263 300.605Z"/><path d="M981.15 316.912 923.709 287.522 926.291 282.478 983.731 311.867ZM983.79 305.532 995.052 320.843 976.047 320.666Z"/><path d="M13.5194 5.09398 58.9582 33.4387 55.959 38.2466 10.5202 9.9019ZM9.92499 16.2094 0 0 18.9225 1.78565Z" transform="matrix(1 0 0 -1 868 320.843)"/><path d="M927.833 157.167 927.833 182.413 922.167 182.413 922.167 157.167ZM916.5 160 925 143 933.5 160Z"/><path d="M14.1667-2.8333 41.7757-2.83323 41.7756 2.83344 14.1667 2.83337ZM17 8.50004 0 0 17-8.49996Z" transform="matrix(-1 0 0 1 1024.78 119)"/><path d="M598.022 423.067 588.622 418.027 589.882 415.677 599.282 420.717ZM581.571 414.247 572.171 409.206 573.431 406.856 582.831 411.897ZM565.12 405.426 555.719 400.386 556.979 398.036 566.38 403.076ZM548.669 396.605 539.268 391.565 540.528 389.215 549.929 394.255ZM532.218 387.785 522.817 382.745 524.077 380.394 533.478 385.435ZM515.767 378.964 506.366 373.924 507.626 371.574 517.027 376.614ZM499.315 370.144 489.915 365.103 491.175 362.753 500.575 367.793ZM482.864 361.323 473.464 356.283 474.724 353.933 484.124 358.973ZM466.413 352.502 464.87 351.675 466.13 349.325 467.673 350.152ZM599.367 417.737 604.528 425.043 595.587 424.788Z" fill="#0A24CC"/><path d="M602.129 418.677 600.757 408.099 603.401 407.755 604.773 418.334ZM599.728 400.165 598.355 389.587 601 389.244 602.372 399.822ZM597.326 381.653 595.954 371.075 598.599 370.732 599.971 381.31ZM594.925 363.142 593.553 352.564 596.197 352.221 597.57 362.799ZM607.246 416.668 604.309 425.116 599.313 417.697Z" fill="#0A24CC"/><path d="M6.79901 0.0605317 17.2395 2.24529 16.6934 4.85542 6.25282 2.67066ZM25.0699 3.88385 35.5105 6.06861 34.9643 8.67874 24.5237 6.49398ZM43.3409 7.70717 53.7814 9.89193 53.2352 12.5021 42.7947 10.3173ZM61.6118 11.5305 72.0523 13.7153 71.5061 16.3254 61.0656 14.1406ZM79.8827 15.3538 90.3232 17.5386 89.777 20.1487 79.3365 17.9639ZM98.1536 19.1771 108.594 21.3619 108.048 23.972 97.6074 21.7873ZM116.425 23.0005 126.865 25.1852 126.319 27.7953 115.878 25.6106ZM134.695 26.8238 145.136 29.0085 144.59 31.6187 134.149 29.4339ZM152.966 30.6471 163.407 32.8319 162.861 35.442 152.42 33.2572ZM171.237 34.4704 181.678 36.6552 181.132 39.2653 170.691 37.0806ZM189.508 38.2937 199.949 40.4785 199.403 43.0886 188.962 40.9039ZM207.779 42.1171 218.22 44.3018 217.673 46.9119 207.233 44.7272ZM226.05 45.9404 236.491 48.1251 235.944 50.7353 225.504 48.5505ZM244.321 49.7637 254.762 51.9485 254.215 54.5586 243.775 52.3738ZM262.592 53.587 263.919 53.8648 263.373 56.4749 262.046 56.1972ZM7.01111 5.55377 0 0 8.64968-2.27663Z" fill="#0A24CC" transform="matrix(1 0 0 -1 604.5 425.67)"/><path d="M746.872 424.664 736.546 421.992 737.213 419.411 747.54 422.082ZM728.8 419.989 718.474 417.318 719.142 414.736 729.468 417.407ZM710.729 415.314 700.402 412.643 701.07 410.061 711.397 412.732ZM692.657 410.639 682.33 407.968 682.998 405.386 693.325 408.057ZM674.585 405.964 664.258 403.293 664.926 400.711 675.253 403.383ZM656.513 401.289 646.187 398.618 646.854 396.036 657.181 398.708ZM638.442 396.614 628.115 393.943 628.783 391.361 639.109 394.033ZM620.37 391.94 610.043 389.268 610.711 386.687 621.038 389.358ZM602.298 387.265 591.971 384.593 592.639 382.012 602.966 384.683ZM584.226 382.59 573.899 379.918 574.567 377.337 584.894 380.008ZM566.154 377.915 555.828 375.244 556.495 372.662 566.822 375.333ZM548.083 373.24 537.756 370.569 538.424 367.987 548.75 370.658ZM530.011 368.565 519.684 365.894 520.352 363.312 530.679 365.983ZM511.939 363.89 501.612 361.219 502.28 358.637 512.607 361.309ZM493.867 359.215 483.54 356.544 484.208 353.962 494.535 356.634ZM475.795 354.54 465.469 351.869 466.136 349.287 476.463 351.959ZM746.917 419.166 753.66 425.043 744.914 426.912Z" fill="#AC1819"/><path d="M6.58479 1.69238 16.1944 6.32204 15.037 8.72443 5.42737 4.09478ZM23.4016 9.79428 33.0111 14.4239 31.8537 16.8263 22.2441 12.1967ZM40.2183 17.8962 49.8279 22.5258 48.6705 24.9282 39.0609 20.2986ZM57.0351 25.9981 66.6447 30.6277 65.4873 33.0301 55.8777 28.4005ZM73.8518 34.1 83.4614 38.7296 82.304 41.132 72.6944 36.5024ZM90.6686 42.2019 100.278 46.8316 99.1208 49.2339 89.5112 44.6043ZM107.485 50.3038 115.092 53.9687 113.935 56.3711 106.328 52.7062ZM5.47107 7.07583 0 0 8.94331-0.131353Z" fill="#AC1819" transform="matrix(1 0 0 -1 753.5 425.67)"/><path d="M746.848 423.456 737.216 418.874 738.362 416.466 747.994 421.048ZM729.992 415.437 720.36 410.854 721.505 408.446 731.138 413.029ZM713.136 407.417 703.503 402.835 704.649 400.427 714.281 405.009ZM696.279 399.398 686.647 394.816 687.793 392.408 697.425 396.99ZM679.423 391.379 669.791 386.796 670.937 384.388 680.569 388.971ZM662.567 383.359 652.935 378.777 654.08 376.369 663.712 380.951ZM645.711 375.34 636.078 370.757 637.224 368.349 646.856 372.932ZM628.854 367.321 619.222 362.738 620.368 360.33 630 364.913ZM611.998 359.301 602.366 354.719 603.511 352.311 613.144 356.893ZM595.142 351.282 593.927 350.704 595.073 348.296 596.287 348.874ZM747.936 418.067 753.441 425.116 744.499 425.292Z" fill="#AC1819"/><path d="M6.79629 0.181688 17.1962 2.55236 16.6035 5.15233 6.20362 2.78166ZM24.9961 4.33036 35.396 6.70103 34.8033 9.301 24.4034 6.93033ZM43.1959 8.47903 53.5958 10.8497 53.0031 13.4497 42.6032 11.079ZM61.3957 12.6277 71.7956 14.9984 71.2029 17.5983 60.803 15.2277ZM79.5955 16.7764 89.9954 19.147 89.4027 21.747 79.0028 19.3763ZM97.7953 20.925 108.195 23.2957 107.603 25.8957 97.2027 23.525ZM115.995 25.0737 126.395 27.4444 125.802 30.0444 115.402 27.6737ZM134.195 29.2224 144.595 31.5931 144.002 34.193 133.602 31.8224ZM152.395 33.3711 162.795 35.7417 162.202 38.3417 151.802 35.971ZM170.595 37.5197 180.994 39.8904 180.402 42.4904 170.002 40.1197ZM188.794 41.6684 199.194 44.0391 198.602 46.639 188.202 44.2684ZM206.994 45.8171 217.394 48.1877 216.801 50.7877 206.402 48.417ZM225.194 49.9657 235.594 52.3364 235.001 54.9364 224.601 52.5657ZM6.91092 5.67796 0 0 8.68892-2.12196Z" fill="#AC1819" transform="matrix(1 0 0 -1 753.5 425.67)"/><path d="M689 303.167C689 298.656 692.656 295 697.167 295L795.833 295C800.344 295 804 298.656 804 303.167L804 335.833C804 340.344 800.344 344 795.833 344L697.167 344C692.656 344 689 340.344 689 335.833Z" stroke="#000000" stroke-width="2" stroke-miterlimit="8" fill="#067F10" fill-rule="evenodd"/><text fill="#FFFFFF" font-family="Arial,Arial_MSFontService,sans-serif" font-weight="700" font-size="21" transform="translate(723.615 327)">Data </text><path d="M2.83338 14.1667 2.83344 35.1845-2.83323 35.1845-2.83329 14.1667ZM-8.49995 17 0 0 8.50005 17Z" transform="matrix(1 0 0 -1 747 295.184)"/><path d="M752.019 419.18 751.185 408.546 753.844 408.338 754.678 418.972ZM750.56 400.571 749.726 389.937 752.385 389.728 753.219 400.362ZM749.101 381.961 748.267 371.327 750.925 371.119 751.759 381.753ZM747.641 363.352 746.807 352.718 749.466 352.509 750.3 363.143ZM746.182 344.742 746.171 344.604 748.829 344.396 748.84 344.534ZM757.232 417.434 753.87 425.722 749.257 418.059Z" fill="#AC1819"/><path d="M6.45412 2.13793 15.7253 7.41261 14.4067 9.73042 5.13545 4.45574ZM22.6787 11.3686 31.95 16.6433 30.6313 18.9611 21.3601 13.6864ZM38.9034 20.5993 48.1746 25.874 46.8559 28.1918 37.5847 22.9171ZM55.128 29.83 64.3992 35.1047 63.0806 37.4225 53.8093 32.1478ZM71.3526 39.0607 80.6239 44.3354 79.3052 46.6532 70.034 41.3785ZM87.5773 48.2914 96.8485 53.5661 95.5298 55.8839 86.2586 50.6092ZM103.802 57.5221 113.073 62.7968 111.754 65.1146 102.483 59.8399ZM120.027 66.7528 129.298 72.0275 127.979 74.3453 118.708 69.0706ZM136.251 75.9835 143.422 80.0632 142.103 82.3811 134.932 78.3013ZM4.97541 7.43272 0 0 8.93142 0.479308Z" fill="#0A24CC" transform="matrix(1 0 0 -1 604.5 425.722)"/><text font-family="Arial,Arial_MSFontService,sans-serif" font-weight="700" font-size="24" transform="translate(602.882 33)">1 User</text><path d="M867.594 206.764 859.77 199.513 861.583 197.557 869.406 204.808ZM853.903 194.075 846.784 187.478 847.69 187.833 846.729 187.833 846.729 185.167 848.213 185.167 855.715 192.119ZM838.729 187.833 828.063 187.833 828.063 185.167 838.729 185.167ZM820.063 187.833 809.396 187.833 809.396 185.167 820.063 185.167ZM801.396 187.833 790.729 187.833 790.729 185.167 801.396 185.167ZM782.729 187.833 772.063 187.833 772.063 185.167 782.729 185.167ZM764.063 187.833 753.396 187.833 753.396 185.167 764.063 185.167ZM745.396 187.833 734.729 187.833 734.729 185.167 745.396 185.167ZM726.729 187.833 716.063 187.833 716.063 185.167 726.729 185.167ZM708.063 187.833 697.396 187.833 697.396 185.167 708.063 185.167ZM689.396 187.833 678.729 187.833 678.729 185.167 689.396 185.167ZM670.729 187.833 660.063 187.833 660.063 185.167 670.729 185.167ZM652.063 187.833 641.396 187.833 641.396 185.167 652.063 185.167ZM633.396 187.833 630.056 187.833 630.962 187.478 625.589 192.458 623.776 190.502 629.533 185.167 633.396 185.167ZM619.721 197.896 611.897 205.147 610.085 203.191 617.908 195.94ZM606.03 210.585 598.206 217.835 596.394 215.879 604.217 208.629ZM592.339 223.273 587.296 227.946 585.483 225.991 590.526 221.317ZM590.087 228.996 581.5 231.5 584.649 223.128Z" fill="#0A24CC"/><path d="M295.349 13.1638 286.039 7.95823 287.34 5.63068 296.651 10.8362ZM279.056 4.05408 273.887 1.16378 274.538 1.33333 269.794 1.33333 269.794-1.33333 274.885-1.33333 280.358 1.72652ZM261.794 1.33333 251.127 1.33333 251.127-1.33333 261.794-1.33333ZM243.127 1.33333 232.46 1.33333 232.46-1.33333 243.127-1.33333ZM224.46 1.33333 213.794 1.33333 213.794-1.33333 224.46-1.33333ZM205.794 1.33333 195.127 1.33333 195.127-1.33333 205.794-1.33333ZM187.127 1.33333 176.46 1.33333 176.46-1.33333 187.127-1.33333ZM168.46 1.33333 157.794 1.33333 157.794-1.33333 168.46-1.33333ZM149.794 1.33333 139.127 1.33333 139.127-1.33333 149.794-1.33333ZM131.127 1.33333 120.46 1.33333 120.46-1.33333 131.127-1.33333ZM112.46 1.33333 101.794 1.33333 101.794-1.33333 112.46-1.33333ZM93.7936 1.33333 83.1269 1.33333 83.1269-1.33333 93.7936-1.33333ZM75.1269 1.33333 64.4603 1.33333 64.4603-1.33333 75.1269-1.33333ZM56.4603 1.33333 50.0785 1.33333 50.7292 1.16378 46.9892 3.25491 45.6878 0.927361 49.7311-1.33333 56.4603-1.33333ZM40.0065 7.15907 30.6963 12.3646 29.3949 10.0371 38.7052 4.83152ZM23.7137 16.2688 14.4034 21.4743 13.1021 19.1468 22.4123 13.9412ZM7.42079 25.3785 6.46957 25.9103 5.16818 23.5828 6.1194 23.0509ZM8.93474 27.5872 0 28 5.03058 20.6045Z" fill="#0A24CC" transform="matrix(1 0 0 -1 580.5 269.5)"/></g></svg>